%TF.GenerationSoftware,KiCad,Pcbnew,(5.0.2)-1*%
%TF.CreationDate,2019-02-27T18:32:07-08:00*%
%TF.ProjectId,kicad_port,6b696361-645f-4706-9f72-742e6b696361,rev?*%
%TF.SameCoordinates,Original*%
%TF.FileFunction,Copper,L1,Top*%
%TF.FilePolarity,Positive*%
%FSLAX46Y46*%
G04 Gerber Fmt 4.6, Leading zero omitted, Abs format (unit mm)*
G04 Created by KiCad (PCBNEW (5.0.2)-1) date 2/27/2019 6:32:07 PM*
%MOMM*%
%LPD*%
G01*
G04 APERTURE LIST*
%ADD10C,0.200000*%
%ADD11O,2.000000X1.200000*%
%ADD12C,1.600000*%
%ADD13R,1.600000X1.600000*%
%ADD14C,1.800000*%
%ADD15R,1.800000X1.800000*%
%ADD16O,1.400000X1.400000*%
%ADD17C,1.400000*%
%ADD18O,1.700000X1.700000*%
%ADD19R,1.700000X1.700000*%
%ADD20C,0.250000*%
G04 APERTURE END LIST*
D10*
X100000000Y-50000000D02*
X100000000Y-136000000D01*
X200000000Y-50000000D02*
X100000000Y-50000000D01*
X200000000Y-136000000D02*
X200000000Y-50000000D01*
X100000000Y-136000000D02*
X200000000Y-136000000D01*
D11*
X101800000Y-103000000D03*
X106800000Y-104250000D03*
X101800000Y-105500000D03*
X106800000Y-106750000D03*
X101800000Y-108000000D03*
X106800000Y-109250000D03*
X101800000Y-110500000D03*
X106800000Y-111750000D03*
X101800000Y-113000000D03*
X106800000Y-114250000D03*
X101800000Y-115500000D03*
X106800000Y-116750000D03*
X101800000Y-118000000D03*
X198300000Y-118000000D03*
X193300000Y-116750000D03*
X198300000Y-115500000D03*
X193300000Y-114250000D03*
X198300000Y-113000000D03*
X193300000Y-111750000D03*
X198300000Y-110500000D03*
X193300000Y-109250000D03*
X198300000Y-108000000D03*
X193300000Y-106750000D03*
X198300000Y-105500000D03*
X193300000Y-104250000D03*
X198300000Y-103000000D03*
X192900000Y-70000000D03*
X190900000Y-68750000D03*
X192900000Y-67500000D03*
X190900000Y-66250000D03*
X192900000Y-65000000D03*
X190900000Y-63750000D03*
X192900000Y-62500000D03*
X190900000Y-61250000D03*
X192900000Y-60000000D03*
X190900000Y-58750000D03*
X192900000Y-57500000D03*
X190900000Y-56250000D03*
X192900000Y-55000000D03*
X107000000Y-55000000D03*
X109000000Y-56250000D03*
X107000000Y-57500000D03*
X109000000Y-58750000D03*
X107000000Y-60000000D03*
X109000000Y-61250000D03*
X107000000Y-62500000D03*
X109000000Y-63750000D03*
X107000000Y-65000000D03*
X109000000Y-66250000D03*
X107000000Y-67500000D03*
X109000000Y-68750000D03*
X107000000Y-70000000D03*
D12*
X125870000Y-98020000D03*
X128410000Y-98020000D03*
X130950000Y-98020000D03*
X133490000Y-98020000D03*
X136030000Y-98020000D03*
X138570000Y-98020000D03*
X141110000Y-98020000D03*
X143650000Y-98020000D03*
X146190000Y-98020000D03*
X148730000Y-98020000D03*
X151270000Y-98020000D03*
X153810000Y-98020000D03*
X156350000Y-98020000D03*
X158890000Y-98020000D03*
X161430000Y-98020000D03*
X163970000Y-98020000D03*
X166510000Y-98020000D03*
X169050000Y-98020000D03*
X171590000Y-98020000D03*
X174130000Y-98020000D03*
X174130000Y-82780000D03*
X171590000Y-82780000D03*
X169050000Y-82780000D03*
X166510000Y-82780000D03*
X163970000Y-82780000D03*
X161430000Y-82780000D03*
X158890000Y-82780000D03*
X156350000Y-82780000D03*
X153810000Y-82780000D03*
D13*
X125870000Y-82780000D03*
D12*
X128410000Y-82780000D03*
X130950000Y-82780000D03*
X133490000Y-82780000D03*
X136030000Y-82780000D03*
X138570000Y-82780000D03*
X141110000Y-82780000D03*
X143650000Y-82780000D03*
X151270000Y-82780000D03*
X148730000Y-82780000D03*
X146190000Y-82780000D03*
D14*
X136240000Y-132400000D03*
D15*
X133700000Y-132400000D03*
D14*
X146240000Y-132400000D03*
D15*
X143700000Y-132400000D03*
D14*
X156240000Y-132400000D03*
D15*
X153700000Y-132400000D03*
D14*
X166240000Y-132400000D03*
D15*
X163700000Y-132400000D03*
D16*
X137580000Y-128400000D03*
D17*
X132500000Y-128400000D03*
D16*
X147580000Y-128400000D03*
D17*
X142500000Y-128400000D03*
D16*
X157480000Y-128400000D03*
D17*
X152400000Y-128400000D03*
D16*
X167380000Y-128500000D03*
D17*
X162300000Y-128500000D03*
D18*
X196660000Y-129000000D03*
X194120000Y-129000000D03*
X191580000Y-129000000D03*
X189040000Y-129000000D03*
X186500000Y-129000000D03*
X183960000Y-129000000D03*
X181420000Y-129000000D03*
X178880000Y-129000000D03*
X176340000Y-129000000D03*
D19*
X173800000Y-129000000D03*
X126200000Y-129000000D03*
D18*
X123660000Y-129000000D03*
X121120000Y-129000000D03*
X118580000Y-129000000D03*
X116040000Y-129000000D03*
X113500000Y-129000000D03*
X110960000Y-129000000D03*
X108420000Y-129000000D03*
X105880000Y-129000000D03*
X103340000Y-129000000D03*
D20*
X146240000Y-132400000D02*
X145014600Y-131174600D01*
X145014600Y-131174600D02*
X137465400Y-131174600D01*
X137465400Y-131174600D02*
X136240000Y-132400000D01*
X156240000Y-132400000D02*
X155014600Y-131174600D01*
X155014600Y-131174600D02*
X147465400Y-131174600D01*
X147465400Y-131174600D02*
X146240000Y-132400000D01*
X166240000Y-132400000D02*
X165014600Y-133625400D01*
X165014600Y-133625400D02*
X157465400Y-133625400D01*
X157465400Y-133625400D02*
X156240000Y-132400000D01*
X110325300Y-61250000D02*
X110325300Y-58343900D01*
X110325300Y-58343900D02*
X109481400Y-57500000D01*
X109481400Y-57500000D02*
X107000000Y-57500000D01*
X110325300Y-66250000D02*
X110325300Y-61250000D01*
X110325300Y-66250000D02*
X109000000Y-66250000D01*
X169050000Y-82780000D02*
X152520000Y-66250000D01*
X152520000Y-66250000D02*
X110325300Y-66250000D01*
X109000000Y-61250000D02*
X110325300Y-61250000D01*
X192900000Y-55000000D02*
X190416700Y-55000000D01*
X190416700Y-55000000D02*
X189124400Y-56292300D01*
X189124400Y-56292300D02*
X189124400Y-63299700D01*
X189124400Y-63299700D02*
X189574700Y-63750000D01*
X189574700Y-66655900D02*
X190418800Y-67500000D01*
X190418800Y-67500000D02*
X192900000Y-67500000D01*
X189574700Y-63750000D02*
X189574700Y-66655900D01*
X189574700Y-66655900D02*
X185174100Y-66655900D01*
X185174100Y-66655900D02*
X169050000Y-82780000D01*
X190900000Y-63750000D02*
X189574700Y-63750000D01*
X171590000Y-82780000D02*
X170399900Y-83970100D01*
X170399900Y-83970100D02*
X168565300Y-83970100D01*
X168565300Y-83970100D02*
X167780000Y-83184800D01*
X167780000Y-83184800D02*
X167780000Y-82458500D01*
X167780000Y-82458500D02*
X152821500Y-67500000D01*
X152821500Y-67500000D02*
X107000000Y-67500000D01*
X192900000Y-62500000D02*
X190406000Y-62500000D01*
X190406000Y-62500000D02*
X189574700Y-61668700D01*
X189574700Y-61668700D02*
X189574700Y-57575300D01*
X189574700Y-57575300D02*
X190900000Y-56250000D01*
X117215300Y-129000000D02*
X117215300Y-129367300D01*
X117215300Y-129367300D02*
X118508000Y-130660000D01*
X118508000Y-130660000D02*
X177678400Y-130660000D01*
X177678400Y-130660000D02*
X178128700Y-131110300D01*
X178128700Y-131110300D02*
X188661700Y-131110300D01*
X188661700Y-131110300D02*
X190404700Y-129367300D01*
X190404700Y-129367300D02*
X190404700Y-129000000D01*
X191580000Y-129000000D02*
X190404700Y-129000000D01*
X116040000Y-129000000D02*
X117215300Y-129000000D01*
X192900000Y-57500000D02*
X191574700Y-57500000D01*
X191574700Y-57500000D02*
X191574700Y-58075300D01*
X191574700Y-58075300D02*
X190900000Y-58750000D01*
X106800000Y-116750000D02*
X113817600Y-116750000D01*
X113817600Y-116750000D02*
X132220000Y-98347600D01*
X132220000Y-98347600D02*
X132220000Y-97684000D01*
X132220000Y-97684000D02*
X133023400Y-96880600D01*
X133023400Y-96880600D02*
X134890600Y-96880600D01*
X134890600Y-96880600D02*
X136030000Y-98020000D01*
X136030000Y-98020000D02*
X148510000Y-110500000D01*
X148510000Y-110500000D02*
X198300000Y-110500000D01*
X198300000Y-110500000D02*
X199625300Y-110500000D01*
X199625300Y-110500000D02*
X199625300Y-67513500D01*
X199625300Y-67513500D02*
X193361800Y-61250000D01*
X193361800Y-61250000D02*
X190900000Y-61250000D01*
X133490000Y-100527700D02*
X133490000Y-98020000D01*
X191974700Y-114250000D02*
X147212300Y-114250000D01*
X147212300Y-114250000D02*
X133490000Y-100527700D01*
X133490000Y-100527700D02*
X116017700Y-118000000D01*
X116017700Y-118000000D02*
X101800000Y-118000000D01*
X193300000Y-114250000D02*
X191974700Y-114250000D01*
X101800000Y-103000000D02*
X103125300Y-103000000D01*
X143650000Y-98020000D02*
X141609800Y-95979800D01*
X141609800Y-95979800D02*
X116517600Y-95979800D01*
X116517600Y-95979800D02*
X110822700Y-101674700D01*
X110822700Y-101674700D02*
X104450600Y-101674700D01*
X104450600Y-101674700D02*
X103125300Y-103000000D01*
X191974700Y-106750000D02*
X184841400Y-99616700D01*
X184841400Y-99616700D02*
X145246700Y-99616700D01*
X145246700Y-99616700D02*
X143650000Y-98020000D01*
X193300000Y-106750000D02*
X191974700Y-106750000D01*
X100456500Y-103967500D02*
X104085400Y-103967500D01*
X104085400Y-103967500D02*
X104746600Y-103306300D01*
X104746600Y-103306300D02*
X115870100Y-103306300D01*
X115870100Y-103306300D02*
X122746200Y-96430200D01*
X122746200Y-96430200D02*
X136980200Y-96430200D01*
X136980200Y-96430200D02*
X138570000Y-98020000D01*
X191974700Y-109250000D02*
X184745700Y-102021000D01*
X184745700Y-102021000D02*
X142571000Y-102021000D01*
X142571000Y-102021000D02*
X138570000Y-98020000D01*
X100456500Y-103967500D02*
X100456500Y-105902100D01*
X100456500Y-105902100D02*
X101304400Y-106750000D01*
X101304400Y-106750000D02*
X102261700Y-106750000D01*
X102261700Y-106750000D02*
X103125300Y-107613600D01*
X103125300Y-107613600D02*
X103125300Y-115500000D01*
X105674700Y-60000000D02*
X100456500Y-65218200D01*
X100456500Y-65218200D02*
X100456500Y-103967500D01*
X193300000Y-109250000D02*
X191974700Y-109250000D01*
X101800000Y-115500000D02*
X103125300Y-115500000D01*
X107000000Y-60000000D02*
X105674700Y-60000000D01*
X198300000Y-108000000D02*
X192587800Y-108000000D01*
X192587800Y-108000000D02*
X184829000Y-100241200D01*
X184829000Y-100241200D02*
X143331200Y-100241200D01*
X143331200Y-100241200D02*
X141110000Y-98020000D01*
X161430000Y-82780000D02*
X175710300Y-97060300D01*
X175710300Y-97060300D02*
X185715300Y-97060300D01*
X185715300Y-97060300D02*
X191655000Y-103000000D01*
X191655000Y-103000000D02*
X198300000Y-103000000D01*
X193300000Y-104250000D02*
X191974700Y-104250000D01*
X191974700Y-104250000D02*
X186758200Y-99033500D01*
X186758200Y-99033500D02*
X177046600Y-99033500D01*
X177046600Y-99033500D02*
X166998500Y-88985400D01*
X166998500Y-88985400D02*
X165095400Y-88985400D01*
X165095400Y-88985400D02*
X158890000Y-82780000D01*
X198300000Y-115500000D02*
X196974700Y-115500000D01*
X181420000Y-129000000D02*
X182595300Y-129000000D01*
X182595300Y-129000000D02*
X182595300Y-128632600D01*
X182595300Y-128632600D02*
X183403200Y-127824700D01*
X183403200Y-127824700D02*
X184650000Y-127824700D01*
X184650000Y-127824700D02*
X196974700Y-115500000D01*
X178880000Y-129000000D02*
X180055300Y-129000000D01*
X180055300Y-129000000D02*
X180055300Y-129367300D01*
X180055300Y-129367300D02*
X180897600Y-130209600D01*
X180897600Y-130209600D02*
X184421100Y-130209600D01*
X184421100Y-130209600D02*
X185230000Y-129400700D01*
X185230000Y-129400700D02*
X185230000Y-128537300D01*
X185230000Y-128537300D02*
X195767300Y-118000000D01*
X195767300Y-118000000D02*
X198300000Y-118000000D01*
X101800000Y-105500000D02*
X103125300Y-105500000D01*
X126200000Y-129000000D02*
X125024700Y-129000000D01*
X125024700Y-129000000D02*
X125024700Y-128632600D01*
X125024700Y-128632600D02*
X124216800Y-127824700D01*
X124216800Y-127824700D02*
X109849900Y-127824700D01*
X109849900Y-127824700D02*
X100469900Y-118444700D01*
X100469900Y-118444700D02*
X100469900Y-117551600D01*
X100469900Y-117551600D02*
X101271500Y-116750000D01*
X101271500Y-116750000D02*
X102567600Y-116750000D01*
X102567600Y-116750000D02*
X103630200Y-115687400D01*
X103630200Y-115687400D02*
X103630200Y-106004900D01*
X103630200Y-106004900D02*
X103125300Y-105500000D01*
X119755300Y-129000000D02*
X119755300Y-129367400D01*
X119755300Y-129367400D02*
X120597600Y-130209700D01*
X120597600Y-130209700D02*
X178238000Y-130209700D01*
X178238000Y-130209700D02*
X178688300Y-130660000D01*
X178688300Y-130660000D02*
X186572000Y-130660000D01*
X186572000Y-130660000D02*
X187864700Y-129367300D01*
X187864700Y-129367300D02*
X187864700Y-129000000D01*
X189040000Y-129000000D02*
X187864700Y-129000000D01*
X118580000Y-129000000D02*
X119755300Y-129000000D01*
X125870000Y-82780000D02*
X126995300Y-82780000D01*
X126995300Y-82780000D02*
X126995300Y-83061400D01*
X126995300Y-83061400D02*
X127839200Y-83905300D01*
X127839200Y-83905300D02*
X137155300Y-83905300D01*
X137155300Y-83905300D02*
X151270000Y-98020000D01*
M02*
