G04 #@! TF.GenerationSoftware,KiCad,Pcbnew,(6.0.2)*
G04 #@! TF.CreationDate,2022-03-15T14:10:59+03:00*
G04 #@! TF.ProjectId,kinesis-thumb-pcb,6b696e65-7369-4732-9d74-68756d622d70,rev?*
G04 #@! TF.SameCoordinates,Original*
G04 #@! TF.FileFunction,Legend,Bot*
G04 #@! TF.FilePolarity,Positive*
%FSLAX46Y46*%
G04 Gerber Fmt 4.6, Leading zero omitted, Abs format (unit mm)*
G04 Created by KiCad (PCBNEW (6.0.2)) date 2022-03-15 14:10:59*
%MOMM*%
%LPD*%
G01*
G04 APERTURE LIST*
%ADD10C,0.150000*%
%ADD11C,0.010000*%
%ADD12C,0.120000*%
G04 APERTURE END LIST*
D10*
X227565332Y-109850924D02*
X227857704Y-108894620D01*
X227018872Y-109683855D02*
X227595787Y-109262697D01*
X227311244Y-108727550D02*
X227690634Y-109441079D01*
X226609027Y-109558553D02*
X226803942Y-108921016D01*
X226901399Y-108602248D02*
X226933015Y-108661709D01*
X226873554Y-108693325D01*
X226841938Y-108633864D01*
X226901399Y-108602248D01*
X226873554Y-108693325D01*
X226348559Y-108781792D02*
X226153644Y-109419328D01*
X226320714Y-108872868D02*
X226289098Y-108813407D01*
X226211944Y-108740024D01*
X226075329Y-108698257D01*
X225970330Y-108715950D01*
X225896946Y-108793104D01*
X225743799Y-109294026D01*
X224938032Y-108997883D02*
X225015186Y-109071266D01*
X225197339Y-109126956D01*
X225302338Y-109109263D01*
X225375722Y-109032109D01*
X225487101Y-108667802D01*
X225469408Y-108562803D01*
X225392254Y-108489420D01*
X225210101Y-108433730D01*
X225105101Y-108451423D01*
X225031718Y-108528578D01*
X225003873Y-108619654D01*
X225431412Y-108849955D01*
X224528187Y-108872581D02*
X224423188Y-108890274D01*
X224241035Y-108834585D01*
X224163880Y-108761201D01*
X224146187Y-108656202D01*
X224160109Y-108610664D01*
X224233493Y-108533510D01*
X224338492Y-108515816D01*
X224475107Y-108557584D01*
X224580106Y-108539890D01*
X224653489Y-108462736D01*
X224667412Y-108417198D01*
X224649718Y-108312199D01*
X224572564Y-108238815D01*
X224435949Y-108197048D01*
X224330950Y-108214741D01*
X223694575Y-108667515D02*
X223889489Y-108029979D01*
X223986946Y-107711210D02*
X224018562Y-107770671D01*
X223959101Y-107802287D01*
X223927486Y-107742826D01*
X223986946Y-107711210D01*
X223959101Y-107802287D01*
X223298652Y-108496675D02*
X223193653Y-108514368D01*
X223011500Y-108458678D01*
X222934346Y-108385295D01*
X222916652Y-108280296D01*
X222930575Y-108234757D01*
X223003958Y-108157603D01*
X223108957Y-108139910D01*
X223245572Y-108181677D01*
X223350571Y-108163984D01*
X223423954Y-108086830D01*
X223437877Y-108041291D01*
X223420184Y-107936292D01*
X223343029Y-107862909D01*
X223206414Y-107821142D01*
X223101415Y-107838835D01*
X222576420Y-107927302D02*
X221847807Y-107704543D01*
X221311498Y-107341397D02*
X221416497Y-107323704D01*
X221475958Y-107292088D01*
X221549341Y-107214934D01*
X221563264Y-107169396D01*
X221545570Y-107064396D01*
X221513955Y-107004936D01*
X221436800Y-106931552D01*
X221254647Y-106875863D01*
X221149648Y-106893556D01*
X221090187Y-106925172D01*
X221016804Y-107002326D01*
X221002882Y-107047864D01*
X221020575Y-107152863D01*
X221052191Y-107212324D01*
X221129345Y-107285707D01*
X221311498Y-107341397D01*
X221388652Y-107414781D01*
X221420268Y-107474241D01*
X221437962Y-107579240D01*
X221382272Y-107761394D01*
X221308889Y-107838548D01*
X221249428Y-107870164D01*
X221144429Y-107887857D01*
X220962275Y-107832167D01*
X220885121Y-107758784D01*
X220853505Y-107699323D01*
X220835812Y-107594324D01*
X220891502Y-107412171D01*
X220964885Y-107335017D01*
X221024346Y-107303401D01*
X221129345Y-107285707D01*
X220480496Y-106639181D02*
X220389419Y-106611336D01*
X220284420Y-106629029D01*
X220224959Y-106660645D01*
X220151576Y-106737799D01*
X220050348Y-106906030D01*
X219980735Y-107133722D01*
X219970584Y-107329797D01*
X219988277Y-107434797D01*
X220019893Y-107494257D01*
X220097047Y-107567641D01*
X220188124Y-107595485D01*
X220293123Y-107577792D01*
X220352584Y-107546176D01*
X220425967Y-107469022D01*
X220527195Y-107300791D01*
X220596808Y-107073100D01*
X220606959Y-106877024D01*
X220589266Y-106772025D01*
X220557650Y-106712564D01*
X220480496Y-106639181D01*
X219062427Y-106554198D02*
X218698121Y-106442818D01*
X219023269Y-106193662D02*
X218772665Y-107013352D01*
X218699282Y-107090506D01*
X218594283Y-107108199D01*
X218503206Y-107080354D01*
X218184438Y-106982897D02*
X218476809Y-106026592D01*
X217774593Y-106857595D02*
X217927740Y-106356673D01*
X218001123Y-106279519D01*
X218106122Y-106261826D01*
X218242737Y-106303593D01*
X218319891Y-106376976D01*
X218351507Y-106436437D01*
X217104279Y-105955532D02*
X216909365Y-106593068D01*
X217514124Y-106080834D02*
X217360977Y-106581755D01*
X217287594Y-106658910D01*
X217182595Y-106676603D01*
X217045980Y-106634836D01*
X216968826Y-106561452D01*
X216937210Y-106501992D01*
X216453982Y-106453844D02*
X216648896Y-105816307D01*
X216621051Y-105907384D02*
X216589435Y-105847923D01*
X216512281Y-105774540D01*
X216375666Y-105732772D01*
X216270667Y-105750466D01*
X216197284Y-105827620D01*
X216044137Y-106328541D01*
X216197284Y-105827620D02*
X216179590Y-105722621D01*
X216102436Y-105649238D01*
X215965821Y-105607470D01*
X215860822Y-105625164D01*
X215787439Y-105702318D01*
X215634292Y-106203239D01*
X215178909Y-106064015D02*
X215471280Y-105107710D01*
X215359901Y-105472016D02*
X215282746Y-105398633D01*
X215100593Y-105342943D01*
X214995594Y-105360637D01*
X214936133Y-105392253D01*
X214862750Y-105469407D01*
X214779215Y-105742637D01*
X214796909Y-105847636D01*
X214828524Y-105907097D01*
X214905679Y-105980480D01*
X215087832Y-106036170D01*
X215192831Y-106018476D01*
X213189145Y-105405888D02*
X213266299Y-105479271D01*
X213448452Y-105534961D01*
X213553451Y-105517268D01*
X213612912Y-105485652D01*
X213686295Y-105408498D01*
X213769830Y-105135268D01*
X213752137Y-105030269D01*
X213720521Y-104970808D01*
X213643367Y-104897425D01*
X213461214Y-104841735D01*
X213356214Y-104859428D01*
X212628763Y-105284357D02*
X212733762Y-105266663D01*
X212807145Y-105189509D01*
X213057749Y-104369819D01*
X212049526Y-104410138D02*
X211854611Y-105047675D01*
X212459370Y-104535441D02*
X212306223Y-105036362D01*
X212232840Y-105113516D01*
X212127841Y-105131210D01*
X211991226Y-105089442D01*
X211914072Y-105016059D01*
X211882456Y-104956598D01*
X211458689Y-104876834D02*
X211353690Y-104894528D01*
X211171536Y-104838838D01*
X211094382Y-104765455D01*
X211076689Y-104660456D01*
X211090611Y-104614917D01*
X211163994Y-104537763D01*
X211268993Y-104520070D01*
X211405608Y-104561837D01*
X211510608Y-104544144D01*
X211583991Y-104466990D01*
X211597913Y-104421451D01*
X211580220Y-104316452D01*
X211503066Y-104243069D01*
X211366451Y-104201301D01*
X211261452Y-104218995D01*
X210956606Y-104075999D02*
X210592299Y-103964620D01*
X210917448Y-103715464D02*
X210666844Y-104535153D01*
X210593461Y-104612308D01*
X210488461Y-104630001D01*
X210397385Y-104602156D01*
X209728232Y-104347781D02*
X209805387Y-104421164D01*
X209987540Y-104476854D01*
X210092539Y-104459161D01*
X210165922Y-104382006D01*
X210277302Y-104017700D01*
X210259609Y-103912701D01*
X210182454Y-103839317D01*
X210000301Y-103783628D01*
X209895302Y-103801321D01*
X209821919Y-103878475D01*
X209794074Y-103969552D01*
X210221612Y-104199853D01*
X209258927Y-104254095D02*
X209453841Y-103616558D01*
X209398151Y-103798711D02*
X209380458Y-103693712D01*
X209348842Y-103634251D01*
X209271688Y-103560868D01*
X209180611Y-103533023D01*
X207938315Y-103850343D02*
X208230687Y-102894038D01*
X207866381Y-102782659D01*
X207761381Y-102800352D01*
X207701921Y-102831968D01*
X207628537Y-102909122D01*
X207586770Y-103045737D01*
X207604463Y-103150736D01*
X207636079Y-103210197D01*
X207713233Y-103283580D01*
X208077540Y-103394960D01*
X206463396Y-103299825D02*
X206495012Y-103359286D01*
X206617704Y-103446592D01*
X206708781Y-103474437D01*
X206859318Y-103470666D01*
X206978240Y-103407434D01*
X207051623Y-103330280D01*
X207152851Y-103162049D01*
X207194619Y-103025434D01*
X207204770Y-102829358D01*
X207187077Y-102724359D01*
X207123845Y-102605438D01*
X207001152Y-102518132D01*
X206910076Y-102490287D01*
X206759538Y-102494058D01*
X206700078Y-102525674D01*
X205860085Y-102667221D02*
X205709547Y-102670992D01*
X205650087Y-102702608D01*
X205576703Y-102779762D01*
X205534936Y-102916377D01*
X205552629Y-103021376D01*
X205584245Y-103080837D01*
X205661399Y-103154220D01*
X206025706Y-103265600D01*
X206318078Y-102309295D01*
X205999309Y-102211838D01*
X205894310Y-102229531D01*
X205834849Y-102261147D01*
X205761466Y-102338301D01*
X205733621Y-102429378D01*
X205751315Y-102534377D01*
X205782931Y-102593838D01*
X205860085Y-102667221D01*
X206178853Y-102764678D01*
X204204173Y-102708701D02*
X204309172Y-102691008D01*
X204382555Y-102613854D01*
X204633160Y-101794164D01*
X203489482Y-102440404D02*
X203566637Y-102513787D01*
X203748790Y-102569477D01*
X203853789Y-102551783D01*
X203927172Y-102474629D01*
X204038552Y-102110322D01*
X204020858Y-102005323D01*
X203943704Y-101931940D01*
X203761551Y-101876250D01*
X203656552Y-101893944D01*
X203583169Y-101971098D01*
X203555324Y-102062175D01*
X203982862Y-102292476D01*
X203351706Y-101750948D02*
X202987400Y-101639568D01*
X203020177Y-102346717D02*
X203270781Y-101527027D01*
X203253088Y-101422028D01*
X203175933Y-101348645D01*
X203084857Y-101320800D01*
X202805246Y-101583879D02*
X202440940Y-101472499D01*
X202766089Y-101223343D02*
X202515484Y-102043033D01*
X202442101Y-102120187D01*
X202337102Y-102137880D01*
X202246025Y-102110035D01*
X171806998Y-60746668D02*
X171854617Y-60699049D01*
X171902236Y-60556192D01*
X171902236Y-60460953D01*
X171854617Y-60318096D01*
X171759379Y-60222858D01*
X171664141Y-60175239D01*
X171473665Y-60127620D01*
X171330808Y-60127620D01*
X171140332Y-60175239D01*
X171045094Y-60222858D01*
X170949856Y-60318096D01*
X170902236Y-60460953D01*
X170902236Y-60556192D01*
X170949856Y-60699049D01*
X170997475Y-60746668D01*
X170902236Y-61651430D02*
X170902236Y-61175239D01*
X171378427Y-61127620D01*
X171330808Y-61175239D01*
X171283189Y-61270477D01*
X171283189Y-61508572D01*
X171330808Y-61603811D01*
X171378427Y-61651430D01*
X171473665Y-61699049D01*
X171711760Y-61699049D01*
X171806998Y-61651430D01*
X171854617Y-61603811D01*
X171902236Y-61508572D01*
X171902236Y-61270477D01*
X171854617Y-61175239D01*
X171806998Y-61127620D01*
X171806998Y-63460953D02*
X171854617Y-63413334D01*
X171902236Y-63270477D01*
X171902236Y-63175239D01*
X171854617Y-63032382D01*
X171759379Y-62937144D01*
X171664141Y-62889525D01*
X171473665Y-62841906D01*
X171330808Y-62841906D01*
X171140332Y-62889525D01*
X171045094Y-62937144D01*
X170949856Y-63032382D01*
X170902236Y-63175239D01*
X170902236Y-63270477D01*
X170949856Y-63413334D01*
X170997475Y-63460953D01*
X171235570Y-64318096D02*
X171902236Y-64318096D01*
X170854617Y-64080001D02*
X171568903Y-63841906D01*
X171568903Y-64460953D01*
X171806998Y-66175239D02*
X171854617Y-66127620D01*
X171902236Y-65984763D01*
X171902236Y-65889525D01*
X171854617Y-65746668D01*
X171759379Y-65651430D01*
X171664141Y-65603811D01*
X171473665Y-65556192D01*
X171330808Y-65556192D01*
X171140332Y-65603811D01*
X171045094Y-65651430D01*
X170949856Y-65746668D01*
X170902236Y-65889525D01*
X170902236Y-65984763D01*
X170949856Y-66127620D01*
X170997475Y-66175239D01*
X170902236Y-66508572D02*
X170902236Y-67127620D01*
X171283189Y-66794287D01*
X171283189Y-66937144D01*
X171330808Y-67032382D01*
X171378427Y-67080001D01*
X171473665Y-67127620D01*
X171711760Y-67127620D01*
X171806998Y-67080001D01*
X171854617Y-67032382D01*
X171902236Y-66937144D01*
X171902236Y-66651430D01*
X171854617Y-66556192D01*
X171806998Y-66508572D01*
X171902236Y-68889525D02*
X171426046Y-68556191D01*
X171902236Y-68318096D02*
X170902236Y-68318096D01*
X170902236Y-68699049D01*
X170949856Y-68794287D01*
X170997475Y-68841906D01*
X171092713Y-68889525D01*
X171235570Y-68889525D01*
X171330808Y-68841906D01*
X171378427Y-68794287D01*
X171426046Y-68699049D01*
X171426046Y-68318096D01*
X170902236Y-69746668D02*
X170902236Y-69556191D01*
X170949856Y-69460953D01*
X170997475Y-69413334D01*
X171140332Y-69318096D01*
X171330808Y-69270477D01*
X171711760Y-69270477D01*
X171806998Y-69318096D01*
X171854617Y-69365715D01*
X171902236Y-69460953D01*
X171902236Y-69651430D01*
X171854617Y-69746668D01*
X171806998Y-69794287D01*
X171711760Y-69841906D01*
X171473665Y-69841906D01*
X171378427Y-69794287D01*
X171330808Y-69746668D01*
X171283189Y-69651430D01*
X171283189Y-69460953D01*
X171330808Y-69365715D01*
X171378427Y-69318096D01*
X171473665Y-69270477D01*
X171806998Y-71603811D02*
X171854617Y-71556191D01*
X171902236Y-71413334D01*
X171902236Y-71318096D01*
X171854617Y-71175239D01*
X171759379Y-71080001D01*
X171664141Y-71032382D01*
X171473665Y-70984763D01*
X171330808Y-70984763D01*
X171140332Y-71032382D01*
X171045094Y-71080001D01*
X170949856Y-71175239D01*
X170902236Y-71318096D01*
X170902236Y-71413334D01*
X170949856Y-71556191D01*
X170997475Y-71603811D01*
X170997475Y-71984763D02*
X170949856Y-72032382D01*
X170902236Y-72127620D01*
X170902236Y-72365715D01*
X170949856Y-72460953D01*
X170997475Y-72508572D01*
X171092713Y-72556191D01*
X171187951Y-72556191D01*
X171330808Y-72508572D01*
X171902236Y-71937144D01*
X171902236Y-72556191D01*
X171806998Y-74318096D02*
X171854617Y-74270477D01*
X171902236Y-74127620D01*
X171902236Y-74032382D01*
X171854617Y-73889525D01*
X171759379Y-73794287D01*
X171664141Y-73746668D01*
X171473665Y-73699049D01*
X171330808Y-73699049D01*
X171140332Y-73746668D01*
X171045094Y-73794287D01*
X170949856Y-73889525D01*
X170902236Y-74032382D01*
X170902236Y-74127620D01*
X170949856Y-74270477D01*
X170997475Y-74318096D01*
X171902236Y-75270477D02*
X171902236Y-74699049D01*
X171902236Y-74984763D02*
X170902236Y-74984763D01*
X171045094Y-74889525D01*
X171140332Y-74794287D01*
X171187951Y-74699049D01*
X171806998Y-77032382D02*
X171854617Y-76984763D01*
X171902236Y-76841906D01*
X171902236Y-76746668D01*
X171854617Y-76603811D01*
X171759379Y-76508572D01*
X171664141Y-76460953D01*
X171473665Y-76413334D01*
X171330808Y-76413334D01*
X171140332Y-76460953D01*
X171045094Y-76508572D01*
X170949856Y-76603811D01*
X170902236Y-76746668D01*
X170902236Y-76841906D01*
X170949856Y-76984763D01*
X170997475Y-77032382D01*
X170902236Y-77651430D02*
X170902236Y-77746668D01*
X170949856Y-77841906D01*
X170997475Y-77889525D01*
X171092713Y-77937144D01*
X171283189Y-77984763D01*
X171521284Y-77984763D01*
X171711760Y-77937144D01*
X171806998Y-77889525D01*
X171854617Y-77841906D01*
X171902236Y-77746668D01*
X171902236Y-77651430D01*
X171854617Y-77556191D01*
X171806998Y-77508572D01*
X171711760Y-77460953D01*
X171521284Y-77413334D01*
X171283189Y-77413334D01*
X171092713Y-77460953D01*
X170997475Y-77508572D01*
X170949856Y-77556191D01*
X170902236Y-77651430D01*
X188714285Y-54952380D02*
X188714285Y-53952380D01*
X188142857Y-54952380D02*
X188571428Y-54380952D01*
X188142857Y-53952380D02*
X188714285Y-54523809D01*
X187285714Y-53952380D02*
X187476190Y-53952380D01*
X187571428Y-54000000D01*
X187619047Y-54047619D01*
X187714285Y-54190476D01*
X187761904Y-54380952D01*
X187761904Y-54761904D01*
X187714285Y-54857142D01*
X187666666Y-54904761D01*
X187571428Y-54952380D01*
X187380952Y-54952380D01*
X187285714Y-54904761D01*
X187238095Y-54857142D01*
X187190476Y-54761904D01*
X187190476Y-54523809D01*
X187238095Y-54428571D01*
X187285714Y-54380952D01*
X187380952Y-54333333D01*
X187571428Y-54333333D01*
X187666666Y-54380952D01*
X187714285Y-54428571D01*
X187761904Y-54523809D01*
X186714285Y-54952380D02*
X186523809Y-54952380D01*
X186428571Y-54904761D01*
X186380952Y-54857142D01*
X186285714Y-54714285D01*
X186238095Y-54523809D01*
X186238095Y-54142857D01*
X186285714Y-54047619D01*
X186333333Y-54000000D01*
X186428571Y-53952380D01*
X186619047Y-53952380D01*
X186714285Y-54000000D01*
X186761904Y-54047619D01*
X186809523Y-54142857D01*
X186809523Y-54380952D01*
X186761904Y-54476190D01*
X186714285Y-54523809D01*
X186619047Y-54571428D01*
X186428571Y-54571428D01*
X186333333Y-54523809D01*
X186285714Y-54476190D01*
X186238095Y-54380952D01*
X188666666Y-73452380D02*
X188666666Y-72452380D01*
X188095238Y-73452380D02*
X188523809Y-72880952D01*
X188095238Y-72452380D02*
X188666666Y-73023809D01*
X187238095Y-72452380D02*
X187428571Y-72452380D01*
X187523809Y-72500000D01*
X187571428Y-72547619D01*
X187666666Y-72690476D01*
X187714285Y-72880952D01*
X187714285Y-73261904D01*
X187666666Y-73357142D01*
X187619047Y-73404761D01*
X187523809Y-73452380D01*
X187333333Y-73452380D01*
X187238095Y-73404761D01*
X187190476Y-73357142D01*
X187142857Y-73261904D01*
X187142857Y-73023809D01*
X187190476Y-72928571D01*
X187238095Y-72880952D01*
X187333333Y-72833333D01*
X187523809Y-72833333D01*
X187619047Y-72880952D01*
X187666666Y-72928571D01*
X187714285Y-73023809D01*
X186761904Y-73166666D02*
X186285714Y-73166666D01*
X186857142Y-73452380D02*
X186523809Y-72452380D01*
X186190476Y-73452380D01*
X207714285Y-54952380D02*
X207714285Y-53952380D01*
X207142857Y-54952380D02*
X207571428Y-54380952D01*
X207142857Y-53952380D02*
X207714285Y-54523809D01*
X206285714Y-53952380D02*
X206476190Y-53952380D01*
X206571428Y-54000000D01*
X206619047Y-54047619D01*
X206714285Y-54190476D01*
X206761904Y-54380952D01*
X206761904Y-54761904D01*
X206714285Y-54857142D01*
X206666666Y-54904761D01*
X206571428Y-54952380D01*
X206380952Y-54952380D01*
X206285714Y-54904761D01*
X206238095Y-54857142D01*
X206190476Y-54761904D01*
X206190476Y-54523809D01*
X206238095Y-54428571D01*
X206285714Y-54380952D01*
X206380952Y-54333333D01*
X206571428Y-54333333D01*
X206666666Y-54380952D01*
X206714285Y-54428571D01*
X206761904Y-54523809D01*
X205619047Y-54380952D02*
X205714285Y-54333333D01*
X205761904Y-54285714D01*
X205809523Y-54190476D01*
X205809523Y-54142857D01*
X205761904Y-54047619D01*
X205714285Y-54000000D01*
X205619047Y-53952380D01*
X205428571Y-53952380D01*
X205333333Y-54000000D01*
X205285714Y-54047619D01*
X205238095Y-54142857D01*
X205238095Y-54190476D01*
X205285714Y-54285714D01*
X205333333Y-54333333D01*
X205428571Y-54380952D01*
X205619047Y-54380952D01*
X205714285Y-54428571D01*
X205761904Y-54476190D01*
X205809523Y-54571428D01*
X205809523Y-54761904D01*
X205761904Y-54857142D01*
X205714285Y-54904761D01*
X205619047Y-54952380D01*
X205428571Y-54952380D01*
X205333333Y-54904761D01*
X205285714Y-54857142D01*
X205238095Y-54761904D01*
X205238095Y-54571428D01*
X205285714Y-54476190D01*
X205333333Y-54428571D01*
X205428571Y-54380952D01*
X188738095Y-92452380D02*
X188738095Y-91452380D01*
X188166666Y-92452380D02*
X188595238Y-91880952D01*
X188166666Y-91452380D02*
X188738095Y-92023809D01*
X187309523Y-91452380D02*
X187500000Y-91452380D01*
X187595238Y-91500000D01*
X187642857Y-91547619D01*
X187738095Y-91690476D01*
X187785714Y-91880952D01*
X187785714Y-92261904D01*
X187738095Y-92357142D01*
X187690476Y-92404761D01*
X187595238Y-92452380D01*
X187404761Y-92452380D01*
X187309523Y-92404761D01*
X187261904Y-92357142D01*
X187214285Y-92261904D01*
X187214285Y-92023809D01*
X187261904Y-91928571D01*
X187309523Y-91880952D01*
X187404761Y-91833333D01*
X187595238Y-91833333D01*
X187690476Y-91880952D01*
X187738095Y-91928571D01*
X187785714Y-92023809D01*
X186452380Y-91928571D02*
X186309523Y-91976190D01*
X186261904Y-92023809D01*
X186214285Y-92119047D01*
X186214285Y-92261904D01*
X186261904Y-92357142D01*
X186309523Y-92404761D01*
X186404761Y-92452380D01*
X186785714Y-92452380D01*
X186785714Y-91452380D01*
X186452380Y-91452380D01*
X186357142Y-91500000D01*
X186309523Y-91547619D01*
X186261904Y-91642857D01*
X186261904Y-91738095D01*
X186309523Y-91833333D01*
X186357142Y-91880952D01*
X186452380Y-91928571D01*
X186785714Y-91928571D01*
X207714285Y-82952380D02*
X207714285Y-81952380D01*
X207142857Y-82952380D02*
X207571428Y-82380952D01*
X207142857Y-81952380D02*
X207714285Y-82523809D01*
X206285714Y-81952380D02*
X206476190Y-81952380D01*
X206571428Y-82000000D01*
X206619047Y-82047619D01*
X206714285Y-82190476D01*
X206761904Y-82380952D01*
X206761904Y-82761904D01*
X206714285Y-82857142D01*
X206666666Y-82904761D01*
X206571428Y-82952380D01*
X206380952Y-82952380D01*
X206285714Y-82904761D01*
X206238095Y-82857142D01*
X206190476Y-82761904D01*
X206190476Y-82523809D01*
X206238095Y-82428571D01*
X206285714Y-82380952D01*
X206380952Y-82333333D01*
X206571428Y-82333333D01*
X206666666Y-82380952D01*
X206714285Y-82428571D01*
X206761904Y-82523809D01*
X205857142Y-81952380D02*
X205190476Y-81952380D01*
X205619047Y-82952380D01*
X226714285Y-82952380D02*
X226714285Y-81952380D01*
X226142857Y-82952380D02*
X226571428Y-82380952D01*
X226142857Y-81952380D02*
X226714285Y-82523809D01*
X225285714Y-81952380D02*
X225476190Y-81952380D01*
X225571428Y-82000000D01*
X225619047Y-82047619D01*
X225714285Y-82190476D01*
X225761904Y-82380952D01*
X225761904Y-82761904D01*
X225714285Y-82857142D01*
X225666666Y-82904761D01*
X225571428Y-82952380D01*
X225380952Y-82952380D01*
X225285714Y-82904761D01*
X225238095Y-82857142D01*
X225190476Y-82761904D01*
X225190476Y-82523809D01*
X225238095Y-82428571D01*
X225285714Y-82380952D01*
X225380952Y-82333333D01*
X225571428Y-82333333D01*
X225666666Y-82380952D01*
X225714285Y-82428571D01*
X225761904Y-82523809D01*
X224333333Y-81952380D02*
X224523809Y-81952380D01*
X224619047Y-82000000D01*
X224666666Y-82047619D01*
X224761904Y-82190476D01*
X224809523Y-82380952D01*
X224809523Y-82761904D01*
X224761904Y-82857142D01*
X224714285Y-82904761D01*
X224619047Y-82952380D01*
X224428571Y-82952380D01*
X224333333Y-82904761D01*
X224285714Y-82857142D01*
X224238095Y-82761904D01*
X224238095Y-82523809D01*
X224285714Y-82428571D01*
X224333333Y-82380952D01*
X224428571Y-82333333D01*
X224619047Y-82333333D01*
X224714285Y-82380952D01*
X224761904Y-82428571D01*
X224809523Y-82523809D01*
D11*
X229274385Y-60520171D02*
X229259999Y-60541889D01*
X229259999Y-60541889D02*
X229238933Y-60577490D01*
X229238933Y-60577490D02*
X229211524Y-60626288D01*
X229211524Y-60626288D02*
X229178112Y-60687601D01*
X229178112Y-60687601D02*
X229139036Y-60760743D01*
X229139036Y-60760743D02*
X229094634Y-60845030D01*
X229094634Y-60845030D02*
X229045244Y-60939779D01*
X229045244Y-60939779D02*
X228991207Y-61044304D01*
X228991207Y-61044304D02*
X228932860Y-61157922D01*
X228932860Y-61157922D02*
X228870542Y-61279948D01*
X228870542Y-61279948D02*
X228804593Y-61409698D01*
X228804593Y-61409698D02*
X228735350Y-61546488D01*
X228735350Y-61546488D02*
X228663152Y-61689633D01*
X228663152Y-61689633D02*
X228588339Y-61838450D01*
X228588339Y-61838450D02*
X228511249Y-61992253D01*
X228511249Y-61992253D02*
X228432220Y-62150359D01*
X228432220Y-62150359D02*
X228351592Y-62312083D01*
X228351592Y-62312083D02*
X228269703Y-62476741D01*
X228269703Y-62476741D02*
X228186892Y-62643648D01*
X228186892Y-62643648D02*
X228103498Y-62812122D01*
X228103498Y-62812122D02*
X228019859Y-62981476D01*
X228019859Y-62981476D02*
X227936315Y-63151027D01*
X227936315Y-63151027D02*
X227853203Y-63320091D01*
X227853203Y-63320091D02*
X227770864Y-63487983D01*
X227770864Y-63487983D02*
X227689634Y-63654020D01*
X227689634Y-63654020D02*
X227609854Y-63817516D01*
X227609854Y-63817516D02*
X227531862Y-63977787D01*
X227531862Y-63977787D02*
X227455996Y-64134150D01*
X227455996Y-64134150D02*
X227382596Y-64285920D01*
X227382596Y-64285920D02*
X227312000Y-64432412D01*
X227312000Y-64432412D02*
X227244547Y-64572943D01*
X227244547Y-64572943D02*
X227180576Y-64706827D01*
X227180576Y-64706827D02*
X227120426Y-64833382D01*
X227120426Y-64833382D02*
X227064434Y-64951922D01*
X227064434Y-64951922D02*
X227012940Y-65061764D01*
X227012940Y-65061764D02*
X226966283Y-65162222D01*
X226966283Y-65162222D02*
X226924802Y-65252613D01*
X226924802Y-65252613D02*
X226888835Y-65332253D01*
X226888835Y-65332253D02*
X226858720Y-65400456D01*
X226858720Y-65400456D02*
X226836430Y-65452625D01*
X226836430Y-65452625D02*
X226821295Y-65489649D01*
X226821295Y-65489649D02*
X226812159Y-65515297D01*
X226812159Y-65515297D02*
X226808173Y-65533680D01*
X226808173Y-65533680D02*
X226808484Y-65548909D01*
X226808484Y-65548909D02*
X226812244Y-65565094D01*
X226812244Y-65565094D02*
X226812777Y-65566925D01*
X226812777Y-65566925D02*
X226821143Y-65591017D01*
X226821143Y-65591017D02*
X226836201Y-65629479D01*
X226836201Y-65629479D02*
X226857509Y-65681324D01*
X226857509Y-65681324D02*
X226884623Y-65745567D01*
X226884623Y-65745567D02*
X226917100Y-65821221D01*
X226917100Y-65821221D02*
X226954499Y-65907298D01*
X226954499Y-65907298D02*
X226996375Y-66002814D01*
X226996375Y-66002814D02*
X227042286Y-66106780D01*
X227042286Y-66106780D02*
X227091790Y-66218210D01*
X227091790Y-66218210D02*
X227144443Y-66336119D01*
X227144443Y-66336119D02*
X227199803Y-66459519D01*
X227199803Y-66459519D02*
X227257426Y-66587424D01*
X227257426Y-66587424D02*
X227316871Y-66718847D01*
X227316871Y-66718847D02*
X227377693Y-66852802D01*
X227377693Y-66852802D02*
X227439451Y-66988302D01*
X227439451Y-66988302D02*
X227501701Y-67124361D01*
X227501701Y-67124361D02*
X227564000Y-67259992D01*
X227564000Y-67259992D02*
X227625907Y-67394209D01*
X227625907Y-67394209D02*
X227686977Y-67526025D01*
X227686977Y-67526025D02*
X227746768Y-67654453D01*
X227746768Y-67654453D02*
X227804838Y-67778507D01*
X227804838Y-67778507D02*
X227819913Y-67810591D01*
X227819913Y-67810591D02*
X227862091Y-67899676D01*
X227862091Y-67899676D02*
X227906655Y-67992702D01*
X227906655Y-67992702D02*
X227952660Y-68087766D01*
X227952660Y-68087766D02*
X227999158Y-68182969D01*
X227999158Y-68182969D02*
X228045204Y-68276408D01*
X228045204Y-68276408D02*
X228089851Y-68366182D01*
X228089851Y-68366182D02*
X228132152Y-68450389D01*
X228132152Y-68450389D02*
X228171163Y-68527128D01*
X228171163Y-68527128D02*
X228205936Y-68594498D01*
X228205936Y-68594498D02*
X228235526Y-68650596D01*
X228235526Y-68650596D02*
X228258985Y-68693522D01*
X228258985Y-68693522D02*
X228261580Y-68698114D01*
X228261580Y-68698114D02*
X228291963Y-68749821D01*
X228291963Y-68749821D02*
X228320410Y-68794833D01*
X228320410Y-68794833D02*
X228345608Y-68831305D01*
X228345608Y-68831305D02*
X228366248Y-68857390D01*
X228366248Y-68857390D02*
X228381016Y-68871243D01*
X228381016Y-68871243D02*
X228385819Y-68873005D01*
X228385819Y-68873005D02*
X228395693Y-68869126D01*
X228395693Y-68869126D02*
X228415685Y-68859187D01*
X228415685Y-68859187D02*
X228437607Y-68847443D01*
X228437607Y-68847443D02*
X228472622Y-68826819D01*
X228472622Y-68826819D02*
X228520151Y-68796755D01*
X228520151Y-68796755D02*
X228579163Y-68757976D01*
X228579163Y-68757976D02*
X228648630Y-68711207D01*
X228648630Y-68711207D02*
X228727522Y-68657175D01*
X228727522Y-68657175D02*
X228814809Y-68596605D01*
X228814809Y-68596605D02*
X228909464Y-68530222D01*
X228909464Y-68530222D02*
X229010455Y-68458752D01*
X229010455Y-68458752D02*
X229116755Y-68382920D01*
X229116755Y-68382920D02*
X229227333Y-68303452D01*
X229227333Y-68303452D02*
X229341160Y-68221074D01*
X229341160Y-68221074D02*
X229457208Y-68136510D01*
X229457208Y-68136510D02*
X229574446Y-68050487D01*
X229574446Y-68050487D02*
X229691846Y-67963729D01*
X229691846Y-67963729D02*
X229701341Y-67956684D01*
X229701341Y-67956684D02*
X229756878Y-67915508D01*
X229756878Y-67915508D02*
X229821515Y-67867654D01*
X229821515Y-67867654D02*
X229890713Y-67816477D01*
X229890713Y-67816477D02*
X229959931Y-67765336D01*
X229959931Y-67765336D02*
X230024631Y-67717585D01*
X230024631Y-67717585D02*
X230050975Y-67698162D01*
X230050975Y-67698162D02*
X230113520Y-67652035D01*
X230113520Y-67652035D02*
X230183859Y-67600105D01*
X230183859Y-67600105D02*
X230257111Y-67545980D01*
X230257111Y-67545980D02*
X230328392Y-67493268D01*
X230328392Y-67493268D02*
X230392822Y-67445576D01*
X230392822Y-67445576D02*
X230415042Y-67429114D01*
X230415042Y-67429114D02*
X230465634Y-67391687D01*
X230465634Y-67391687D02*
X230514208Y-67355879D01*
X230514208Y-67355879D02*
X230558342Y-67323465D01*
X230558342Y-67323465D02*
X230595613Y-67296222D01*
X230595613Y-67296222D02*
X230623597Y-67275927D01*
X230623597Y-67275927D02*
X230637367Y-67266100D01*
X230637367Y-67266100D02*
X230666822Y-67242487D01*
X230666822Y-67242487D02*
X230683794Y-67220698D01*
X230683794Y-67220698D02*
X230689865Y-67205225D01*
X230689865Y-67205225D02*
X230692800Y-67193361D01*
X230692800Y-67193361D02*
X230697502Y-67173892D01*
X230697502Y-67173892D02*
X230474313Y-67173892D01*
X230474313Y-67173892D02*
X230467627Y-67182563D01*
X230467627Y-67182563D02*
X230433886Y-67209003D01*
X230433886Y-67209003D02*
X230389240Y-67243107D01*
X230389240Y-67243107D02*
X230334631Y-67284201D01*
X230334631Y-67284201D02*
X230270998Y-67331608D01*
X230270998Y-67331608D02*
X230199282Y-67384652D01*
X230199282Y-67384652D02*
X230120423Y-67442659D01*
X230120423Y-67442659D02*
X230035363Y-67504953D01*
X230035363Y-67504953D02*
X229945041Y-67570857D01*
X229945041Y-67570857D02*
X229850398Y-67639697D01*
X229850398Y-67639697D02*
X229752375Y-67710797D01*
X229752375Y-67710797D02*
X229651912Y-67783481D01*
X229651912Y-67783481D02*
X229549949Y-67857074D01*
X229549949Y-67857074D02*
X229447427Y-67930900D01*
X229447427Y-67930900D02*
X229345287Y-68004283D01*
X229345287Y-68004283D02*
X229244468Y-68076549D01*
X229244468Y-68076549D02*
X229145912Y-68147020D01*
X229145912Y-68147020D02*
X229050559Y-68215023D01*
X229050559Y-68215023D02*
X228959349Y-68279880D01*
X228959349Y-68279880D02*
X228873223Y-68340917D01*
X228873223Y-68340917D02*
X228793121Y-68397458D01*
X228793121Y-68397458D02*
X228719984Y-68448827D01*
X228719984Y-68448827D02*
X228654752Y-68494349D01*
X228654752Y-68494349D02*
X228598367Y-68533348D01*
X228598367Y-68533348D02*
X228551767Y-68565149D01*
X228551767Y-68565149D02*
X228515894Y-68589076D01*
X228515894Y-68589076D02*
X228491689Y-68604453D01*
X228491689Y-68604453D02*
X228480091Y-68610605D01*
X228480091Y-68610605D02*
X228479551Y-68610691D01*
X228479551Y-68610691D02*
X228474787Y-68603267D01*
X228474787Y-68603267D02*
X228469699Y-68584839D01*
X228469699Y-68584839D02*
X228468566Y-68578941D01*
X228468566Y-68578941D02*
X228465399Y-68551961D01*
X228465399Y-68551961D02*
X228462522Y-68509584D01*
X228462522Y-68509584D02*
X228459953Y-68453346D01*
X228459953Y-68453346D02*
X228457712Y-68384781D01*
X228457712Y-68384781D02*
X228455817Y-68305424D01*
X228455817Y-68305424D02*
X228454287Y-68216811D01*
X228454287Y-68216811D02*
X228453140Y-68120475D01*
X228453140Y-68120475D02*
X228452396Y-68017952D01*
X228452396Y-68017952D02*
X228452074Y-67910777D01*
X228452074Y-67910777D02*
X228452191Y-67800484D01*
X228452191Y-67800484D02*
X228452768Y-67688609D01*
X228452768Y-67688609D02*
X228453821Y-67576686D01*
X228453821Y-67576686D02*
X228455133Y-67480992D01*
X228455133Y-67480992D02*
X228456624Y-67384209D01*
X228456624Y-67384209D02*
X228458036Y-67287514D01*
X228458036Y-67287514D02*
X228459340Y-67193129D01*
X228459340Y-67193129D02*
X228460510Y-67103271D01*
X228460510Y-67103271D02*
X228461518Y-67020161D01*
X228461518Y-67020161D02*
X228462337Y-66946019D01*
X228462337Y-66946019D02*
X228462940Y-66883063D01*
X228462940Y-66883063D02*
X228463298Y-66833512D01*
X228463298Y-66833512D02*
X228463384Y-66811525D01*
X228463384Y-66811525D02*
X228463714Y-66642192D01*
X228463714Y-66642192D02*
X228483447Y-66631850D01*
X228483447Y-66631850D02*
X228277209Y-66631850D01*
X228277209Y-66631850D02*
X228277127Y-67288954D01*
X228277127Y-67288954D02*
X228276935Y-67450413D01*
X228276935Y-67450413D02*
X228276382Y-67595558D01*
X228276382Y-67595558D02*
X228275440Y-67725002D01*
X228275440Y-67725002D02*
X228274080Y-67839363D01*
X228274080Y-67839363D02*
X228272273Y-67939254D01*
X228272273Y-67939254D02*
X228269990Y-68025291D01*
X228269990Y-68025291D02*
X228267203Y-68098090D01*
X228267203Y-68098090D02*
X228263882Y-68158265D01*
X228263882Y-68158265D02*
X228260000Y-68206432D01*
X228260000Y-68206432D02*
X228255528Y-68243206D01*
X228255528Y-68243206D02*
X228250436Y-68269202D01*
X228250436Y-68269202D02*
X228244696Y-68285036D01*
X228244696Y-68285036D02*
X228238279Y-68291323D01*
X228238279Y-68291323D02*
X228231157Y-68288678D01*
X228231157Y-68288678D02*
X228230471Y-68288014D01*
X228230471Y-68288014D02*
X228224169Y-68277743D01*
X228224169Y-68277743D02*
X228211637Y-68254028D01*
X228211637Y-68254028D02*
X228193815Y-68218765D01*
X228193815Y-68218765D02*
X228171641Y-68173850D01*
X228171641Y-68173850D02*
X228146056Y-68121180D01*
X228146056Y-68121180D02*
X228117998Y-68062650D01*
X228117998Y-68062650D02*
X228098830Y-68022258D01*
X228098830Y-68022258D02*
X228020900Y-67856963D01*
X228020900Y-67856963D02*
X227944243Y-67693553D01*
X227944243Y-67693553D02*
X227869179Y-67532742D01*
X227869179Y-67532742D02*
X227796026Y-67375242D01*
X227796026Y-67375242D02*
X227725103Y-67221768D01*
X227725103Y-67221768D02*
X227656728Y-67073032D01*
X227656728Y-67073032D02*
X227591221Y-66929748D01*
X227591221Y-66929748D02*
X227528900Y-66792628D01*
X227528900Y-66792628D02*
X227470084Y-66662385D01*
X227470084Y-66662385D02*
X227415092Y-66539734D01*
X227415092Y-66539734D02*
X227364242Y-66425386D01*
X227364242Y-66425386D02*
X227317853Y-66320055D01*
X227317853Y-66320055D02*
X227276244Y-66224454D01*
X227276244Y-66224454D02*
X227239733Y-66139297D01*
X227239733Y-66139297D02*
X227208640Y-66065296D01*
X227208640Y-66065296D02*
X227183282Y-66003164D01*
X227183282Y-66003164D02*
X227163980Y-65953615D01*
X227163980Y-65953615D02*
X227151051Y-65917362D01*
X227151051Y-65917362D02*
X227144814Y-65895118D01*
X227144814Y-65895118D02*
X227144866Y-65887879D01*
X227144866Y-65887879D02*
X227153690Y-65887245D01*
X227153690Y-65887245D02*
X227172036Y-65893891D01*
X227172036Y-65893891D02*
X227200290Y-65908063D01*
X227200290Y-65908063D02*
X227238836Y-65930011D01*
X227238836Y-65930011D02*
X227288059Y-65959980D01*
X227288059Y-65959980D02*
X227348346Y-65998219D01*
X227348346Y-65998219D02*
X227420079Y-66044974D01*
X227420079Y-66044974D02*
X227503646Y-66100493D01*
X227503646Y-66100493D02*
X227599431Y-66165023D01*
X227599431Y-66165023D02*
X227707819Y-66238812D01*
X227707819Y-66238812D02*
X227829195Y-66322107D01*
X227829195Y-66322107D02*
X227940659Y-66399041D01*
X227940659Y-66399041D02*
X228277209Y-66631850D01*
X228277209Y-66631850D02*
X228483447Y-66631850D01*
X228483447Y-66631850D02*
X228689889Y-66523658D01*
X228689889Y-66523658D02*
X228753763Y-66490173D01*
X228753763Y-66490173D02*
X228828775Y-66450832D01*
X228828775Y-66450832D02*
X228911073Y-66407656D01*
X228911073Y-66407656D02*
X228996803Y-66362669D01*
X228996803Y-66362669D02*
X229082113Y-66317890D01*
X229082113Y-66317890D02*
X229163153Y-66275340D01*
X229163153Y-66275340D02*
X229204119Y-66253825D01*
X229204119Y-66253825D02*
X229277652Y-66215352D01*
X229277652Y-66215352D02*
X229354498Y-66175411D01*
X229354498Y-66175411D02*
X229431457Y-66135648D01*
X229431457Y-66135648D02*
X229505331Y-66097708D01*
X229505331Y-66097708D02*
X229572919Y-66063235D01*
X229572919Y-66063235D02*
X229631023Y-66033874D01*
X229631023Y-66033874D02*
X229664860Y-66016985D01*
X229664860Y-66016985D02*
X229837544Y-65931444D01*
X229837544Y-65931444D02*
X229851127Y-65951295D01*
X229851127Y-65951295D02*
X229864725Y-65973065D01*
X229864725Y-65973065D02*
X229884878Y-66007962D01*
X229884878Y-66007962D02*
X229910800Y-66054473D01*
X229910800Y-66054473D02*
X229941709Y-66111087D01*
X229941709Y-66111087D02*
X229976821Y-66176290D01*
X229976821Y-66176290D02*
X230015351Y-66248571D01*
X230015351Y-66248571D02*
X230056516Y-66326417D01*
X230056516Y-66326417D02*
X230099532Y-66408315D01*
X230099532Y-66408315D02*
X230143615Y-66492754D01*
X230143615Y-66492754D02*
X230187981Y-66578221D01*
X230187981Y-66578221D02*
X230231847Y-66663204D01*
X230231847Y-66663204D02*
X230274428Y-66746190D01*
X230274428Y-66746190D02*
X230314941Y-66825667D01*
X230314941Y-66825667D02*
X230352602Y-66900123D01*
X230352602Y-66900123D02*
X230386627Y-66968045D01*
X230386627Y-66968045D02*
X230416232Y-67027921D01*
X230416232Y-67027921D02*
X230440634Y-67078238D01*
X230440634Y-67078238D02*
X230459047Y-67117485D01*
X230459047Y-67117485D02*
X230470690Y-67144149D01*
X230470690Y-67144149D02*
X230473932Y-67152930D01*
X230473932Y-67152930D02*
X230474313Y-67173892D01*
X230474313Y-67173892D02*
X230697502Y-67173892D01*
X230697502Y-67173892D02*
X230699396Y-67166052D01*
X230699396Y-67166052D02*
X230709409Y-67124328D01*
X230709409Y-67124328D02*
X230722593Y-67069221D01*
X230722593Y-67069221D02*
X230738701Y-67001761D01*
X230738701Y-67001761D02*
X230757489Y-66922979D01*
X230757489Y-66922979D02*
X230778710Y-66833905D01*
X230778710Y-66833905D02*
X230802120Y-66735572D01*
X230802120Y-66735572D02*
X230827472Y-66629009D01*
X230827472Y-66629009D02*
X230854522Y-66515248D01*
X230854522Y-66515248D02*
X230883022Y-66395320D01*
X230883022Y-66395320D02*
X230912728Y-66270255D01*
X230912728Y-66270255D02*
X230939550Y-66157281D01*
X230939550Y-66157281D02*
X231177676Y-65154070D01*
X231177676Y-65154070D02*
X230986543Y-65154070D01*
X230986543Y-65154070D02*
X230973595Y-65229264D01*
X230973595Y-65229264D02*
X230961285Y-65297823D01*
X230961285Y-65297823D02*
X230946378Y-65375923D01*
X230946378Y-65375923D02*
X230929192Y-65462196D01*
X230929192Y-65462196D02*
X230910045Y-65555277D01*
X230910045Y-65555277D02*
X230889254Y-65653798D01*
X230889254Y-65653798D02*
X230867137Y-65756391D01*
X230867137Y-65756391D02*
X230844011Y-65861691D01*
X230844011Y-65861691D02*
X230820195Y-65968330D01*
X230820195Y-65968330D02*
X230796007Y-66074941D01*
X230796007Y-66074941D02*
X230771763Y-66180157D01*
X230771763Y-66180157D02*
X230747781Y-66282612D01*
X230747781Y-66282612D02*
X230724380Y-66380937D01*
X230724380Y-66380937D02*
X230701876Y-66473767D01*
X230701876Y-66473767D02*
X230680588Y-66559735D01*
X230680588Y-66559735D02*
X230660833Y-66637472D01*
X230660833Y-66637472D02*
X230642930Y-66705613D01*
X230642930Y-66705613D02*
X230627195Y-66762791D01*
X230627195Y-66762791D02*
X230613946Y-66807638D01*
X230613946Y-66807638D02*
X230603501Y-66838787D01*
X230603501Y-66838787D02*
X230596179Y-66854872D01*
X230596179Y-66854872D02*
X230595609Y-66855625D01*
X230595609Y-66855625D02*
X230586637Y-66860727D01*
X230586637Y-66860727D02*
X230574605Y-66856019D01*
X230574605Y-66856019D02*
X230558013Y-66840181D01*
X230558013Y-66840181D02*
X230535363Y-66811894D01*
X230535363Y-66811894D02*
X230516624Y-66786125D01*
X230516624Y-66786125D02*
X230494001Y-66752542D01*
X230494001Y-66752542D02*
X230465735Y-66707446D01*
X230465735Y-66707446D02*
X230431571Y-66650385D01*
X230431571Y-66650385D02*
X230391250Y-66580908D01*
X230391250Y-66580908D02*
X230344516Y-66498561D01*
X230344516Y-66498561D02*
X230291111Y-66402893D01*
X230291111Y-66402893D02*
X230230780Y-66293450D01*
X230230780Y-66293450D02*
X230163265Y-66169781D01*
X230163265Y-66169781D02*
X230094838Y-66043519D01*
X230094838Y-66043519D02*
X229956262Y-65787058D01*
X229956262Y-65787058D02*
X229940371Y-65645115D01*
X229940371Y-65645115D02*
X229748361Y-65645115D01*
X229748361Y-65645115D02*
X229747594Y-65669293D01*
X229747594Y-65669293D02*
X229743351Y-65686904D01*
X229743351Y-65686904D02*
X229734989Y-65703061D01*
X229734989Y-65703061D02*
X229734349Y-65704084D01*
X229734349Y-65704084D02*
X229711650Y-65731517D01*
X229711650Y-65731517D02*
X229674097Y-65765180D01*
X229674097Y-65765180D02*
X229621555Y-65805170D01*
X229621555Y-65805170D02*
X229553889Y-65851582D01*
X229553889Y-65851582D02*
X229470966Y-65904514D01*
X229470966Y-65904514D02*
X229372650Y-65964061D01*
X229372650Y-65964061D02*
X229360942Y-65970989D01*
X229360942Y-65970989D02*
X229332919Y-65987206D01*
X229332919Y-65987206D02*
X229293825Y-66009349D01*
X229293825Y-66009349D02*
X229245178Y-66036590D01*
X229245178Y-66036590D02*
X229188497Y-66068102D01*
X229188497Y-66068102D02*
X229125301Y-66103056D01*
X229125301Y-66103056D02*
X229057108Y-66140624D01*
X229057108Y-66140624D02*
X228985437Y-66179978D01*
X228985437Y-66179978D02*
X228911806Y-66220290D01*
X228911806Y-66220290D02*
X228837734Y-66260733D01*
X228837734Y-66260733D02*
X228764741Y-66300478D01*
X228764741Y-66300478D02*
X228694343Y-66338697D01*
X228694343Y-66338697D02*
X228628061Y-66374562D01*
X228628061Y-66374562D02*
X228567412Y-66407246D01*
X228567412Y-66407246D02*
X228513915Y-66435921D01*
X228513915Y-66435921D02*
X228469090Y-66459757D01*
X228469090Y-66459757D02*
X228434454Y-66477928D01*
X228434454Y-66477928D02*
X228411526Y-66489606D01*
X228411526Y-66489606D02*
X228401824Y-66493962D01*
X228401824Y-66493962D02*
X228401715Y-66493973D01*
X228401715Y-66493973D02*
X228393385Y-66489415D01*
X228393385Y-66489415D02*
X228372641Y-66476421D01*
X228372641Y-66476421D02*
X228341093Y-66456044D01*
X228341093Y-66456044D02*
X228300349Y-66429340D01*
X228300349Y-66429340D02*
X228252020Y-66397364D01*
X228252020Y-66397364D02*
X228197714Y-66361170D01*
X228197714Y-66361170D02*
X228139248Y-66321952D01*
X228139248Y-66321952D02*
X228105417Y-66299106D01*
X228105417Y-66299106D02*
X228061436Y-66269273D01*
X228061436Y-66269273D02*
X228008570Y-66233321D01*
X228008570Y-66233321D02*
X227948083Y-66192114D01*
X227948083Y-66192114D02*
X227881240Y-66146520D01*
X227881240Y-66146520D02*
X227809305Y-66097404D01*
X227809305Y-66097404D02*
X227733541Y-66045632D01*
X227733541Y-66045632D02*
X227655215Y-65992070D01*
X227655215Y-65992070D02*
X227575589Y-65937584D01*
X227575589Y-65937584D02*
X227495928Y-65883040D01*
X227495928Y-65883040D02*
X227417497Y-65829304D01*
X227417497Y-65829304D02*
X227341559Y-65777242D01*
X227341559Y-65777242D02*
X227269380Y-65727720D01*
X227269380Y-65727720D02*
X227202223Y-65681604D01*
X227202223Y-65681604D02*
X227141353Y-65639760D01*
X227141353Y-65639760D02*
X227088034Y-65603054D01*
X227088034Y-65603054D02*
X227043530Y-65572351D01*
X227043530Y-65572351D02*
X227009107Y-65548519D01*
X227009107Y-65548519D02*
X226986027Y-65532423D01*
X226986027Y-65532423D02*
X226975556Y-65524928D01*
X226975556Y-65524928D02*
X226975276Y-65524706D01*
X226975276Y-65524706D02*
X226977603Y-65515969D01*
X226977603Y-65515969D02*
X226987399Y-65492191D01*
X226987399Y-65492191D02*
X227004602Y-65453498D01*
X227004602Y-65453498D02*
X227029154Y-65400017D01*
X227029154Y-65400017D02*
X227060992Y-65331872D01*
X227060992Y-65331872D02*
X227100057Y-65249191D01*
X227100057Y-65249191D02*
X227146287Y-65152099D01*
X227146287Y-65152099D02*
X227199623Y-65040723D01*
X227199623Y-65040723D02*
X227260003Y-64915189D01*
X227260003Y-64915189D02*
X227327368Y-64775623D01*
X227327368Y-64775623D02*
X227401656Y-64622151D01*
X227401656Y-64622151D02*
X227482807Y-64454898D01*
X227482807Y-64454898D02*
X227570761Y-64273993D01*
X227570761Y-64273993D02*
X227665456Y-64079559D01*
X227665456Y-64079559D02*
X227766832Y-63871725D01*
X227766832Y-63871725D02*
X227874829Y-63650615D01*
X227874829Y-63650615D02*
X227900340Y-63598425D01*
X227900340Y-63598425D02*
X228020124Y-63353302D01*
X228020124Y-63353302D02*
X228132546Y-63123042D01*
X228132546Y-63123042D02*
X228237757Y-62907334D01*
X228237757Y-62907334D02*
X228335908Y-62705866D01*
X228335908Y-62705866D02*
X228427151Y-62518327D01*
X228427151Y-62518327D02*
X228511638Y-62344404D01*
X228511638Y-62344404D02*
X228589519Y-62183786D01*
X228589519Y-62183786D02*
X228660945Y-62036163D01*
X228660945Y-62036163D02*
X228726069Y-61901220D01*
X228726069Y-61901220D02*
X228785042Y-61778649D01*
X228785042Y-61778649D02*
X228838014Y-61668135D01*
X228838014Y-61668135D02*
X228842116Y-61659558D01*
X228842116Y-61659558D02*
X228907231Y-61524078D01*
X228907231Y-61524078D02*
X228965707Y-61403924D01*
X228965707Y-61403924D02*
X229017653Y-61298894D01*
X229017653Y-61298894D02*
X229063177Y-61208784D01*
X229063177Y-61208784D02*
X229102389Y-61133389D01*
X229102389Y-61133389D02*
X229135396Y-61072506D01*
X229135396Y-61072506D02*
X229162308Y-61025931D01*
X229162308Y-61025931D02*
X229183232Y-60993460D01*
X229183232Y-60993460D02*
X229198277Y-60974890D01*
X229198277Y-60974890D02*
X229207553Y-60970016D01*
X229207553Y-60970016D02*
X229208934Y-60970862D01*
X229208934Y-60970862D02*
X229212641Y-60981998D01*
X229212641Y-60981998D02*
X229218069Y-61009142D01*
X229218069Y-61009142D02*
X229225120Y-61051467D01*
X229225120Y-61051467D02*
X229233700Y-61108146D01*
X229233700Y-61108146D02*
X229243711Y-61178352D01*
X229243711Y-61178352D02*
X229255060Y-61261257D01*
X229255060Y-61261257D02*
X229267649Y-61356034D01*
X229267649Y-61356034D02*
X229281383Y-61461856D01*
X229281383Y-61461856D02*
X229296165Y-61577895D01*
X229296165Y-61577895D02*
X229311901Y-61703325D01*
X229311901Y-61703325D02*
X229328494Y-61837318D01*
X229328494Y-61837318D02*
X229345849Y-61979046D01*
X229345849Y-61979046D02*
X229363869Y-62127683D01*
X229363869Y-62127683D02*
X229382459Y-62282401D01*
X229382459Y-62282401D02*
X229401522Y-62442373D01*
X229401522Y-62442373D02*
X229420964Y-62606771D01*
X229420964Y-62606771D02*
X229440688Y-62774769D01*
X229440688Y-62774769D02*
X229460599Y-62945539D01*
X229460599Y-62945539D02*
X229480600Y-63118254D01*
X229480600Y-63118254D02*
X229500596Y-63292086D01*
X229500596Y-63292086D02*
X229520490Y-63466209D01*
X229520490Y-63466209D02*
X229540188Y-63639794D01*
X229540188Y-63639794D02*
X229559592Y-63812016D01*
X229559592Y-63812016D02*
X229578609Y-63982045D01*
X229578609Y-63982045D02*
X229597140Y-64149056D01*
X229597140Y-64149056D02*
X229615091Y-64312221D01*
X229615091Y-64312221D02*
X229632367Y-64470712D01*
X229632367Y-64470712D02*
X229648870Y-64623703D01*
X229648870Y-64623703D02*
X229664505Y-64770366D01*
X229664505Y-64770366D02*
X229679176Y-64909873D01*
X229679176Y-64909873D02*
X229692788Y-65041398D01*
X229692788Y-65041398D02*
X229705245Y-65164114D01*
X229705245Y-65164114D02*
X229716450Y-65277192D01*
X229716450Y-65277192D02*
X229726309Y-65379806D01*
X229726309Y-65379806D02*
X229734724Y-65471129D01*
X229734724Y-65471129D02*
X229741601Y-65550333D01*
X229741601Y-65550333D02*
X229746297Y-65609258D01*
X229746297Y-65609258D02*
X229748361Y-65645115D01*
X229748361Y-65645115D02*
X229940371Y-65645115D01*
X229940371Y-65645115D02*
X229861473Y-64940392D01*
X229861473Y-64940392D02*
X229842978Y-64775351D01*
X229842978Y-64775351D02*
X229823885Y-64605263D01*
X229823885Y-64605263D02*
X229804318Y-64431220D01*
X229804318Y-64431220D02*
X229784401Y-64254318D01*
X229784401Y-64254318D02*
X229764258Y-64075652D01*
X229764258Y-64075652D02*
X229744014Y-63896317D01*
X229744014Y-63896317D02*
X229723793Y-63717406D01*
X229723793Y-63717406D02*
X229703720Y-63540016D01*
X229703720Y-63540016D02*
X229683918Y-63365240D01*
X229683918Y-63365240D02*
X229664513Y-63194173D01*
X229664513Y-63194173D02*
X229645628Y-63027911D01*
X229645628Y-63027911D02*
X229627388Y-62867548D01*
X229627388Y-62867548D02*
X229609918Y-62714179D01*
X229609918Y-62714179D02*
X229593341Y-62568898D01*
X229593341Y-62568898D02*
X229577782Y-62432800D01*
X229577782Y-62432800D02*
X229563365Y-62306981D01*
X229563365Y-62306981D02*
X229550214Y-62192534D01*
X229550214Y-62192534D02*
X229538455Y-62090555D01*
X229538455Y-62090555D02*
X229528211Y-62002138D01*
X229528211Y-62002138D02*
X229519607Y-61928379D01*
X229519607Y-61928379D02*
X229512868Y-61871225D01*
X229512868Y-61871225D02*
X229504165Y-61797996D01*
X229504165Y-61797996D02*
X229495502Y-61725086D01*
X229495502Y-61725086D02*
X229487237Y-61655514D01*
X229487237Y-61655514D02*
X229479729Y-61592298D01*
X229479729Y-61592298D02*
X229473336Y-61538455D01*
X229473336Y-61538455D02*
X229468417Y-61497004D01*
X229468417Y-61497004D02*
X229466730Y-61482780D01*
X229466730Y-61482780D02*
X229460756Y-61423604D01*
X229460756Y-61423604D02*
X229458806Y-61380312D01*
X229458806Y-61380312D02*
X229460898Y-61352339D01*
X229460898Y-61352339D02*
X229467047Y-61339117D01*
X229467047Y-61339117D02*
X229470935Y-61337825D01*
X229470935Y-61337825D02*
X229476933Y-61345582D01*
X229476933Y-61345582D02*
X229488718Y-61368302D01*
X229488718Y-61368302D02*
X229505959Y-61405158D01*
X229505959Y-61405158D02*
X229528329Y-61455323D01*
X229528329Y-61455323D02*
X229555497Y-61517969D01*
X229555497Y-61517969D02*
X229587134Y-61592269D01*
X229587134Y-61592269D02*
X229622910Y-61677396D01*
X229622910Y-61677396D02*
X229662496Y-61772523D01*
X229662496Y-61772523D02*
X229705562Y-61876822D01*
X229705562Y-61876822D02*
X229751779Y-61989467D01*
X229751779Y-61989467D02*
X229800817Y-62109629D01*
X229800817Y-62109629D02*
X229852347Y-62236483D01*
X229852347Y-62236483D02*
X229906039Y-62369201D01*
X229906039Y-62369201D02*
X229961565Y-62506955D01*
X229961565Y-62506955D02*
X230018593Y-62648919D01*
X230018593Y-62648919D02*
X230076796Y-62794264D01*
X230076796Y-62794264D02*
X230135843Y-62942165D01*
X230135843Y-62942165D02*
X230195405Y-63091793D01*
X230195405Y-63091793D02*
X230255152Y-63242322D01*
X230255152Y-63242322D02*
X230314755Y-63392924D01*
X230314755Y-63392924D02*
X230373885Y-63542773D01*
X230373885Y-63542773D02*
X230432211Y-63691040D01*
X230432211Y-63691040D02*
X230489405Y-63836899D01*
X230489405Y-63836899D02*
X230545137Y-63979523D01*
X230545137Y-63979523D02*
X230599077Y-64118084D01*
X230599077Y-64118084D02*
X230650897Y-64251755D01*
X230650897Y-64251755D02*
X230700266Y-64379709D01*
X230700266Y-64379709D02*
X230746854Y-64501118D01*
X230746854Y-64501118D02*
X230790334Y-64615157D01*
X230790334Y-64615157D02*
X230830374Y-64720996D01*
X230830374Y-64720996D02*
X230866646Y-64817810D01*
X230866646Y-64817810D02*
X230898820Y-64904771D01*
X230898820Y-64904771D02*
X230926566Y-64981051D01*
X230926566Y-64981051D02*
X230949556Y-65045824D01*
X230949556Y-65045824D02*
X230960264Y-65076864D01*
X230960264Y-65076864D02*
X230986543Y-65154070D01*
X230986543Y-65154070D02*
X231177676Y-65154070D01*
X231177676Y-65154070D02*
X231181261Y-65138970D01*
X231181261Y-65138970D02*
X230748652Y-64049081D01*
X230748652Y-64049081D02*
X230659516Y-63824566D01*
X230659516Y-63824566D02*
X230576294Y-63615047D01*
X230576294Y-63615047D02*
X230498683Y-63419768D01*
X230498683Y-63419768D02*
X230426379Y-63237973D01*
X230426379Y-63237973D02*
X230359081Y-63068908D01*
X230359081Y-63068908D02*
X230296486Y-62911816D01*
X230296486Y-62911816D02*
X230238291Y-62765942D01*
X230238291Y-62765942D02*
X230184194Y-62630531D01*
X230184194Y-62630531D02*
X230133892Y-62504827D01*
X230133892Y-62504827D02*
X230087083Y-62388074D01*
X230087083Y-62388074D02*
X230043464Y-62279517D01*
X230043464Y-62279517D02*
X230002732Y-62178400D01*
X230002732Y-62178400D02*
X229964585Y-62083968D01*
X229964585Y-62083968D02*
X229928721Y-61995465D01*
X229928721Y-61995465D02*
X229894836Y-61912135D01*
X229894836Y-61912135D02*
X229862628Y-61833224D01*
X229862628Y-61833224D02*
X229831796Y-61757976D01*
X229831796Y-61757976D02*
X229806990Y-61697658D01*
X229806990Y-61697658D02*
X229734033Y-61521160D01*
X229734033Y-61521160D02*
X229666154Y-61358185D01*
X229666154Y-61358185D02*
X229603440Y-61208930D01*
X229603440Y-61208930D02*
X229545978Y-61073593D01*
X229545978Y-61073593D02*
X229493857Y-60952371D01*
X229493857Y-60952371D02*
X229447163Y-60845461D01*
X229447163Y-60845461D02*
X229405984Y-60753062D01*
X229405984Y-60753062D02*
X229370407Y-60675370D01*
X229370407Y-60675370D02*
X229340521Y-60612583D01*
X229340521Y-60612583D02*
X229316412Y-60564898D01*
X229316412Y-60564898D02*
X229298169Y-60532513D01*
X229298169Y-60532513D02*
X229285879Y-60515626D01*
X229285879Y-60515626D02*
X229281751Y-60513020D01*
X229281751Y-60513020D02*
X229274385Y-60520171D01*
X229274385Y-60520171D02*
X229274385Y-60520171D01*
G36*
X230689865Y-67205225D02*
G01*
X230683794Y-67220698D01*
X230666822Y-67242487D01*
X230637367Y-67266100D01*
X230623597Y-67275927D01*
X230595613Y-67296222D01*
X230558342Y-67323465D01*
X230514208Y-67355879D01*
X230465634Y-67391687D01*
X230415042Y-67429114D01*
X230392822Y-67445576D01*
X230328392Y-67493268D01*
X230257111Y-67545980D01*
X230183859Y-67600105D01*
X230113520Y-67652035D01*
X230050975Y-67698162D01*
X230024631Y-67717585D01*
X229959931Y-67765336D01*
X229890713Y-67816477D01*
X229821515Y-67867654D01*
X229756878Y-67915508D01*
X229701341Y-67956684D01*
X229691846Y-67963729D01*
X229574446Y-68050487D01*
X229457208Y-68136510D01*
X229341160Y-68221074D01*
X229227333Y-68303452D01*
X229116755Y-68382920D01*
X229010455Y-68458752D01*
X228909464Y-68530222D01*
X228814809Y-68596605D01*
X228727522Y-68657175D01*
X228648630Y-68711207D01*
X228579163Y-68757976D01*
X228520151Y-68796755D01*
X228472622Y-68826819D01*
X228437607Y-68847443D01*
X228415685Y-68859187D01*
X228395693Y-68869126D01*
X228385819Y-68873005D01*
X228381016Y-68871243D01*
X228366248Y-68857390D01*
X228345608Y-68831305D01*
X228320410Y-68794833D01*
X228291963Y-68749821D01*
X228261580Y-68698114D01*
X228258985Y-68693522D01*
X228235526Y-68650596D01*
X228205936Y-68594498D01*
X228171163Y-68527128D01*
X228132152Y-68450389D01*
X228089851Y-68366182D01*
X228045204Y-68276408D01*
X227999158Y-68182969D01*
X227952660Y-68087766D01*
X227906655Y-67992702D01*
X227862091Y-67899676D01*
X227819913Y-67810591D01*
X227804838Y-67778507D01*
X227746768Y-67654453D01*
X227686977Y-67526025D01*
X227625907Y-67394209D01*
X227564000Y-67259992D01*
X227501701Y-67124361D01*
X227439451Y-66988302D01*
X227377693Y-66852802D01*
X227316871Y-66718847D01*
X227257426Y-66587424D01*
X227199803Y-66459519D01*
X227144443Y-66336119D01*
X227091790Y-66218210D01*
X227042286Y-66106780D01*
X226996375Y-66002814D01*
X226954499Y-65907298D01*
X226949207Y-65895118D01*
X227144814Y-65895118D01*
X227151051Y-65917362D01*
X227163980Y-65953615D01*
X227183282Y-66003164D01*
X227208640Y-66065296D01*
X227239733Y-66139297D01*
X227276244Y-66224454D01*
X227317853Y-66320055D01*
X227364242Y-66425386D01*
X227415092Y-66539734D01*
X227470084Y-66662385D01*
X227528900Y-66792628D01*
X227591221Y-66929748D01*
X227656728Y-67073032D01*
X227725103Y-67221768D01*
X227796026Y-67375242D01*
X227869179Y-67532742D01*
X227944243Y-67693553D01*
X228020900Y-67856963D01*
X228098830Y-68022258D01*
X228117998Y-68062650D01*
X228146056Y-68121180D01*
X228171641Y-68173850D01*
X228193815Y-68218765D01*
X228211637Y-68254028D01*
X228224169Y-68277743D01*
X228230471Y-68288014D01*
X228231157Y-68288678D01*
X228238279Y-68291323D01*
X228244696Y-68285036D01*
X228250436Y-68269202D01*
X228255528Y-68243206D01*
X228260000Y-68206432D01*
X228263882Y-68158265D01*
X228267203Y-68098090D01*
X228269990Y-68025291D01*
X228272273Y-67939254D01*
X228272788Y-67910777D01*
X228452074Y-67910777D01*
X228452396Y-68017952D01*
X228453140Y-68120475D01*
X228454287Y-68216811D01*
X228455817Y-68305424D01*
X228457712Y-68384781D01*
X228459953Y-68453346D01*
X228462522Y-68509584D01*
X228465399Y-68551961D01*
X228468566Y-68578941D01*
X228469699Y-68584839D01*
X228474787Y-68603267D01*
X228479551Y-68610691D01*
X228480091Y-68610605D01*
X228491689Y-68604453D01*
X228515894Y-68589076D01*
X228551767Y-68565149D01*
X228598367Y-68533348D01*
X228654752Y-68494349D01*
X228719984Y-68448827D01*
X228793121Y-68397458D01*
X228873223Y-68340917D01*
X228959349Y-68279880D01*
X229050559Y-68215023D01*
X229145912Y-68147020D01*
X229244468Y-68076549D01*
X229345287Y-68004283D01*
X229447427Y-67930900D01*
X229549949Y-67857074D01*
X229651912Y-67783481D01*
X229752375Y-67710797D01*
X229850398Y-67639697D01*
X229945041Y-67570857D01*
X230035363Y-67504953D01*
X230120423Y-67442659D01*
X230199282Y-67384652D01*
X230270998Y-67331608D01*
X230334631Y-67284201D01*
X230389240Y-67243107D01*
X230433886Y-67209003D01*
X230467627Y-67182563D01*
X230474313Y-67173892D01*
X230473932Y-67152930D01*
X230470690Y-67144149D01*
X230459047Y-67117485D01*
X230440634Y-67078238D01*
X230416232Y-67027921D01*
X230386627Y-66968045D01*
X230352602Y-66900123D01*
X230314941Y-66825667D01*
X230274428Y-66746190D01*
X230231847Y-66663204D01*
X230187981Y-66578221D01*
X230143615Y-66492754D01*
X230099532Y-66408315D01*
X230056516Y-66326417D01*
X230015351Y-66248571D01*
X229976821Y-66176290D01*
X229941709Y-66111087D01*
X229910800Y-66054473D01*
X229884878Y-66007962D01*
X229864725Y-65973065D01*
X229851127Y-65951295D01*
X229837544Y-65931444D01*
X229664860Y-66016985D01*
X229631023Y-66033874D01*
X229572919Y-66063235D01*
X229505331Y-66097708D01*
X229431457Y-66135648D01*
X229354498Y-66175411D01*
X229277652Y-66215352D01*
X229204119Y-66253825D01*
X229163153Y-66275340D01*
X229082113Y-66317890D01*
X228996803Y-66362669D01*
X228911073Y-66407656D01*
X228828775Y-66450832D01*
X228753763Y-66490173D01*
X228689889Y-66523658D01*
X228483447Y-66631850D01*
X228463714Y-66642192D01*
X228463384Y-66811525D01*
X228463298Y-66833512D01*
X228462940Y-66883063D01*
X228462337Y-66946019D01*
X228461518Y-67020161D01*
X228460510Y-67103271D01*
X228459340Y-67193129D01*
X228458036Y-67287514D01*
X228456624Y-67384209D01*
X228455133Y-67480992D01*
X228453821Y-67576686D01*
X228452768Y-67688609D01*
X228452191Y-67800484D01*
X228452074Y-67910777D01*
X228272788Y-67910777D01*
X228274080Y-67839363D01*
X228275440Y-67725002D01*
X228276382Y-67595558D01*
X228276935Y-67450413D01*
X228277127Y-67288954D01*
X228277209Y-66631850D01*
X227940659Y-66399041D01*
X227829195Y-66322107D01*
X227707819Y-66238812D01*
X227599431Y-66165023D01*
X227503646Y-66100493D01*
X227420079Y-66044974D01*
X227348346Y-65998219D01*
X227288059Y-65959980D01*
X227238836Y-65930011D01*
X227200290Y-65908063D01*
X227172036Y-65893891D01*
X227153690Y-65887245D01*
X227144866Y-65887879D01*
X227144814Y-65895118D01*
X226949207Y-65895118D01*
X226917100Y-65821221D01*
X226884623Y-65745567D01*
X226857509Y-65681324D01*
X226836201Y-65629479D01*
X226821143Y-65591017D01*
X226812777Y-65566925D01*
X226812244Y-65565094D01*
X226808484Y-65548909D01*
X226808173Y-65533680D01*
X226810119Y-65524706D01*
X226975276Y-65524706D01*
X226975556Y-65524928D01*
X226986027Y-65532423D01*
X227009107Y-65548519D01*
X227043530Y-65572351D01*
X227088034Y-65603054D01*
X227141353Y-65639760D01*
X227202223Y-65681604D01*
X227269380Y-65727720D01*
X227341559Y-65777242D01*
X227417497Y-65829304D01*
X227495928Y-65883040D01*
X227575589Y-65937584D01*
X227655215Y-65992070D01*
X227733541Y-66045632D01*
X227809305Y-66097404D01*
X227881240Y-66146520D01*
X227948083Y-66192114D01*
X228008570Y-66233321D01*
X228061436Y-66269273D01*
X228105417Y-66299106D01*
X228139248Y-66321952D01*
X228197714Y-66361170D01*
X228252020Y-66397364D01*
X228300349Y-66429340D01*
X228341093Y-66456044D01*
X228372641Y-66476421D01*
X228393385Y-66489415D01*
X228401715Y-66493973D01*
X228401824Y-66493962D01*
X228411526Y-66489606D01*
X228434454Y-66477928D01*
X228469090Y-66459757D01*
X228513915Y-66435921D01*
X228567412Y-66407246D01*
X228628061Y-66374562D01*
X228694343Y-66338697D01*
X228764741Y-66300478D01*
X228837734Y-66260733D01*
X228911806Y-66220290D01*
X228985437Y-66179978D01*
X229057108Y-66140624D01*
X229125301Y-66103056D01*
X229188497Y-66068102D01*
X229245178Y-66036590D01*
X229293825Y-66009349D01*
X229332919Y-65987206D01*
X229360942Y-65970989D01*
X229372650Y-65964061D01*
X229470966Y-65904514D01*
X229553889Y-65851582D01*
X229621555Y-65805170D01*
X229674097Y-65765180D01*
X229711650Y-65731517D01*
X229734349Y-65704084D01*
X229734989Y-65703061D01*
X229743351Y-65686904D01*
X229747594Y-65669293D01*
X229748361Y-65645115D01*
X229746297Y-65609258D01*
X229741601Y-65550333D01*
X229734724Y-65471129D01*
X229726309Y-65379806D01*
X229716450Y-65277192D01*
X229705245Y-65164114D01*
X229692788Y-65041398D01*
X229679176Y-64909873D01*
X229664505Y-64770366D01*
X229648870Y-64623703D01*
X229632367Y-64470712D01*
X229615091Y-64312221D01*
X229597140Y-64149056D01*
X229578609Y-63982045D01*
X229559592Y-63812016D01*
X229540188Y-63639794D01*
X229520490Y-63466209D01*
X229500596Y-63292086D01*
X229480600Y-63118254D01*
X229460599Y-62945539D01*
X229440688Y-62774769D01*
X229420964Y-62606771D01*
X229401522Y-62442373D01*
X229382459Y-62282401D01*
X229363869Y-62127683D01*
X229345849Y-61979046D01*
X229328494Y-61837318D01*
X229311901Y-61703325D01*
X229296165Y-61577895D01*
X229281383Y-61461856D01*
X229270800Y-61380312D01*
X229458806Y-61380312D01*
X229460756Y-61423604D01*
X229466730Y-61482780D01*
X229468417Y-61497004D01*
X229473336Y-61538455D01*
X229479729Y-61592298D01*
X229487237Y-61655514D01*
X229495502Y-61725086D01*
X229504165Y-61797996D01*
X229512868Y-61871225D01*
X229519607Y-61928379D01*
X229528211Y-62002138D01*
X229538455Y-62090555D01*
X229550214Y-62192534D01*
X229563365Y-62306981D01*
X229577782Y-62432800D01*
X229593341Y-62568898D01*
X229609918Y-62714179D01*
X229627388Y-62867548D01*
X229645628Y-63027911D01*
X229664513Y-63194173D01*
X229683918Y-63365240D01*
X229703720Y-63540016D01*
X229723793Y-63717406D01*
X229744014Y-63896317D01*
X229764258Y-64075652D01*
X229784401Y-64254318D01*
X229804318Y-64431220D01*
X229823885Y-64605263D01*
X229842978Y-64775351D01*
X229861473Y-64940392D01*
X229940371Y-65645115D01*
X229956262Y-65787058D01*
X230094838Y-66043519D01*
X230163265Y-66169781D01*
X230230780Y-66293450D01*
X230291111Y-66402893D01*
X230344516Y-66498561D01*
X230391250Y-66580908D01*
X230431571Y-66650385D01*
X230465735Y-66707446D01*
X230494001Y-66752542D01*
X230516624Y-66786125D01*
X230535363Y-66811894D01*
X230558013Y-66840181D01*
X230574605Y-66856019D01*
X230586637Y-66860727D01*
X230595609Y-66855625D01*
X230596179Y-66854872D01*
X230603501Y-66838787D01*
X230613946Y-66807638D01*
X230627195Y-66762791D01*
X230642930Y-66705613D01*
X230660833Y-66637472D01*
X230680588Y-66559735D01*
X230701876Y-66473767D01*
X230724380Y-66380937D01*
X230747781Y-66282612D01*
X230771763Y-66180157D01*
X230796007Y-66074941D01*
X230820195Y-65968330D01*
X230844011Y-65861691D01*
X230867137Y-65756391D01*
X230889254Y-65653798D01*
X230910045Y-65555277D01*
X230929192Y-65462196D01*
X230946378Y-65375923D01*
X230961285Y-65297823D01*
X230973595Y-65229264D01*
X230986543Y-65154070D01*
X230960264Y-65076864D01*
X230949556Y-65045824D01*
X230926566Y-64981051D01*
X230898820Y-64904771D01*
X230866646Y-64817810D01*
X230830374Y-64720996D01*
X230790334Y-64615157D01*
X230746854Y-64501118D01*
X230700266Y-64379709D01*
X230650897Y-64251755D01*
X230599077Y-64118084D01*
X230545137Y-63979523D01*
X230489405Y-63836899D01*
X230432211Y-63691040D01*
X230373885Y-63542773D01*
X230314755Y-63392924D01*
X230255152Y-63242322D01*
X230195405Y-63091793D01*
X230135843Y-62942165D01*
X230076796Y-62794264D01*
X230018593Y-62648919D01*
X229961565Y-62506955D01*
X229906039Y-62369201D01*
X229852347Y-62236483D01*
X229800817Y-62109629D01*
X229751779Y-61989467D01*
X229705562Y-61876822D01*
X229662496Y-61772523D01*
X229622910Y-61677396D01*
X229587134Y-61592269D01*
X229555497Y-61517969D01*
X229528329Y-61455323D01*
X229505959Y-61405158D01*
X229488718Y-61368302D01*
X229476933Y-61345582D01*
X229470935Y-61337825D01*
X229467047Y-61339117D01*
X229460898Y-61352339D01*
X229458806Y-61380312D01*
X229270800Y-61380312D01*
X229267649Y-61356034D01*
X229255060Y-61261257D01*
X229243711Y-61178352D01*
X229233700Y-61108146D01*
X229225120Y-61051467D01*
X229218069Y-61009142D01*
X229212641Y-60981998D01*
X229208934Y-60970862D01*
X229207553Y-60970016D01*
X229198277Y-60974890D01*
X229183232Y-60993460D01*
X229162308Y-61025931D01*
X229135396Y-61072506D01*
X229102389Y-61133389D01*
X229063177Y-61208784D01*
X229017653Y-61298894D01*
X228965707Y-61403924D01*
X228907231Y-61524078D01*
X228842116Y-61659558D01*
X228838014Y-61668135D01*
X228785042Y-61778649D01*
X228726069Y-61901220D01*
X228660945Y-62036163D01*
X228589519Y-62183786D01*
X228511638Y-62344404D01*
X228427151Y-62518327D01*
X228335908Y-62705866D01*
X228237757Y-62907334D01*
X228132546Y-63123042D01*
X228020124Y-63353302D01*
X227900340Y-63598425D01*
X227874829Y-63650615D01*
X227766832Y-63871725D01*
X227665456Y-64079559D01*
X227570761Y-64273993D01*
X227482807Y-64454898D01*
X227401656Y-64622151D01*
X227327368Y-64775623D01*
X227260003Y-64915189D01*
X227199623Y-65040723D01*
X227146287Y-65152099D01*
X227100057Y-65249191D01*
X227060992Y-65331872D01*
X227029154Y-65400017D01*
X227004602Y-65453498D01*
X226987399Y-65492191D01*
X226977603Y-65515969D01*
X226975276Y-65524706D01*
X226810119Y-65524706D01*
X226812159Y-65515297D01*
X226821295Y-65489649D01*
X226836430Y-65452625D01*
X226858720Y-65400456D01*
X226888835Y-65332253D01*
X226924802Y-65252613D01*
X226966283Y-65162222D01*
X227012940Y-65061764D01*
X227064434Y-64951922D01*
X227120426Y-64833382D01*
X227180576Y-64706827D01*
X227244547Y-64572943D01*
X227312000Y-64432412D01*
X227382596Y-64285920D01*
X227455996Y-64134150D01*
X227531862Y-63977787D01*
X227609854Y-63817516D01*
X227689634Y-63654020D01*
X227770864Y-63487983D01*
X227853203Y-63320091D01*
X227936315Y-63151027D01*
X228019859Y-62981476D01*
X228103498Y-62812122D01*
X228186892Y-62643648D01*
X228269703Y-62476741D01*
X228351592Y-62312083D01*
X228432220Y-62150359D01*
X228511249Y-61992253D01*
X228588339Y-61838450D01*
X228663152Y-61689633D01*
X228735350Y-61546488D01*
X228804593Y-61409698D01*
X228870542Y-61279948D01*
X228932860Y-61157922D01*
X228991207Y-61044304D01*
X229045244Y-60939779D01*
X229094634Y-60845030D01*
X229139036Y-60760743D01*
X229178112Y-60687601D01*
X229211524Y-60626288D01*
X229238933Y-60577490D01*
X229259999Y-60541889D01*
X229274385Y-60520171D01*
X229281751Y-60513020D01*
X229285879Y-60515626D01*
X229298169Y-60532513D01*
X229316412Y-60564898D01*
X229340521Y-60612583D01*
X229370407Y-60675370D01*
X229405984Y-60753062D01*
X229447163Y-60845461D01*
X229493857Y-60952371D01*
X229545978Y-61073593D01*
X229603440Y-61208930D01*
X229666154Y-61358185D01*
X229734033Y-61521160D01*
X229806990Y-61697658D01*
X229831796Y-61757976D01*
X229862628Y-61833224D01*
X229894836Y-61912135D01*
X229928721Y-61995465D01*
X229964585Y-62083968D01*
X230002732Y-62178400D01*
X230043464Y-62279517D01*
X230087083Y-62388074D01*
X230133892Y-62504827D01*
X230184194Y-62630531D01*
X230238291Y-62765942D01*
X230296486Y-62911816D01*
X230359081Y-63068908D01*
X230426379Y-63237973D01*
X230498683Y-63419768D01*
X230576294Y-63615047D01*
X230659516Y-63824566D01*
X230748652Y-64049081D01*
X231181261Y-65138970D01*
X231177676Y-65154070D01*
X230939550Y-66157281D01*
X230912728Y-66270255D01*
X230883022Y-66395320D01*
X230854522Y-66515248D01*
X230827472Y-66629009D01*
X230802120Y-66735572D01*
X230778710Y-66833905D01*
X230757489Y-66922979D01*
X230738701Y-67001761D01*
X230722593Y-67069221D01*
X230709409Y-67124328D01*
X230699396Y-67166052D01*
X230697502Y-67173892D01*
X230692800Y-67193361D01*
X230689865Y-67205225D01*
G37*
X230689865Y-67205225D02*
X230683794Y-67220698D01*
X230666822Y-67242487D01*
X230637367Y-67266100D01*
X230623597Y-67275927D01*
X230595613Y-67296222D01*
X230558342Y-67323465D01*
X230514208Y-67355879D01*
X230465634Y-67391687D01*
X230415042Y-67429114D01*
X230392822Y-67445576D01*
X230328392Y-67493268D01*
X230257111Y-67545980D01*
X230183859Y-67600105D01*
X230113520Y-67652035D01*
X230050975Y-67698162D01*
X230024631Y-67717585D01*
X229959931Y-67765336D01*
X229890713Y-67816477D01*
X229821515Y-67867654D01*
X229756878Y-67915508D01*
X229701341Y-67956684D01*
X229691846Y-67963729D01*
X229574446Y-68050487D01*
X229457208Y-68136510D01*
X229341160Y-68221074D01*
X229227333Y-68303452D01*
X229116755Y-68382920D01*
X229010455Y-68458752D01*
X228909464Y-68530222D01*
X228814809Y-68596605D01*
X228727522Y-68657175D01*
X228648630Y-68711207D01*
X228579163Y-68757976D01*
X228520151Y-68796755D01*
X228472622Y-68826819D01*
X228437607Y-68847443D01*
X228415685Y-68859187D01*
X228395693Y-68869126D01*
X228385819Y-68873005D01*
X228381016Y-68871243D01*
X228366248Y-68857390D01*
X228345608Y-68831305D01*
X228320410Y-68794833D01*
X228291963Y-68749821D01*
X228261580Y-68698114D01*
X228258985Y-68693522D01*
X228235526Y-68650596D01*
X228205936Y-68594498D01*
X228171163Y-68527128D01*
X228132152Y-68450389D01*
X228089851Y-68366182D01*
X228045204Y-68276408D01*
X227999158Y-68182969D01*
X227952660Y-68087766D01*
X227906655Y-67992702D01*
X227862091Y-67899676D01*
X227819913Y-67810591D01*
X227804838Y-67778507D01*
X227746768Y-67654453D01*
X227686977Y-67526025D01*
X227625907Y-67394209D01*
X227564000Y-67259992D01*
X227501701Y-67124361D01*
X227439451Y-66988302D01*
X227377693Y-66852802D01*
X227316871Y-66718847D01*
X227257426Y-66587424D01*
X227199803Y-66459519D01*
X227144443Y-66336119D01*
X227091790Y-66218210D01*
X227042286Y-66106780D01*
X226996375Y-66002814D01*
X226954499Y-65907298D01*
X226949207Y-65895118D01*
X227144814Y-65895118D01*
X227151051Y-65917362D01*
X227163980Y-65953615D01*
X227183282Y-66003164D01*
X227208640Y-66065296D01*
X227239733Y-66139297D01*
X227276244Y-66224454D01*
X227317853Y-66320055D01*
X227364242Y-66425386D01*
X227415092Y-66539734D01*
X227470084Y-66662385D01*
X227528900Y-66792628D01*
X227591221Y-66929748D01*
X227656728Y-67073032D01*
X227725103Y-67221768D01*
X227796026Y-67375242D01*
X227869179Y-67532742D01*
X227944243Y-67693553D01*
X228020900Y-67856963D01*
X228098830Y-68022258D01*
X228117998Y-68062650D01*
X228146056Y-68121180D01*
X228171641Y-68173850D01*
X228193815Y-68218765D01*
X228211637Y-68254028D01*
X228224169Y-68277743D01*
X228230471Y-68288014D01*
X228231157Y-68288678D01*
X228238279Y-68291323D01*
X228244696Y-68285036D01*
X228250436Y-68269202D01*
X228255528Y-68243206D01*
X228260000Y-68206432D01*
X228263882Y-68158265D01*
X228267203Y-68098090D01*
X228269990Y-68025291D01*
X228272273Y-67939254D01*
X228272788Y-67910777D01*
X228452074Y-67910777D01*
X228452396Y-68017952D01*
X228453140Y-68120475D01*
X228454287Y-68216811D01*
X228455817Y-68305424D01*
X228457712Y-68384781D01*
X228459953Y-68453346D01*
X228462522Y-68509584D01*
X228465399Y-68551961D01*
X228468566Y-68578941D01*
X228469699Y-68584839D01*
X228474787Y-68603267D01*
X228479551Y-68610691D01*
X228480091Y-68610605D01*
X228491689Y-68604453D01*
X228515894Y-68589076D01*
X228551767Y-68565149D01*
X228598367Y-68533348D01*
X228654752Y-68494349D01*
X228719984Y-68448827D01*
X228793121Y-68397458D01*
X228873223Y-68340917D01*
X228959349Y-68279880D01*
X229050559Y-68215023D01*
X229145912Y-68147020D01*
X229244468Y-68076549D01*
X229345287Y-68004283D01*
X229447427Y-67930900D01*
X229549949Y-67857074D01*
X229651912Y-67783481D01*
X229752375Y-67710797D01*
X229850398Y-67639697D01*
X229945041Y-67570857D01*
X230035363Y-67504953D01*
X230120423Y-67442659D01*
X230199282Y-67384652D01*
X230270998Y-67331608D01*
X230334631Y-67284201D01*
X230389240Y-67243107D01*
X230433886Y-67209003D01*
X230467627Y-67182563D01*
X230474313Y-67173892D01*
X230473932Y-67152930D01*
X230470690Y-67144149D01*
X230459047Y-67117485D01*
X230440634Y-67078238D01*
X230416232Y-67027921D01*
X230386627Y-66968045D01*
X230352602Y-66900123D01*
X230314941Y-66825667D01*
X230274428Y-66746190D01*
X230231847Y-66663204D01*
X230187981Y-66578221D01*
X230143615Y-66492754D01*
X230099532Y-66408315D01*
X230056516Y-66326417D01*
X230015351Y-66248571D01*
X229976821Y-66176290D01*
X229941709Y-66111087D01*
X229910800Y-66054473D01*
X229884878Y-66007962D01*
X229864725Y-65973065D01*
X229851127Y-65951295D01*
X229837544Y-65931444D01*
X229664860Y-66016985D01*
X229631023Y-66033874D01*
X229572919Y-66063235D01*
X229505331Y-66097708D01*
X229431457Y-66135648D01*
X229354498Y-66175411D01*
X229277652Y-66215352D01*
X229204119Y-66253825D01*
X229163153Y-66275340D01*
X229082113Y-66317890D01*
X228996803Y-66362669D01*
X228911073Y-66407656D01*
X228828775Y-66450832D01*
X228753763Y-66490173D01*
X228689889Y-66523658D01*
X228483447Y-66631850D01*
X228463714Y-66642192D01*
X228463384Y-66811525D01*
X228463298Y-66833512D01*
X228462940Y-66883063D01*
X228462337Y-66946019D01*
X228461518Y-67020161D01*
X228460510Y-67103271D01*
X228459340Y-67193129D01*
X228458036Y-67287514D01*
X228456624Y-67384209D01*
X228455133Y-67480992D01*
X228453821Y-67576686D01*
X228452768Y-67688609D01*
X228452191Y-67800484D01*
X228452074Y-67910777D01*
X228272788Y-67910777D01*
X228274080Y-67839363D01*
X228275440Y-67725002D01*
X228276382Y-67595558D01*
X228276935Y-67450413D01*
X228277127Y-67288954D01*
X228277209Y-66631850D01*
X227940659Y-66399041D01*
X227829195Y-66322107D01*
X227707819Y-66238812D01*
X227599431Y-66165023D01*
X227503646Y-66100493D01*
X227420079Y-66044974D01*
X227348346Y-65998219D01*
X227288059Y-65959980D01*
X227238836Y-65930011D01*
X227200290Y-65908063D01*
X227172036Y-65893891D01*
X227153690Y-65887245D01*
X227144866Y-65887879D01*
X227144814Y-65895118D01*
X226949207Y-65895118D01*
X226917100Y-65821221D01*
X226884623Y-65745567D01*
X226857509Y-65681324D01*
X226836201Y-65629479D01*
X226821143Y-65591017D01*
X226812777Y-65566925D01*
X226812244Y-65565094D01*
X226808484Y-65548909D01*
X226808173Y-65533680D01*
X226810119Y-65524706D01*
X226975276Y-65524706D01*
X226975556Y-65524928D01*
X226986027Y-65532423D01*
X227009107Y-65548519D01*
X227043530Y-65572351D01*
X227088034Y-65603054D01*
X227141353Y-65639760D01*
X227202223Y-65681604D01*
X227269380Y-65727720D01*
X227341559Y-65777242D01*
X227417497Y-65829304D01*
X227495928Y-65883040D01*
X227575589Y-65937584D01*
X227655215Y-65992070D01*
X227733541Y-66045632D01*
X227809305Y-66097404D01*
X227881240Y-66146520D01*
X227948083Y-66192114D01*
X228008570Y-66233321D01*
X228061436Y-66269273D01*
X228105417Y-66299106D01*
X228139248Y-66321952D01*
X228197714Y-66361170D01*
X228252020Y-66397364D01*
X228300349Y-66429340D01*
X228341093Y-66456044D01*
X228372641Y-66476421D01*
X228393385Y-66489415D01*
X228401715Y-66493973D01*
X228401824Y-66493962D01*
X228411526Y-66489606D01*
X228434454Y-66477928D01*
X228469090Y-66459757D01*
X228513915Y-66435921D01*
X228567412Y-66407246D01*
X228628061Y-66374562D01*
X228694343Y-66338697D01*
X228764741Y-66300478D01*
X228837734Y-66260733D01*
X228911806Y-66220290D01*
X228985437Y-66179978D01*
X229057108Y-66140624D01*
X229125301Y-66103056D01*
X229188497Y-66068102D01*
X229245178Y-66036590D01*
X229293825Y-66009349D01*
X229332919Y-65987206D01*
X229360942Y-65970989D01*
X229372650Y-65964061D01*
X229470966Y-65904514D01*
X229553889Y-65851582D01*
X229621555Y-65805170D01*
X229674097Y-65765180D01*
X229711650Y-65731517D01*
X229734349Y-65704084D01*
X229734989Y-65703061D01*
X229743351Y-65686904D01*
X229747594Y-65669293D01*
X229748361Y-65645115D01*
X229746297Y-65609258D01*
X229741601Y-65550333D01*
X229734724Y-65471129D01*
X229726309Y-65379806D01*
X229716450Y-65277192D01*
X229705245Y-65164114D01*
X229692788Y-65041398D01*
X229679176Y-64909873D01*
X229664505Y-64770366D01*
X229648870Y-64623703D01*
X229632367Y-64470712D01*
X229615091Y-64312221D01*
X229597140Y-64149056D01*
X229578609Y-63982045D01*
X229559592Y-63812016D01*
X229540188Y-63639794D01*
X229520490Y-63466209D01*
X229500596Y-63292086D01*
X229480600Y-63118254D01*
X229460599Y-62945539D01*
X229440688Y-62774769D01*
X229420964Y-62606771D01*
X229401522Y-62442373D01*
X229382459Y-62282401D01*
X229363869Y-62127683D01*
X229345849Y-61979046D01*
X229328494Y-61837318D01*
X229311901Y-61703325D01*
X229296165Y-61577895D01*
X229281383Y-61461856D01*
X229270800Y-61380312D01*
X229458806Y-61380312D01*
X229460756Y-61423604D01*
X229466730Y-61482780D01*
X229468417Y-61497004D01*
X229473336Y-61538455D01*
X229479729Y-61592298D01*
X229487237Y-61655514D01*
X229495502Y-61725086D01*
X229504165Y-61797996D01*
X229512868Y-61871225D01*
X229519607Y-61928379D01*
X229528211Y-62002138D01*
X229538455Y-62090555D01*
X229550214Y-62192534D01*
X229563365Y-62306981D01*
X229577782Y-62432800D01*
X229593341Y-62568898D01*
X229609918Y-62714179D01*
X229627388Y-62867548D01*
X229645628Y-63027911D01*
X229664513Y-63194173D01*
X229683918Y-63365240D01*
X229703720Y-63540016D01*
X229723793Y-63717406D01*
X229744014Y-63896317D01*
X229764258Y-64075652D01*
X229784401Y-64254318D01*
X229804318Y-64431220D01*
X229823885Y-64605263D01*
X229842978Y-64775351D01*
X229861473Y-64940392D01*
X229940371Y-65645115D01*
X229956262Y-65787058D01*
X230094838Y-66043519D01*
X230163265Y-66169781D01*
X230230780Y-66293450D01*
X230291111Y-66402893D01*
X230344516Y-66498561D01*
X230391250Y-66580908D01*
X230431571Y-66650385D01*
X230465735Y-66707446D01*
X230494001Y-66752542D01*
X230516624Y-66786125D01*
X230535363Y-66811894D01*
X230558013Y-66840181D01*
X230574605Y-66856019D01*
X230586637Y-66860727D01*
X230595609Y-66855625D01*
X230596179Y-66854872D01*
X230603501Y-66838787D01*
X230613946Y-66807638D01*
X230627195Y-66762791D01*
X230642930Y-66705613D01*
X230660833Y-66637472D01*
X230680588Y-66559735D01*
X230701876Y-66473767D01*
X230724380Y-66380937D01*
X230747781Y-66282612D01*
X230771763Y-66180157D01*
X230796007Y-66074941D01*
X230820195Y-65968330D01*
X230844011Y-65861691D01*
X230867137Y-65756391D01*
X230889254Y-65653798D01*
X230910045Y-65555277D01*
X230929192Y-65462196D01*
X230946378Y-65375923D01*
X230961285Y-65297823D01*
X230973595Y-65229264D01*
X230986543Y-65154070D01*
X230960264Y-65076864D01*
X230949556Y-65045824D01*
X230926566Y-64981051D01*
X230898820Y-64904771D01*
X230866646Y-64817810D01*
X230830374Y-64720996D01*
X230790334Y-64615157D01*
X230746854Y-64501118D01*
X230700266Y-64379709D01*
X230650897Y-64251755D01*
X230599077Y-64118084D01*
X230545137Y-63979523D01*
X230489405Y-63836899D01*
X230432211Y-63691040D01*
X230373885Y-63542773D01*
X230314755Y-63392924D01*
X230255152Y-63242322D01*
X230195405Y-63091793D01*
X230135843Y-62942165D01*
X230076796Y-62794264D01*
X230018593Y-62648919D01*
X229961565Y-62506955D01*
X229906039Y-62369201D01*
X229852347Y-62236483D01*
X229800817Y-62109629D01*
X229751779Y-61989467D01*
X229705562Y-61876822D01*
X229662496Y-61772523D01*
X229622910Y-61677396D01*
X229587134Y-61592269D01*
X229555497Y-61517969D01*
X229528329Y-61455323D01*
X229505959Y-61405158D01*
X229488718Y-61368302D01*
X229476933Y-61345582D01*
X229470935Y-61337825D01*
X229467047Y-61339117D01*
X229460898Y-61352339D01*
X229458806Y-61380312D01*
X229270800Y-61380312D01*
X229267649Y-61356034D01*
X229255060Y-61261257D01*
X229243711Y-61178352D01*
X229233700Y-61108146D01*
X229225120Y-61051467D01*
X229218069Y-61009142D01*
X229212641Y-60981998D01*
X229208934Y-60970862D01*
X229207553Y-60970016D01*
X229198277Y-60974890D01*
X229183232Y-60993460D01*
X229162308Y-61025931D01*
X229135396Y-61072506D01*
X229102389Y-61133389D01*
X229063177Y-61208784D01*
X229017653Y-61298894D01*
X228965707Y-61403924D01*
X228907231Y-61524078D01*
X228842116Y-61659558D01*
X228838014Y-61668135D01*
X228785042Y-61778649D01*
X228726069Y-61901220D01*
X228660945Y-62036163D01*
X228589519Y-62183786D01*
X228511638Y-62344404D01*
X228427151Y-62518327D01*
X228335908Y-62705866D01*
X228237757Y-62907334D01*
X228132546Y-63123042D01*
X228020124Y-63353302D01*
X227900340Y-63598425D01*
X227874829Y-63650615D01*
X227766832Y-63871725D01*
X227665456Y-64079559D01*
X227570761Y-64273993D01*
X227482807Y-64454898D01*
X227401656Y-64622151D01*
X227327368Y-64775623D01*
X227260003Y-64915189D01*
X227199623Y-65040723D01*
X227146287Y-65152099D01*
X227100057Y-65249191D01*
X227060992Y-65331872D01*
X227029154Y-65400017D01*
X227004602Y-65453498D01*
X226987399Y-65492191D01*
X226977603Y-65515969D01*
X226975276Y-65524706D01*
X226810119Y-65524706D01*
X226812159Y-65515297D01*
X226821295Y-65489649D01*
X226836430Y-65452625D01*
X226858720Y-65400456D01*
X226888835Y-65332253D01*
X226924802Y-65252613D01*
X226966283Y-65162222D01*
X227012940Y-65061764D01*
X227064434Y-64951922D01*
X227120426Y-64833382D01*
X227180576Y-64706827D01*
X227244547Y-64572943D01*
X227312000Y-64432412D01*
X227382596Y-64285920D01*
X227455996Y-64134150D01*
X227531862Y-63977787D01*
X227609854Y-63817516D01*
X227689634Y-63654020D01*
X227770864Y-63487983D01*
X227853203Y-63320091D01*
X227936315Y-63151027D01*
X228019859Y-62981476D01*
X228103498Y-62812122D01*
X228186892Y-62643648D01*
X228269703Y-62476741D01*
X228351592Y-62312083D01*
X228432220Y-62150359D01*
X228511249Y-61992253D01*
X228588339Y-61838450D01*
X228663152Y-61689633D01*
X228735350Y-61546488D01*
X228804593Y-61409698D01*
X228870542Y-61279948D01*
X228932860Y-61157922D01*
X228991207Y-61044304D01*
X229045244Y-60939779D01*
X229094634Y-60845030D01*
X229139036Y-60760743D01*
X229178112Y-60687601D01*
X229211524Y-60626288D01*
X229238933Y-60577490D01*
X229259999Y-60541889D01*
X229274385Y-60520171D01*
X229281751Y-60513020D01*
X229285879Y-60515626D01*
X229298169Y-60532513D01*
X229316412Y-60564898D01*
X229340521Y-60612583D01*
X229370407Y-60675370D01*
X229405984Y-60753062D01*
X229447163Y-60845461D01*
X229493857Y-60952371D01*
X229545978Y-61073593D01*
X229603440Y-61208930D01*
X229666154Y-61358185D01*
X229734033Y-61521160D01*
X229806990Y-61697658D01*
X229831796Y-61757976D01*
X229862628Y-61833224D01*
X229894836Y-61912135D01*
X229928721Y-61995465D01*
X229964585Y-62083968D01*
X230002732Y-62178400D01*
X230043464Y-62279517D01*
X230087083Y-62388074D01*
X230133892Y-62504827D01*
X230184194Y-62630531D01*
X230238291Y-62765942D01*
X230296486Y-62911816D01*
X230359081Y-63068908D01*
X230426379Y-63237973D01*
X230498683Y-63419768D01*
X230576294Y-63615047D01*
X230659516Y-63824566D01*
X230748652Y-64049081D01*
X231181261Y-65138970D01*
X231177676Y-65154070D01*
X230939550Y-66157281D01*
X230912728Y-66270255D01*
X230883022Y-66395320D01*
X230854522Y-66515248D01*
X230827472Y-66629009D01*
X230802120Y-66735572D01*
X230778710Y-66833905D01*
X230757489Y-66922979D01*
X230738701Y-67001761D01*
X230722593Y-67069221D01*
X230709409Y-67124328D01*
X230699396Y-67166052D01*
X230697502Y-67173892D01*
X230692800Y-67193361D01*
X230689865Y-67205225D01*
X227640233Y-64780038D02*
X227642491Y-65250455D01*
X227642491Y-65250455D02*
X227544966Y-65247823D01*
X227544966Y-65247823D02*
X227447442Y-65245192D01*
X227447442Y-65245192D02*
X227447459Y-65323508D01*
X227447459Y-65323508D02*
X227447476Y-65401825D01*
X227447476Y-65401825D02*
X227642209Y-65401825D01*
X227642209Y-65401825D02*
X227642209Y-65748958D01*
X227642209Y-65748958D02*
X227828476Y-65748958D01*
X227828476Y-65748958D02*
X227828476Y-65401825D01*
X227828476Y-65401825D02*
X228135392Y-65401844D01*
X228135392Y-65401844D02*
X228442309Y-65401862D01*
X228442309Y-65401862D02*
X228438075Y-65304912D01*
X228438075Y-65304912D02*
X228435207Y-65239209D01*
X228435207Y-65239209D02*
X228279906Y-65239209D01*
X228279906Y-65239209D02*
X228278083Y-65242653D01*
X228278083Y-65242653D02*
X228271027Y-65245181D01*
X228271027Y-65245181D02*
X228256931Y-65246901D01*
X228256931Y-65246901D02*
X228233991Y-65247916D01*
X228233991Y-65247916D02*
X228200400Y-65248330D01*
X228200400Y-65248330D02*
X228154353Y-65248250D01*
X228154353Y-65248250D02*
X228094045Y-65247780D01*
X228094045Y-65247780D02*
X228059564Y-65247447D01*
X228059564Y-65247447D02*
X227832709Y-65245192D01*
X227832709Y-65245192D02*
X227831038Y-64864192D01*
X227831038Y-64864192D02*
X227830763Y-64761492D01*
X227830763Y-64761492D02*
X227830911Y-64675643D01*
X227830911Y-64675643D02*
X227831485Y-64606563D01*
X227831485Y-64606563D02*
X227832486Y-64554174D01*
X227832486Y-64554174D02*
X227833916Y-64518398D01*
X227833916Y-64518398D02*
X227835776Y-64499155D01*
X227835776Y-64499155D02*
X227837808Y-64495891D01*
X227837808Y-64495891D02*
X227843847Y-64505716D01*
X227843847Y-64505716D02*
X227857513Y-64528371D01*
X227857513Y-64528371D02*
X227877777Y-64562132D01*
X227877777Y-64562132D02*
X227903610Y-64605274D01*
X227903610Y-64605274D02*
X227933986Y-64656073D01*
X227933986Y-64656073D02*
X227967875Y-64712803D01*
X227967875Y-64712803D02*
X228004249Y-64773742D01*
X228004249Y-64773742D02*
X228042081Y-64837164D01*
X228042081Y-64837164D02*
X228080342Y-64901345D01*
X228080342Y-64901345D02*
X228118005Y-64964559D01*
X228118005Y-64964559D02*
X228154040Y-65025084D01*
X228154040Y-65025084D02*
X228187421Y-65081194D01*
X228187421Y-65081194D02*
X228217118Y-65131164D01*
X228217118Y-65131164D02*
X228242104Y-65173270D01*
X228242104Y-65173270D02*
X228261351Y-65205789D01*
X228261351Y-65205789D02*
X228273829Y-65226994D01*
X228273829Y-65226994D02*
X228278300Y-65234747D01*
X228278300Y-65234747D02*
X228279906Y-65239209D01*
X228279906Y-65239209D02*
X228435207Y-65239209D01*
X228435207Y-65239209D02*
X228433842Y-65207963D01*
X228433842Y-65207963D02*
X228150209Y-64759182D01*
X228150209Y-64759182D02*
X227866576Y-64310400D01*
X227866576Y-64310400D02*
X227637976Y-64309622D01*
X227637976Y-64309622D02*
X227640233Y-64780038D01*
X227640233Y-64780038D02*
X227640233Y-64780038D01*
G36*
X228442309Y-65401862D02*
G01*
X228135392Y-65401844D01*
X227828476Y-65401825D01*
X227828476Y-65748958D01*
X227642209Y-65748958D01*
X227642209Y-65401825D01*
X227447476Y-65401825D01*
X227447459Y-65323508D01*
X227447442Y-65245192D01*
X227544966Y-65247823D01*
X227642491Y-65250455D01*
X227640233Y-64780038D01*
X227640144Y-64761492D01*
X227830763Y-64761492D01*
X227831038Y-64864192D01*
X227832709Y-65245192D01*
X228059564Y-65247447D01*
X228094045Y-65247780D01*
X228154353Y-65248250D01*
X228200400Y-65248330D01*
X228233991Y-65247916D01*
X228256931Y-65246901D01*
X228271027Y-65245181D01*
X228278083Y-65242653D01*
X228279906Y-65239209D01*
X228278300Y-65234747D01*
X228273829Y-65226994D01*
X228261351Y-65205789D01*
X228242104Y-65173270D01*
X228217118Y-65131164D01*
X228187421Y-65081194D01*
X228154040Y-65025084D01*
X228118005Y-64964559D01*
X228080342Y-64901345D01*
X228042081Y-64837164D01*
X228004249Y-64773742D01*
X227967875Y-64712803D01*
X227933986Y-64656073D01*
X227903610Y-64605274D01*
X227877777Y-64562132D01*
X227857513Y-64528371D01*
X227843847Y-64505716D01*
X227837808Y-64495891D01*
X227835776Y-64499155D01*
X227833916Y-64518398D01*
X227832486Y-64554174D01*
X227831485Y-64606563D01*
X227830911Y-64675643D01*
X227830763Y-64761492D01*
X227640144Y-64761492D01*
X227637976Y-64309622D01*
X227866576Y-64310400D01*
X228150209Y-64759182D01*
X228433842Y-65207963D01*
X228435207Y-65239209D01*
X228438075Y-65304912D01*
X228442309Y-65401862D01*
G37*
X228442309Y-65401862D02*
X228135392Y-65401844D01*
X227828476Y-65401825D01*
X227828476Y-65748958D01*
X227642209Y-65748958D01*
X227642209Y-65401825D01*
X227447476Y-65401825D01*
X227447459Y-65323508D01*
X227447442Y-65245192D01*
X227544966Y-65247823D01*
X227642491Y-65250455D01*
X227640233Y-64780038D01*
X227640144Y-64761492D01*
X227830763Y-64761492D01*
X227831038Y-64864192D01*
X227832709Y-65245192D01*
X228059564Y-65247447D01*
X228094045Y-65247780D01*
X228154353Y-65248250D01*
X228200400Y-65248330D01*
X228233991Y-65247916D01*
X228256931Y-65246901D01*
X228271027Y-65245181D01*
X228278083Y-65242653D01*
X228279906Y-65239209D01*
X228278300Y-65234747D01*
X228273829Y-65226994D01*
X228261351Y-65205789D01*
X228242104Y-65173270D01*
X228217118Y-65131164D01*
X228187421Y-65081194D01*
X228154040Y-65025084D01*
X228118005Y-64964559D01*
X228080342Y-64901345D01*
X228042081Y-64837164D01*
X228004249Y-64773742D01*
X227967875Y-64712803D01*
X227933986Y-64656073D01*
X227903610Y-64605274D01*
X227877777Y-64562132D01*
X227857513Y-64528371D01*
X227843847Y-64505716D01*
X227837808Y-64495891D01*
X227835776Y-64499155D01*
X227833916Y-64518398D01*
X227832486Y-64554174D01*
X227831485Y-64606563D01*
X227830911Y-64675643D01*
X227830763Y-64761492D01*
X227640144Y-64761492D01*
X227637976Y-64309622D01*
X227866576Y-64310400D01*
X228150209Y-64759182D01*
X228433842Y-65207963D01*
X228435207Y-65239209D01*
X228438075Y-65304912D01*
X228442309Y-65401862D01*
X228942312Y-64294962D02*
X228862451Y-64310926D01*
X228862451Y-64310926D02*
X228791559Y-64333740D01*
X228791559Y-64333740D02*
X228768275Y-64343072D01*
X228768275Y-64343072D02*
X228768275Y-64520230D01*
X228768275Y-64520230D02*
X228821192Y-64496490D01*
X228821192Y-64496490D02*
X228884857Y-64471788D01*
X228884857Y-64471788D02*
X228946206Y-64457035D01*
X228946206Y-64457035D02*
X229012539Y-64450740D01*
X229012539Y-64450740D02*
X229047675Y-64450281D01*
X229047675Y-64450281D02*
X229113827Y-64454444D01*
X229113827Y-64454444D02*
X229168845Y-64466933D01*
X229168845Y-64466933D02*
X229217130Y-64489336D01*
X229217130Y-64489336D02*
X229263080Y-64523238D01*
X229263080Y-64523238D02*
X229271936Y-64531134D01*
X229271936Y-64531134D02*
X229314086Y-64579081D01*
X229314086Y-64579081D02*
X229350626Y-64639318D01*
X229350626Y-64639318D02*
X229379164Y-64707511D01*
X229379164Y-64707511D02*
X229390293Y-64745658D01*
X229390293Y-64745658D02*
X229397526Y-64780486D01*
X229397526Y-64780486D02*
X229404835Y-64825072D01*
X229404835Y-64825072D02*
X229411462Y-64873584D01*
X229411462Y-64873584D02*
X229416647Y-64920191D01*
X229416647Y-64920191D02*
X229419631Y-64959059D01*
X229419631Y-64959059D02*
X229420060Y-64974258D01*
X229420060Y-64974258D02*
X229419508Y-64987336D01*
X229419508Y-64987336D02*
X229416584Y-64989849D01*
X229416584Y-64989849D02*
X229409368Y-64980406D01*
X229409368Y-64980406D02*
X229395937Y-64957617D01*
X229395937Y-64957617D02*
X229395131Y-64956212D01*
X229395131Y-64956212D02*
X229355281Y-64903128D01*
X229355281Y-64903128D02*
X229301566Y-64857431D01*
X229301566Y-64857431D02*
X229251239Y-64828061D01*
X229251239Y-64828061D02*
X229225508Y-64816784D01*
X229225508Y-64816784D02*
X229200356Y-64809475D01*
X229200356Y-64809475D02*
X229170353Y-64805062D01*
X229170353Y-64805062D02*
X229130068Y-64802478D01*
X229130068Y-64802478D02*
X229119103Y-64802042D01*
X229119103Y-64802042D02*
X229036961Y-64803220D01*
X229036961Y-64803220D02*
X228966472Y-64813983D01*
X228966472Y-64813983D02*
X228904714Y-64835301D01*
X228904714Y-64835301D02*
X228848763Y-64868141D01*
X228848763Y-64868141D02*
X228802418Y-64906951D01*
X228802418Y-64906951D02*
X228751141Y-64967480D01*
X228751141Y-64967480D02*
X228711963Y-65039389D01*
X228711963Y-65039389D02*
X228685102Y-65121991D01*
X228685102Y-65121991D02*
X228670774Y-65214601D01*
X228670774Y-65214601D02*
X228669198Y-65316534D01*
X228669198Y-65316534D02*
X228669660Y-65325625D01*
X228669660Y-65325625D02*
X228675721Y-65394998D01*
X228675721Y-65394998D02*
X228686243Y-65453406D01*
X228686243Y-65453406D02*
X228702582Y-65506528D01*
X228702582Y-65506528D02*
X228725228Y-65558290D01*
X228725228Y-65558290D02*
X228765504Y-65621562D01*
X228765504Y-65621562D02*
X228818162Y-65674887D01*
X228818162Y-65674887D02*
X228881383Y-65717538D01*
X228881383Y-65717538D02*
X228953345Y-65748789D01*
X228953345Y-65748789D02*
X229032228Y-65767912D01*
X229032228Y-65767912D02*
X229116212Y-65774180D01*
X229116212Y-65774180D02*
X229203477Y-65766868D01*
X229203477Y-65766868D02*
X229233444Y-65761187D01*
X229233444Y-65761187D02*
X229310071Y-65737272D01*
X229310071Y-65737272D02*
X229377066Y-65700650D01*
X229377066Y-65700650D02*
X229434688Y-65650966D01*
X229434688Y-65650966D02*
X229483195Y-65587868D01*
X229483195Y-65587868D02*
X229522848Y-65511001D01*
X229522848Y-65511001D02*
X229553903Y-65420012D01*
X229553903Y-65420012D02*
X229576621Y-65314548D01*
X229576621Y-65314548D02*
X229577013Y-65311997D01*
X229577013Y-65311997D02*
X229384183Y-65311997D01*
X229384183Y-65311997D02*
X229382770Y-65331550D01*
X229382770Y-65331550D02*
X229369347Y-65409641D01*
X229369347Y-65409641D02*
X229344848Y-65476829D01*
X229344848Y-65476829D02*
X229310295Y-65532308D01*
X229310295Y-65532308D02*
X229266708Y-65575272D01*
X229266708Y-65575272D02*
X229215105Y-65604916D01*
X229215105Y-65604916D02*
X229156508Y-65620433D01*
X229156508Y-65620433D02*
X229091936Y-65621019D01*
X229091936Y-65621019D02*
X229031774Y-65608780D01*
X229031774Y-65608780D02*
X228993614Y-65592448D01*
X228993614Y-65592448D02*
X228958249Y-65569061D01*
X228958249Y-65569061D02*
X228953380Y-65564868D01*
X228953380Y-65564868D02*
X228917400Y-65524578D01*
X228917400Y-65524578D02*
X228890864Y-65476380D01*
X228890864Y-65476380D02*
X228873264Y-65418507D01*
X228873264Y-65418507D02*
X228864092Y-65349191D01*
X228864092Y-65349191D02*
X228862840Y-65266667D01*
X228862840Y-65266667D02*
X228863354Y-65251791D01*
X228863354Y-65251791D02*
X228870199Y-65174032D01*
X228870199Y-65174032D02*
X228884357Y-65110240D01*
X228884357Y-65110240D02*
X228906657Y-65058737D01*
X228906657Y-65058737D02*
X228937928Y-65017849D01*
X228937928Y-65017849D02*
X228978998Y-64985899D01*
X228978998Y-64985899D02*
X229000617Y-64974128D01*
X229000617Y-64974128D02*
X229051812Y-64957067D01*
X229051812Y-64957067D02*
X229110055Y-64950552D01*
X229110055Y-64950552D02*
X229169061Y-64954689D01*
X229169061Y-64954689D02*
X229222546Y-64969584D01*
X229222546Y-64969584D02*
X229224398Y-64970369D01*
X229224398Y-64970369D02*
X229273095Y-65000261D01*
X229273095Y-65000261D02*
X229314144Y-65043661D01*
X229314144Y-65043661D02*
X229346662Y-65098552D01*
X229346662Y-65098552D02*
X229369764Y-65162916D01*
X229369764Y-65162916D02*
X229382566Y-65234737D01*
X229382566Y-65234737D02*
X229384183Y-65311997D01*
X229384183Y-65311997D02*
X229577013Y-65311997D01*
X229577013Y-65311997D02*
X229580967Y-65286301D01*
X229580967Y-65286301D02*
X229584892Y-65252322D01*
X229584892Y-65252322D02*
X229588825Y-65206974D01*
X229588825Y-65206974D02*
X229592344Y-65155821D01*
X229592344Y-65155821D02*
X229595028Y-65104421D01*
X229595028Y-65104421D02*
X229595332Y-65097025D01*
X229595332Y-65097025D02*
X229595518Y-64958703D01*
X229595518Y-64958703D02*
X229584723Y-64832128D01*
X229584723Y-64832128D02*
X229563022Y-64717575D01*
X229563022Y-64717575D02*
X229530490Y-64615324D01*
X229530490Y-64615324D02*
X229487202Y-64525651D01*
X229487202Y-64525651D02*
X229433232Y-64448835D01*
X229433232Y-64448835D02*
X229414641Y-64427990D01*
X229414641Y-64427990D02*
X229352167Y-64372482D01*
X229352167Y-64372482D02*
X229282055Y-64331036D01*
X229282055Y-64331036D02*
X229202175Y-64302482D01*
X229202175Y-64302482D02*
X229174676Y-64295975D01*
X229174676Y-64295975D02*
X229103939Y-64286943D01*
X229103939Y-64286943D02*
X229024646Y-64286787D01*
X229024646Y-64286787D02*
X228942312Y-64294962D01*
X228942312Y-64294962D02*
X228942312Y-64294962D01*
G36*
X229553903Y-65420012D02*
G01*
X229522848Y-65511001D01*
X229483195Y-65587868D01*
X229434688Y-65650966D01*
X229377066Y-65700650D01*
X229310071Y-65737272D01*
X229233444Y-65761187D01*
X229203477Y-65766868D01*
X229116212Y-65774180D01*
X229032228Y-65767912D01*
X228953345Y-65748789D01*
X228881383Y-65717538D01*
X228818162Y-65674887D01*
X228765504Y-65621562D01*
X228725228Y-65558290D01*
X228702582Y-65506528D01*
X228686243Y-65453406D01*
X228675721Y-65394998D01*
X228669660Y-65325625D01*
X228669198Y-65316534D01*
X228669969Y-65266667D01*
X228862840Y-65266667D01*
X228864092Y-65349191D01*
X228873264Y-65418507D01*
X228890864Y-65476380D01*
X228917400Y-65524578D01*
X228953380Y-65564868D01*
X228958249Y-65569061D01*
X228993614Y-65592448D01*
X229031774Y-65608780D01*
X229091936Y-65621019D01*
X229156508Y-65620433D01*
X229215105Y-65604916D01*
X229266708Y-65575272D01*
X229310295Y-65532308D01*
X229344848Y-65476829D01*
X229369347Y-65409641D01*
X229382770Y-65331550D01*
X229384183Y-65311997D01*
X229382566Y-65234737D01*
X229369764Y-65162916D01*
X229346662Y-65098552D01*
X229314144Y-65043661D01*
X229273095Y-65000261D01*
X229224398Y-64970369D01*
X229222546Y-64969584D01*
X229169061Y-64954689D01*
X229110055Y-64950552D01*
X229051812Y-64957067D01*
X229000617Y-64974128D01*
X228978998Y-64985899D01*
X228937928Y-65017849D01*
X228906657Y-65058737D01*
X228884357Y-65110240D01*
X228870199Y-65174032D01*
X228863354Y-65251791D01*
X228862840Y-65266667D01*
X228669969Y-65266667D01*
X228670774Y-65214601D01*
X228685102Y-65121991D01*
X228711963Y-65039389D01*
X228751141Y-64967480D01*
X228802418Y-64906951D01*
X228848763Y-64868141D01*
X228904714Y-64835301D01*
X228966472Y-64813983D01*
X229036961Y-64803220D01*
X229119103Y-64802042D01*
X229130068Y-64802478D01*
X229170353Y-64805062D01*
X229200356Y-64809475D01*
X229225508Y-64816784D01*
X229251239Y-64828061D01*
X229301566Y-64857431D01*
X229355281Y-64903128D01*
X229395131Y-64956212D01*
X229395937Y-64957617D01*
X229409368Y-64980406D01*
X229416584Y-64989849D01*
X229419508Y-64987336D01*
X229420060Y-64974258D01*
X229419631Y-64959059D01*
X229416647Y-64920191D01*
X229411462Y-64873584D01*
X229404835Y-64825072D01*
X229397526Y-64780486D01*
X229390293Y-64745658D01*
X229379164Y-64707511D01*
X229350626Y-64639318D01*
X229314086Y-64579081D01*
X229271936Y-64531134D01*
X229263080Y-64523238D01*
X229217130Y-64489336D01*
X229168845Y-64466933D01*
X229113827Y-64454444D01*
X229047675Y-64450281D01*
X229012539Y-64450740D01*
X228946206Y-64457035D01*
X228884857Y-64471788D01*
X228821192Y-64496490D01*
X228768275Y-64520230D01*
X228768275Y-64343072D01*
X228791559Y-64333740D01*
X228862451Y-64310926D01*
X228942312Y-64294962D01*
X229024646Y-64286787D01*
X229103939Y-64286943D01*
X229174676Y-64295975D01*
X229202175Y-64302482D01*
X229282055Y-64331036D01*
X229352167Y-64372482D01*
X229414641Y-64427990D01*
X229433232Y-64448835D01*
X229487202Y-64525651D01*
X229530490Y-64615324D01*
X229563022Y-64717575D01*
X229584723Y-64832128D01*
X229595518Y-64958703D01*
X229595332Y-65097025D01*
X229595028Y-65104421D01*
X229592344Y-65155821D01*
X229588825Y-65206974D01*
X229584892Y-65252322D01*
X229580967Y-65286301D01*
X229577013Y-65311997D01*
X229576621Y-65314548D01*
X229553903Y-65420012D01*
G37*
X229553903Y-65420012D02*
X229522848Y-65511001D01*
X229483195Y-65587868D01*
X229434688Y-65650966D01*
X229377066Y-65700650D01*
X229310071Y-65737272D01*
X229233444Y-65761187D01*
X229203477Y-65766868D01*
X229116212Y-65774180D01*
X229032228Y-65767912D01*
X228953345Y-65748789D01*
X228881383Y-65717538D01*
X228818162Y-65674887D01*
X228765504Y-65621562D01*
X228725228Y-65558290D01*
X228702582Y-65506528D01*
X228686243Y-65453406D01*
X228675721Y-65394998D01*
X228669660Y-65325625D01*
X228669198Y-65316534D01*
X228669969Y-65266667D01*
X228862840Y-65266667D01*
X228864092Y-65349191D01*
X228873264Y-65418507D01*
X228890864Y-65476380D01*
X228917400Y-65524578D01*
X228953380Y-65564868D01*
X228958249Y-65569061D01*
X228993614Y-65592448D01*
X229031774Y-65608780D01*
X229091936Y-65621019D01*
X229156508Y-65620433D01*
X229215105Y-65604916D01*
X229266708Y-65575272D01*
X229310295Y-65532308D01*
X229344848Y-65476829D01*
X229369347Y-65409641D01*
X229382770Y-65331550D01*
X229384183Y-65311997D01*
X229382566Y-65234737D01*
X229369764Y-65162916D01*
X229346662Y-65098552D01*
X229314144Y-65043661D01*
X229273095Y-65000261D01*
X229224398Y-64970369D01*
X229222546Y-64969584D01*
X229169061Y-64954689D01*
X229110055Y-64950552D01*
X229051812Y-64957067D01*
X229000617Y-64974128D01*
X228978998Y-64985899D01*
X228937928Y-65017849D01*
X228906657Y-65058737D01*
X228884357Y-65110240D01*
X228870199Y-65174032D01*
X228863354Y-65251791D01*
X228862840Y-65266667D01*
X228669969Y-65266667D01*
X228670774Y-65214601D01*
X228685102Y-65121991D01*
X228711963Y-65039389D01*
X228751141Y-64967480D01*
X228802418Y-64906951D01*
X228848763Y-64868141D01*
X228904714Y-64835301D01*
X228966472Y-64813983D01*
X229036961Y-64803220D01*
X229119103Y-64802042D01*
X229130068Y-64802478D01*
X229170353Y-64805062D01*
X229200356Y-64809475D01*
X229225508Y-64816784D01*
X229251239Y-64828061D01*
X229301566Y-64857431D01*
X229355281Y-64903128D01*
X229395131Y-64956212D01*
X229395937Y-64957617D01*
X229409368Y-64980406D01*
X229416584Y-64989849D01*
X229419508Y-64987336D01*
X229420060Y-64974258D01*
X229419631Y-64959059D01*
X229416647Y-64920191D01*
X229411462Y-64873584D01*
X229404835Y-64825072D01*
X229397526Y-64780486D01*
X229390293Y-64745658D01*
X229379164Y-64707511D01*
X229350626Y-64639318D01*
X229314086Y-64579081D01*
X229271936Y-64531134D01*
X229263080Y-64523238D01*
X229217130Y-64489336D01*
X229168845Y-64466933D01*
X229113827Y-64454444D01*
X229047675Y-64450281D01*
X229012539Y-64450740D01*
X228946206Y-64457035D01*
X228884857Y-64471788D01*
X228821192Y-64496490D01*
X228768275Y-64520230D01*
X228768275Y-64343072D01*
X228791559Y-64333740D01*
X228862451Y-64310926D01*
X228942312Y-64294962D01*
X229024646Y-64286787D01*
X229103939Y-64286943D01*
X229174676Y-64295975D01*
X229202175Y-64302482D01*
X229282055Y-64331036D01*
X229352167Y-64372482D01*
X229414641Y-64427990D01*
X229433232Y-64448835D01*
X229487202Y-64525651D01*
X229530490Y-64615324D01*
X229563022Y-64717575D01*
X229584723Y-64832128D01*
X229595518Y-64958703D01*
X229595332Y-65097025D01*
X229595028Y-65104421D01*
X229592344Y-65155821D01*
X229588825Y-65206974D01*
X229584892Y-65252322D01*
X229580967Y-65286301D01*
X229577013Y-65311997D01*
X229576621Y-65314548D01*
X229553903Y-65420012D01*
D12*
X221342000Y-68715700D02*
X221342000Y-67015700D01*
X221342000Y-68715700D02*
X224492000Y-68715700D01*
X221342000Y-67015700D02*
X224492000Y-67015700D01*
X205864000Y-68715700D02*
X209014000Y-68715700D01*
X205864000Y-68715700D02*
X205864000Y-67015700D01*
X205864000Y-67015700D02*
X209014000Y-67015700D01*
X205269000Y-39545300D02*
X205269000Y-37845300D01*
X205269000Y-37845300D02*
X208419000Y-37845300D01*
X205269000Y-39545300D02*
X208419000Y-39545300D01*
X185624000Y-37845300D02*
X188774000Y-37845300D01*
X185624000Y-39545300D02*
X185624000Y-37845300D01*
X185624000Y-39545300D02*
X188774000Y-39545300D01*
X185624000Y-59190700D02*
X185624000Y-57490700D01*
X185624000Y-57490700D02*
X188774000Y-57490700D01*
X185624000Y-59190700D02*
X188774000Y-59190700D01*
X185624000Y-76540700D02*
X188774000Y-76540700D01*
X185624000Y-78240700D02*
X185624000Y-76540700D01*
X185624000Y-78240700D02*
X188774000Y-78240700D01*
M02*
