M48
; DRILL file {KiCad (6.0.2)} date Tue Mar 15 14:11:03 2022
; FORMAT={-:-/ absolute / inch / decimal}
; #@! TF.CreationDate,2022-03-15T14:11:03+03:00
; #@! TF.GenerationSoftware,Kicad,Pcbnew,(6.0.2)
; #@! TF.FileFunction,Plated,1,2,PTH
FMAT,2
INCH
; #@! TA.AperFunction,Plated,PTH,ComponentDrill
T1C0.0197
; #@! TA.AperFunction,Plated,PTH,ComponentDrill
T2C0.0579
%
G90
G05
T1
X6.6328Y-2.5875
X6.6328Y-2.6367
X6.6328Y-2.6859
X6.6328Y-2.7352
X6.6328Y-2.7844
X6.6328Y-2.8336
X6.6328Y-2.8828
T2
X7.225Y-1.8375
X7.225Y-2.5875
X7.225Y-3.3375
X7.275Y-1.7375
X7.275Y-2.4875
X7.275Y-3.2375
X7.475Y-1.7375
X7.475Y-2.4875
X7.475Y-3.2375
X7.525Y-1.8375
X7.525Y-2.5875
X7.525Y-3.3375
X7.975Y-1.8375
X7.975Y-2.9625
X8.025Y-1.7375
X8.025Y-2.8625
X8.225Y-1.7375
X8.225Y-2.8625
X8.275Y-1.8375
X8.275Y-2.9625
X8.725Y-2.9625
X8.775Y-2.8625
X8.975Y-2.8625
X9.025Y-2.9625
T0
M30
