G04 #@! TF.GenerationSoftware,KiCad,Pcbnew,(6.0.2)*
G04 #@! TF.CreationDate,2022-03-15T14:10:59+03:00*
G04 #@! TF.ProjectId,kinesis-thumb-pcb,6b696e65-7369-4732-9d74-68756d622d70,rev?*
G04 #@! TF.SameCoordinates,Original*
G04 #@! TF.FileFunction,Copper,L2,Bot*
G04 #@! TF.FilePolarity,Positive*
%FSLAX46Y46*%
G04 Gerber Fmt 4.6, Leading zero omitted, Abs format (unit mm)*
G04 Created by KiCad (PCBNEW (6.0.2)) date 2022-03-15 14:10:59*
%MOMM*%
%LPD*%
G01*
G04 APERTURE LIST*
G04 Aperture macros list*
%AMRoundRect*
0 Rectangle with rounded corners*
0 $1 Rounding radius*
0 $2 $3 $4 $5 $6 $7 $8 $9 X,Y pos of 4 corners*
0 Add a 4 corners polygon primitive as box body*
4,1,4,$2,$3,$4,$5,$6,$7,$8,$9,$2,$3,0*
0 Add four circle primitives for the rounded corners*
1,1,$1+$1,$2,$3*
1,1,$1+$1,$4,$5*
1,1,$1+$1,$6,$7*
1,1,$1+$1,$8,$9*
0 Add four rect primitives between the rounded corners*
20,1,$1+$1,$2,$3,$4,$5,0*
20,1,$1+$1,$4,$5,$6,$7,0*
20,1,$1+$1,$6,$7,$8,$9,0*
20,1,$1+$1,$8,$9,$2,$3,0*%
G04 Aperture macros list end*
G04 #@! TA.AperFunction,ComponentPad*
%ADD10RoundRect,0.200000X0.450000X-0.200000X0.450000X0.200000X-0.450000X0.200000X-0.450000X-0.200000X0*%
G04 #@! TD*
G04 #@! TA.AperFunction,ComponentPad*
%ADD11O,1.300000X0.800000*%
G04 #@! TD*
G04 #@! TA.AperFunction,ComponentPad*
%ADD12C,2.250000*%
G04 #@! TD*
G04 #@! TA.AperFunction,SMDPad,CuDef*
%ADD13R,1.000000X1.000000*%
G04 #@! TD*
G04 #@! TA.AperFunction,Conductor*
%ADD14C,0.250000*%
G04 #@! TD*
G04 APERTURE END LIST*
D10*
X168473000Y-73223000D03*
D11*
X168473000Y-71973000D03*
X168473000Y-70723000D03*
X168473000Y-69473000D03*
X168473000Y-68223000D03*
X168473000Y-66973000D03*
X168473000Y-65723000D03*
D12*
X202565000Y-75247500D03*
X208915000Y-72707500D03*
X202565000Y-46672500D03*
X208915000Y-44132500D03*
X183515000Y-46672500D03*
X189865000Y-44132500D03*
X183515000Y-65722500D03*
X189865000Y-63182500D03*
X183515000Y-84772500D03*
X189865000Y-82232500D03*
X221615000Y-75247500D03*
X227965000Y-72707500D03*
D13*
X221992000Y-67865700D03*
X224492000Y-67865700D03*
X206514000Y-67865700D03*
X209014000Y-67865700D03*
X205919000Y-38695300D03*
X208419000Y-38695300D03*
X186274000Y-38695300D03*
X188774000Y-38695300D03*
X186274000Y-58340700D03*
X188774000Y-58340700D03*
X186274000Y-77390700D03*
X188774000Y-77390700D03*
D12*
X229235000Y-75247500D03*
X222885000Y-72707500D03*
X210185000Y-75247500D03*
X203835000Y-72707500D03*
X210185000Y-46672500D03*
X203835000Y-44132500D03*
X191135000Y-46672500D03*
X184785000Y-44132500D03*
X191135000Y-65722500D03*
X184785000Y-63182500D03*
X191135000Y-84772500D03*
X184785000Y-82232500D03*
D14*
X211659600Y-47310300D02*
X210212400Y-48757500D01*
X186274000Y-38695300D02*
X186274000Y-39520600D01*
X221992000Y-67865700D02*
X221166700Y-67865700D01*
X209052300Y-37837300D02*
X211659600Y-40444600D01*
X204268400Y-37870000D02*
X205093700Y-38695300D01*
X186274000Y-38695300D02*
X187099300Y-38695300D01*
X181041400Y-58340700D02*
X181041400Y-44753200D01*
X181041400Y-44753200D02*
X186274000Y-39520600D01*
X167497700Y-69473000D02*
X167497700Y-65397500D01*
X205919000Y-38695300D02*
X205506400Y-38695300D01*
X205506400Y-38695300D02*
X206364400Y-37837300D01*
X205506400Y-38695300D02*
X205093700Y-38695300D01*
X167610300Y-69473000D02*
X167497700Y-69473000D01*
X210212400Y-67022600D02*
X208182400Y-67022600D01*
X167497700Y-65397500D02*
X174554500Y-58340700D01*
X187924600Y-37870000D02*
X204268400Y-37870000D01*
X171183000Y-77390700D02*
X186274000Y-77390700D01*
X221166700Y-67865700D02*
X220323600Y-67022600D01*
X206514000Y-67865700D02*
X207339300Y-67865700D01*
X206364400Y-37837300D02*
X209052300Y-37837300D01*
X210212400Y-48757500D02*
X210212400Y-67022600D01*
X168473000Y-69473000D02*
X167610300Y-69473000D01*
X220323600Y-67022600D02*
X210212400Y-67022600D01*
X167482900Y-73690600D02*
X171183000Y-77390700D01*
X181041400Y-58340700D02*
X186274000Y-58340700D01*
X187099300Y-38695300D02*
X187924600Y-37870000D01*
X167497700Y-69473000D02*
X167482900Y-69487800D01*
X174554500Y-58340700D02*
X181041400Y-58340700D01*
X208182400Y-67022600D02*
X207339300Y-67865700D01*
X211659600Y-40444600D02*
X211659600Y-47310300D01*
X167482900Y-69487800D02*
X167482900Y-73690600D01*
X208915000Y-72707500D02*
X209014000Y-72608500D01*
X209014000Y-72608500D02*
X209014000Y-67865700D01*
X208915000Y-44132500D02*
X208419000Y-43636500D01*
X208419000Y-43636500D02*
X208419000Y-38695300D01*
X229235000Y-75247500D02*
X221615000Y-75247500D01*
X217732600Y-75247500D02*
X212526384Y-81557744D01*
X221615000Y-75247500D02*
X217732600Y-75247500D01*
X198238896Y-81557744D02*
X189945900Y-73223000D01*
X212526384Y-81557744D02*
X198238896Y-81557744D01*
X189945900Y-73223000D02*
X168473000Y-73223000D01*
X210185000Y-75247500D02*
X202565000Y-75247500D01*
X202565000Y-75247500D02*
X199290500Y-71973000D01*
X199290500Y-71973000D02*
X168473000Y-71973000D01*
X202565000Y-56405000D02*
X188247000Y-70723000D01*
X202565000Y-46672500D02*
X202565000Y-56405000D01*
X210185000Y-46672500D02*
X202565000Y-46672500D01*
X188247000Y-70723000D02*
X168473000Y-70723000D01*
X191135000Y-46672500D02*
X183515000Y-46672500D01*
X191135000Y-65722500D02*
X183515000Y-65722500D01*
X182264500Y-66973000D02*
X168473000Y-66973000D01*
X183515000Y-65722500D02*
X182264500Y-66973000D01*
X191135000Y-84772500D02*
X183515000Y-84772500D01*
X188774000Y-43041500D02*
X188774000Y-38695300D01*
X189865000Y-44132500D02*
X188774000Y-43041500D01*
X188774000Y-62091500D02*
X188774000Y-58340700D01*
X189865000Y-63182500D02*
X188774000Y-62091500D01*
X189865000Y-82232500D02*
X188774000Y-81141500D01*
X188774000Y-81141500D02*
X188774000Y-77390700D01*
X227965000Y-72707500D02*
X227965000Y-72164000D01*
X224492000Y-67865700D02*
X224492000Y-68691000D01*
X227965000Y-72164000D02*
X224492000Y-68691000D01*
G04 #@! TA.AperFunction,NonConductor*
G36*
X209586216Y-39274254D02*
G01*
X209614741Y-39295645D01*
X210321537Y-40002442D01*
X210989195Y-40670100D01*
X211023221Y-40732412D01*
X211026100Y-40759195D01*
X211026100Y-45064235D01*
X211006098Y-45132356D01*
X210952442Y-45178849D01*
X210882168Y-45188953D01*
X210851885Y-45180645D01*
X210691340Y-45114145D01*
X210483450Y-45064235D01*
X210456530Y-45057772D01*
X210394961Y-45022420D01*
X210362278Y-44959393D01*
X210368859Y-44888702D01*
X210372933Y-44879695D01*
X210374960Y-44876387D01*
X210431025Y-44741035D01*
X210471461Y-44643413D01*
X210471462Y-44643411D01*
X210473355Y-44638840D01*
X210500490Y-44525816D01*
X210532223Y-44393639D01*
X210532224Y-44393633D01*
X210533378Y-44388826D01*
X210553551Y-44132500D01*
X210533378Y-43876174D01*
X210532221Y-43871352D01*
X210474510Y-43630972D01*
X210473355Y-43626160D01*
X210471461Y-43621587D01*
X210376855Y-43393187D01*
X210376853Y-43393183D01*
X210374960Y-43388613D01*
X210240616Y-43169384D01*
X210073631Y-42973869D01*
X209878116Y-42806884D01*
X209658887Y-42672540D01*
X209654317Y-42670647D01*
X209654313Y-42670645D01*
X209425913Y-42576039D01*
X209425911Y-42576038D01*
X209421340Y-42574145D01*
X209334498Y-42553296D01*
X209176139Y-42515277D01*
X209176133Y-42515276D01*
X209171326Y-42514122D01*
X209166394Y-42513734D01*
X209161501Y-42512959D01*
X209161765Y-42511293D01*
X209102289Y-42488636D01*
X209060140Y-42431504D01*
X209052500Y-42388297D01*
X209052500Y-39775682D01*
X209072502Y-39707561D01*
X209126158Y-39661068D01*
X209134269Y-39657701D01*
X209157293Y-39649069D01*
X209157297Y-39649067D01*
X209165705Y-39645915D01*
X209282261Y-39558561D01*
X209369615Y-39442005D01*
X209407664Y-39340510D01*
X209450306Y-39283746D01*
X209516867Y-39259046D01*
X209586216Y-39274254D01*
G37*
G04 #@! TD.AperFunction*
G04 #@! TA.AperFunction,NonConductor*
G36*
X187732817Y-39149162D02*
G01*
X187763776Y-39213053D01*
X187765500Y-39233826D01*
X187765500Y-39243434D01*
X187772255Y-39305616D01*
X187823385Y-39442005D01*
X187910739Y-39558561D01*
X188027295Y-39645915D01*
X188035703Y-39649067D01*
X188035707Y-39649069D01*
X188058731Y-39657701D01*
X188115495Y-39700343D01*
X188140194Y-39766905D01*
X188140500Y-39775682D01*
X188140500Y-42962733D01*
X188139973Y-42973916D01*
X188138298Y-42981409D01*
X188138547Y-42989335D01*
X188138547Y-42989336D01*
X188140438Y-43049486D01*
X188140500Y-43053445D01*
X188140500Y-43081356D01*
X188140997Y-43085290D01*
X188140997Y-43085291D01*
X188141005Y-43085356D01*
X188141938Y-43097193D01*
X188143327Y-43141389D01*
X188148978Y-43160839D01*
X188152987Y-43180200D01*
X188155526Y-43200297D01*
X188158445Y-43207668D01*
X188158445Y-43207670D01*
X188171804Y-43241412D01*
X188175649Y-43252642D01*
X188187982Y-43295093D01*
X188192015Y-43301912D01*
X188192017Y-43301917D01*
X188198293Y-43312528D01*
X188206988Y-43330276D01*
X188214448Y-43349117D01*
X188219110Y-43355533D01*
X188219110Y-43355534D01*
X188240436Y-43384887D01*
X188246952Y-43394807D01*
X188269458Y-43432862D01*
X188283779Y-43447183D01*
X188296617Y-43462213D01*
X188304777Y-43473444D01*
X188328637Y-43540309D01*
X188319251Y-43595726D01*
X188308541Y-43621581D01*
X188308539Y-43621587D01*
X188306645Y-43626160D01*
X188305490Y-43630972D01*
X188247780Y-43871352D01*
X188246622Y-43876174D01*
X188226449Y-44132500D01*
X188246622Y-44388826D01*
X188247776Y-44393633D01*
X188247777Y-44393639D01*
X188279510Y-44525816D01*
X188306645Y-44638840D01*
X188308538Y-44643411D01*
X188308539Y-44643413D01*
X188345707Y-44733143D01*
X188405040Y-44876387D01*
X188539384Y-45095616D01*
X188706369Y-45291131D01*
X188901884Y-45458116D01*
X189121113Y-45592460D01*
X189125683Y-45594353D01*
X189125687Y-45594355D01*
X189354087Y-45688961D01*
X189358660Y-45690855D01*
X189420157Y-45705619D01*
X189593470Y-45747228D01*
X189655039Y-45782580D01*
X189687722Y-45845607D01*
X189681141Y-45916298D01*
X189677067Y-45925305D01*
X189675040Y-45928613D01*
X189673145Y-45933189D01*
X189673144Y-45933190D01*
X189661535Y-45961217D01*
X189616988Y-46016498D01*
X189545126Y-46039000D01*
X185104874Y-46039000D01*
X185036753Y-46018998D01*
X184988465Y-45961217D01*
X184976856Y-45933190D01*
X184976855Y-45933189D01*
X184974960Y-45928613D01*
X184973559Y-45926326D01*
X184960573Y-45857169D01*
X184987276Y-45791385D01*
X185045304Y-45750481D01*
X185056530Y-45747228D01*
X185229843Y-45705619D01*
X185291340Y-45690855D01*
X185295913Y-45688961D01*
X185524313Y-45594355D01*
X185524317Y-45594353D01*
X185528887Y-45592460D01*
X185748116Y-45458116D01*
X185943631Y-45291131D01*
X186110616Y-45095616D01*
X186244960Y-44876387D01*
X186304294Y-44733143D01*
X186341461Y-44643413D01*
X186341462Y-44643411D01*
X186343355Y-44638840D01*
X186370490Y-44525816D01*
X186402223Y-44393639D01*
X186402224Y-44393633D01*
X186403378Y-44388826D01*
X186423551Y-44132500D01*
X186403378Y-43876174D01*
X186402221Y-43871352D01*
X186344510Y-43630972D01*
X186343355Y-43626160D01*
X186341461Y-43621587D01*
X186246855Y-43393187D01*
X186246853Y-43393183D01*
X186244960Y-43388613D01*
X186110616Y-43169384D01*
X185943631Y-42973869D01*
X185748116Y-42806884D01*
X185528887Y-42672540D01*
X185524317Y-42670647D01*
X185524313Y-42670645D01*
X185295913Y-42576039D01*
X185295911Y-42576038D01*
X185291340Y-42574145D01*
X185204498Y-42553296D01*
X185046139Y-42515277D01*
X185046133Y-42515276D01*
X185041326Y-42514122D01*
X184785000Y-42493949D01*
X184528674Y-42514122D01*
X184523860Y-42515278D01*
X184523852Y-42515279D01*
X184499502Y-42521125D01*
X184428594Y-42517579D01*
X184370860Y-42476260D01*
X184344629Y-42410286D01*
X184358231Y-42340605D01*
X184380992Y-42309512D01*
X186666253Y-40024252D01*
X186674539Y-40016712D01*
X186681018Y-40012600D01*
X186727644Y-39962948D01*
X186730398Y-39960107D01*
X186750135Y-39940370D01*
X186752615Y-39937173D01*
X186760320Y-39928151D01*
X186785159Y-39901700D01*
X186790586Y-39895921D01*
X186794405Y-39888975D01*
X186794407Y-39888972D01*
X186800348Y-39878166D01*
X186811199Y-39861647D01*
X186818758Y-39851901D01*
X186823614Y-39845641D01*
X186826759Y-39838372D01*
X186826762Y-39838368D01*
X186841174Y-39805063D01*
X186846391Y-39794413D01*
X186867695Y-39755660D01*
X186869666Y-39747983D01*
X186870216Y-39746594D01*
X186913889Y-39690620D01*
X186943138Y-39674994D01*
X187012297Y-39649067D01*
X187020705Y-39645915D01*
X187137261Y-39558561D01*
X187224615Y-39442005D01*
X187254366Y-39362645D01*
X187297008Y-39305881D01*
X187337195Y-39285879D01*
X187352893Y-39281318D01*
X187359712Y-39277285D01*
X187359717Y-39277283D01*
X187370328Y-39271007D01*
X187388076Y-39262312D01*
X187406917Y-39254852D01*
X187427287Y-39240053D01*
X187442687Y-39228864D01*
X187452607Y-39222348D01*
X187483835Y-39203880D01*
X187483838Y-39203878D01*
X187490662Y-39199842D01*
X187504983Y-39185521D01*
X187520017Y-39172680D01*
X187521732Y-39171434D01*
X187536407Y-39160772D01*
X187541461Y-39154663D01*
X187541465Y-39154659D01*
X187542418Y-39153508D01*
X187543393Y-39152850D01*
X187547241Y-39149236D01*
X187547824Y-39149857D01*
X187601252Y-39113771D01*
X187672231Y-39112151D01*
X187732817Y-39149162D01*
G37*
G04 #@! TD.AperFunction*
G04 #@! TA.AperFunction,NonConductor*
G36*
X183095139Y-43699531D02*
G01*
X183151975Y-43742078D01*
X183176786Y-43808598D01*
X183173625Y-43847002D01*
X183167779Y-43871352D01*
X183167778Y-43871360D01*
X183166622Y-43876174D01*
X183146449Y-44132500D01*
X183166622Y-44388826D01*
X183167776Y-44393633D01*
X183167777Y-44393639D01*
X183199510Y-44525816D01*
X183226645Y-44638840D01*
X183228538Y-44643411D01*
X183228539Y-44643413D01*
X183268975Y-44741035D01*
X183325040Y-44876387D01*
X183326441Y-44878674D01*
X183339427Y-44947831D01*
X183312724Y-45013615D01*
X183254696Y-45054519D01*
X183243470Y-45057772D01*
X183216550Y-45064235D01*
X183008660Y-45114145D01*
X183004089Y-45116038D01*
X183004087Y-45116039D01*
X182775687Y-45210645D01*
X182775683Y-45210647D01*
X182771113Y-45212540D01*
X182551884Y-45346884D01*
X182356369Y-45513869D01*
X182189384Y-45709384D01*
X182055040Y-45928613D01*
X181956645Y-46166160D01*
X181955490Y-46170972D01*
X181923419Y-46304556D01*
X181888067Y-46366125D01*
X181825040Y-46398808D01*
X181754349Y-46392227D01*
X181698438Y-46348473D01*
X181674900Y-46275142D01*
X181674900Y-45067794D01*
X181694902Y-44999673D01*
X181711805Y-44978699D01*
X182962012Y-43728492D01*
X183024324Y-43694466D01*
X183095139Y-43699531D01*
G37*
G04 #@! TD.AperFunction*
G04 #@! TA.AperFunction,NonConductor*
G36*
X181883412Y-46974634D02*
G01*
X181923419Y-47040444D01*
X181956645Y-47178840D01*
X181958538Y-47183411D01*
X181958539Y-47183413D01*
X182053144Y-47411809D01*
X182055040Y-47416387D01*
X182189384Y-47635616D01*
X182190919Y-47637414D01*
X182214541Y-47703598D01*
X182198467Y-47772751D01*
X182147558Y-47822236D01*
X182099401Y-47836352D01*
X182016363Y-47843398D01*
X182016359Y-47843399D01*
X182011052Y-47843849D01*
X182005897Y-47845187D01*
X182005891Y-47845188D01*
X181926524Y-47865788D01*
X181832552Y-47890178D01*
X181761593Y-47887931D01*
X181703112Y-47847676D01*
X181675677Y-47782195D01*
X181674900Y-47768219D01*
X181674900Y-47069858D01*
X181694902Y-47001737D01*
X181748558Y-46955244D01*
X181818832Y-46945140D01*
X181883412Y-46974634D01*
G37*
G04 #@! TD.AperFunction*
G04 #@! TA.AperFunction,NonConductor*
G36*
X207352621Y-38490802D02*
G01*
X207399114Y-38544458D01*
X207410500Y-38596800D01*
X207410500Y-39243434D01*
X207417255Y-39305616D01*
X207468385Y-39442005D01*
X207555739Y-39558561D01*
X207672295Y-39645915D01*
X207680703Y-39649067D01*
X207680707Y-39649069D01*
X207703731Y-39657701D01*
X207760495Y-39700343D01*
X207785194Y-39766905D01*
X207785500Y-39775682D01*
X207785500Y-42893278D01*
X207765498Y-42961399D01*
X207755312Y-42975106D01*
X207589384Y-43169384D01*
X207455040Y-43388613D01*
X207453147Y-43393183D01*
X207453145Y-43393187D01*
X207358539Y-43621587D01*
X207356645Y-43626160D01*
X207355490Y-43630972D01*
X207297780Y-43871352D01*
X207296622Y-43876174D01*
X207276449Y-44132500D01*
X207296622Y-44388826D01*
X207297776Y-44393633D01*
X207297777Y-44393639D01*
X207329510Y-44525816D01*
X207356645Y-44638840D01*
X207358538Y-44643411D01*
X207358539Y-44643413D01*
X207395707Y-44733143D01*
X207455040Y-44876387D01*
X207589384Y-45095616D01*
X207756369Y-45291131D01*
X207951884Y-45458116D01*
X208171113Y-45592460D01*
X208175683Y-45594353D01*
X208175687Y-45594355D01*
X208404087Y-45688961D01*
X208408660Y-45690855D01*
X208470157Y-45705619D01*
X208643470Y-45747228D01*
X208705039Y-45782580D01*
X208737722Y-45845607D01*
X208731141Y-45916298D01*
X208727067Y-45925305D01*
X208725040Y-45928613D01*
X208723145Y-45933189D01*
X208723144Y-45933190D01*
X208711535Y-45961217D01*
X208666988Y-46016498D01*
X208595126Y-46039000D01*
X204154874Y-46039000D01*
X204086753Y-46018998D01*
X204038465Y-45961217D01*
X204026856Y-45933190D01*
X204026855Y-45933189D01*
X204024960Y-45928613D01*
X204023559Y-45926326D01*
X204010573Y-45857169D01*
X204037276Y-45791385D01*
X204095304Y-45750481D01*
X204106530Y-45747228D01*
X204279843Y-45705619D01*
X204341340Y-45690855D01*
X204345913Y-45688961D01*
X204574313Y-45594355D01*
X204574317Y-45594353D01*
X204578887Y-45592460D01*
X204798116Y-45458116D01*
X204993631Y-45291131D01*
X205160616Y-45095616D01*
X205294960Y-44876387D01*
X205354294Y-44733143D01*
X205391461Y-44643413D01*
X205391462Y-44643411D01*
X205393355Y-44638840D01*
X205420490Y-44525816D01*
X205452223Y-44393639D01*
X205452224Y-44393633D01*
X205453378Y-44388826D01*
X205473551Y-44132500D01*
X205453378Y-43876174D01*
X205452221Y-43871352D01*
X205394510Y-43630972D01*
X205393355Y-43626160D01*
X205391461Y-43621587D01*
X205296855Y-43393187D01*
X205296853Y-43393183D01*
X205294960Y-43388613D01*
X205160616Y-43169384D01*
X204993631Y-42973869D01*
X204798116Y-42806884D01*
X204578887Y-42672540D01*
X204574317Y-42670647D01*
X204574313Y-42670645D01*
X204345913Y-42576039D01*
X204345911Y-42576038D01*
X204341340Y-42574145D01*
X204254498Y-42553296D01*
X204096139Y-42515277D01*
X204096133Y-42515276D01*
X204091326Y-42514122D01*
X203835000Y-42493949D01*
X203578674Y-42514122D01*
X203573867Y-42515276D01*
X203573861Y-42515277D01*
X203415502Y-42553296D01*
X203328660Y-42574145D01*
X203324089Y-42576038D01*
X203324087Y-42576039D01*
X203095687Y-42670645D01*
X203095683Y-42670647D01*
X203091113Y-42672540D01*
X202871884Y-42806884D01*
X202676369Y-42973869D01*
X202509384Y-43169384D01*
X202375040Y-43388613D01*
X202373147Y-43393183D01*
X202373145Y-43393187D01*
X202278539Y-43621587D01*
X202276645Y-43626160D01*
X202275490Y-43630972D01*
X202217780Y-43871352D01*
X202216622Y-43876174D01*
X202196449Y-44132500D01*
X202216622Y-44388826D01*
X202217776Y-44393633D01*
X202217777Y-44393639D01*
X202249510Y-44525816D01*
X202276645Y-44638840D01*
X202278538Y-44643411D01*
X202278539Y-44643413D01*
X202318975Y-44741035D01*
X202375040Y-44876387D01*
X202376441Y-44878674D01*
X202389427Y-44947831D01*
X202362724Y-45013615D01*
X202304696Y-45054519D01*
X202293470Y-45057772D01*
X202266550Y-45064235D01*
X202058660Y-45114145D01*
X202054089Y-45116038D01*
X202054087Y-45116039D01*
X201825687Y-45210645D01*
X201825683Y-45210647D01*
X201821113Y-45212540D01*
X201601884Y-45346884D01*
X201406369Y-45513869D01*
X201239384Y-45709384D01*
X201105040Y-45928613D01*
X201006645Y-46166160D01*
X201005490Y-46170972D01*
X200958638Y-46366125D01*
X200946622Y-46416174D01*
X200926449Y-46672500D01*
X200946622Y-46928826D01*
X200947776Y-46933633D01*
X200947777Y-46933639D01*
X200964126Y-47001737D01*
X201006645Y-47178840D01*
X201008538Y-47183411D01*
X201008539Y-47183413D01*
X201103144Y-47411809D01*
X201105040Y-47416387D01*
X201239384Y-47635616D01*
X201240919Y-47637414D01*
X201264541Y-47703598D01*
X201248467Y-47772751D01*
X201197558Y-47822236D01*
X201149401Y-47836352D01*
X201066363Y-47843398D01*
X201066359Y-47843399D01*
X201061052Y-47843849D01*
X201055897Y-47845187D01*
X201055891Y-47845188D01*
X200882552Y-47890178D01*
X200833794Y-47902833D01*
X200828928Y-47905025D01*
X200828925Y-47905026D01*
X200624583Y-47997076D01*
X200624580Y-47997077D01*
X200619722Y-47999266D01*
X200424959Y-48130388D01*
X200421102Y-48134067D01*
X200421100Y-48134069D01*
X200420798Y-48134357D01*
X200255073Y-48292451D01*
X200251891Y-48296728D01*
X200251890Y-48296729D01*
X200215514Y-48345620D01*
X200114922Y-48480821D01*
X200112506Y-48485572D01*
X200112504Y-48485576D01*
X200010931Y-48685356D01*
X200008513Y-48690112D01*
X199938889Y-48914340D01*
X199938188Y-48919629D01*
X199921092Y-49048616D01*
X199908039Y-49147093D01*
X199916848Y-49381716D01*
X199917943Y-49386934D01*
X199942794Y-49505371D01*
X199965062Y-49611501D01*
X200051302Y-49829877D01*
X200173104Y-50030600D01*
X200326985Y-50207932D01*
X200331117Y-50211320D01*
X200504416Y-50353417D01*
X200504422Y-50353421D01*
X200508544Y-50356801D01*
X200513180Y-50359440D01*
X200513183Y-50359442D01*
X200684168Y-50456772D01*
X200712590Y-50472951D01*
X200933289Y-50553061D01*
X200938538Y-50554010D01*
X200938541Y-50554011D01*
X201019615Y-50568671D01*
X201164330Y-50594840D01*
X201168469Y-50595035D01*
X201168476Y-50595036D01*
X201187440Y-50595930D01*
X201187449Y-50595930D01*
X201188929Y-50596000D01*
X201353950Y-50596000D01*
X201435527Y-50589078D01*
X201523637Y-50581602D01*
X201523641Y-50581601D01*
X201528948Y-50581151D01*
X201534103Y-50579813D01*
X201534109Y-50579812D01*
X201716467Y-50532481D01*
X201756206Y-50522167D01*
X201761071Y-50519975D01*
X201763648Y-50519068D01*
X201834545Y-50515307D01*
X201896220Y-50550473D01*
X201929093Y-50613401D01*
X201931500Y-50637914D01*
X201931500Y-56090406D01*
X201911498Y-56158527D01*
X201894595Y-56179501D01*
X192874900Y-65199196D01*
X192812588Y-65233222D01*
X192741773Y-65228157D01*
X192684937Y-65185610D01*
X192669398Y-65158322D01*
X192599656Y-64989949D01*
X192596855Y-64983187D01*
X192596853Y-64983183D01*
X192594960Y-64978613D01*
X192460616Y-64759384D01*
X192293631Y-64563869D01*
X192098116Y-64396884D01*
X191878887Y-64262540D01*
X191874317Y-64260647D01*
X191874313Y-64260645D01*
X191645913Y-64166039D01*
X191645911Y-64166038D01*
X191641340Y-64164145D01*
X191492624Y-64128441D01*
X191406530Y-64107772D01*
X191344961Y-64072420D01*
X191312278Y-64009393D01*
X191318859Y-63938702D01*
X191322933Y-63929695D01*
X191324960Y-63926387D01*
X191423355Y-63688840D01*
X191468059Y-63502635D01*
X191482223Y-63443639D01*
X191482224Y-63443633D01*
X191483378Y-63438826D01*
X191503551Y-63182500D01*
X191483378Y-62926174D01*
X191423355Y-62676160D01*
X191421461Y-62671587D01*
X191326855Y-62443187D01*
X191326853Y-62443183D01*
X191324960Y-62438613D01*
X191190616Y-62219384D01*
X191023631Y-62023869D01*
X190828116Y-61856884D01*
X190608887Y-61722540D01*
X190604317Y-61720647D01*
X190604313Y-61720645D01*
X190375913Y-61626039D01*
X190375911Y-61626038D01*
X190371340Y-61624145D01*
X190277429Y-61601599D01*
X190126139Y-61565277D01*
X190126133Y-61565276D01*
X190121326Y-61564122D01*
X189865000Y-61543949D01*
X189608674Y-61564122D01*
X189603867Y-61565276D01*
X189603861Y-61565277D01*
X189562914Y-61575108D01*
X189492006Y-61571561D01*
X189434272Y-61530241D01*
X189408042Y-61464267D01*
X189407500Y-61452589D01*
X189407500Y-59421082D01*
X189427502Y-59352961D01*
X189481158Y-59306468D01*
X189489269Y-59303101D01*
X189512293Y-59294469D01*
X189512297Y-59294467D01*
X189520705Y-59291315D01*
X189637261Y-59203961D01*
X189724615Y-59087405D01*
X189775745Y-58951016D01*
X189782500Y-58888834D01*
X189782500Y-57792566D01*
X189775745Y-57730384D01*
X189724615Y-57593995D01*
X189637261Y-57477439D01*
X189520705Y-57390085D01*
X189384316Y-57338955D01*
X189322134Y-57332200D01*
X188225866Y-57332200D01*
X188163684Y-57338955D01*
X188027295Y-57390085D01*
X187910739Y-57477439D01*
X187823385Y-57593995D01*
X187772255Y-57730384D01*
X187765500Y-57792566D01*
X187765500Y-58888834D01*
X187772255Y-58951016D01*
X187823385Y-59087405D01*
X187910739Y-59203961D01*
X188027295Y-59291315D01*
X188035703Y-59294467D01*
X188035707Y-59294469D01*
X188058731Y-59303101D01*
X188115495Y-59345743D01*
X188140194Y-59412305D01*
X188140500Y-59421082D01*
X188140500Y-62012733D01*
X188139973Y-62023916D01*
X188138298Y-62031409D01*
X188138547Y-62039335D01*
X188138547Y-62039336D01*
X188140438Y-62099486D01*
X188140500Y-62103445D01*
X188140500Y-62131356D01*
X188140997Y-62135290D01*
X188140997Y-62135291D01*
X188141005Y-62135356D01*
X188141938Y-62147193D01*
X188143327Y-62191389D01*
X188148978Y-62210839D01*
X188152987Y-62230200D01*
X188155526Y-62250297D01*
X188158445Y-62257668D01*
X188158445Y-62257670D01*
X188171804Y-62291412D01*
X188175649Y-62302642D01*
X188185743Y-62337385D01*
X188187982Y-62345093D01*
X188192015Y-62351912D01*
X188192017Y-62351917D01*
X188198293Y-62362528D01*
X188206988Y-62380276D01*
X188214448Y-62399117D01*
X188219110Y-62405533D01*
X188219110Y-62405534D01*
X188240436Y-62434887D01*
X188246952Y-62444807D01*
X188269458Y-62482862D01*
X188283779Y-62497183D01*
X188296617Y-62512213D01*
X188304777Y-62523444D01*
X188328637Y-62590309D01*
X188319251Y-62645726D01*
X188308541Y-62671581D01*
X188308539Y-62671587D01*
X188306645Y-62676160D01*
X188246622Y-62926174D01*
X188226449Y-63182500D01*
X188246622Y-63438826D01*
X188247776Y-63443633D01*
X188247777Y-63443639D01*
X188261941Y-63502635D01*
X188306645Y-63688840D01*
X188405040Y-63926387D01*
X188539384Y-64145616D01*
X188706369Y-64341131D01*
X188901884Y-64508116D01*
X189121113Y-64642460D01*
X189125683Y-64644353D01*
X189125687Y-64644355D01*
X189354087Y-64738961D01*
X189358660Y-64740855D01*
X189420157Y-64755619D01*
X189593470Y-64797228D01*
X189655039Y-64832580D01*
X189687722Y-64895607D01*
X189681141Y-64966298D01*
X189677067Y-64975305D01*
X189675040Y-64978613D01*
X189673145Y-64983189D01*
X189673144Y-64983190D01*
X189661535Y-65011217D01*
X189616988Y-65066498D01*
X189545126Y-65089000D01*
X185104874Y-65089000D01*
X185036753Y-65068998D01*
X184988465Y-65011217D01*
X184976856Y-64983190D01*
X184976855Y-64983189D01*
X184974960Y-64978613D01*
X184973559Y-64976326D01*
X184960573Y-64907169D01*
X184987276Y-64841385D01*
X185045304Y-64800481D01*
X185056530Y-64797228D01*
X185229843Y-64755619D01*
X185291340Y-64740855D01*
X185295913Y-64738961D01*
X185524313Y-64644355D01*
X185524317Y-64644353D01*
X185528887Y-64642460D01*
X185748116Y-64508116D01*
X185943631Y-64341131D01*
X186110616Y-64145616D01*
X186244960Y-63926387D01*
X186343355Y-63688840D01*
X186388059Y-63502635D01*
X186402223Y-63443639D01*
X186402224Y-63443633D01*
X186403378Y-63438826D01*
X186423551Y-63182500D01*
X186403378Y-62926174D01*
X186343355Y-62676160D01*
X186341461Y-62671587D01*
X186246855Y-62443187D01*
X186246853Y-62443183D01*
X186244960Y-62438613D01*
X186110616Y-62219384D01*
X185943631Y-62023869D01*
X185748116Y-61856884D01*
X185528887Y-61722540D01*
X185524317Y-61720647D01*
X185524313Y-61720645D01*
X185295913Y-61626039D01*
X185295911Y-61626038D01*
X185291340Y-61624145D01*
X185197429Y-61601599D01*
X185046139Y-61565277D01*
X185046133Y-61565276D01*
X185041326Y-61564122D01*
X184785000Y-61543949D01*
X184528674Y-61564122D01*
X184523867Y-61565276D01*
X184523861Y-61565277D01*
X184372571Y-61601599D01*
X184278660Y-61624145D01*
X184274089Y-61626038D01*
X184274087Y-61626039D01*
X184045687Y-61720645D01*
X184045683Y-61720647D01*
X184041113Y-61722540D01*
X183821884Y-61856884D01*
X183626369Y-62023869D01*
X183459384Y-62219384D01*
X183325040Y-62438613D01*
X183323147Y-62443183D01*
X183323145Y-62443187D01*
X183228539Y-62671587D01*
X183226645Y-62676160D01*
X183166622Y-62926174D01*
X183146449Y-63182500D01*
X183166622Y-63438826D01*
X183167776Y-63443633D01*
X183167777Y-63443639D01*
X183181941Y-63502635D01*
X183226645Y-63688840D01*
X183325040Y-63926387D01*
X183326441Y-63928674D01*
X183339427Y-63997831D01*
X183312724Y-64063615D01*
X183254696Y-64104519D01*
X183243470Y-64107772D01*
X183157376Y-64128441D01*
X183008660Y-64164145D01*
X183004089Y-64166038D01*
X183004087Y-64166039D01*
X182775687Y-64260645D01*
X182775683Y-64260647D01*
X182771113Y-64262540D01*
X182551884Y-64396884D01*
X182356369Y-64563869D01*
X182189384Y-64759384D01*
X182055040Y-64978613D01*
X182053147Y-64983183D01*
X182053145Y-64983187D01*
X181963021Y-65200766D01*
X181956645Y-65216160D01*
X181945394Y-65263024D01*
X181901185Y-65447169D01*
X181896622Y-65466174D01*
X181876449Y-65722500D01*
X181896622Y-65978826D01*
X181897776Y-65983633D01*
X181897777Y-65983639D01*
X181902975Y-66005288D01*
X181940659Y-66162251D01*
X181945901Y-66184086D01*
X181942354Y-66254994D01*
X181901034Y-66312728D01*
X181835061Y-66338958D01*
X181823382Y-66339500D01*
X169637017Y-66339500D01*
X169568896Y-66319498D01*
X169522403Y-66265842D01*
X169512299Y-66195568D01*
X169521910Y-66162251D01*
X169589109Y-66011319D01*
X169589109Y-66011318D01*
X169591794Y-66005288D01*
X169631500Y-65818487D01*
X169631500Y-65627513D01*
X169591794Y-65440712D01*
X169589109Y-65434681D01*
X169516803Y-65272278D01*
X169516802Y-65272276D01*
X169514118Y-65266248D01*
X169401866Y-65111747D01*
X169358232Y-65072459D01*
X169264852Y-64988379D01*
X169264851Y-64988378D01*
X169259944Y-64983960D01*
X169254231Y-64980661D01*
X169254226Y-64980658D01*
X169115087Y-64900326D01*
X169066094Y-64848943D01*
X169052658Y-64779229D01*
X169079045Y-64713319D01*
X169088992Y-64702112D01*
X174779999Y-59011105D01*
X174842311Y-58977079D01*
X174869094Y-58974200D01*
X180969607Y-58974200D01*
X180993216Y-58976432D01*
X180993519Y-58976490D01*
X180993523Y-58976490D01*
X181001306Y-58977975D01*
X181057351Y-58974449D01*
X181065262Y-58974200D01*
X185193618Y-58974200D01*
X185261739Y-58994202D01*
X185308232Y-59047858D01*
X185311599Y-59055969D01*
X185320231Y-59078993D01*
X185323385Y-59087405D01*
X185410739Y-59203961D01*
X185527295Y-59291315D01*
X185663684Y-59342445D01*
X185725866Y-59349200D01*
X186822134Y-59349200D01*
X186884316Y-59342445D01*
X187020705Y-59291315D01*
X187137261Y-59203961D01*
X187224615Y-59087405D01*
X187275745Y-58951016D01*
X187282500Y-58888834D01*
X187282500Y-57792566D01*
X187275745Y-57730384D01*
X187224615Y-57593995D01*
X187137261Y-57477439D01*
X187020705Y-57390085D01*
X186884316Y-57338955D01*
X186822134Y-57332200D01*
X185725866Y-57332200D01*
X185663684Y-57338955D01*
X185527295Y-57390085D01*
X185410739Y-57477439D01*
X185323385Y-57593995D01*
X185320233Y-57602403D01*
X185320231Y-57602407D01*
X185311599Y-57625431D01*
X185268957Y-57682195D01*
X185202395Y-57706894D01*
X185193618Y-57707200D01*
X181800900Y-57707200D01*
X181732779Y-57687198D01*
X181686286Y-57633542D01*
X181674900Y-57581200D01*
X181674900Y-50657199D01*
X181694902Y-50589078D01*
X181748558Y-50542585D01*
X181818832Y-50532481D01*
X181843888Y-50538759D01*
X181883289Y-50553061D01*
X181888538Y-50554010D01*
X181888541Y-50554011D01*
X181969615Y-50568671D01*
X182114330Y-50594840D01*
X182118469Y-50595035D01*
X182118476Y-50595036D01*
X182137440Y-50595930D01*
X182137449Y-50595930D01*
X182138929Y-50596000D01*
X182303950Y-50596000D01*
X182385527Y-50589078D01*
X182473637Y-50581602D01*
X182473641Y-50581601D01*
X182478948Y-50581151D01*
X182484103Y-50579813D01*
X182484109Y-50579812D01*
X182682079Y-50528429D01*
X182706206Y-50522167D01*
X182711072Y-50519975D01*
X182711075Y-50519974D01*
X182915417Y-50427924D01*
X182915420Y-50427923D01*
X182920278Y-50425734D01*
X183115041Y-50294612D01*
X183284927Y-50132549D01*
X183425078Y-49944179D01*
X183485719Y-49824908D01*
X183529069Y-49739644D01*
X183529069Y-49739643D01*
X183531487Y-49734888D01*
X183601111Y-49510660D01*
X183618202Y-49381716D01*
X183631261Y-49283190D01*
X183631261Y-49283187D01*
X183631961Y-49277907D01*
X183623152Y-49043284D01*
X183605358Y-48958478D01*
X183576035Y-48818726D01*
X183576034Y-48818723D01*
X183574938Y-48813499D01*
X183488698Y-48595123D01*
X183485928Y-48590559D01*
X183485926Y-48590554D01*
X183431522Y-48500898D01*
X183413283Y-48432284D01*
X183435035Y-48364702D01*
X183489871Y-48319608D01*
X183529353Y-48309921D01*
X183771326Y-48290878D01*
X183776133Y-48289724D01*
X183776139Y-48289723D01*
X183934498Y-48251704D01*
X184021340Y-48230855D01*
X184025913Y-48228961D01*
X184254313Y-48134355D01*
X184254317Y-48134353D01*
X184258887Y-48132460D01*
X184478116Y-47998116D01*
X184673631Y-47831131D01*
X184840616Y-47635616D01*
X184974960Y-47416387D01*
X184976855Y-47411813D01*
X184976857Y-47411809D01*
X184988465Y-47383783D01*
X185033012Y-47328502D01*
X185104874Y-47306000D01*
X185391358Y-47306000D01*
X185459479Y-47326002D01*
X185505972Y-47379658D01*
X185516076Y-47449932D01*
X185483208Y-47518253D01*
X185393055Y-47614256D01*
X185390728Y-47617458D01*
X185390727Y-47617460D01*
X185377864Y-47635164D01*
X185207976Y-47868996D01*
X185206069Y-47872465D01*
X185206067Y-47872468D01*
X185058187Y-48141461D01*
X185056284Y-48144923D01*
X184940370Y-48437687D01*
X184862064Y-48742670D01*
X184822600Y-49055062D01*
X184822600Y-49369938D01*
X184862064Y-49682330D01*
X184940370Y-49987313D01*
X185056284Y-50280077D01*
X185058186Y-50283536D01*
X185058187Y-50283539D01*
X185192817Y-50528429D01*
X185207976Y-50556004D01*
X185393055Y-50810744D01*
X185608602Y-51040278D01*
X185851218Y-51240987D01*
X186117076Y-51409706D01*
X186120655Y-51411390D01*
X186120662Y-51411394D01*
X186398394Y-51542084D01*
X186398398Y-51542086D01*
X186401984Y-51543773D01*
X186701448Y-51641075D01*
X187010746Y-51700077D01*
X187104300Y-51705963D01*
X187244358Y-51714775D01*
X187244374Y-51714776D01*
X187246353Y-51714900D01*
X187403647Y-51714900D01*
X187405626Y-51714776D01*
X187405642Y-51714775D01*
X187545700Y-51705963D01*
X187639254Y-51700077D01*
X187948552Y-51641075D01*
X188248016Y-51543773D01*
X188251602Y-51542086D01*
X188251606Y-51542084D01*
X188529338Y-51411394D01*
X188529345Y-51411390D01*
X188532924Y-51409706D01*
X188798782Y-51240987D01*
X189041398Y-51040278D01*
X189256945Y-50810744D01*
X189442024Y-50556004D01*
X189457184Y-50528429D01*
X189591813Y-50283539D01*
X189591814Y-50283536D01*
X189593716Y-50280077D01*
X189709630Y-49987313D01*
X189787936Y-49682330D01*
X189827400Y-49369938D01*
X189827400Y-49055062D01*
X189787936Y-48742670D01*
X189709630Y-48437687D01*
X189593716Y-48144923D01*
X189591813Y-48141461D01*
X189443933Y-47872468D01*
X189443931Y-47872465D01*
X189442024Y-47868996D01*
X189272136Y-47635164D01*
X189259273Y-47617460D01*
X189259272Y-47617458D01*
X189256945Y-47614256D01*
X189166792Y-47518253D01*
X189134741Y-47454903D01*
X189142028Y-47384281D01*
X189186339Y-47328810D01*
X189258642Y-47306000D01*
X189545126Y-47306000D01*
X189613247Y-47326002D01*
X189661535Y-47383783D01*
X189673143Y-47411809D01*
X189673145Y-47411813D01*
X189675040Y-47416387D01*
X189809384Y-47635616D01*
X189976369Y-47831131D01*
X190171884Y-47998116D01*
X190391113Y-48132460D01*
X190395683Y-48134353D01*
X190395687Y-48134355D01*
X190624087Y-48228961D01*
X190628660Y-48230855D01*
X190715502Y-48251704D01*
X190873861Y-48289723D01*
X190873867Y-48289724D01*
X190878674Y-48290878D01*
X191116644Y-48309606D01*
X191182984Y-48334891D01*
X191225124Y-48392029D01*
X191229683Y-48462879D01*
X191219074Y-48492323D01*
X191120931Y-48685356D01*
X191118513Y-48690112D01*
X191048889Y-48914340D01*
X191048188Y-48919629D01*
X191031092Y-49048616D01*
X191018039Y-49147093D01*
X191026848Y-49381716D01*
X191027943Y-49386934D01*
X191052794Y-49505371D01*
X191075062Y-49611501D01*
X191161302Y-49829877D01*
X191283104Y-50030600D01*
X191436985Y-50207932D01*
X191441117Y-50211320D01*
X191614416Y-50353417D01*
X191614422Y-50353421D01*
X191618544Y-50356801D01*
X191623180Y-50359440D01*
X191623183Y-50359442D01*
X191794168Y-50456772D01*
X191822590Y-50472951D01*
X192043289Y-50553061D01*
X192048538Y-50554010D01*
X192048541Y-50554011D01*
X192129615Y-50568671D01*
X192274330Y-50594840D01*
X192278469Y-50595035D01*
X192278476Y-50595036D01*
X192297440Y-50595930D01*
X192297449Y-50595930D01*
X192298929Y-50596000D01*
X192463950Y-50596000D01*
X192545527Y-50589078D01*
X192633637Y-50581602D01*
X192633641Y-50581601D01*
X192638948Y-50581151D01*
X192644103Y-50579813D01*
X192644109Y-50579812D01*
X192842079Y-50528429D01*
X192866206Y-50522167D01*
X192871072Y-50519975D01*
X192871075Y-50519974D01*
X193075417Y-50427924D01*
X193075420Y-50427923D01*
X193080278Y-50425734D01*
X193275041Y-50294612D01*
X193444927Y-50132549D01*
X193585078Y-49944179D01*
X193645719Y-49824908D01*
X193689069Y-49739644D01*
X193689069Y-49739643D01*
X193691487Y-49734888D01*
X193761111Y-49510660D01*
X193778202Y-49381716D01*
X193791261Y-49283190D01*
X193791261Y-49283187D01*
X193791961Y-49277907D01*
X193783152Y-49043284D01*
X193765358Y-48958478D01*
X193736035Y-48818726D01*
X193736034Y-48818723D01*
X193734938Y-48813499D01*
X193648698Y-48595123D01*
X193582223Y-48485576D01*
X193529664Y-48398961D01*
X193529662Y-48398958D01*
X193526896Y-48394400D01*
X193373015Y-48217068D01*
X193345190Y-48194253D01*
X193195584Y-48071583D01*
X193195578Y-48071579D01*
X193191456Y-48068199D01*
X193186820Y-48065560D01*
X193186817Y-48065558D01*
X192992053Y-47954692D01*
X192987410Y-47952049D01*
X192766711Y-47871939D01*
X192761462Y-47870990D01*
X192761459Y-47870989D01*
X192541440Y-47831203D01*
X192477966Y-47799399D01*
X192441763Y-47738326D01*
X192444325Y-47667376D01*
X192460650Y-47635637D01*
X192460616Y-47635616D01*
X192460893Y-47635164D01*
X192594960Y-47416387D01*
X192596857Y-47411809D01*
X192691461Y-47183413D01*
X192691462Y-47183411D01*
X192693355Y-47178840D01*
X192735874Y-47001737D01*
X192752223Y-46933639D01*
X192752224Y-46933633D01*
X192753378Y-46928826D01*
X192773551Y-46672500D01*
X192753378Y-46416174D01*
X192741363Y-46366125D01*
X192694510Y-46170972D01*
X192693355Y-46166160D01*
X192594960Y-45928613D01*
X192460616Y-45709384D01*
X192293631Y-45513869D01*
X192098116Y-45346884D01*
X191878887Y-45212540D01*
X191874317Y-45210647D01*
X191874313Y-45210645D01*
X191645913Y-45116039D01*
X191645911Y-45116038D01*
X191641340Y-45114145D01*
X191433450Y-45064235D01*
X191406530Y-45057772D01*
X191344961Y-45022420D01*
X191312278Y-44959393D01*
X191318859Y-44888702D01*
X191322933Y-44879695D01*
X191324960Y-44876387D01*
X191381025Y-44741035D01*
X191421461Y-44643413D01*
X191421462Y-44643411D01*
X191423355Y-44638840D01*
X191450490Y-44525816D01*
X191482223Y-44393639D01*
X191482224Y-44393633D01*
X191483378Y-44388826D01*
X191503551Y-44132500D01*
X191483378Y-43876174D01*
X191482221Y-43871352D01*
X191424510Y-43630972D01*
X191423355Y-43626160D01*
X191421461Y-43621587D01*
X191326855Y-43393187D01*
X191326853Y-43393183D01*
X191324960Y-43388613D01*
X191190616Y-43169384D01*
X191023631Y-42973869D01*
X190828116Y-42806884D01*
X190608887Y-42672540D01*
X190604317Y-42670647D01*
X190604313Y-42670645D01*
X190375913Y-42576039D01*
X190375911Y-42576038D01*
X190371340Y-42574145D01*
X190284498Y-42553296D01*
X190126139Y-42515277D01*
X190126133Y-42515276D01*
X190121326Y-42514122D01*
X189865000Y-42493949D01*
X189608674Y-42514122D01*
X189603867Y-42515276D01*
X189603861Y-42515277D01*
X189562914Y-42525108D01*
X189492006Y-42521561D01*
X189434272Y-42480241D01*
X189408042Y-42414267D01*
X189407500Y-42402589D01*
X189407500Y-39775682D01*
X189427502Y-39707561D01*
X189481158Y-39661068D01*
X189489269Y-39657701D01*
X189512293Y-39649069D01*
X189512297Y-39649067D01*
X189520705Y-39645915D01*
X189637261Y-39558561D01*
X189724615Y-39442005D01*
X189775745Y-39305616D01*
X189782500Y-39243434D01*
X189782500Y-38629500D01*
X189802502Y-38561379D01*
X189856158Y-38514886D01*
X189908500Y-38503500D01*
X203953806Y-38503500D01*
X204021927Y-38523502D01*
X204042901Y-38540405D01*
X204590043Y-39087547D01*
X204597587Y-39095837D01*
X204601700Y-39102318D01*
X204607477Y-39107743D01*
X204651367Y-39148958D01*
X204654209Y-39151713D01*
X204673930Y-39171434D01*
X204677125Y-39173912D01*
X204686147Y-39181618D01*
X204718379Y-39211886D01*
X204725328Y-39215706D01*
X204736132Y-39221646D01*
X204752656Y-39232499D01*
X204768659Y-39244913D01*
X204809243Y-39262476D01*
X204819873Y-39267683D01*
X204858640Y-39288995D01*
X204866314Y-39290965D01*
X204867710Y-39291518D01*
X204923683Y-39335192D01*
X204939307Y-39364440D01*
X204968385Y-39442005D01*
X205055739Y-39558561D01*
X205172295Y-39645915D01*
X205308684Y-39697045D01*
X205370866Y-39703800D01*
X206467134Y-39703800D01*
X206529316Y-39697045D01*
X206665705Y-39645915D01*
X206782261Y-39558561D01*
X206869615Y-39442005D01*
X206920745Y-39305616D01*
X206927500Y-39243434D01*
X206927500Y-38596800D01*
X206947502Y-38528679D01*
X207001158Y-38482186D01*
X207053500Y-38470800D01*
X207284500Y-38470800D01*
X207352621Y-38490802D01*
G37*
G04 #@! TD.AperFunction*
G04 #@! TA.AperFunction,NonConductor*
G36*
X189613247Y-66376002D02*
G01*
X189661535Y-66433783D01*
X189673143Y-66461809D01*
X189673147Y-66461817D01*
X189675040Y-66466387D01*
X189809384Y-66685616D01*
X189976369Y-66881131D01*
X190171884Y-67048116D01*
X190391113Y-67182460D01*
X190395683Y-67184353D01*
X190395687Y-67184355D01*
X190533682Y-67241514D01*
X190567168Y-67255384D01*
X190570818Y-67256896D01*
X190626099Y-67301444D01*
X190648520Y-67368808D01*
X190630962Y-67437599D01*
X190611695Y-67462401D01*
X190025151Y-68048944D01*
X189962839Y-68082969D01*
X189892023Y-68077904D01*
X189835188Y-68035357D01*
X189811050Y-67975640D01*
X189809623Y-67964340D01*
X189787936Y-67792670D01*
X189709630Y-67487687D01*
X189593716Y-67194923D01*
X189587906Y-67184355D01*
X189443933Y-66922468D01*
X189443931Y-66922465D01*
X189442024Y-66918996D01*
X189256945Y-66664256D01*
X189166792Y-66568253D01*
X189134741Y-66504903D01*
X189142028Y-66434281D01*
X189186339Y-66378810D01*
X189258642Y-66356000D01*
X189545126Y-66356000D01*
X189613247Y-66376002D01*
G37*
G04 #@! TD.AperFunction*
G04 #@! TA.AperFunction,NonConductor*
G36*
X185459479Y-66376002D02*
G01*
X185505972Y-66429658D01*
X185516076Y-66499932D01*
X185483208Y-66568253D01*
X185393055Y-66664256D01*
X185207976Y-66918996D01*
X185206069Y-66922465D01*
X185206067Y-66922468D01*
X185062094Y-67184355D01*
X185056284Y-67194923D01*
X184940370Y-67487687D01*
X184862064Y-67792670D01*
X184822600Y-68105062D01*
X184822600Y-68419938D01*
X184862064Y-68732330D01*
X184940370Y-69037313D01*
X185056284Y-69330077D01*
X185058186Y-69333536D01*
X185058187Y-69333539D01*
X185190901Y-69574944D01*
X185207976Y-69606004D01*
X185393055Y-69860744D01*
X185395765Y-69863630D01*
X185395766Y-69863631D01*
X185408553Y-69877248D01*
X185440603Y-69940599D01*
X185433316Y-70011220D01*
X185389004Y-70066691D01*
X185316702Y-70089500D01*
X169637017Y-70089500D01*
X169568896Y-70069498D01*
X169522403Y-70015842D01*
X169512299Y-69945568D01*
X169521910Y-69912251D01*
X169589109Y-69761319D01*
X169589109Y-69761318D01*
X169591794Y-69755288D01*
X169615428Y-69644101D01*
X169630128Y-69574944D01*
X169630128Y-69574939D01*
X169631500Y-69568487D01*
X169631500Y-69377513D01*
X169628956Y-69365542D01*
X169593166Y-69197169D01*
X169591794Y-69190712D01*
X169586255Y-69178271D01*
X169516803Y-69022278D01*
X169516802Y-69022276D01*
X169514118Y-69016248D01*
X169487628Y-68979787D01*
X169445687Y-68922061D01*
X169421828Y-68855193D01*
X169437909Y-68786042D01*
X169445687Y-68773939D01*
X169510237Y-68685094D01*
X169510238Y-68685093D01*
X169514118Y-68679752D01*
X169535710Y-68631257D01*
X169589109Y-68511319D01*
X169589109Y-68511318D01*
X169591794Y-68505288D01*
X169615715Y-68392748D01*
X169630128Y-68324944D01*
X169630128Y-68324939D01*
X169631500Y-68318487D01*
X169631500Y-68127513D01*
X169627570Y-68109021D01*
X169599218Y-67975640D01*
X169591794Y-67940712D01*
X169521910Y-67783749D01*
X169512476Y-67713382D01*
X169542583Y-67649085D01*
X169602671Y-67611271D01*
X169637017Y-67606500D01*
X180828942Y-67606500D01*
X180897063Y-67626502D01*
X180943556Y-67680158D01*
X180953660Y-67750432D01*
X180949275Y-67769862D01*
X180888889Y-67964340D01*
X180888188Y-67969629D01*
X180871092Y-68098616D01*
X180858039Y-68197093D01*
X180866848Y-68431716D01*
X180872656Y-68459395D01*
X180904761Y-68612405D01*
X180915062Y-68661501D01*
X181001302Y-68879877D01*
X181004071Y-68884440D01*
X181080813Y-69010906D01*
X181123104Y-69080600D01*
X181276985Y-69257932D01*
X181281117Y-69261320D01*
X181454416Y-69403417D01*
X181454422Y-69403421D01*
X181458544Y-69406801D01*
X181463180Y-69409440D01*
X181463183Y-69409442D01*
X181574408Y-69472755D01*
X181662590Y-69522951D01*
X181883289Y-69603061D01*
X181888538Y-69604010D01*
X181888541Y-69604011D01*
X181969615Y-69618671D01*
X182114330Y-69644840D01*
X182118469Y-69645035D01*
X182118476Y-69645036D01*
X182137440Y-69645930D01*
X182137449Y-69645930D01*
X182138929Y-69646000D01*
X182303950Y-69646000D01*
X182385299Y-69639097D01*
X182473637Y-69631602D01*
X182473641Y-69631601D01*
X182478948Y-69631151D01*
X182484103Y-69629813D01*
X182484109Y-69629812D01*
X182661823Y-69583686D01*
X182706206Y-69572167D01*
X182711072Y-69569975D01*
X182711075Y-69569974D01*
X182915417Y-69477924D01*
X182915420Y-69477923D01*
X182920278Y-69475734D01*
X182932148Y-69467743D01*
X182954443Y-69452733D01*
X183115041Y-69344612D01*
X183284927Y-69182549D01*
X183425078Y-68994179D01*
X183432396Y-68979787D01*
X183529069Y-68789644D01*
X183529069Y-68789643D01*
X183531487Y-68784888D01*
X183601111Y-68560660D01*
X183613371Y-68468160D01*
X183631261Y-68333190D01*
X183631261Y-68333187D01*
X183631961Y-68327907D01*
X183631744Y-68322113D01*
X183627250Y-68202423D01*
X183623152Y-68093284D01*
X183598468Y-67975640D01*
X183576035Y-67868726D01*
X183576034Y-67868723D01*
X183574938Y-67863499D01*
X183488698Y-67645123D01*
X183485928Y-67640559D01*
X183485926Y-67640554D01*
X183431522Y-67550898D01*
X183413283Y-67482284D01*
X183435035Y-67414702D01*
X183489871Y-67369608D01*
X183529353Y-67359921D01*
X183771326Y-67340878D01*
X183776133Y-67339724D01*
X183776139Y-67339723D01*
X183935581Y-67301444D01*
X184021340Y-67280855D01*
X184025913Y-67278961D01*
X184254313Y-67184355D01*
X184254317Y-67184353D01*
X184258887Y-67182460D01*
X184478116Y-67048116D01*
X184673631Y-66881131D01*
X184840616Y-66685616D01*
X184974960Y-66466387D01*
X184976853Y-66461817D01*
X184976857Y-66461809D01*
X184988465Y-66433783D01*
X185033012Y-66378502D01*
X185104874Y-66356000D01*
X185391358Y-66356000D01*
X185459479Y-66376002D01*
G37*
G04 #@! TD.AperFunction*
G04 #@! TA.AperFunction,NonConductor*
G36*
X204509479Y-47326002D02*
G01*
X204555972Y-47379658D01*
X204566076Y-47449932D01*
X204533208Y-47518253D01*
X204443055Y-47614256D01*
X204440728Y-47617458D01*
X204440727Y-47617460D01*
X204427864Y-47635164D01*
X204257976Y-47868996D01*
X204256069Y-47872465D01*
X204256067Y-47872468D01*
X204108187Y-48141461D01*
X204106284Y-48144923D01*
X203990370Y-48437687D01*
X203912064Y-48742670D01*
X203872600Y-49055062D01*
X203872600Y-49369938D01*
X203912064Y-49682330D01*
X203990370Y-49987313D01*
X204106284Y-50280077D01*
X204108186Y-50283536D01*
X204108187Y-50283539D01*
X204242817Y-50528429D01*
X204257976Y-50556004D01*
X204443055Y-50810744D01*
X204658602Y-51040278D01*
X204901218Y-51240987D01*
X205167076Y-51409706D01*
X205170655Y-51411390D01*
X205170662Y-51411394D01*
X205448394Y-51542084D01*
X205448398Y-51542086D01*
X205451984Y-51543773D01*
X205751448Y-51641075D01*
X206060746Y-51700077D01*
X206154300Y-51705963D01*
X206294358Y-51714775D01*
X206294374Y-51714776D01*
X206296353Y-51714900D01*
X206453647Y-51714900D01*
X206455626Y-51714776D01*
X206455642Y-51714775D01*
X206595700Y-51705963D01*
X206689254Y-51700077D01*
X206998552Y-51641075D01*
X207298016Y-51543773D01*
X207301602Y-51542086D01*
X207301606Y-51542084D01*
X207579338Y-51411394D01*
X207579345Y-51411390D01*
X207582924Y-51409706D01*
X207848782Y-51240987D01*
X208091398Y-51040278D01*
X208306945Y-50810744D01*
X208492024Y-50556004D01*
X208507184Y-50528429D01*
X208641813Y-50283539D01*
X208641814Y-50283536D01*
X208643716Y-50280077D01*
X208759630Y-49987313D01*
X208837936Y-49682330D01*
X208877400Y-49369938D01*
X208877400Y-49055062D01*
X208837936Y-48742670D01*
X208759630Y-48437687D01*
X208643716Y-48144923D01*
X208641813Y-48141461D01*
X208493933Y-47872468D01*
X208493931Y-47872465D01*
X208492024Y-47868996D01*
X208322136Y-47635164D01*
X208309273Y-47617460D01*
X208309272Y-47617458D01*
X208306945Y-47614256D01*
X208216792Y-47518253D01*
X208184741Y-47454903D01*
X208192028Y-47384281D01*
X208236339Y-47328810D01*
X208308642Y-47306000D01*
X208595126Y-47306000D01*
X208663247Y-47326002D01*
X208711535Y-47383783D01*
X208723143Y-47411809D01*
X208723145Y-47411813D01*
X208725040Y-47416387D01*
X208859384Y-47635616D01*
X209026369Y-47831131D01*
X209221884Y-47998116D01*
X209441113Y-48132460D01*
X209445683Y-48134353D01*
X209445687Y-48134355D01*
X209531838Y-48170040D01*
X209630426Y-48210876D01*
X209685706Y-48255423D01*
X209708127Y-48322786D01*
X209692619Y-48387989D01*
X209686051Y-48399935D01*
X209675201Y-48416453D01*
X209662786Y-48432459D01*
X209659641Y-48439728D01*
X209659638Y-48439732D01*
X209645226Y-48473037D01*
X209640009Y-48483687D01*
X209618705Y-48522440D01*
X209616734Y-48530115D01*
X209616734Y-48530116D01*
X209613667Y-48542062D01*
X209607263Y-48560766D01*
X209599219Y-48579355D01*
X209597980Y-48587178D01*
X209597977Y-48587188D01*
X209592301Y-48623024D01*
X209589895Y-48634644D01*
X209578900Y-48677470D01*
X209578900Y-48697724D01*
X209577349Y-48717434D01*
X209574180Y-48737443D01*
X209574926Y-48745335D01*
X209578341Y-48781461D01*
X209578900Y-48793319D01*
X209578900Y-66263100D01*
X209558898Y-66331221D01*
X209505242Y-66377714D01*
X209452900Y-66389100D01*
X208261163Y-66389100D01*
X208249979Y-66388573D01*
X208242491Y-66386899D01*
X208234568Y-66387148D01*
X208174433Y-66389038D01*
X208170475Y-66389100D01*
X208142544Y-66389100D01*
X208138629Y-66389595D01*
X208138625Y-66389595D01*
X208138567Y-66389603D01*
X208138538Y-66389606D01*
X208126696Y-66390539D01*
X208082510Y-66391927D01*
X208065144Y-66396972D01*
X208063058Y-66397578D01*
X208043706Y-66401586D01*
X208031468Y-66403132D01*
X208031466Y-66403133D01*
X208023603Y-66404126D01*
X207982486Y-66420406D01*
X207971285Y-66424241D01*
X207928806Y-66436582D01*
X207921987Y-66440615D01*
X207921982Y-66440617D01*
X207911371Y-66446893D01*
X207893621Y-66455590D01*
X207874783Y-66463048D01*
X207868367Y-66467709D01*
X207868366Y-66467710D01*
X207839025Y-66489028D01*
X207829101Y-66495547D01*
X207797860Y-66514022D01*
X207797855Y-66514026D01*
X207791037Y-66518058D01*
X207776713Y-66532382D01*
X207761681Y-66545221D01*
X207745293Y-66557128D01*
X207717112Y-66591193D01*
X207709122Y-66599973D01*
X207412684Y-66896411D01*
X207350372Y-66930437D01*
X207279557Y-66925372D01*
X207266404Y-66919356D01*
X207260705Y-66915085D01*
X207252304Y-66911936D01*
X207252301Y-66911934D01*
X207160098Y-66877369D01*
X207124316Y-66863955D01*
X207062134Y-66857200D01*
X205965866Y-66857200D01*
X205903684Y-66863955D01*
X205767295Y-66915085D01*
X205650739Y-67002439D01*
X205563385Y-67118995D01*
X205512255Y-67255384D01*
X205505500Y-67317566D01*
X205505500Y-68413834D01*
X205512255Y-68476016D01*
X205563385Y-68612405D01*
X205650739Y-68728961D01*
X205767295Y-68816315D01*
X205903684Y-68867445D01*
X205965866Y-68874200D01*
X207062134Y-68874200D01*
X207124316Y-68867445D01*
X207260705Y-68816315D01*
X207377261Y-68728961D01*
X207464615Y-68612405D01*
X207494366Y-68533045D01*
X207537008Y-68476281D01*
X207577195Y-68456279D01*
X207592893Y-68451718D01*
X207599712Y-68447685D01*
X207599717Y-68447683D01*
X207610328Y-68441407D01*
X207628076Y-68432712D01*
X207646917Y-68425252D01*
X207659681Y-68415979D01*
X207682687Y-68399264D01*
X207692607Y-68392748D01*
X207723835Y-68374280D01*
X207723838Y-68374278D01*
X207730662Y-68370242D01*
X207744983Y-68355921D01*
X207760017Y-68343080D01*
X207761732Y-68341834D01*
X207776407Y-68331172D01*
X207781461Y-68325063D01*
X207781465Y-68325059D01*
X207782418Y-68323908D01*
X207783393Y-68323250D01*
X207787241Y-68319636D01*
X207787824Y-68320257D01*
X207841252Y-68284171D01*
X207912231Y-68282551D01*
X207972817Y-68319562D01*
X208003776Y-68383453D01*
X208005500Y-68404226D01*
X208005500Y-68413834D01*
X208012255Y-68476016D01*
X208063385Y-68612405D01*
X208150739Y-68728961D01*
X208267295Y-68816315D01*
X208275703Y-68819467D01*
X208275707Y-68819469D01*
X208298731Y-68828101D01*
X208355495Y-68870743D01*
X208380194Y-68937305D01*
X208380500Y-68946082D01*
X208380500Y-71076618D01*
X208360498Y-71144739D01*
X208302718Y-71193027D01*
X208226053Y-71224783D01*
X208171113Y-71247540D01*
X207951884Y-71381884D01*
X207756369Y-71548869D01*
X207589384Y-71744384D01*
X207455040Y-71963613D01*
X207356645Y-72201160D01*
X207296622Y-72451174D01*
X207276449Y-72707500D01*
X207296622Y-72963826D01*
X207356645Y-73213840D01*
X207455040Y-73451387D01*
X207589384Y-73670616D01*
X207756369Y-73866131D01*
X207951884Y-74033116D01*
X208171113Y-74167460D01*
X208175683Y-74169353D01*
X208175687Y-74169355D01*
X208404087Y-74263961D01*
X208408660Y-74265855D01*
X208470157Y-74280619D01*
X208643470Y-74322228D01*
X208705039Y-74357580D01*
X208737722Y-74420607D01*
X208731141Y-74491298D01*
X208727067Y-74500305D01*
X208725040Y-74503613D01*
X208723145Y-74508189D01*
X208723144Y-74508190D01*
X208711535Y-74536217D01*
X208666988Y-74591498D01*
X208595126Y-74614000D01*
X204154874Y-74614000D01*
X204086753Y-74593998D01*
X204038465Y-74536217D01*
X204026856Y-74508190D01*
X204026855Y-74508189D01*
X204024960Y-74503613D01*
X204023559Y-74501326D01*
X204010573Y-74432169D01*
X204037276Y-74366385D01*
X204095304Y-74325481D01*
X204106530Y-74322228D01*
X204279843Y-74280619D01*
X204341340Y-74265855D01*
X204345913Y-74263961D01*
X204574313Y-74169355D01*
X204574317Y-74169353D01*
X204578887Y-74167460D01*
X204798116Y-74033116D01*
X204993631Y-73866131D01*
X205160616Y-73670616D01*
X205294960Y-73451387D01*
X205393355Y-73213840D01*
X205453378Y-72963826D01*
X205473551Y-72707500D01*
X205453378Y-72451174D01*
X205393355Y-72201160D01*
X205294960Y-71963613D01*
X205160616Y-71744384D01*
X204993631Y-71548869D01*
X204798116Y-71381884D01*
X204578887Y-71247540D01*
X204574317Y-71245647D01*
X204574313Y-71245645D01*
X204345913Y-71151039D01*
X204345911Y-71151038D01*
X204341340Y-71149145D01*
X204254498Y-71128296D01*
X204096139Y-71090277D01*
X204096133Y-71090276D01*
X204091326Y-71089122D01*
X203835000Y-71068949D01*
X203578674Y-71089122D01*
X203573867Y-71090276D01*
X203573861Y-71090277D01*
X203415502Y-71128296D01*
X203328660Y-71149145D01*
X203324089Y-71151038D01*
X203324087Y-71151039D01*
X203095687Y-71245645D01*
X203095683Y-71245647D01*
X203091113Y-71247540D01*
X202871884Y-71381884D01*
X202676369Y-71548869D01*
X202509384Y-71744384D01*
X202375040Y-71963613D01*
X202276645Y-72201160D01*
X202216622Y-72451174D01*
X202196449Y-72707500D01*
X202216622Y-72963826D01*
X202276645Y-73213840D01*
X202375040Y-73451387D01*
X202376441Y-73453674D01*
X202389427Y-73522831D01*
X202362724Y-73588615D01*
X202304696Y-73629519D01*
X202293470Y-73632772D01*
X202063469Y-73687990D01*
X202063464Y-73687992D01*
X202058660Y-73689145D01*
X202026052Y-73702651D01*
X201955466Y-73710240D01*
X201888742Y-73675337D01*
X199794152Y-71580747D01*
X199786612Y-71572461D01*
X199782500Y-71565982D01*
X199732848Y-71519356D01*
X199730007Y-71516602D01*
X199710270Y-71496865D01*
X199707073Y-71494385D01*
X199698051Y-71486680D01*
X199671600Y-71461841D01*
X199665821Y-71456414D01*
X199658875Y-71452595D01*
X199658872Y-71452593D01*
X199648066Y-71446652D01*
X199631547Y-71435801D01*
X199631083Y-71435441D01*
X199615541Y-71423386D01*
X199608272Y-71420241D01*
X199608268Y-71420238D01*
X199574963Y-71405826D01*
X199564313Y-71400609D01*
X199525560Y-71379305D01*
X199505937Y-71374267D01*
X199487234Y-71367863D01*
X199475920Y-71362967D01*
X199475919Y-71362967D01*
X199468645Y-71359819D01*
X199460822Y-71358580D01*
X199460812Y-71358577D01*
X199424976Y-71352901D01*
X199413356Y-71350495D01*
X199378211Y-71341472D01*
X199378210Y-71341472D01*
X199370530Y-71339500D01*
X199350276Y-71339500D01*
X199330565Y-71337949D01*
X199318386Y-71336020D01*
X199310557Y-71334780D01*
X199302665Y-71335526D01*
X199266539Y-71338941D01*
X199254681Y-71339500D01*
X188830594Y-71339500D01*
X188762473Y-71319498D01*
X188715980Y-71265842D01*
X188705876Y-71195568D01*
X188735370Y-71130988D01*
X188741499Y-71124405D01*
X190981584Y-68884320D01*
X191043896Y-68850294D01*
X191114711Y-68855359D01*
X191171547Y-68897906D01*
X191178398Y-68908050D01*
X191240813Y-69010906D01*
X191283104Y-69080600D01*
X191436985Y-69257932D01*
X191441117Y-69261320D01*
X191614416Y-69403417D01*
X191614422Y-69403421D01*
X191618544Y-69406801D01*
X191623180Y-69409440D01*
X191623183Y-69409442D01*
X191734408Y-69472755D01*
X191822590Y-69522951D01*
X192043289Y-69603061D01*
X192048538Y-69604010D01*
X192048541Y-69604011D01*
X192129615Y-69618671D01*
X192274330Y-69644840D01*
X192278469Y-69645035D01*
X192278476Y-69645036D01*
X192297440Y-69645930D01*
X192297449Y-69645930D01*
X192298929Y-69646000D01*
X192463950Y-69646000D01*
X192545299Y-69639097D01*
X192633637Y-69631602D01*
X192633641Y-69631601D01*
X192638948Y-69631151D01*
X192644103Y-69629813D01*
X192644109Y-69629812D01*
X192821823Y-69583686D01*
X192866206Y-69572167D01*
X192871072Y-69569975D01*
X192871075Y-69569974D01*
X193075417Y-69477924D01*
X193075420Y-69477923D01*
X193080278Y-69475734D01*
X193092148Y-69467743D01*
X193114443Y-69452733D01*
X193275041Y-69344612D01*
X193444927Y-69182549D01*
X193585078Y-68994179D01*
X193592396Y-68979787D01*
X193689069Y-68789644D01*
X193689069Y-68789643D01*
X193691487Y-68784888D01*
X193761111Y-68560660D01*
X193773371Y-68468160D01*
X193791261Y-68333190D01*
X193791261Y-68333187D01*
X193791961Y-68327907D01*
X193791744Y-68322113D01*
X193787250Y-68202423D01*
X193783152Y-68093284D01*
X193758468Y-67975640D01*
X193736035Y-67868726D01*
X193736034Y-67868723D01*
X193734938Y-67863499D01*
X193648698Y-67645123D01*
X193549885Y-67482284D01*
X193529664Y-67448961D01*
X193529662Y-67448958D01*
X193526896Y-67444400D01*
X193373015Y-67267068D01*
X193349742Y-67247985D01*
X193195584Y-67121583D01*
X193195578Y-67121579D01*
X193191456Y-67118199D01*
X193052285Y-67038978D01*
X193002980Y-66987897D01*
X192989118Y-66918267D01*
X193015101Y-66852196D01*
X193025523Y-66840382D01*
X202957253Y-56908652D01*
X202965539Y-56901112D01*
X202972018Y-56897000D01*
X203018644Y-56847348D01*
X203021398Y-56844507D01*
X203041135Y-56824770D01*
X203043615Y-56821573D01*
X203051320Y-56812551D01*
X203076159Y-56786100D01*
X203081586Y-56780321D01*
X203085405Y-56773375D01*
X203085407Y-56773372D01*
X203091348Y-56762566D01*
X203102199Y-56746047D01*
X203109758Y-56736301D01*
X203114614Y-56730041D01*
X203117759Y-56722772D01*
X203117762Y-56722768D01*
X203132174Y-56689463D01*
X203137391Y-56678813D01*
X203158695Y-56640060D01*
X203163733Y-56620437D01*
X203170137Y-56601734D01*
X203175033Y-56590420D01*
X203175033Y-56590419D01*
X203178181Y-56583145D01*
X203179420Y-56575322D01*
X203179423Y-56575312D01*
X203185099Y-56539476D01*
X203187505Y-56527856D01*
X203196528Y-56492711D01*
X203196528Y-56492710D01*
X203198500Y-56485030D01*
X203198500Y-56464776D01*
X203200051Y-56445065D01*
X203201980Y-56432886D01*
X203203220Y-56425057D01*
X203199059Y-56381038D01*
X203198500Y-56369181D01*
X203198500Y-48262374D01*
X203218502Y-48194253D01*
X203276283Y-48145965D01*
X203304309Y-48134357D01*
X203304317Y-48134353D01*
X203308887Y-48132460D01*
X203528116Y-47998116D01*
X203723631Y-47831131D01*
X203890616Y-47635616D01*
X204024960Y-47416387D01*
X204026855Y-47411813D01*
X204026857Y-47411809D01*
X204038465Y-47383783D01*
X204083012Y-47328502D01*
X204154874Y-47306000D01*
X204441358Y-47306000D01*
X204509479Y-47326002D01*
G37*
G04 #@! TD.AperFunction*
G04 #@! TA.AperFunction,NonConductor*
G36*
X211970057Y-26509500D02*
G01*
X211984858Y-26511805D01*
X211984861Y-26511805D01*
X211993730Y-26513186D01*
X212014158Y-26510515D01*
X212035983Y-26509571D01*
X212386007Y-26524853D01*
X212396958Y-26525811D01*
X212774579Y-26575527D01*
X212785403Y-26577436D01*
X213157243Y-26659870D01*
X213167860Y-26662715D01*
X213531110Y-26777248D01*
X213541425Y-26781001D01*
X213893334Y-26926766D01*
X213903269Y-26931399D01*
X214241128Y-27107278D01*
X214250637Y-27112768D01*
X214571860Y-27317410D01*
X214580864Y-27323714D01*
X214883043Y-27555583D01*
X214891463Y-27562649D01*
X215172268Y-27819959D01*
X215180041Y-27827732D01*
X215437351Y-28108537D01*
X215444417Y-28116957D01*
X215676286Y-28419136D01*
X215682590Y-28428140D01*
X215887232Y-28749363D01*
X215892722Y-28758872D01*
X216068601Y-29096731D01*
X216073238Y-29106675D01*
X216218996Y-29458568D01*
X216222752Y-29468890D01*
X216302235Y-29720975D01*
X216337285Y-29832139D01*
X216340130Y-29842757D01*
X216422564Y-30214597D01*
X216424473Y-30225421D01*
X216474189Y-30603042D01*
X216475147Y-30613993D01*
X216490104Y-30956583D01*
X216488724Y-30981461D01*
X216486814Y-30993730D01*
X216488638Y-31007678D01*
X216490936Y-31025251D01*
X216492000Y-31041589D01*
X216492000Y-57446792D01*
X216490254Y-57467697D01*
X216486929Y-57487460D01*
X216486776Y-57499999D01*
X216488886Y-57514733D01*
X216489835Y-57523580D01*
X216500433Y-57671776D01*
X216502153Y-57695814D01*
X216503536Y-57715159D01*
X216549388Y-57925938D01*
X216550955Y-57930140D01*
X216550957Y-57930146D01*
X216600315Y-58062477D01*
X216624771Y-58128046D01*
X216728149Y-58317369D01*
X216857418Y-58490053D01*
X217009947Y-58642582D01*
X217182631Y-58771851D01*
X217371954Y-58875229D01*
X217376166Y-58876800D01*
X217569854Y-58949043D01*
X217569860Y-58949045D01*
X217574062Y-58950612D01*
X217578448Y-58951566D01*
X217578451Y-58951567D01*
X217682495Y-58974200D01*
X217784841Y-58996464D01*
X217789329Y-58996785D01*
X217959597Y-59008963D01*
X217971506Y-59010387D01*
X217987462Y-59013071D01*
X217993817Y-59013149D01*
X217995142Y-59013165D01*
X217995146Y-59013165D01*
X218000001Y-59013224D01*
X218027589Y-59009273D01*
X218045452Y-59008000D01*
X229950672Y-59008000D01*
X229970057Y-59009500D01*
X229984858Y-59011805D01*
X229984861Y-59011805D01*
X229993730Y-59013186D01*
X230014158Y-59010515D01*
X230035983Y-59009571D01*
X230386007Y-59024853D01*
X230396958Y-59025811D01*
X230774579Y-59075527D01*
X230785403Y-59077436D01*
X231157243Y-59159870D01*
X231167860Y-59162715D01*
X231531110Y-59277248D01*
X231541425Y-59281001D01*
X231893334Y-59426766D01*
X231903269Y-59431399D01*
X232241128Y-59607278D01*
X232250637Y-59612768D01*
X232571860Y-59817410D01*
X232580864Y-59823714D01*
X232883043Y-60055583D01*
X232891463Y-60062649D01*
X233172268Y-60319959D01*
X233180041Y-60327732D01*
X233437351Y-60608537D01*
X233444417Y-60616957D01*
X233676286Y-60919136D01*
X233682590Y-60928140D01*
X233887232Y-61249363D01*
X233892722Y-61258872D01*
X234068601Y-61596731D01*
X234073234Y-61606666D01*
X234175807Y-61854300D01*
X234218996Y-61958568D01*
X234222752Y-61968890D01*
X234295305Y-62198997D01*
X234337285Y-62332139D01*
X234340130Y-62342757D01*
X234422564Y-62714597D01*
X234424473Y-62725421D01*
X234474189Y-63103042D01*
X234475147Y-63113993D01*
X234490104Y-63456583D01*
X234488724Y-63481461D01*
X234486814Y-63493730D01*
X234489274Y-63512539D01*
X234490936Y-63525251D01*
X234492000Y-63541589D01*
X234492000Y-97740123D01*
X234490466Y-97759724D01*
X234486825Y-97782844D01*
X234487974Y-97791749D01*
X234491692Y-97820565D01*
X234492000Y-97823642D01*
X234492000Y-97826477D01*
X234492637Y-97830921D01*
X234492637Y-97830928D01*
X234496459Y-97857615D01*
X234496696Y-97859355D01*
X234499028Y-97877432D01*
X234505444Y-97927161D01*
X234506893Y-97930470D01*
X234507405Y-97934045D01*
X234535689Y-97996253D01*
X234536404Y-97997857D01*
X234563819Y-98060455D01*
X234566140Y-98063225D01*
X234567633Y-98066510D01*
X234572772Y-98072474D01*
X234612261Y-98118303D01*
X234613308Y-98119534D01*
X234635614Y-98146164D01*
X234637756Y-98148039D01*
X234639810Y-98150276D01*
X234662619Y-98176747D01*
X234675314Y-98184975D01*
X234685546Y-98191607D01*
X234700006Y-98202532D01*
X236048541Y-99383043D01*
X241676609Y-104309867D01*
X241706029Y-104347758D01*
X241775888Y-104485736D01*
X241781196Y-104497731D01*
X241869002Y-104727842D01*
X241873034Y-104740324D01*
X241936439Y-104978310D01*
X241939152Y-104991144D01*
X241977474Y-105234444D01*
X241978837Y-105247489D01*
X241989774Y-105457310D01*
X241988445Y-105483254D01*
X241988195Y-105484857D01*
X241988195Y-105484862D01*
X241986814Y-105493730D01*
X241987978Y-105502632D01*
X241987978Y-105502635D01*
X241990936Y-105525251D01*
X241992000Y-105541589D01*
X241992000Y-108950672D01*
X241990500Y-108970056D01*
X241986814Y-108993730D01*
X241989485Y-109014158D01*
X241990429Y-109035983D01*
X241975173Y-109385414D01*
X241975147Y-109386007D01*
X241974189Y-109396958D01*
X241924473Y-109774579D01*
X241922564Y-109785403D01*
X241840130Y-110157243D01*
X241837285Y-110167860D01*
X241792942Y-110308500D01*
X241722755Y-110531103D01*
X241718996Y-110541432D01*
X241573238Y-110893325D01*
X241568601Y-110903269D01*
X241392722Y-111241128D01*
X241387232Y-111250637D01*
X241182590Y-111571860D01*
X241176286Y-111580864D01*
X240944417Y-111883043D01*
X240937351Y-111891463D01*
X240680041Y-112172268D01*
X240672268Y-112180041D01*
X240391463Y-112437351D01*
X240383043Y-112444417D01*
X240080864Y-112676286D01*
X240071860Y-112682590D01*
X239750637Y-112887232D01*
X239741128Y-112892722D01*
X239403269Y-113068601D01*
X239393334Y-113073234D01*
X239041425Y-113218999D01*
X239031110Y-113222752D01*
X238667861Y-113337285D01*
X238657243Y-113340130D01*
X238285403Y-113422564D01*
X238274579Y-113424473D01*
X237896958Y-113474189D01*
X237886007Y-113475147D01*
X237543417Y-113490104D01*
X237518539Y-113488724D01*
X237518160Y-113488665D01*
X237506270Y-113486814D01*
X237476936Y-113490650D01*
X237474749Y-113490936D01*
X237458411Y-113492000D01*
X232593410Y-113492000D01*
X232557071Y-113486646D01*
X214175406Y-107950000D01*
X234618439Y-107950000D01*
X234638660Y-108258507D01*
X234698975Y-108561735D01*
X234798354Y-108854496D01*
X234800177Y-108858192D01*
X234800180Y-108858200D01*
X234877088Y-109014152D01*
X234935096Y-109131780D01*
X234937390Y-109135213D01*
X234937391Y-109135214D01*
X235106861Y-109388845D01*
X235109575Y-109391939D01*
X235109579Y-109391945D01*
X235165084Y-109455236D01*
X235310710Y-109621290D01*
X235313799Y-109623999D01*
X235540055Y-109822421D01*
X235540061Y-109822425D01*
X235543155Y-109825139D01*
X235546581Y-109827428D01*
X235546586Y-109827432D01*
X235796785Y-109994609D01*
X235800220Y-109996904D01*
X235803923Y-109998730D01*
X236073800Y-110131820D01*
X236073808Y-110131823D01*
X236077504Y-110133646D01*
X236081419Y-110134975D01*
X236366358Y-110231699D01*
X236366361Y-110231700D01*
X236370265Y-110233025D01*
X236596961Y-110278117D01*
X236669450Y-110292536D01*
X236669453Y-110292536D01*
X236673493Y-110293340D01*
X236677604Y-110293609D01*
X236677608Y-110293610D01*
X236902737Y-110308366D01*
X236902746Y-110308366D01*
X236904786Y-110308500D01*
X237059214Y-110308500D01*
X237061254Y-110308366D01*
X237061263Y-110308366D01*
X237286392Y-110293610D01*
X237286396Y-110293609D01*
X237290507Y-110293340D01*
X237294547Y-110292536D01*
X237294550Y-110292536D01*
X237367039Y-110278117D01*
X237593735Y-110233025D01*
X237597639Y-110231700D01*
X237597642Y-110231699D01*
X237882581Y-110134975D01*
X237886496Y-110133646D01*
X237890192Y-110131823D01*
X237890200Y-110131820D01*
X238160077Y-109998730D01*
X238163780Y-109996904D01*
X238167215Y-109994609D01*
X238417414Y-109827432D01*
X238417419Y-109827428D01*
X238420845Y-109825139D01*
X238423939Y-109822425D01*
X238423945Y-109822421D01*
X238650201Y-109623999D01*
X238653290Y-109621290D01*
X238798916Y-109455236D01*
X238854421Y-109391945D01*
X238854425Y-109391939D01*
X238857139Y-109388845D01*
X239028904Y-109131781D01*
X239076145Y-109035987D01*
X239111880Y-108963523D01*
X239165646Y-108854496D01*
X239265025Y-108561735D01*
X239325340Y-108258507D01*
X239345561Y-107950000D01*
X239325340Y-107641493D01*
X239265025Y-107338265D01*
X239165646Y-107045504D01*
X239163822Y-107041806D01*
X239163820Y-107041800D01*
X239030730Y-106771923D01*
X239028904Y-106768220D01*
X239026610Y-106764787D01*
X239026609Y-106764785D01*
X238859432Y-106514586D01*
X238859428Y-106514581D01*
X238857139Y-106511155D01*
X238854425Y-106508061D01*
X238854421Y-106508055D01*
X238655999Y-106281799D01*
X238653290Y-106278710D01*
X238550688Y-106188730D01*
X238423945Y-106077579D01*
X238423939Y-106077575D01*
X238420845Y-106074861D01*
X238417419Y-106072572D01*
X238417414Y-106072568D01*
X238167215Y-105905391D01*
X238167213Y-105905390D01*
X238163780Y-105903096D01*
X238114352Y-105878721D01*
X237890200Y-105768180D01*
X237890192Y-105768177D01*
X237886496Y-105766354D01*
X237882581Y-105765025D01*
X237597642Y-105668301D01*
X237597639Y-105668300D01*
X237593735Y-105666975D01*
X237367039Y-105621883D01*
X237294550Y-105607464D01*
X237294547Y-105607464D01*
X237290507Y-105606660D01*
X237286396Y-105606391D01*
X237286392Y-105606390D01*
X237061263Y-105591634D01*
X237061254Y-105591634D01*
X237059214Y-105591500D01*
X236904786Y-105591500D01*
X236902746Y-105591634D01*
X236902737Y-105591634D01*
X236677608Y-105606390D01*
X236677604Y-105606391D01*
X236673493Y-105606660D01*
X236669453Y-105607464D01*
X236669450Y-105607464D01*
X236596961Y-105621883D01*
X236370265Y-105666975D01*
X236366361Y-105668300D01*
X236366358Y-105668301D01*
X236081419Y-105765025D01*
X236077504Y-105766354D01*
X236073808Y-105768177D01*
X236073800Y-105768180D01*
X235849648Y-105878721D01*
X235800220Y-105903096D01*
X235796787Y-105905390D01*
X235796785Y-105905391D01*
X235546586Y-106072568D01*
X235546581Y-106072572D01*
X235543155Y-106074861D01*
X235540061Y-106077575D01*
X235540055Y-106077579D01*
X235413312Y-106188730D01*
X235310710Y-106278710D01*
X235308001Y-106281799D01*
X235109579Y-106508055D01*
X235109575Y-106508061D01*
X235106861Y-106511155D01*
X234935096Y-106768219D01*
X234798354Y-107045504D01*
X234698975Y-107338265D01*
X234638660Y-107641493D01*
X234618439Y-107950000D01*
X214175406Y-107950000D01*
X201526205Y-104140000D01*
X223442439Y-104140000D01*
X223462660Y-104448507D01*
X223522975Y-104751735D01*
X223622354Y-105044496D01*
X223624177Y-105048192D01*
X223624180Y-105048200D01*
X223734721Y-105272352D01*
X223759096Y-105321780D01*
X223761390Y-105325213D01*
X223761391Y-105325215D01*
X223900488Y-105533388D01*
X223930861Y-105578845D01*
X223933575Y-105581939D01*
X223933579Y-105581945D01*
X224132001Y-105808201D01*
X224134710Y-105811290D01*
X224137799Y-105813999D01*
X224364055Y-106012421D01*
X224364061Y-106012425D01*
X224367155Y-106015139D01*
X224370581Y-106017428D01*
X224370586Y-106017432D01*
X224456535Y-106074861D01*
X224624220Y-106186904D01*
X224627923Y-106188730D01*
X224897800Y-106321820D01*
X224897808Y-106321823D01*
X224901504Y-106323646D01*
X224905419Y-106324975D01*
X225190358Y-106421699D01*
X225190361Y-106421700D01*
X225194265Y-106423025D01*
X225420961Y-106468117D01*
X225493450Y-106482536D01*
X225493453Y-106482536D01*
X225497493Y-106483340D01*
X225501604Y-106483609D01*
X225501608Y-106483610D01*
X225726737Y-106498366D01*
X225726746Y-106498366D01*
X225728786Y-106498500D01*
X225883214Y-106498500D01*
X225885254Y-106498366D01*
X225885263Y-106498366D01*
X226110392Y-106483610D01*
X226110396Y-106483609D01*
X226114507Y-106483340D01*
X226118547Y-106482536D01*
X226118550Y-106482536D01*
X226191039Y-106468117D01*
X226417735Y-106423025D01*
X226421639Y-106421700D01*
X226421642Y-106421699D01*
X226706581Y-106324975D01*
X226710496Y-106323646D01*
X226714192Y-106321823D01*
X226714200Y-106321820D01*
X226984077Y-106188730D01*
X226987780Y-106186904D01*
X227155465Y-106074861D01*
X227241414Y-106017432D01*
X227241419Y-106017428D01*
X227244845Y-106015139D01*
X227247939Y-106012425D01*
X227247945Y-106012421D01*
X227474201Y-105813999D01*
X227477290Y-105811290D01*
X227479999Y-105808201D01*
X227678421Y-105581945D01*
X227678425Y-105581939D01*
X227681139Y-105578845D01*
X227711513Y-105533388D01*
X227850610Y-105325214D01*
X227852904Y-105321781D01*
X227989646Y-105044496D01*
X228089025Y-104751735D01*
X228149340Y-104448507D01*
X228169561Y-104140000D01*
X228149340Y-103831493D01*
X228089025Y-103528265D01*
X227989646Y-103235504D01*
X227987822Y-103231806D01*
X227987820Y-103231800D01*
X227854730Y-102961923D01*
X227852904Y-102958220D01*
X227850610Y-102954787D01*
X227850609Y-102954785D01*
X227683432Y-102704586D01*
X227683428Y-102704581D01*
X227681139Y-102701155D01*
X227678425Y-102698061D01*
X227678421Y-102698055D01*
X227479999Y-102471799D01*
X227477290Y-102468710D01*
X227474201Y-102466001D01*
X227247945Y-102267579D01*
X227247939Y-102267575D01*
X227244845Y-102264861D01*
X227241419Y-102262572D01*
X227241414Y-102262568D01*
X226991215Y-102095391D01*
X226991213Y-102095390D01*
X226987780Y-102093096D01*
X226938352Y-102068721D01*
X226714200Y-101958180D01*
X226714192Y-101958177D01*
X226710496Y-101956354D01*
X226655022Y-101937523D01*
X226421642Y-101858301D01*
X226421639Y-101858300D01*
X226417735Y-101856975D01*
X226191039Y-101811883D01*
X226118550Y-101797464D01*
X226118547Y-101797464D01*
X226114507Y-101796660D01*
X226110396Y-101796391D01*
X226110392Y-101796390D01*
X225885263Y-101781634D01*
X225885254Y-101781634D01*
X225883214Y-101781500D01*
X225728786Y-101781500D01*
X225726746Y-101781634D01*
X225726737Y-101781634D01*
X225501608Y-101796390D01*
X225501604Y-101796391D01*
X225497493Y-101796660D01*
X225493453Y-101797464D01*
X225493450Y-101797464D01*
X225420961Y-101811883D01*
X225194265Y-101856975D01*
X225190361Y-101858300D01*
X225190358Y-101858301D01*
X224956978Y-101937523D01*
X224901504Y-101956354D01*
X224897808Y-101958177D01*
X224897800Y-101958180D01*
X224673648Y-102068721D01*
X224624220Y-102093096D01*
X224620787Y-102095390D01*
X224620785Y-102095391D01*
X224370586Y-102262568D01*
X224370581Y-102262572D01*
X224367155Y-102264861D01*
X224364061Y-102267575D01*
X224364055Y-102267579D01*
X224137799Y-102466001D01*
X224134710Y-102468710D01*
X224132001Y-102471799D01*
X223933579Y-102698055D01*
X223933575Y-102698061D01*
X223930861Y-102701155D01*
X223759096Y-102958219D01*
X223622354Y-103235504D01*
X223522975Y-103528265D01*
X223462660Y-103831493D01*
X223442439Y-104140000D01*
X201526205Y-104140000D01*
X191191293Y-101027075D01*
X191174084Y-101020484D01*
X191158180Y-101013017D01*
X191158179Y-101013017D01*
X191150052Y-101009201D01*
X191113146Y-101003455D01*
X191112406Y-101003314D01*
X191111583Y-101003066D01*
X191109228Y-101002709D01*
X191109216Y-101002707D01*
X191077536Y-100997909D01*
X191077154Y-100997851D01*
X191054688Y-100994353D01*
X191041974Y-100992373D01*
X191041969Y-100992372D01*
X191039577Y-100992000D01*
X191038708Y-100992000D01*
X191037948Y-100991913D01*
X191031305Y-100990907D01*
X191013019Y-100988137D01*
X191013016Y-100988137D01*
X191004143Y-100986793D01*
X190984199Y-100989485D01*
X190973952Y-100990868D01*
X190957098Y-100992000D01*
X170549328Y-100992000D01*
X170529943Y-100990500D01*
X170515142Y-100988195D01*
X170515139Y-100988195D01*
X170506270Y-100986814D01*
X170485842Y-100989485D01*
X170464017Y-100990429D01*
X170113993Y-100975147D01*
X170103042Y-100974189D01*
X169725421Y-100924473D01*
X169714597Y-100922564D01*
X169342757Y-100840130D01*
X169332139Y-100837285D01*
X168968890Y-100722752D01*
X168958575Y-100718999D01*
X168606666Y-100573234D01*
X168596731Y-100568601D01*
X168258872Y-100392722D01*
X168249363Y-100387232D01*
X167928140Y-100182590D01*
X167919136Y-100176286D01*
X167616957Y-99944417D01*
X167608537Y-99937351D01*
X167327732Y-99680041D01*
X167319959Y-99672268D01*
X167062649Y-99391463D01*
X167055583Y-99383043D01*
X166823714Y-99080864D01*
X166817410Y-99071860D01*
X166612768Y-98750637D01*
X166607278Y-98741128D01*
X166431399Y-98403269D01*
X166426762Y-98393325D01*
X166412338Y-98358500D01*
X166281001Y-98041425D01*
X166277245Y-98031103D01*
X166245516Y-97930470D01*
X166162715Y-97667860D01*
X166159870Y-97657243D01*
X166077436Y-97285403D01*
X166075527Y-97274579D01*
X166025811Y-96896957D01*
X166024853Y-96886006D01*
X166019335Y-96759633D01*
X166010059Y-96547172D01*
X166011686Y-96520769D01*
X166012263Y-96517342D01*
X166012263Y-96517340D01*
X166013071Y-96512539D01*
X166013224Y-96500000D01*
X166009273Y-96472412D01*
X166008000Y-96454549D01*
X166008000Y-96000000D01*
X168086439Y-96000000D01*
X168106660Y-96308507D01*
X168166975Y-96611735D01*
X168266354Y-96904496D01*
X168268177Y-96908192D01*
X168268180Y-96908200D01*
X168291376Y-96955236D01*
X168403096Y-97181780D01*
X168405390Y-97185213D01*
X168405391Y-97185215D01*
X168553825Y-97407362D01*
X168574861Y-97438845D01*
X168577575Y-97441939D01*
X168577579Y-97441945D01*
X168680722Y-97559556D01*
X168778710Y-97671290D01*
X168781799Y-97673999D01*
X169008055Y-97872421D01*
X169008061Y-97872425D01*
X169011155Y-97875139D01*
X169014581Y-97877428D01*
X169014586Y-97877432D01*
X169264785Y-98044609D01*
X169268220Y-98046904D01*
X169271923Y-98048730D01*
X169541800Y-98181820D01*
X169541808Y-98181823D01*
X169545504Y-98183646D01*
X169549419Y-98184975D01*
X169834358Y-98281699D01*
X169834361Y-98281700D01*
X169838265Y-98283025D01*
X170064961Y-98328117D01*
X170137450Y-98342536D01*
X170137453Y-98342536D01*
X170141493Y-98343340D01*
X170145604Y-98343609D01*
X170145608Y-98343610D01*
X170370737Y-98358366D01*
X170370746Y-98358366D01*
X170372786Y-98358500D01*
X170527214Y-98358500D01*
X170529254Y-98358366D01*
X170529263Y-98358366D01*
X170754392Y-98343610D01*
X170754396Y-98343609D01*
X170758507Y-98343340D01*
X170762547Y-98342536D01*
X170762550Y-98342536D01*
X170835039Y-98328117D01*
X171061735Y-98283025D01*
X171065639Y-98281700D01*
X171065642Y-98281699D01*
X171350581Y-98184975D01*
X171354496Y-98183646D01*
X171358192Y-98181823D01*
X171358200Y-98181820D01*
X171628077Y-98048730D01*
X171631780Y-98046904D01*
X171635215Y-98044609D01*
X171885414Y-97877432D01*
X171885419Y-97877428D01*
X171888845Y-97875139D01*
X171891939Y-97872425D01*
X171891945Y-97872421D01*
X172118201Y-97673999D01*
X172121290Y-97671290D01*
X172219278Y-97559556D01*
X172322421Y-97441945D01*
X172322425Y-97441939D01*
X172325139Y-97438845D01*
X172346176Y-97407362D01*
X172494610Y-97185214D01*
X172496904Y-97181781D01*
X172633646Y-96904496D01*
X172733025Y-96611735D01*
X172793340Y-96308507D01*
X172813561Y-96000000D01*
X172793340Y-95691493D01*
X172733025Y-95388265D01*
X172633646Y-95095504D01*
X172631822Y-95091806D01*
X172631820Y-95091800D01*
X172498730Y-94821923D01*
X172496904Y-94818220D01*
X172494610Y-94814787D01*
X172494609Y-94814785D01*
X172327432Y-94564586D01*
X172327428Y-94564581D01*
X172325139Y-94561155D01*
X172322425Y-94558061D01*
X172322421Y-94558055D01*
X172123999Y-94331799D01*
X172121290Y-94328710D01*
X172118201Y-94326001D01*
X171891945Y-94127579D01*
X171891939Y-94127575D01*
X171888845Y-94124861D01*
X171885419Y-94122572D01*
X171885414Y-94122568D01*
X171635215Y-93955391D01*
X171635213Y-93955390D01*
X171631780Y-93953096D01*
X171582352Y-93928721D01*
X171358200Y-93818180D01*
X171358192Y-93818177D01*
X171354496Y-93816354D01*
X171350581Y-93815025D01*
X171065642Y-93718301D01*
X171065639Y-93718300D01*
X171061735Y-93716975D01*
X170835039Y-93671883D01*
X170762550Y-93657464D01*
X170762547Y-93657464D01*
X170758507Y-93656660D01*
X170754396Y-93656391D01*
X170754392Y-93656390D01*
X170529263Y-93641634D01*
X170529254Y-93641634D01*
X170527214Y-93641500D01*
X170372786Y-93641500D01*
X170370746Y-93641634D01*
X170370737Y-93641634D01*
X170145608Y-93656390D01*
X170145604Y-93656391D01*
X170141493Y-93656660D01*
X170137453Y-93657464D01*
X170137450Y-93657464D01*
X170064961Y-93671883D01*
X169838265Y-93716975D01*
X169834361Y-93718300D01*
X169834358Y-93718301D01*
X169549419Y-93815025D01*
X169545504Y-93816354D01*
X169541808Y-93818177D01*
X169541800Y-93818180D01*
X169317648Y-93928721D01*
X169268220Y-93953096D01*
X169264787Y-93955390D01*
X169264785Y-93955391D01*
X169014586Y-94122568D01*
X169014581Y-94122572D01*
X169011155Y-94124861D01*
X169008061Y-94127575D01*
X169008055Y-94127579D01*
X168781799Y-94326001D01*
X168778710Y-94328710D01*
X168776001Y-94331799D01*
X168577579Y-94558055D01*
X168577575Y-94558061D01*
X168574861Y-94561155D01*
X168403096Y-94818219D01*
X168266354Y-95095504D01*
X168166975Y-95388265D01*
X168106660Y-95691493D01*
X168086439Y-96000000D01*
X166008000Y-96000000D01*
X166008000Y-88000000D01*
X168136439Y-88000000D01*
X168136709Y-88004119D01*
X168156358Y-88303894D01*
X168156660Y-88308507D01*
X168216975Y-88611735D01*
X168218300Y-88615639D01*
X168218301Y-88615642D01*
X168244934Y-88694101D01*
X168316354Y-88904496D01*
X168318177Y-88908192D01*
X168318180Y-88908200D01*
X168319435Y-88910744D01*
X168453096Y-89181780D01*
X168455390Y-89185213D01*
X168455391Y-89185215D01*
X168559475Y-89340987D01*
X168624861Y-89438845D01*
X168627575Y-89441939D01*
X168627579Y-89441945D01*
X168803097Y-89642084D01*
X168828710Y-89671290D01*
X168831799Y-89673999D01*
X169058055Y-89872421D01*
X169058061Y-89872425D01*
X169061155Y-89875139D01*
X169064581Y-89877428D01*
X169064586Y-89877432D01*
X169314785Y-90044609D01*
X169318220Y-90046904D01*
X169321923Y-90048730D01*
X169591800Y-90181820D01*
X169591808Y-90181823D01*
X169595504Y-90183646D01*
X169599419Y-90184975D01*
X169884358Y-90281699D01*
X169884361Y-90281700D01*
X169888265Y-90283025D01*
X170114961Y-90328117D01*
X170187450Y-90342536D01*
X170187453Y-90342536D01*
X170191493Y-90343340D01*
X170195604Y-90343609D01*
X170195608Y-90343610D01*
X170420737Y-90358366D01*
X170420746Y-90358366D01*
X170422786Y-90358500D01*
X170577214Y-90358500D01*
X170579254Y-90358366D01*
X170579263Y-90358366D01*
X170804392Y-90343610D01*
X170804396Y-90343609D01*
X170808507Y-90343340D01*
X170812547Y-90342536D01*
X170812550Y-90342536D01*
X170885039Y-90328117D01*
X171111735Y-90283025D01*
X171115639Y-90281700D01*
X171115642Y-90281699D01*
X171400581Y-90184975D01*
X171404496Y-90183646D01*
X171408192Y-90181823D01*
X171408200Y-90181820D01*
X171678077Y-90048730D01*
X171681780Y-90046904D01*
X171685215Y-90044609D01*
X171935414Y-89877432D01*
X171935419Y-89877428D01*
X171938845Y-89875139D01*
X171941939Y-89872425D01*
X171941945Y-89872421D01*
X172168201Y-89673999D01*
X172171290Y-89671290D01*
X172196903Y-89642084D01*
X172372421Y-89441945D01*
X172372425Y-89441939D01*
X172375139Y-89438845D01*
X172546904Y-89181781D01*
X172566127Y-89142802D01*
X172619010Y-89035565D01*
X172683646Y-88904496D01*
X172755066Y-88694101D01*
X172781699Y-88615642D01*
X172781700Y-88615639D01*
X172783025Y-88611735D01*
X172843340Y-88308507D01*
X172843643Y-88303894D01*
X172863291Y-88004119D01*
X172863561Y-88000000D01*
X172844977Y-87716471D01*
X172843610Y-87695608D01*
X172843609Y-87695604D01*
X172843340Y-87691493D01*
X172783025Y-87388265D01*
X172781303Y-87383190D01*
X172735104Y-87247093D01*
X180858039Y-87247093D01*
X180866848Y-87481716D01*
X180867943Y-87486934D01*
X180910016Y-87687450D01*
X180915062Y-87711501D01*
X181001302Y-87929877D01*
X181123104Y-88130600D01*
X181276985Y-88307932D01*
X181281117Y-88311320D01*
X181454416Y-88453417D01*
X181454422Y-88453421D01*
X181458544Y-88456801D01*
X181463180Y-88459440D01*
X181463183Y-88459442D01*
X181574408Y-88522755D01*
X181662590Y-88572951D01*
X181883289Y-88653061D01*
X181888538Y-88654010D01*
X181888541Y-88654011D01*
X181969615Y-88668671D01*
X182114330Y-88694840D01*
X182118469Y-88695035D01*
X182118476Y-88695036D01*
X182137440Y-88695930D01*
X182137449Y-88695930D01*
X182138929Y-88696000D01*
X182303950Y-88696000D01*
X182385299Y-88689097D01*
X182473637Y-88681602D01*
X182473641Y-88681601D01*
X182478948Y-88681151D01*
X182484103Y-88679813D01*
X182484109Y-88679812D01*
X182701035Y-88623509D01*
X182701034Y-88623509D01*
X182706206Y-88622167D01*
X182711072Y-88619975D01*
X182711075Y-88619974D01*
X182915417Y-88527924D01*
X182915420Y-88527923D01*
X182920278Y-88525734D01*
X183115041Y-88394612D01*
X183284927Y-88232549D01*
X183425078Y-88044179D01*
X183485719Y-87924908D01*
X183529069Y-87839644D01*
X183529069Y-87839643D01*
X183531487Y-87834888D01*
X183601111Y-87610660D01*
X183618202Y-87481716D01*
X183631261Y-87383190D01*
X183631261Y-87383187D01*
X183631961Y-87377907D01*
X183623152Y-87143284D01*
X183605358Y-87058478D01*
X183576035Y-86918726D01*
X183576034Y-86918723D01*
X183574938Y-86913499D01*
X183488698Y-86695123D01*
X183485928Y-86690559D01*
X183485926Y-86690554D01*
X183431522Y-86600898D01*
X183413283Y-86532284D01*
X183435035Y-86464702D01*
X183489871Y-86419608D01*
X183529353Y-86409921D01*
X183771326Y-86390878D01*
X183776133Y-86389724D01*
X183776139Y-86389723D01*
X183934498Y-86351704D01*
X184021340Y-86330855D01*
X184025913Y-86328961D01*
X184254313Y-86234355D01*
X184254317Y-86234353D01*
X184258887Y-86232460D01*
X184478116Y-86098116D01*
X184673631Y-85931131D01*
X184840616Y-85735616D01*
X184974960Y-85516387D01*
X184976855Y-85511813D01*
X184976857Y-85511809D01*
X184988465Y-85483783D01*
X185033012Y-85428502D01*
X185104874Y-85406000D01*
X185391358Y-85406000D01*
X185459479Y-85426002D01*
X185505972Y-85479658D01*
X185516076Y-85549932D01*
X185483208Y-85618253D01*
X185393055Y-85714256D01*
X185390728Y-85717458D01*
X185390727Y-85717460D01*
X185377864Y-85735164D01*
X185207976Y-85968996D01*
X185206069Y-85972465D01*
X185206067Y-85972468D01*
X185062251Y-86234069D01*
X185056284Y-86244923D01*
X184940370Y-86537687D01*
X184862064Y-86842670D01*
X184822600Y-87155062D01*
X184822600Y-87469938D01*
X184862064Y-87782330D01*
X184940370Y-88087313D01*
X185056284Y-88380077D01*
X185058186Y-88383536D01*
X185058187Y-88383539D01*
X185190112Y-88623509D01*
X185207976Y-88656004D01*
X185236871Y-88695775D01*
X185388516Y-88904496D01*
X185393055Y-88910744D01*
X185608602Y-89140278D01*
X185851218Y-89340987D01*
X186117076Y-89509706D01*
X186120655Y-89511390D01*
X186120662Y-89511394D01*
X186398394Y-89642084D01*
X186398398Y-89642086D01*
X186401984Y-89643773D01*
X186701448Y-89741075D01*
X187010746Y-89800077D01*
X187104300Y-89805963D01*
X187244358Y-89814775D01*
X187244374Y-89814776D01*
X187246353Y-89814900D01*
X187403647Y-89814900D01*
X187405626Y-89814776D01*
X187405642Y-89814775D01*
X187545700Y-89805963D01*
X187639254Y-89800077D01*
X187948552Y-89741075D01*
X188248016Y-89643773D01*
X188251602Y-89642086D01*
X188251606Y-89642084D01*
X188529338Y-89511394D01*
X188529345Y-89511390D01*
X188532924Y-89509706D01*
X188798782Y-89340987D01*
X189041398Y-89140278D01*
X189256945Y-88910744D01*
X189261485Y-88904496D01*
X189413129Y-88695775D01*
X189442024Y-88656004D01*
X189459889Y-88623509D01*
X189591813Y-88383539D01*
X189591814Y-88383536D01*
X189593716Y-88380077D01*
X189709630Y-88087313D01*
X189787936Y-87782330D01*
X189827400Y-87469938D01*
X189827400Y-87155062D01*
X189787936Y-86842670D01*
X189709630Y-86537687D01*
X189593716Y-86244923D01*
X189587749Y-86234069D01*
X189443933Y-85972468D01*
X189443931Y-85972465D01*
X189442024Y-85968996D01*
X189272136Y-85735164D01*
X189259273Y-85717460D01*
X189259272Y-85717458D01*
X189256945Y-85714256D01*
X189166792Y-85618253D01*
X189134741Y-85554903D01*
X189142028Y-85484281D01*
X189186339Y-85428810D01*
X189258642Y-85406000D01*
X189545126Y-85406000D01*
X189613247Y-85426002D01*
X189661535Y-85483783D01*
X189673143Y-85511809D01*
X189673145Y-85511813D01*
X189675040Y-85516387D01*
X189809384Y-85735616D01*
X189976369Y-85931131D01*
X190171884Y-86098116D01*
X190391113Y-86232460D01*
X190395683Y-86234353D01*
X190395687Y-86234355D01*
X190624087Y-86328961D01*
X190628660Y-86330855D01*
X190715502Y-86351704D01*
X190873861Y-86389723D01*
X190873867Y-86389724D01*
X190878674Y-86390878D01*
X191116644Y-86409606D01*
X191182984Y-86434891D01*
X191225124Y-86492029D01*
X191229683Y-86562879D01*
X191219074Y-86592323D01*
X191120931Y-86785356D01*
X191118513Y-86790112D01*
X191048889Y-87014340D01*
X191048188Y-87019629D01*
X191031092Y-87148616D01*
X191018039Y-87247093D01*
X191026848Y-87481716D01*
X191027943Y-87486934D01*
X191070016Y-87687450D01*
X191075062Y-87711501D01*
X191161302Y-87929877D01*
X191283104Y-88130600D01*
X191436985Y-88307932D01*
X191441117Y-88311320D01*
X191614416Y-88453417D01*
X191614422Y-88453421D01*
X191618544Y-88456801D01*
X191623180Y-88459440D01*
X191623183Y-88459442D01*
X191734408Y-88522755D01*
X191822590Y-88572951D01*
X192043289Y-88653061D01*
X192048538Y-88654010D01*
X192048541Y-88654011D01*
X192129615Y-88668671D01*
X192274330Y-88694840D01*
X192278469Y-88695035D01*
X192278476Y-88695036D01*
X192297440Y-88695930D01*
X192297449Y-88695930D01*
X192298929Y-88696000D01*
X192463950Y-88696000D01*
X192545299Y-88689097D01*
X192633637Y-88681602D01*
X192633641Y-88681601D01*
X192638948Y-88681151D01*
X192644103Y-88679813D01*
X192644109Y-88679812D01*
X192861035Y-88623509D01*
X192861034Y-88623509D01*
X192866206Y-88622167D01*
X192871072Y-88619975D01*
X192871075Y-88619974D01*
X193075417Y-88527924D01*
X193075420Y-88527923D01*
X193080278Y-88525734D01*
X193275041Y-88394612D01*
X193444927Y-88232549D01*
X193585078Y-88044179D01*
X193645719Y-87924908D01*
X193689069Y-87839644D01*
X193689069Y-87839643D01*
X193691487Y-87834888D01*
X193761111Y-87610660D01*
X193778202Y-87481716D01*
X193791261Y-87383190D01*
X193791261Y-87383187D01*
X193791961Y-87377907D01*
X193783152Y-87143284D01*
X193765358Y-87058478D01*
X193736035Y-86918726D01*
X193736034Y-86918723D01*
X193734938Y-86913499D01*
X193648698Y-86695123D01*
X193526896Y-86494400D01*
X193373015Y-86317068D01*
X193362938Y-86308806D01*
X193195584Y-86171583D01*
X193195578Y-86171579D01*
X193191456Y-86168199D01*
X193186820Y-86165560D01*
X193186817Y-86165558D01*
X192992053Y-86054692D01*
X192987410Y-86052049D01*
X192766711Y-85971939D01*
X192761462Y-85970990D01*
X192761459Y-85970989D01*
X192541440Y-85931203D01*
X192477966Y-85899399D01*
X192441763Y-85838326D01*
X192444325Y-85767376D01*
X192460650Y-85735637D01*
X192460616Y-85735616D01*
X192460893Y-85735164D01*
X192594960Y-85516387D01*
X192596857Y-85511809D01*
X192691461Y-85283413D01*
X192691462Y-85283411D01*
X192693355Y-85278840D01*
X192753378Y-85028826D01*
X192773551Y-84772500D01*
X192753378Y-84516174D01*
X192693355Y-84266160D01*
X192594960Y-84028613D01*
X192460616Y-83809384D01*
X192293631Y-83613869D01*
X192098116Y-83446884D01*
X191878887Y-83312540D01*
X191874317Y-83310647D01*
X191874313Y-83310645D01*
X191645913Y-83216039D01*
X191645911Y-83216038D01*
X191641340Y-83214145D01*
X191492624Y-83178441D01*
X191406530Y-83157772D01*
X191344961Y-83122420D01*
X191312278Y-83059393D01*
X191318859Y-82988702D01*
X191322933Y-82979695D01*
X191324960Y-82976387D01*
X191423355Y-82738840D01*
X191483378Y-82488826D01*
X191503551Y-82232500D01*
X191483378Y-81976174D01*
X191481942Y-81970189D01*
X191424510Y-81730972D01*
X191423355Y-81726160D01*
X191421461Y-81721587D01*
X191326855Y-81493187D01*
X191326853Y-81493183D01*
X191324960Y-81488613D01*
X191190616Y-81269384D01*
X191023631Y-81073869D01*
X190828116Y-80906884D01*
X190608887Y-80772540D01*
X190604317Y-80770647D01*
X190604313Y-80770645D01*
X190375913Y-80676039D01*
X190375911Y-80676038D01*
X190371340Y-80674145D01*
X190284498Y-80653296D01*
X190126139Y-80615277D01*
X190126133Y-80615276D01*
X190121326Y-80614122D01*
X189865000Y-80593949D01*
X189608674Y-80614122D01*
X189603867Y-80615276D01*
X189603861Y-80615277D01*
X189562914Y-80625108D01*
X189492006Y-80621561D01*
X189434272Y-80580241D01*
X189408042Y-80514267D01*
X189407500Y-80502589D01*
X189407500Y-78471082D01*
X189427502Y-78402961D01*
X189481158Y-78356468D01*
X189489269Y-78353101D01*
X189512293Y-78344469D01*
X189512297Y-78344467D01*
X189520705Y-78341315D01*
X189637261Y-78253961D01*
X189724615Y-78137405D01*
X189775745Y-78001016D01*
X189782500Y-77938834D01*
X189782500Y-76842566D01*
X189775745Y-76780384D01*
X189724615Y-76643995D01*
X189637261Y-76527439D01*
X189520705Y-76440085D01*
X189384316Y-76388955D01*
X189322134Y-76382200D01*
X188225866Y-76382200D01*
X188163684Y-76388955D01*
X188027295Y-76440085D01*
X187910739Y-76527439D01*
X187823385Y-76643995D01*
X187772255Y-76780384D01*
X187765500Y-76842566D01*
X187765500Y-77938834D01*
X187772255Y-78001016D01*
X187823385Y-78137405D01*
X187910739Y-78253961D01*
X188027295Y-78341315D01*
X188035703Y-78344467D01*
X188035707Y-78344469D01*
X188058731Y-78353101D01*
X188115495Y-78395743D01*
X188140194Y-78462305D01*
X188140500Y-78471082D01*
X188140500Y-81062733D01*
X188139973Y-81073916D01*
X188138298Y-81081409D01*
X188138547Y-81089335D01*
X188138547Y-81089336D01*
X188140438Y-81149486D01*
X188140500Y-81153445D01*
X188140500Y-81181356D01*
X188140997Y-81185290D01*
X188140997Y-81185291D01*
X188141005Y-81185356D01*
X188141938Y-81197193D01*
X188143327Y-81241389D01*
X188148978Y-81260839D01*
X188152987Y-81280200D01*
X188155526Y-81300297D01*
X188158445Y-81307668D01*
X188158445Y-81307670D01*
X188171804Y-81341412D01*
X188175649Y-81352642D01*
X188187982Y-81395093D01*
X188192015Y-81401912D01*
X188192017Y-81401917D01*
X188198293Y-81412528D01*
X188206988Y-81430276D01*
X188214448Y-81449117D01*
X188219110Y-81455533D01*
X188219110Y-81455534D01*
X188240436Y-81484887D01*
X188246952Y-81494807D01*
X188269458Y-81532862D01*
X188283779Y-81547183D01*
X188296617Y-81562213D01*
X188304777Y-81573444D01*
X188328637Y-81640309D01*
X188319251Y-81695726D01*
X188308541Y-81721581D01*
X188308539Y-81721587D01*
X188306645Y-81726160D01*
X188305490Y-81730972D01*
X188248059Y-81970189D01*
X188246622Y-81976174D01*
X188226449Y-82232500D01*
X188246622Y-82488826D01*
X188306645Y-82738840D01*
X188405040Y-82976387D01*
X188539384Y-83195616D01*
X188706369Y-83391131D01*
X188901884Y-83558116D01*
X189121113Y-83692460D01*
X189125683Y-83694353D01*
X189125687Y-83694355D01*
X189354087Y-83788961D01*
X189358660Y-83790855D01*
X189420157Y-83805619D01*
X189593470Y-83847228D01*
X189655039Y-83882580D01*
X189687722Y-83945607D01*
X189681141Y-84016298D01*
X189677067Y-84025305D01*
X189675040Y-84028613D01*
X189673145Y-84033189D01*
X189673144Y-84033190D01*
X189661535Y-84061217D01*
X189616988Y-84116498D01*
X189545126Y-84139000D01*
X185104874Y-84139000D01*
X185036753Y-84118998D01*
X184988465Y-84061217D01*
X184976856Y-84033190D01*
X184976855Y-84033189D01*
X184974960Y-84028613D01*
X184973559Y-84026326D01*
X184960573Y-83957169D01*
X184987276Y-83891385D01*
X185045304Y-83850481D01*
X185056530Y-83847228D01*
X185229843Y-83805619D01*
X185291340Y-83790855D01*
X185295913Y-83788961D01*
X185524313Y-83694355D01*
X185524317Y-83694353D01*
X185528887Y-83692460D01*
X185748116Y-83558116D01*
X185943631Y-83391131D01*
X186110616Y-83195616D01*
X186244960Y-82976387D01*
X186343355Y-82738840D01*
X186403378Y-82488826D01*
X186423551Y-82232500D01*
X186403378Y-81976174D01*
X186401942Y-81970189D01*
X186344510Y-81730972D01*
X186343355Y-81726160D01*
X186341461Y-81721587D01*
X186246855Y-81493187D01*
X186246853Y-81493183D01*
X186244960Y-81488613D01*
X186110616Y-81269384D01*
X185943631Y-81073869D01*
X185748116Y-80906884D01*
X185528887Y-80772540D01*
X185524317Y-80770647D01*
X185524313Y-80770645D01*
X185295913Y-80676039D01*
X185295911Y-80676038D01*
X185291340Y-80674145D01*
X185204498Y-80653296D01*
X185046139Y-80615277D01*
X185046133Y-80615276D01*
X185041326Y-80614122D01*
X184785000Y-80593949D01*
X184528674Y-80614122D01*
X184523867Y-80615276D01*
X184523861Y-80615277D01*
X184365502Y-80653296D01*
X184278660Y-80674145D01*
X184274089Y-80676038D01*
X184274087Y-80676039D01*
X184045687Y-80770645D01*
X184045683Y-80770647D01*
X184041113Y-80772540D01*
X183821884Y-80906884D01*
X183626369Y-81073869D01*
X183459384Y-81269384D01*
X183325040Y-81488613D01*
X183323147Y-81493183D01*
X183323145Y-81493187D01*
X183228539Y-81721587D01*
X183226645Y-81726160D01*
X183225490Y-81730972D01*
X183168059Y-81970189D01*
X183166622Y-81976174D01*
X183146449Y-82232500D01*
X183166622Y-82488826D01*
X183226645Y-82738840D01*
X183325040Y-82976387D01*
X183326441Y-82978674D01*
X183339427Y-83047831D01*
X183312724Y-83113615D01*
X183254696Y-83154519D01*
X183243470Y-83157772D01*
X183157376Y-83178441D01*
X183008660Y-83214145D01*
X183004089Y-83216038D01*
X183004087Y-83216039D01*
X182775687Y-83310645D01*
X182775683Y-83310647D01*
X182771113Y-83312540D01*
X182551884Y-83446884D01*
X182356369Y-83613869D01*
X182189384Y-83809384D01*
X182055040Y-84028613D01*
X181956645Y-84266160D01*
X181896622Y-84516174D01*
X181876449Y-84772500D01*
X181896622Y-85028826D01*
X181956645Y-85278840D01*
X181958538Y-85283411D01*
X181958539Y-85283413D01*
X182053144Y-85511809D01*
X182055040Y-85516387D01*
X182189384Y-85735616D01*
X182190919Y-85737414D01*
X182214541Y-85803598D01*
X182198467Y-85872751D01*
X182147558Y-85922236D01*
X182099401Y-85936352D01*
X182016363Y-85943398D01*
X182016359Y-85943399D01*
X182011052Y-85943849D01*
X182005897Y-85945187D01*
X182005891Y-85945188D01*
X181828177Y-85991314D01*
X181783794Y-86002833D01*
X181778928Y-86005025D01*
X181778925Y-86005026D01*
X181574583Y-86097076D01*
X181574580Y-86097077D01*
X181569722Y-86099266D01*
X181374959Y-86230388D01*
X181371102Y-86234067D01*
X181371100Y-86234069D01*
X181363351Y-86241461D01*
X181205073Y-86392451D01*
X181064922Y-86580821D01*
X181062506Y-86585572D01*
X181062504Y-86585576D01*
X180960931Y-86785356D01*
X180958513Y-86790112D01*
X180888889Y-87014340D01*
X180888188Y-87019629D01*
X180871092Y-87148616D01*
X180858039Y-87247093D01*
X172735104Y-87247093D01*
X172684975Y-87099419D01*
X172683646Y-87095504D01*
X172681822Y-87091806D01*
X172681820Y-87091800D01*
X172548730Y-86821923D01*
X172546904Y-86818220D01*
X172544610Y-86814787D01*
X172544609Y-86814785D01*
X172377432Y-86564586D01*
X172377428Y-86564581D01*
X172375139Y-86561155D01*
X172372425Y-86558061D01*
X172372421Y-86558055D01*
X172173999Y-86331799D01*
X172171290Y-86328710D01*
X172079938Y-86248596D01*
X171941945Y-86127579D01*
X171941939Y-86127575D01*
X171938845Y-86124861D01*
X171935419Y-86122572D01*
X171935414Y-86122568D01*
X171685215Y-85955391D01*
X171685213Y-85955390D01*
X171681780Y-85953096D01*
X171572894Y-85899399D01*
X171408200Y-85818180D01*
X171408192Y-85818177D01*
X171404496Y-85816354D01*
X171260212Y-85767376D01*
X171115642Y-85718301D01*
X171115639Y-85718300D01*
X171111735Y-85716975D01*
X170885039Y-85671883D01*
X170812550Y-85657464D01*
X170812547Y-85657464D01*
X170808507Y-85656660D01*
X170804396Y-85656391D01*
X170804392Y-85656390D01*
X170579263Y-85641634D01*
X170579254Y-85641634D01*
X170577214Y-85641500D01*
X170422786Y-85641500D01*
X170420746Y-85641634D01*
X170420737Y-85641634D01*
X170195608Y-85656390D01*
X170195604Y-85656391D01*
X170191493Y-85656660D01*
X170187453Y-85657464D01*
X170187450Y-85657464D01*
X170114961Y-85671883D01*
X169888265Y-85716975D01*
X169884361Y-85718300D01*
X169884358Y-85718301D01*
X169739788Y-85767376D01*
X169595504Y-85816354D01*
X169591808Y-85818177D01*
X169591800Y-85818180D01*
X169427106Y-85899399D01*
X169318220Y-85953096D01*
X169314787Y-85955390D01*
X169314785Y-85955391D01*
X169064586Y-86122568D01*
X169064581Y-86122572D01*
X169061155Y-86124861D01*
X169058061Y-86127575D01*
X169058055Y-86127579D01*
X168920062Y-86248596D01*
X168828710Y-86328710D01*
X168826001Y-86331799D01*
X168627579Y-86558055D01*
X168627575Y-86558061D01*
X168624861Y-86561155D01*
X168622572Y-86564581D01*
X168622568Y-86564586D01*
X168538399Y-86690554D01*
X168453096Y-86818219D01*
X168316354Y-87095504D01*
X168315029Y-87099409D01*
X168315028Y-87099410D01*
X168218698Y-87383190D01*
X168216975Y-87388265D01*
X168156660Y-87691493D01*
X168156391Y-87695604D01*
X168156390Y-87695608D01*
X168155023Y-87716471D01*
X168136439Y-88000000D01*
X166008000Y-88000000D01*
X166008000Y-69467743D01*
X166844680Y-69467743D01*
X166845426Y-69475635D01*
X166848841Y-69511761D01*
X166849400Y-69523619D01*
X166849400Y-73611833D01*
X166848873Y-73623016D01*
X166847198Y-73630509D01*
X166847447Y-73638435D01*
X166847447Y-73638436D01*
X166849338Y-73698586D01*
X166849400Y-73702545D01*
X166849400Y-73730456D01*
X166849897Y-73734390D01*
X166849897Y-73734391D01*
X166849905Y-73734456D01*
X166850838Y-73746293D01*
X166852227Y-73790489D01*
X166857878Y-73809939D01*
X166861887Y-73829300D01*
X166864426Y-73849397D01*
X166867345Y-73856768D01*
X166867345Y-73856770D01*
X166880704Y-73890512D01*
X166884549Y-73901742D01*
X166896882Y-73944193D01*
X166900915Y-73951012D01*
X166900917Y-73951017D01*
X166907193Y-73961628D01*
X166915888Y-73979376D01*
X166923348Y-73998217D01*
X166928010Y-74004633D01*
X166928010Y-74004634D01*
X166949336Y-74033987D01*
X166955852Y-74043907D01*
X166971010Y-74069537D01*
X166978358Y-74081962D01*
X166992679Y-74096283D01*
X167005519Y-74111316D01*
X167017428Y-74127707D01*
X167051505Y-74155898D01*
X167060284Y-74163888D01*
X170679343Y-77782947D01*
X170686887Y-77791237D01*
X170691000Y-77797718D01*
X170696777Y-77803143D01*
X170740667Y-77844358D01*
X170743509Y-77847113D01*
X170763231Y-77866835D01*
X170766355Y-77869258D01*
X170766359Y-77869262D01*
X170766424Y-77869312D01*
X170775445Y-77877017D01*
X170807679Y-77907286D01*
X170814627Y-77911105D01*
X170814629Y-77911107D01*
X170825432Y-77917046D01*
X170841959Y-77927902D01*
X170851698Y-77935457D01*
X170851700Y-77935458D01*
X170857960Y-77940314D01*
X170898540Y-77957874D01*
X170909188Y-77963091D01*
X170947940Y-77984395D01*
X170955616Y-77986366D01*
X170955619Y-77986367D01*
X170967562Y-77989433D01*
X170986267Y-77995837D01*
X171004855Y-78003881D01*
X171012678Y-78005120D01*
X171012688Y-78005123D01*
X171048524Y-78010799D01*
X171060144Y-78013205D01*
X171095289Y-78022228D01*
X171102970Y-78024200D01*
X171123224Y-78024200D01*
X171142934Y-78025751D01*
X171162943Y-78028920D01*
X171170835Y-78028174D01*
X171206961Y-78024759D01*
X171218819Y-78024200D01*
X185193618Y-78024200D01*
X185261739Y-78044202D01*
X185308232Y-78097858D01*
X185311599Y-78105969D01*
X185320231Y-78128993D01*
X185323385Y-78137405D01*
X185410739Y-78253961D01*
X185527295Y-78341315D01*
X185663684Y-78392445D01*
X185725866Y-78399200D01*
X186822134Y-78399200D01*
X186884316Y-78392445D01*
X187020705Y-78341315D01*
X187137261Y-78253961D01*
X187224615Y-78137405D01*
X187275745Y-78001016D01*
X187282500Y-77938834D01*
X187282500Y-76842566D01*
X187275745Y-76780384D01*
X187224615Y-76643995D01*
X187137261Y-76527439D01*
X187020705Y-76440085D01*
X186884316Y-76388955D01*
X186822134Y-76382200D01*
X185725866Y-76382200D01*
X185663684Y-76388955D01*
X185527295Y-76440085D01*
X185410739Y-76527439D01*
X185323385Y-76643995D01*
X185320233Y-76652403D01*
X185320231Y-76652407D01*
X185311599Y-76675431D01*
X185268957Y-76732195D01*
X185202395Y-76756894D01*
X185193618Y-76757200D01*
X171497594Y-76757200D01*
X171429473Y-76737198D01*
X171408499Y-76720295D01*
X169017362Y-74329157D01*
X168983336Y-74266845D01*
X168988401Y-74196029D01*
X169030948Y-74139194D01*
X169068778Y-74119828D01*
X169209450Y-74075744D01*
X169209452Y-74075743D01*
X169216699Y-74073472D01*
X169363381Y-73984639D01*
X169454615Y-73893405D01*
X169516927Y-73859379D01*
X169543710Y-73856500D01*
X189630188Y-73856500D01*
X189698309Y-73876502D01*
X189719507Y-73893629D01*
X197313683Y-81526035D01*
X197734111Y-81948580D01*
X197741878Y-81957137D01*
X197742647Y-81958067D01*
X197746896Y-81964762D01*
X197795873Y-82010754D01*
X197798873Y-82013669D01*
X197817932Y-82032823D01*
X197821046Y-82035251D01*
X197821061Y-82035264D01*
X197821876Y-82035899D01*
X197830654Y-82043415D01*
X197863575Y-82074330D01*
X197880493Y-82083631D01*
X197897257Y-82094673D01*
X197912477Y-82106540D01*
X197919747Y-82109708D01*
X197919751Y-82109710D01*
X197953878Y-82124579D01*
X197964250Y-82129676D01*
X197996887Y-82147619D01*
X197996889Y-82147620D01*
X198003836Y-82151439D01*
X198022529Y-82156239D01*
X198041521Y-82162768D01*
X198051945Y-82167310D01*
X198051947Y-82167311D01*
X198059212Y-82170476D01*
X198101017Y-82177205D01*
X198103813Y-82177655D01*
X198115105Y-82180008D01*
X198158866Y-82191244D01*
X198178160Y-82191244D01*
X198198181Y-82192845D01*
X198217237Y-82195912D01*
X198262217Y-82191774D01*
X198273760Y-82191244D01*
X212479104Y-82191244D01*
X212494731Y-82192217D01*
X212527230Y-82196279D01*
X212535093Y-82195275D01*
X212535097Y-82195275D01*
X212606393Y-82186171D01*
X212606560Y-82186150D01*
X212677371Y-82177205D01*
X212677374Y-82177204D01*
X212685181Y-82176218D01*
X212685577Y-82176061D01*
X212686001Y-82176007D01*
X212760060Y-82146571D01*
X212834001Y-82117296D01*
X212834346Y-82117045D01*
X212834742Y-82116888D01*
X212841129Y-82112234D01*
X212841132Y-82112233D01*
X212899337Y-82069827D01*
X212963491Y-82023216D01*
X212963761Y-82022890D01*
X212964108Y-82022637D01*
X213015127Y-81960798D01*
X213019460Y-81955561D01*
X213064883Y-81900654D01*
X213065517Y-81899888D01*
X213065661Y-81899581D01*
X213065860Y-81899307D01*
X213204744Y-81730972D01*
X217993419Y-75926812D01*
X218052199Y-75886997D01*
X218090609Y-75881000D01*
X220025126Y-75881000D01*
X220093247Y-75901002D01*
X220141535Y-75958783D01*
X220153143Y-75986809D01*
X220153145Y-75986813D01*
X220155040Y-75991387D01*
X220289384Y-76210616D01*
X220290919Y-76212414D01*
X220314541Y-76278598D01*
X220298467Y-76347751D01*
X220247558Y-76397236D01*
X220199401Y-76411352D01*
X220116363Y-76418398D01*
X220116359Y-76418399D01*
X220111052Y-76418849D01*
X220105897Y-76420187D01*
X220105891Y-76420188D01*
X219928177Y-76466314D01*
X219883794Y-76477833D01*
X219878928Y-76480025D01*
X219878925Y-76480026D01*
X219674583Y-76572076D01*
X219674580Y-76572077D01*
X219669722Y-76574266D01*
X219474959Y-76705388D01*
X219471102Y-76709067D01*
X219471100Y-76709069D01*
X219463351Y-76716461D01*
X219305073Y-76867451D01*
X219164922Y-77055821D01*
X219162506Y-77060572D01*
X219162504Y-77060576D01*
X219060931Y-77260356D01*
X219058513Y-77265112D01*
X218988889Y-77489340D01*
X218988188Y-77494629D01*
X218971092Y-77623616D01*
X218958039Y-77722093D01*
X218966848Y-77956716D01*
X218981998Y-78028920D01*
X219004761Y-78137405D01*
X219015062Y-78186501D01*
X219101302Y-78404877D01*
X219223104Y-78605600D01*
X219376985Y-78782932D01*
X219381117Y-78786320D01*
X219554416Y-78928417D01*
X219554422Y-78928421D01*
X219558544Y-78931801D01*
X219563180Y-78934440D01*
X219563183Y-78934442D01*
X219674408Y-78997755D01*
X219762590Y-79047951D01*
X219983289Y-79128061D01*
X219988538Y-79129010D01*
X219988541Y-79129011D01*
X220069615Y-79143671D01*
X220214330Y-79169840D01*
X220218469Y-79170035D01*
X220218476Y-79170036D01*
X220237440Y-79170930D01*
X220237449Y-79170930D01*
X220238929Y-79171000D01*
X220403950Y-79171000D01*
X220485299Y-79164097D01*
X220573637Y-79156602D01*
X220573641Y-79156601D01*
X220578948Y-79156151D01*
X220584103Y-79154813D01*
X220584109Y-79154812D01*
X220801035Y-79098509D01*
X220801034Y-79098509D01*
X220806206Y-79097167D01*
X220811072Y-79094975D01*
X220811075Y-79094974D01*
X221015417Y-79002924D01*
X221015420Y-79002923D01*
X221020278Y-79000734D01*
X221215041Y-78869612D01*
X221384927Y-78707549D01*
X221525078Y-78519179D01*
X221553995Y-78462305D01*
X221629069Y-78314644D01*
X221629069Y-78314643D01*
X221631487Y-78309888D01*
X221701111Y-78085660D01*
X221709519Y-78022228D01*
X221731261Y-77858190D01*
X221731261Y-77858187D01*
X221731961Y-77852907D01*
X221731744Y-77847113D01*
X221727250Y-77727423D01*
X221723152Y-77618284D01*
X221705358Y-77533478D01*
X221676035Y-77393726D01*
X221676034Y-77393723D01*
X221674938Y-77388499D01*
X221588698Y-77170123D01*
X221585928Y-77165559D01*
X221585926Y-77165554D01*
X221531522Y-77075898D01*
X221513283Y-77007284D01*
X221535035Y-76939702D01*
X221589871Y-76894608D01*
X221629353Y-76884921D01*
X221871326Y-76865878D01*
X221876133Y-76864724D01*
X221876139Y-76864723D01*
X222034498Y-76826704D01*
X222121340Y-76805855D01*
X222125913Y-76803961D01*
X222354313Y-76709355D01*
X222354317Y-76709353D01*
X222358887Y-76707460D01*
X222578116Y-76573116D01*
X222773631Y-76406131D01*
X222940616Y-76210616D01*
X223074960Y-75991387D01*
X223076855Y-75986813D01*
X223076857Y-75986809D01*
X223088465Y-75958783D01*
X223133012Y-75903502D01*
X223204874Y-75881000D01*
X223491358Y-75881000D01*
X223559479Y-75901002D01*
X223605972Y-75954658D01*
X223616076Y-76024932D01*
X223583208Y-76093253D01*
X223493055Y-76189256D01*
X223490728Y-76192458D01*
X223490727Y-76192460D01*
X223477864Y-76210164D01*
X223307976Y-76443996D01*
X223306069Y-76447465D01*
X223306067Y-76447468D01*
X223162251Y-76709069D01*
X223156284Y-76719923D01*
X223040370Y-77012687D01*
X222962064Y-77317670D01*
X222922600Y-77630062D01*
X222922600Y-77944938D01*
X222962064Y-78257330D01*
X223040370Y-78562313D01*
X223156284Y-78855077D01*
X223158186Y-78858536D01*
X223158187Y-78858539D01*
X223290112Y-79098509D01*
X223307976Y-79131004D01*
X223493055Y-79385744D01*
X223708602Y-79615278D01*
X223951218Y-79815987D01*
X224217076Y-79984706D01*
X224220655Y-79986390D01*
X224220662Y-79986394D01*
X224498394Y-80117084D01*
X224498398Y-80117086D01*
X224501984Y-80118773D01*
X224801448Y-80216075D01*
X225110746Y-80275077D01*
X225204300Y-80280963D01*
X225344358Y-80289775D01*
X225344374Y-80289776D01*
X225346353Y-80289900D01*
X225503647Y-80289900D01*
X225505626Y-80289776D01*
X225505642Y-80289775D01*
X225645700Y-80280963D01*
X225739254Y-80275077D01*
X226048552Y-80216075D01*
X226348016Y-80118773D01*
X226351602Y-80117086D01*
X226351606Y-80117084D01*
X226629338Y-79986394D01*
X226629345Y-79986390D01*
X226632924Y-79984706D01*
X226898782Y-79815987D01*
X227141398Y-79615278D01*
X227356945Y-79385744D01*
X227542024Y-79131004D01*
X227559889Y-79098509D01*
X227691813Y-78858539D01*
X227691814Y-78858536D01*
X227693716Y-78855077D01*
X227809630Y-78562313D01*
X227887936Y-78257330D01*
X227927400Y-77944938D01*
X227927400Y-77630062D01*
X227887936Y-77317670D01*
X227809630Y-77012687D01*
X227693716Y-76719923D01*
X227687749Y-76709069D01*
X227543933Y-76447468D01*
X227543931Y-76447465D01*
X227542024Y-76443996D01*
X227372136Y-76210164D01*
X227359273Y-76192460D01*
X227359272Y-76192458D01*
X227356945Y-76189256D01*
X227266792Y-76093253D01*
X227234741Y-76029903D01*
X227242028Y-75959281D01*
X227286339Y-75903810D01*
X227358642Y-75881000D01*
X227645126Y-75881000D01*
X227713247Y-75901002D01*
X227761535Y-75958783D01*
X227773143Y-75986809D01*
X227773145Y-75986813D01*
X227775040Y-75991387D01*
X227909384Y-76210616D01*
X228076369Y-76406131D01*
X228271884Y-76573116D01*
X228491113Y-76707460D01*
X228495683Y-76709353D01*
X228495687Y-76709355D01*
X228724087Y-76803961D01*
X228728660Y-76805855D01*
X228815502Y-76826704D01*
X228973861Y-76864723D01*
X228973867Y-76864724D01*
X228978674Y-76865878D01*
X229216644Y-76884606D01*
X229282984Y-76909891D01*
X229325124Y-76967029D01*
X229329683Y-77037879D01*
X229319074Y-77067323D01*
X229220931Y-77260356D01*
X229218513Y-77265112D01*
X229148889Y-77489340D01*
X229148188Y-77494629D01*
X229131092Y-77623616D01*
X229118039Y-77722093D01*
X229126848Y-77956716D01*
X229141998Y-78028920D01*
X229164761Y-78137405D01*
X229175062Y-78186501D01*
X229261302Y-78404877D01*
X229383104Y-78605600D01*
X229536985Y-78782932D01*
X229541117Y-78786320D01*
X229714416Y-78928417D01*
X229714422Y-78928421D01*
X229718544Y-78931801D01*
X229723180Y-78934440D01*
X229723183Y-78934442D01*
X229834408Y-78997755D01*
X229922590Y-79047951D01*
X230143289Y-79128061D01*
X230148538Y-79129010D01*
X230148541Y-79129011D01*
X230229615Y-79143671D01*
X230374330Y-79169840D01*
X230378469Y-79170035D01*
X230378476Y-79170036D01*
X230397440Y-79170930D01*
X230397449Y-79170930D01*
X230398929Y-79171000D01*
X230563950Y-79171000D01*
X230645299Y-79164097D01*
X230733637Y-79156602D01*
X230733641Y-79156601D01*
X230738948Y-79156151D01*
X230744103Y-79154813D01*
X230744109Y-79154812D01*
X230961035Y-79098509D01*
X230961034Y-79098509D01*
X230966206Y-79097167D01*
X230971072Y-79094975D01*
X230971075Y-79094974D01*
X231175417Y-79002924D01*
X231175420Y-79002923D01*
X231180278Y-79000734D01*
X231375041Y-78869612D01*
X231544927Y-78707549D01*
X231685078Y-78519179D01*
X231713995Y-78462305D01*
X231789069Y-78314644D01*
X231789069Y-78314643D01*
X231791487Y-78309888D01*
X231861111Y-78085660D01*
X231869519Y-78022228D01*
X231891261Y-77858190D01*
X231891261Y-77858187D01*
X231891961Y-77852907D01*
X231891744Y-77847113D01*
X231887250Y-77727423D01*
X231883152Y-77618284D01*
X231865358Y-77533478D01*
X231836035Y-77393726D01*
X231836034Y-77393723D01*
X231834938Y-77388499D01*
X231748698Y-77170123D01*
X231626896Y-76969400D01*
X231473015Y-76792068D01*
X231449742Y-76772985D01*
X231295584Y-76646583D01*
X231295578Y-76646579D01*
X231291456Y-76643199D01*
X231286820Y-76640560D01*
X231286817Y-76640558D01*
X231092053Y-76529692D01*
X231087410Y-76527049D01*
X230866711Y-76446939D01*
X230861462Y-76445990D01*
X230861459Y-76445989D01*
X230641440Y-76406203D01*
X230577966Y-76374399D01*
X230541763Y-76313326D01*
X230544325Y-76242376D01*
X230560650Y-76210637D01*
X230560616Y-76210616D01*
X230560893Y-76210164D01*
X230694960Y-75991387D01*
X230696857Y-75986809D01*
X230791461Y-75758413D01*
X230791462Y-75758411D01*
X230793355Y-75753840D01*
X230853378Y-75503826D01*
X230873551Y-75247500D01*
X230853378Y-74991174D01*
X230832917Y-74905945D01*
X230803327Y-74782695D01*
X230793355Y-74741160D01*
X230791461Y-74736587D01*
X230696855Y-74508187D01*
X230696853Y-74508183D01*
X230694960Y-74503613D01*
X230560616Y-74284384D01*
X230393631Y-74088869D01*
X230198116Y-73921884D01*
X229978887Y-73787540D01*
X229974317Y-73785647D01*
X229974313Y-73785645D01*
X229745913Y-73691039D01*
X229745911Y-73691038D01*
X229741340Y-73689145D01*
X229530122Y-73638436D01*
X229506530Y-73632772D01*
X229444961Y-73597420D01*
X229412278Y-73534393D01*
X229418859Y-73463702D01*
X229422933Y-73454695D01*
X229424960Y-73451387D01*
X229523355Y-73213840D01*
X229583378Y-72963826D01*
X229603551Y-72707500D01*
X229583378Y-72451174D01*
X229523355Y-72201160D01*
X229424960Y-71963613D01*
X229290616Y-71744384D01*
X229123631Y-71548869D01*
X228928116Y-71381884D01*
X228708887Y-71247540D01*
X228704317Y-71245647D01*
X228704313Y-71245645D01*
X228475913Y-71151039D01*
X228475911Y-71151038D01*
X228471340Y-71149145D01*
X228384498Y-71128296D01*
X228226139Y-71090277D01*
X228226133Y-71090276D01*
X228221326Y-71089122D01*
X227965000Y-71068949D01*
X227838289Y-71078921D01*
X227768809Y-71064325D01*
X227739309Y-71042404D01*
X225461289Y-68764384D01*
X225427263Y-68702072D01*
X225432328Y-68631257D01*
X225438344Y-68618104D01*
X225442615Y-68612405D01*
X225460104Y-68565755D01*
X225490971Y-68483415D01*
X225493745Y-68476016D01*
X225500500Y-68413834D01*
X225500500Y-67317566D01*
X225493745Y-67255384D01*
X225442615Y-67118995D01*
X225355261Y-67002439D01*
X225238705Y-66915085D01*
X225102316Y-66863955D01*
X225040134Y-66857200D01*
X223943866Y-66857200D01*
X223881684Y-66863955D01*
X223745295Y-66915085D01*
X223628739Y-67002439D01*
X223541385Y-67118995D01*
X223490255Y-67255384D01*
X223483500Y-67317566D01*
X223483500Y-68413834D01*
X223490255Y-68476016D01*
X223541385Y-68612405D01*
X223628739Y-68728961D01*
X223745295Y-68816315D01*
X223753703Y-68819467D01*
X223824655Y-68846066D01*
X223881419Y-68888708D01*
X223901421Y-68928895D01*
X223905982Y-68944593D01*
X223910015Y-68951412D01*
X223910017Y-68951417D01*
X223916293Y-68962028D01*
X223924988Y-68979776D01*
X223932448Y-68998617D01*
X223937110Y-69005033D01*
X223937110Y-69005034D01*
X223958436Y-69034387D01*
X223964952Y-69044307D01*
X223987458Y-69082362D01*
X224001779Y-69096683D01*
X224014619Y-69111716D01*
X224026528Y-69128107D01*
X224032634Y-69133158D01*
X224060605Y-69156298D01*
X224069384Y-69164288D01*
X226572982Y-71667886D01*
X226607008Y-71730198D01*
X226601943Y-71801013D01*
X226591320Y-71822816D01*
X226507626Y-71959393D01*
X226505040Y-71963613D01*
X226406645Y-72201160D01*
X226346622Y-72451174D01*
X226326449Y-72707500D01*
X226346622Y-72963826D01*
X226406645Y-73213840D01*
X226505040Y-73451387D01*
X226639384Y-73670616D01*
X226806369Y-73866131D01*
X227001884Y-74033116D01*
X227221113Y-74167460D01*
X227225683Y-74169353D01*
X227225687Y-74169355D01*
X227454087Y-74263961D01*
X227458660Y-74265855D01*
X227520157Y-74280619D01*
X227693470Y-74322228D01*
X227755039Y-74357580D01*
X227787722Y-74420607D01*
X227781141Y-74491298D01*
X227777067Y-74500305D01*
X227775040Y-74503613D01*
X227773145Y-74508189D01*
X227773144Y-74508190D01*
X227761535Y-74536217D01*
X227716988Y-74591498D01*
X227645126Y-74614000D01*
X223204874Y-74614000D01*
X223136753Y-74593998D01*
X223088465Y-74536217D01*
X223076856Y-74508190D01*
X223076855Y-74508189D01*
X223074960Y-74503613D01*
X223073559Y-74501326D01*
X223060573Y-74432169D01*
X223087276Y-74366385D01*
X223145304Y-74325481D01*
X223156530Y-74322228D01*
X223329843Y-74280619D01*
X223391340Y-74265855D01*
X223395913Y-74263961D01*
X223624313Y-74169355D01*
X223624317Y-74169353D01*
X223628887Y-74167460D01*
X223848116Y-74033116D01*
X224043631Y-73866131D01*
X224210616Y-73670616D01*
X224344960Y-73451387D01*
X224443355Y-73213840D01*
X224503378Y-72963826D01*
X224523551Y-72707500D01*
X224503378Y-72451174D01*
X224443355Y-72201160D01*
X224344960Y-71963613D01*
X224210616Y-71744384D01*
X224043631Y-71548869D01*
X223848116Y-71381884D01*
X223628887Y-71247540D01*
X223624317Y-71245647D01*
X223624313Y-71245645D01*
X223395913Y-71151039D01*
X223395911Y-71151038D01*
X223391340Y-71149145D01*
X223304498Y-71128296D01*
X223146139Y-71090277D01*
X223146133Y-71090276D01*
X223141326Y-71089122D01*
X222885000Y-71068949D01*
X222628674Y-71089122D01*
X222623867Y-71090276D01*
X222623861Y-71090277D01*
X222465502Y-71128296D01*
X222378660Y-71149145D01*
X222374089Y-71151038D01*
X222374087Y-71151039D01*
X222145687Y-71245645D01*
X222145683Y-71245647D01*
X222141113Y-71247540D01*
X221921884Y-71381884D01*
X221726369Y-71548869D01*
X221559384Y-71744384D01*
X221425040Y-71963613D01*
X221326645Y-72201160D01*
X221266622Y-72451174D01*
X221246449Y-72707500D01*
X221266622Y-72963826D01*
X221326645Y-73213840D01*
X221425040Y-73451387D01*
X221426441Y-73453674D01*
X221439427Y-73522831D01*
X221412724Y-73588615D01*
X221354696Y-73629519D01*
X221343470Y-73632772D01*
X221319878Y-73638436D01*
X221108660Y-73689145D01*
X221104089Y-73691038D01*
X221104087Y-73691039D01*
X220875687Y-73785645D01*
X220875683Y-73785647D01*
X220871113Y-73787540D01*
X220651884Y-73921884D01*
X220456369Y-74088869D01*
X220289384Y-74284384D01*
X220155040Y-74503613D01*
X220153147Y-74508183D01*
X220153143Y-74508191D01*
X220141535Y-74536217D01*
X220096988Y-74591498D01*
X220025126Y-74614000D01*
X217779881Y-74614000D01*
X217764255Y-74613027D01*
X217763076Y-74612880D01*
X217731754Y-74608965D01*
X217723891Y-74609969D01*
X217723887Y-74609969D01*
X217652591Y-74619073D01*
X217652424Y-74619094D01*
X217581613Y-74628039D01*
X217581610Y-74628040D01*
X217573803Y-74629026D01*
X217573407Y-74629183D01*
X217572983Y-74629237D01*
X217565654Y-74632150D01*
X217499080Y-74658611D01*
X217498924Y-74658673D01*
X217432350Y-74685031D01*
X217432349Y-74685032D01*
X217424983Y-74687948D01*
X217424638Y-74688199D01*
X217424242Y-74688356D01*
X217359827Y-74735287D01*
X217295493Y-74782028D01*
X217295222Y-74782356D01*
X217294877Y-74782607D01*
X217244224Y-74844001D01*
X217193467Y-74905356D01*
X217193322Y-74905664D01*
X217193122Y-74905940D01*
X212350798Y-80775126D01*
X212265567Y-80878431D01*
X212206786Y-80918247D01*
X212168376Y-80924244D01*
X198554608Y-80924244D01*
X198486487Y-80904242D01*
X198465289Y-80887115D01*
X192594092Y-74986361D01*
X190450685Y-72832164D01*
X190442916Y-72823604D01*
X190442147Y-72822674D01*
X190437900Y-72815982D01*
X190433626Y-72811969D01*
X190405981Y-72747573D01*
X190417690Y-72677548D01*
X190465399Y-72624971D01*
X190531076Y-72606500D01*
X198975906Y-72606500D01*
X199044027Y-72626502D01*
X199065001Y-72643405D01*
X200992837Y-74571241D01*
X201026863Y-74633553D01*
X201020151Y-74708553D01*
X201006645Y-74741160D01*
X200996673Y-74782695D01*
X200967084Y-74905945D01*
X200946622Y-74991174D01*
X200926449Y-75247500D01*
X200946622Y-75503826D01*
X201006645Y-75753840D01*
X201008538Y-75758411D01*
X201008539Y-75758413D01*
X201103144Y-75986809D01*
X201105040Y-75991387D01*
X201239384Y-76210616D01*
X201240919Y-76212414D01*
X201264541Y-76278598D01*
X201248467Y-76347751D01*
X201197558Y-76397236D01*
X201149401Y-76411352D01*
X201066363Y-76418398D01*
X201066359Y-76418399D01*
X201061052Y-76418849D01*
X201055897Y-76420187D01*
X201055891Y-76420188D01*
X200878177Y-76466314D01*
X200833794Y-76477833D01*
X200828928Y-76480025D01*
X200828925Y-76480026D01*
X200624583Y-76572076D01*
X200624580Y-76572077D01*
X200619722Y-76574266D01*
X200424959Y-76705388D01*
X200421102Y-76709067D01*
X200421100Y-76709069D01*
X200413351Y-76716461D01*
X200255073Y-76867451D01*
X200114922Y-77055821D01*
X200112506Y-77060572D01*
X200112504Y-77060576D01*
X200010931Y-77260356D01*
X200008513Y-77265112D01*
X199938889Y-77489340D01*
X199938188Y-77494629D01*
X199921092Y-77623616D01*
X199908039Y-77722093D01*
X199916848Y-77956716D01*
X199931998Y-78028920D01*
X199954761Y-78137405D01*
X199965062Y-78186501D01*
X200051302Y-78404877D01*
X200173104Y-78605600D01*
X200326985Y-78782932D01*
X200331117Y-78786320D01*
X200504416Y-78928417D01*
X200504422Y-78928421D01*
X200508544Y-78931801D01*
X200513180Y-78934440D01*
X200513183Y-78934442D01*
X200624408Y-78997755D01*
X200712590Y-79047951D01*
X200933289Y-79128061D01*
X200938538Y-79129010D01*
X200938541Y-79129011D01*
X201019615Y-79143671D01*
X201164330Y-79169840D01*
X201168469Y-79170035D01*
X201168476Y-79170036D01*
X201187440Y-79170930D01*
X201187449Y-79170930D01*
X201188929Y-79171000D01*
X201353950Y-79171000D01*
X201435299Y-79164097D01*
X201523637Y-79156602D01*
X201523641Y-79156601D01*
X201528948Y-79156151D01*
X201534103Y-79154813D01*
X201534109Y-79154812D01*
X201751035Y-79098509D01*
X201751034Y-79098509D01*
X201756206Y-79097167D01*
X201761072Y-79094975D01*
X201761075Y-79094974D01*
X201965417Y-79002924D01*
X201965420Y-79002923D01*
X201970278Y-79000734D01*
X202165041Y-78869612D01*
X202334927Y-78707549D01*
X202475078Y-78519179D01*
X202503995Y-78462305D01*
X202579069Y-78314644D01*
X202579069Y-78314643D01*
X202581487Y-78309888D01*
X202651111Y-78085660D01*
X202659519Y-78022228D01*
X202681261Y-77858190D01*
X202681261Y-77858187D01*
X202681961Y-77852907D01*
X202681744Y-77847113D01*
X202677250Y-77727423D01*
X202673152Y-77618284D01*
X202655358Y-77533478D01*
X202626035Y-77393726D01*
X202626034Y-77393723D01*
X202624938Y-77388499D01*
X202538698Y-77170123D01*
X202535928Y-77165559D01*
X202535926Y-77165554D01*
X202481522Y-77075898D01*
X202463283Y-77007284D01*
X202485035Y-76939702D01*
X202539871Y-76894608D01*
X202579353Y-76884921D01*
X202821326Y-76865878D01*
X202826133Y-76864724D01*
X202826139Y-76864723D01*
X202984498Y-76826704D01*
X203071340Y-76805855D01*
X203075913Y-76803961D01*
X203304313Y-76709355D01*
X203304317Y-76709353D01*
X203308887Y-76707460D01*
X203528116Y-76573116D01*
X203723631Y-76406131D01*
X203890616Y-76210616D01*
X204024960Y-75991387D01*
X204026855Y-75986813D01*
X204026857Y-75986809D01*
X204038465Y-75958783D01*
X204083012Y-75903502D01*
X204154874Y-75881000D01*
X204441358Y-75881000D01*
X204509479Y-75901002D01*
X204555972Y-75954658D01*
X204566076Y-76024932D01*
X204533208Y-76093253D01*
X204443055Y-76189256D01*
X204440728Y-76192458D01*
X204440727Y-76192460D01*
X204427864Y-76210164D01*
X204257976Y-76443996D01*
X204256069Y-76447465D01*
X204256067Y-76447468D01*
X204112251Y-76709069D01*
X204106284Y-76719923D01*
X203990370Y-77012687D01*
X203912064Y-77317670D01*
X203872600Y-77630062D01*
X203872600Y-77944938D01*
X203912064Y-78257330D01*
X203990370Y-78562313D01*
X204106284Y-78855077D01*
X204108186Y-78858536D01*
X204108187Y-78858539D01*
X204240112Y-79098509D01*
X204257976Y-79131004D01*
X204443055Y-79385744D01*
X204658602Y-79615278D01*
X204901218Y-79815987D01*
X205167076Y-79984706D01*
X205170655Y-79986390D01*
X205170662Y-79986394D01*
X205448394Y-80117084D01*
X205448398Y-80117086D01*
X205451984Y-80118773D01*
X205751448Y-80216075D01*
X206060746Y-80275077D01*
X206154300Y-80280963D01*
X206294358Y-80289775D01*
X206294374Y-80289776D01*
X206296353Y-80289900D01*
X206453647Y-80289900D01*
X206455626Y-80289776D01*
X206455642Y-80289775D01*
X206595700Y-80280963D01*
X206689254Y-80275077D01*
X206998552Y-80216075D01*
X207298016Y-80118773D01*
X207301602Y-80117086D01*
X207301606Y-80117084D01*
X207579338Y-79986394D01*
X207579345Y-79986390D01*
X207582924Y-79984706D01*
X207848782Y-79815987D01*
X208091398Y-79615278D01*
X208306945Y-79385744D01*
X208492024Y-79131004D01*
X208509889Y-79098509D01*
X208641813Y-78858539D01*
X208641814Y-78858536D01*
X208643716Y-78855077D01*
X208759630Y-78562313D01*
X208837936Y-78257330D01*
X208877400Y-77944938D01*
X208877400Y-77630062D01*
X208837936Y-77317670D01*
X208759630Y-77012687D01*
X208643716Y-76719923D01*
X208637749Y-76709069D01*
X208493933Y-76447468D01*
X208493931Y-76447465D01*
X208492024Y-76443996D01*
X208322136Y-76210164D01*
X208309273Y-76192460D01*
X208309272Y-76192458D01*
X208306945Y-76189256D01*
X208216792Y-76093253D01*
X208184741Y-76029903D01*
X208192028Y-75959281D01*
X208236339Y-75903810D01*
X208308642Y-75881000D01*
X208595126Y-75881000D01*
X208663247Y-75901002D01*
X208711535Y-75958783D01*
X208723143Y-75986809D01*
X208723145Y-75986813D01*
X208725040Y-75991387D01*
X208859384Y-76210616D01*
X209026369Y-76406131D01*
X209221884Y-76573116D01*
X209441113Y-76707460D01*
X209445683Y-76709353D01*
X209445687Y-76709355D01*
X209674087Y-76803961D01*
X209678660Y-76805855D01*
X209765502Y-76826704D01*
X209923861Y-76864723D01*
X209923867Y-76864724D01*
X209928674Y-76865878D01*
X210166644Y-76884606D01*
X210232984Y-76909891D01*
X210275124Y-76967029D01*
X210279683Y-77037879D01*
X210269074Y-77067323D01*
X210170931Y-77260356D01*
X210168513Y-77265112D01*
X210098889Y-77489340D01*
X210098188Y-77494629D01*
X210081092Y-77623616D01*
X210068039Y-77722093D01*
X210076848Y-77956716D01*
X210091998Y-78028920D01*
X210114761Y-78137405D01*
X210125062Y-78186501D01*
X210211302Y-78404877D01*
X210333104Y-78605600D01*
X210486985Y-78782932D01*
X210491117Y-78786320D01*
X210664416Y-78928417D01*
X210664422Y-78928421D01*
X210668544Y-78931801D01*
X210673180Y-78934440D01*
X210673183Y-78934442D01*
X210784408Y-78997755D01*
X210872590Y-79047951D01*
X211093289Y-79128061D01*
X211098538Y-79129010D01*
X211098541Y-79129011D01*
X211179615Y-79143671D01*
X211324330Y-79169840D01*
X211328469Y-79170035D01*
X211328476Y-79170036D01*
X211347440Y-79170930D01*
X211347449Y-79170930D01*
X211348929Y-79171000D01*
X211513950Y-79171000D01*
X211595299Y-79164097D01*
X211683637Y-79156602D01*
X211683641Y-79156601D01*
X211688948Y-79156151D01*
X211694103Y-79154813D01*
X211694109Y-79154812D01*
X211911035Y-79098509D01*
X211911034Y-79098509D01*
X211916206Y-79097167D01*
X211921072Y-79094975D01*
X211921075Y-79094974D01*
X212125417Y-79002924D01*
X212125420Y-79002923D01*
X212130278Y-79000734D01*
X212325041Y-78869612D01*
X212494927Y-78707549D01*
X212635078Y-78519179D01*
X212663995Y-78462305D01*
X212739069Y-78314644D01*
X212739069Y-78314643D01*
X212741487Y-78309888D01*
X212811111Y-78085660D01*
X212819519Y-78022228D01*
X212841261Y-77858190D01*
X212841261Y-77858187D01*
X212841961Y-77852907D01*
X212841744Y-77847113D01*
X212837250Y-77727423D01*
X212833152Y-77618284D01*
X212815358Y-77533478D01*
X212786035Y-77393726D01*
X212786034Y-77393723D01*
X212784938Y-77388499D01*
X212698698Y-77170123D01*
X212576896Y-76969400D01*
X212423015Y-76792068D01*
X212399742Y-76772985D01*
X212245584Y-76646583D01*
X212245578Y-76646579D01*
X212241456Y-76643199D01*
X212236820Y-76640560D01*
X212236817Y-76640558D01*
X212042053Y-76529692D01*
X212037410Y-76527049D01*
X211816711Y-76446939D01*
X211811462Y-76445990D01*
X211811459Y-76445989D01*
X211591440Y-76406203D01*
X211527966Y-76374399D01*
X211491763Y-76313326D01*
X211494325Y-76242376D01*
X211510650Y-76210637D01*
X211510616Y-76210616D01*
X211510893Y-76210164D01*
X211644960Y-75991387D01*
X211646857Y-75986809D01*
X211741461Y-75758413D01*
X211741462Y-75758411D01*
X211743355Y-75753840D01*
X211803378Y-75503826D01*
X211823551Y-75247500D01*
X211803378Y-74991174D01*
X211782917Y-74905945D01*
X211753327Y-74782695D01*
X211743355Y-74741160D01*
X211741461Y-74736587D01*
X211646855Y-74508187D01*
X211646853Y-74508183D01*
X211644960Y-74503613D01*
X211510616Y-74284384D01*
X211343631Y-74088869D01*
X211148116Y-73921884D01*
X210928887Y-73787540D01*
X210924317Y-73785647D01*
X210924313Y-73785645D01*
X210695913Y-73691039D01*
X210695911Y-73691038D01*
X210691340Y-73689145D01*
X210480122Y-73638436D01*
X210456530Y-73632772D01*
X210394961Y-73597420D01*
X210362278Y-73534393D01*
X210368859Y-73463702D01*
X210372933Y-73454695D01*
X210374960Y-73451387D01*
X210473355Y-73213840D01*
X210533378Y-72963826D01*
X210553551Y-72707500D01*
X210533378Y-72451174D01*
X210473355Y-72201160D01*
X210374960Y-71963613D01*
X210240616Y-71744384D01*
X210073631Y-71548869D01*
X209878116Y-71381884D01*
X209759210Y-71309018D01*
X209707665Y-71277431D01*
X209660034Y-71224783D01*
X209647500Y-71169998D01*
X209647500Y-68946082D01*
X209667502Y-68877961D01*
X209721158Y-68831468D01*
X209729269Y-68828101D01*
X209752293Y-68819469D01*
X209752297Y-68819467D01*
X209760705Y-68816315D01*
X209877261Y-68728961D01*
X209964615Y-68612405D01*
X210015745Y-68476016D01*
X210022500Y-68413834D01*
X210022500Y-67783606D01*
X210042502Y-67715485D01*
X210096158Y-67668992D01*
X210156369Y-67661677D01*
X210156607Y-67657892D01*
X210164520Y-67658390D01*
X210172306Y-67659875D01*
X210228351Y-67656349D01*
X210236262Y-67656100D01*
X220009006Y-67656100D01*
X220077127Y-67676102D01*
X220098101Y-67693005D01*
X220663043Y-68257947D01*
X220670587Y-68266237D01*
X220674700Y-68272718D01*
X220680477Y-68278143D01*
X220724367Y-68319358D01*
X220727209Y-68322113D01*
X220746930Y-68341834D01*
X220750125Y-68344312D01*
X220759147Y-68352018D01*
X220791379Y-68382286D01*
X220798328Y-68386106D01*
X220809132Y-68392046D01*
X220825656Y-68402899D01*
X220841659Y-68415313D01*
X220882243Y-68432876D01*
X220892873Y-68438083D01*
X220931640Y-68459395D01*
X220939314Y-68461365D01*
X220940710Y-68461918D01*
X220996683Y-68505592D01*
X221012307Y-68534840D01*
X221023897Y-68565755D01*
X221041385Y-68612405D01*
X221128739Y-68728961D01*
X221245295Y-68816315D01*
X221381684Y-68867445D01*
X221443866Y-68874200D01*
X222540134Y-68874200D01*
X222602316Y-68867445D01*
X222738705Y-68816315D01*
X222855261Y-68728961D01*
X222942615Y-68612405D01*
X222993745Y-68476016D01*
X223000500Y-68413834D01*
X223000500Y-67317566D01*
X222993745Y-67255384D01*
X222942615Y-67118995D01*
X222855261Y-67002439D01*
X222738705Y-66915085D01*
X222602316Y-66863955D01*
X222540134Y-66857200D01*
X221443866Y-66857200D01*
X221381684Y-66863955D01*
X221345902Y-66877369D01*
X221253699Y-66911934D01*
X221253696Y-66911936D01*
X221245295Y-66915085D01*
X221241090Y-66918236D01*
X221173563Y-66933005D01*
X221107015Y-66908269D01*
X221093316Y-66896411D01*
X220827252Y-66630347D01*
X220819712Y-66622061D01*
X220815600Y-66615582D01*
X220765948Y-66568956D01*
X220763107Y-66566202D01*
X220743370Y-66546465D01*
X220740173Y-66543985D01*
X220731151Y-66536280D01*
X220717716Y-66523664D01*
X220698921Y-66506014D01*
X220691975Y-66502195D01*
X220691972Y-66502193D01*
X220681166Y-66496252D01*
X220664647Y-66485401D01*
X220664183Y-66485041D01*
X220648641Y-66472986D01*
X220641372Y-66469841D01*
X220641368Y-66469838D01*
X220608063Y-66455426D01*
X220597413Y-66450209D01*
X220558660Y-66428905D01*
X220539037Y-66423867D01*
X220520334Y-66417463D01*
X220509020Y-66412567D01*
X220509019Y-66412567D01*
X220501745Y-66409419D01*
X220493922Y-66408180D01*
X220493912Y-66408177D01*
X220458076Y-66402501D01*
X220446456Y-66400095D01*
X220411311Y-66391072D01*
X220411310Y-66391072D01*
X220403630Y-66389100D01*
X220383376Y-66389100D01*
X220363665Y-66387549D01*
X220361134Y-66387148D01*
X220343657Y-66384380D01*
X220335765Y-66385126D01*
X220299639Y-66388541D01*
X220287781Y-66389100D01*
X210971900Y-66389100D01*
X210903779Y-66369098D01*
X210857286Y-66315442D01*
X210845900Y-66263100D01*
X210845900Y-50643043D01*
X210865902Y-50574922D01*
X210919558Y-50528429D01*
X210989832Y-50518325D01*
X211014892Y-50524604D01*
X211093289Y-50553061D01*
X211098538Y-50554010D01*
X211098541Y-50554011D01*
X211179615Y-50568671D01*
X211324330Y-50594840D01*
X211328469Y-50595035D01*
X211328476Y-50595036D01*
X211347440Y-50595930D01*
X211347449Y-50595930D01*
X211348929Y-50596000D01*
X211513950Y-50596000D01*
X211595527Y-50589078D01*
X211683637Y-50581602D01*
X211683641Y-50581601D01*
X211688948Y-50581151D01*
X211694103Y-50579813D01*
X211694109Y-50579812D01*
X211892079Y-50528429D01*
X211916206Y-50522167D01*
X211921072Y-50519975D01*
X211921075Y-50519974D01*
X212125417Y-50427924D01*
X212125420Y-50427923D01*
X212130278Y-50425734D01*
X212325041Y-50294612D01*
X212494927Y-50132549D01*
X212635078Y-49944179D01*
X212695719Y-49824908D01*
X212739069Y-49739644D01*
X212739069Y-49739643D01*
X212741487Y-49734888D01*
X212811111Y-49510660D01*
X212828202Y-49381716D01*
X212841261Y-49283190D01*
X212841261Y-49283187D01*
X212841961Y-49277907D01*
X212833152Y-49043284D01*
X212815358Y-48958478D01*
X212786035Y-48818726D01*
X212786034Y-48818723D01*
X212784938Y-48813499D01*
X212698698Y-48595123D01*
X212632223Y-48485576D01*
X212579664Y-48398961D01*
X212579662Y-48398958D01*
X212576896Y-48394400D01*
X212423015Y-48217068D01*
X212395190Y-48194253D01*
X212245584Y-48071583D01*
X212245578Y-48071579D01*
X212241456Y-48068199D01*
X212236820Y-48065560D01*
X212236817Y-48065558D01*
X212103833Y-47989859D01*
X212054526Y-47938776D01*
X212040665Y-47869146D01*
X212066649Y-47803075D01*
X212074314Y-47794105D01*
X212113242Y-47752650D01*
X212115998Y-47749807D01*
X212135735Y-47730070D01*
X212138215Y-47726873D01*
X212145920Y-47717851D01*
X212176186Y-47685621D01*
X212180005Y-47678675D01*
X212180007Y-47678672D01*
X212185948Y-47667866D01*
X212196799Y-47651347D01*
X212204358Y-47641601D01*
X212209214Y-47635341D01*
X212212359Y-47628072D01*
X212212362Y-47628068D01*
X212226774Y-47594763D01*
X212231991Y-47584113D01*
X212253295Y-47545360D01*
X212258333Y-47525737D01*
X212264737Y-47507034D01*
X212269633Y-47495720D01*
X212269633Y-47495719D01*
X212272781Y-47488445D01*
X212274020Y-47480622D01*
X212274023Y-47480612D01*
X212279699Y-47444776D01*
X212282105Y-47433156D01*
X212291128Y-47398011D01*
X212291128Y-47398010D01*
X212293100Y-47390330D01*
X212293100Y-47370076D01*
X212294651Y-47350365D01*
X212296580Y-47338186D01*
X212297820Y-47330357D01*
X212293659Y-47286338D01*
X212293100Y-47274481D01*
X212293100Y-40523367D01*
X212293627Y-40512184D01*
X212295302Y-40504691D01*
X212293162Y-40436614D01*
X212293100Y-40432655D01*
X212293100Y-40404744D01*
X212292595Y-40400744D01*
X212291662Y-40388901D01*
X212290522Y-40352630D01*
X212290273Y-40344711D01*
X212284621Y-40325257D01*
X212280613Y-40305900D01*
X212279068Y-40293670D01*
X212279068Y-40293669D01*
X212278074Y-40285803D01*
X212275155Y-40278430D01*
X212261796Y-40244688D01*
X212257951Y-40233458D01*
X212247829Y-40198617D01*
X212247829Y-40198616D01*
X212245618Y-40191007D01*
X212241585Y-40184188D01*
X212241583Y-40184183D01*
X212235307Y-40173572D01*
X212226612Y-40155824D01*
X212219152Y-40136983D01*
X212193164Y-40101213D01*
X212186648Y-40091293D01*
X212168180Y-40060065D01*
X212168178Y-40060062D01*
X212164142Y-40053238D01*
X212149821Y-40038917D01*
X212136980Y-40023883D01*
X212129731Y-40013906D01*
X212125072Y-40007493D01*
X212090995Y-39979302D01*
X212082216Y-39971312D01*
X209555952Y-37445047D01*
X209548412Y-37436761D01*
X209544300Y-37430282D01*
X209526538Y-37413602D01*
X209497992Y-37386796D01*
X209494648Y-37383656D01*
X209491807Y-37380902D01*
X209472070Y-37361165D01*
X209468873Y-37358685D01*
X209459851Y-37350980D01*
X209455700Y-37347082D01*
X209427621Y-37320714D01*
X209420675Y-37316895D01*
X209420672Y-37316893D01*
X209409866Y-37310952D01*
X209393347Y-37300101D01*
X209385859Y-37294293D01*
X209377341Y-37287686D01*
X209370072Y-37284541D01*
X209370068Y-37284538D01*
X209336763Y-37270126D01*
X209326113Y-37264909D01*
X209287360Y-37243605D01*
X209279318Y-37241540D01*
X209270698Y-37239327D01*
X209267737Y-37238567D01*
X209249034Y-37232163D01*
X209237720Y-37227267D01*
X209237719Y-37227267D01*
X209230445Y-37224119D01*
X209222622Y-37222880D01*
X209222612Y-37222877D01*
X209186776Y-37217201D01*
X209175156Y-37214795D01*
X209140011Y-37205772D01*
X209140010Y-37205772D01*
X209132330Y-37203800D01*
X209112076Y-37203800D01*
X209092365Y-37202249D01*
X209080186Y-37200320D01*
X209072357Y-37199080D01*
X209043086Y-37201847D01*
X209028339Y-37203241D01*
X209016481Y-37203800D01*
X206443167Y-37203800D01*
X206431984Y-37203273D01*
X206424491Y-37201598D01*
X206416565Y-37201847D01*
X206416564Y-37201847D01*
X206356414Y-37203738D01*
X206352455Y-37203800D01*
X206324544Y-37203800D01*
X206320610Y-37204297D01*
X206320609Y-37204297D01*
X206320544Y-37204305D01*
X206308707Y-37205238D01*
X206276890Y-37206238D01*
X206272429Y-37206378D01*
X206264510Y-37206627D01*
X206246854Y-37211756D01*
X206245058Y-37212278D01*
X206225706Y-37216286D01*
X206218635Y-37217180D01*
X206205603Y-37218826D01*
X206198234Y-37221743D01*
X206198232Y-37221744D01*
X206164497Y-37235100D01*
X206153269Y-37238945D01*
X206110807Y-37251282D01*
X206103985Y-37255316D01*
X206103979Y-37255319D01*
X206093368Y-37261594D01*
X206075618Y-37270290D01*
X206064156Y-37274828D01*
X206064151Y-37274831D01*
X206056783Y-37277748D01*
X206042649Y-37288017D01*
X206021025Y-37303727D01*
X206011107Y-37310243D01*
X206002878Y-37315110D01*
X205973037Y-37332758D01*
X205958713Y-37347082D01*
X205943681Y-37359921D01*
X205927293Y-37371828D01*
X205906743Y-37396669D01*
X205899112Y-37405893D01*
X205891122Y-37414673D01*
X205655900Y-37649895D01*
X205593588Y-37683921D01*
X205566805Y-37686800D01*
X205370866Y-37686800D01*
X205308684Y-37693555D01*
X205261414Y-37711276D01*
X205180699Y-37741534D01*
X205180696Y-37741536D01*
X205172295Y-37744685D01*
X205168090Y-37747836D01*
X205100563Y-37762605D01*
X205034015Y-37737869D01*
X205020316Y-37726011D01*
X204772052Y-37477747D01*
X204764512Y-37469461D01*
X204760400Y-37462982D01*
X204710748Y-37416356D01*
X204707907Y-37413602D01*
X204688170Y-37393865D01*
X204684973Y-37391385D01*
X204675951Y-37383680D01*
X204675927Y-37383657D01*
X204643721Y-37353414D01*
X204636775Y-37349595D01*
X204636772Y-37349593D01*
X204625966Y-37343652D01*
X204609447Y-37332801D01*
X204604192Y-37328725D01*
X204593441Y-37320386D01*
X204586172Y-37317241D01*
X204586168Y-37317238D01*
X204552863Y-37302826D01*
X204542213Y-37297609D01*
X204503460Y-37276305D01*
X204483837Y-37271267D01*
X204465134Y-37264863D01*
X204453820Y-37259967D01*
X204453819Y-37259967D01*
X204446545Y-37256819D01*
X204438722Y-37255580D01*
X204438712Y-37255577D01*
X204402876Y-37249901D01*
X204391256Y-37247495D01*
X204356111Y-37238472D01*
X204356110Y-37238472D01*
X204348430Y-37236500D01*
X204328176Y-37236500D01*
X204308465Y-37234949D01*
X204305934Y-37234548D01*
X204288457Y-37231780D01*
X204253336Y-37235100D01*
X204244439Y-37235941D01*
X204232581Y-37236500D01*
X188003363Y-37236500D01*
X187992179Y-37235973D01*
X187984691Y-37234299D01*
X187976768Y-37234548D01*
X187916633Y-37236438D01*
X187912675Y-37236500D01*
X187884744Y-37236500D01*
X187880829Y-37236995D01*
X187880825Y-37236995D01*
X187880767Y-37237003D01*
X187880738Y-37237006D01*
X187868896Y-37237939D01*
X187824710Y-37239327D01*
X187816769Y-37241634D01*
X187805258Y-37244978D01*
X187785906Y-37248986D01*
X187773668Y-37250532D01*
X187773666Y-37250533D01*
X187765803Y-37251526D01*
X187724686Y-37267806D01*
X187713485Y-37271641D01*
X187671006Y-37283982D01*
X187664187Y-37288015D01*
X187664182Y-37288017D01*
X187653571Y-37294293D01*
X187635821Y-37302990D01*
X187616983Y-37310448D01*
X187610567Y-37315109D01*
X187610566Y-37315110D01*
X187581225Y-37336428D01*
X187571301Y-37342947D01*
X187540060Y-37361422D01*
X187540055Y-37361426D01*
X187533237Y-37365458D01*
X187518913Y-37379782D01*
X187503881Y-37392621D01*
X187487493Y-37404528D01*
X187461235Y-37436268D01*
X187459312Y-37438593D01*
X187451322Y-37447373D01*
X187172684Y-37726011D01*
X187110372Y-37760037D01*
X187039557Y-37754972D01*
X187026404Y-37748956D01*
X187020705Y-37744685D01*
X187012304Y-37741536D01*
X187012301Y-37741534D01*
X186931586Y-37711276D01*
X186884316Y-37693555D01*
X186822134Y-37686800D01*
X185725866Y-37686800D01*
X185663684Y-37693555D01*
X185527295Y-37744685D01*
X185410739Y-37832039D01*
X185323385Y-37948595D01*
X185272255Y-38084984D01*
X185265500Y-38147166D01*
X185265500Y-39243434D01*
X185272255Y-39305616D01*
X185323385Y-39442005D01*
X185326537Y-39446210D01*
X185341305Y-39513741D01*
X185316567Y-39580288D01*
X185304711Y-39593985D01*
X180649147Y-44249548D01*
X180640861Y-44257088D01*
X180634382Y-44261200D01*
X180628957Y-44266977D01*
X180587757Y-44310851D01*
X180585002Y-44313693D01*
X180565265Y-44333430D01*
X180562785Y-44336627D01*
X180555082Y-44345647D01*
X180524814Y-44377879D01*
X180520995Y-44384825D01*
X180520993Y-44384828D01*
X180515052Y-44395634D01*
X180504201Y-44412153D01*
X180491786Y-44428159D01*
X180488641Y-44435428D01*
X180488638Y-44435432D01*
X180474226Y-44468737D01*
X180469009Y-44479387D01*
X180447705Y-44518140D01*
X180445734Y-44525815D01*
X180445734Y-44525816D01*
X180442667Y-44537762D01*
X180436263Y-44556466D01*
X180428219Y-44575055D01*
X180426980Y-44582878D01*
X180426977Y-44582888D01*
X180421301Y-44618724D01*
X180418895Y-44630344D01*
X180416714Y-44638840D01*
X180407900Y-44673170D01*
X180407900Y-44693424D01*
X180406349Y-44713134D01*
X180403180Y-44733143D01*
X180403926Y-44741035D01*
X180407341Y-44777161D01*
X180407900Y-44789019D01*
X180407900Y-57581200D01*
X180387898Y-57649321D01*
X180334242Y-57695814D01*
X180281900Y-57707200D01*
X174633267Y-57707200D01*
X174622084Y-57706673D01*
X174614591Y-57704998D01*
X174606665Y-57705247D01*
X174606664Y-57705247D01*
X174546514Y-57707138D01*
X174542555Y-57707200D01*
X174514644Y-57707200D01*
X174510710Y-57707697D01*
X174510709Y-57707697D01*
X174510644Y-57707705D01*
X174498807Y-57708638D01*
X174466990Y-57709638D01*
X174462529Y-57709778D01*
X174454610Y-57710027D01*
X174442755Y-57713471D01*
X174435158Y-57715678D01*
X174415806Y-57719686D01*
X174408735Y-57720580D01*
X174395703Y-57722226D01*
X174388334Y-57725143D01*
X174388332Y-57725144D01*
X174354597Y-57738500D01*
X174343369Y-57742345D01*
X174300907Y-57754682D01*
X174294085Y-57758716D01*
X174294079Y-57758719D01*
X174283468Y-57764994D01*
X174265718Y-57773690D01*
X174254256Y-57778228D01*
X174254251Y-57778231D01*
X174246883Y-57781148D01*
X174240468Y-57785809D01*
X174211125Y-57807127D01*
X174201207Y-57813643D01*
X174182519Y-57824695D01*
X174163137Y-57836158D01*
X174148813Y-57850482D01*
X174133781Y-57863321D01*
X174117393Y-57875228D01*
X174089212Y-57909293D01*
X174081222Y-57918073D01*
X167105447Y-64893848D01*
X167097161Y-64901388D01*
X167090682Y-64905500D01*
X167085257Y-64911277D01*
X167044057Y-64955151D01*
X167041302Y-64957993D01*
X167021565Y-64977730D01*
X167019085Y-64980927D01*
X167011382Y-64989947D01*
X166981114Y-65022179D01*
X166977295Y-65029125D01*
X166977293Y-65029128D01*
X166971352Y-65039934D01*
X166960501Y-65056453D01*
X166948086Y-65072459D01*
X166944941Y-65079728D01*
X166944938Y-65079732D01*
X166930526Y-65113037D01*
X166925309Y-65123687D01*
X166904005Y-65162440D01*
X166902034Y-65170115D01*
X166902034Y-65170116D01*
X166898967Y-65182062D01*
X166892563Y-65200766D01*
X166884519Y-65219355D01*
X166883280Y-65227178D01*
X166883277Y-65227188D01*
X166877601Y-65263024D01*
X166875195Y-65274644D01*
X166864200Y-65317470D01*
X166864200Y-65337724D01*
X166862649Y-65357434D01*
X166859480Y-65377443D01*
X166860226Y-65385335D01*
X166863641Y-65421461D01*
X166864200Y-65433319D01*
X166864200Y-69334208D01*
X166860242Y-69365542D01*
X166851371Y-69400091D01*
X166851370Y-69400095D01*
X166849400Y-69407770D01*
X166849400Y-69428024D01*
X166847849Y-69447734D01*
X166844680Y-69467743D01*
X166008000Y-69467743D01*
X166008000Y-44400000D01*
X168086439Y-44400000D01*
X168086709Y-44404119D01*
X168104864Y-44681099D01*
X168106660Y-44708507D01*
X168107464Y-44712547D01*
X168107464Y-44712550D01*
X168110003Y-44725314D01*
X168166975Y-45011735D01*
X168168300Y-45015639D01*
X168168301Y-45015642D01*
X168224312Y-45180644D01*
X168266354Y-45304496D01*
X168268177Y-45308192D01*
X168268180Y-45308200D01*
X168368021Y-45510656D01*
X168403096Y-45581780D01*
X168405390Y-45585213D01*
X168405391Y-45585215D01*
X168524877Y-45764038D01*
X168574861Y-45838845D01*
X168577575Y-45841939D01*
X168577579Y-45841945D01*
X168657599Y-45933190D01*
X168778710Y-46071290D01*
X168781799Y-46073999D01*
X169008055Y-46272421D01*
X169008061Y-46272425D01*
X169011155Y-46275139D01*
X169014581Y-46277428D01*
X169014586Y-46277432D01*
X169120907Y-46348473D01*
X169268220Y-46446904D01*
X169271923Y-46448730D01*
X169541800Y-46581820D01*
X169541808Y-46581823D01*
X169545504Y-46583646D01*
X169549419Y-46584975D01*
X169834358Y-46681699D01*
X169834361Y-46681700D01*
X169838265Y-46683025D01*
X170064961Y-46728117D01*
X170137450Y-46742536D01*
X170137453Y-46742536D01*
X170141493Y-46743340D01*
X170145604Y-46743609D01*
X170145608Y-46743610D01*
X170370737Y-46758366D01*
X170370746Y-46758366D01*
X170372786Y-46758500D01*
X170527214Y-46758500D01*
X170529254Y-46758366D01*
X170529263Y-46758366D01*
X170754392Y-46743610D01*
X170754396Y-46743609D01*
X170758507Y-46743340D01*
X170762547Y-46742536D01*
X170762550Y-46742536D01*
X170835039Y-46728117D01*
X171061735Y-46683025D01*
X171065639Y-46681700D01*
X171065642Y-46681699D01*
X171350581Y-46584975D01*
X171354496Y-46583646D01*
X171358192Y-46581823D01*
X171358200Y-46581820D01*
X171628077Y-46448730D01*
X171631780Y-46446904D01*
X171779093Y-46348473D01*
X171885414Y-46277432D01*
X171885419Y-46277428D01*
X171888845Y-46275139D01*
X171891939Y-46272425D01*
X171891945Y-46272421D01*
X172118201Y-46073999D01*
X172121290Y-46071290D01*
X172242401Y-45933190D01*
X172322421Y-45841945D01*
X172322425Y-45841939D01*
X172325139Y-45838845D01*
X172425289Y-45688961D01*
X172488502Y-45594355D01*
X172496904Y-45581781D01*
X172528540Y-45517631D01*
X172569010Y-45435565D01*
X172633646Y-45304496D01*
X172675688Y-45180644D01*
X172731699Y-45015642D01*
X172731700Y-45015639D01*
X172733025Y-45011735D01*
X172789997Y-44725314D01*
X172792536Y-44712550D01*
X172792536Y-44712547D01*
X172793340Y-44708507D01*
X172795137Y-44681099D01*
X172813291Y-44404119D01*
X172813561Y-44400000D01*
X172804842Y-44266977D01*
X172793610Y-44095608D01*
X172793609Y-44095604D01*
X172793340Y-44091493D01*
X172733025Y-43788265D01*
X172676446Y-43621587D01*
X172634975Y-43499419D01*
X172633646Y-43495504D01*
X172631822Y-43491806D01*
X172631820Y-43491800D01*
X172498730Y-43221923D01*
X172496904Y-43218220D01*
X172494610Y-43214787D01*
X172494609Y-43214785D01*
X172327432Y-42964586D01*
X172327428Y-42964581D01*
X172325139Y-42961155D01*
X172322425Y-42958061D01*
X172322421Y-42958055D01*
X172123999Y-42731799D01*
X172121290Y-42728710D01*
X172060189Y-42675126D01*
X171891945Y-42527579D01*
X171891939Y-42527575D01*
X171888845Y-42524861D01*
X171885419Y-42522572D01*
X171885414Y-42522568D01*
X171635215Y-42355391D01*
X171635213Y-42355390D01*
X171631780Y-42353096D01*
X171543401Y-42309512D01*
X171358200Y-42218180D01*
X171358192Y-42218177D01*
X171354496Y-42216354D01*
X171350581Y-42215025D01*
X171065642Y-42118301D01*
X171065639Y-42118300D01*
X171061735Y-42116975D01*
X170835039Y-42071883D01*
X170762550Y-42057464D01*
X170762547Y-42057464D01*
X170758507Y-42056660D01*
X170754396Y-42056391D01*
X170754392Y-42056390D01*
X170529263Y-42041634D01*
X170529254Y-42041634D01*
X170527214Y-42041500D01*
X170372786Y-42041500D01*
X170370746Y-42041634D01*
X170370737Y-42041634D01*
X170145608Y-42056390D01*
X170145604Y-42056391D01*
X170141493Y-42056660D01*
X170137453Y-42057464D01*
X170137450Y-42057464D01*
X170064961Y-42071883D01*
X169838265Y-42116975D01*
X169834361Y-42118300D01*
X169834358Y-42118301D01*
X169549419Y-42215025D01*
X169545504Y-42216354D01*
X169541808Y-42218177D01*
X169541800Y-42218180D01*
X169356599Y-42309512D01*
X169268220Y-42353096D01*
X169264787Y-42355390D01*
X169264785Y-42355391D01*
X169014586Y-42522568D01*
X169014581Y-42522572D01*
X169011155Y-42524861D01*
X169008061Y-42527575D01*
X169008055Y-42527579D01*
X168839811Y-42675126D01*
X168778710Y-42728710D01*
X168776001Y-42731799D01*
X168577579Y-42958055D01*
X168577575Y-42958061D01*
X168574861Y-42961155D01*
X168572572Y-42964581D01*
X168572568Y-42964586D01*
X168497194Y-43077392D01*
X168403096Y-43218219D01*
X168401272Y-43221918D01*
X168401269Y-43221923D01*
X168356588Y-43312528D01*
X168266354Y-43495504D01*
X168265029Y-43499409D01*
X168265028Y-43499410D01*
X168223555Y-43621587D01*
X168166975Y-43788265D01*
X168106660Y-44091493D01*
X168106391Y-44095604D01*
X168106390Y-44095608D01*
X168095158Y-44266977D01*
X168086439Y-44400000D01*
X166008000Y-44400000D01*
X166008000Y-32004000D01*
X208202439Y-32004000D01*
X208222660Y-32312507D01*
X208282975Y-32615735D01*
X208382354Y-32908496D01*
X208384177Y-32912192D01*
X208384180Y-32912200D01*
X208494721Y-33136352D01*
X208519096Y-33185780D01*
X208521390Y-33189213D01*
X208521391Y-33189214D01*
X208690861Y-33442845D01*
X208693575Y-33445939D01*
X208693579Y-33445945D01*
X208892001Y-33672201D01*
X208894710Y-33675290D01*
X208897799Y-33677999D01*
X209124055Y-33876421D01*
X209124061Y-33876425D01*
X209127155Y-33879139D01*
X209130581Y-33881428D01*
X209130586Y-33881432D01*
X209380785Y-34048609D01*
X209384220Y-34050904D01*
X209387923Y-34052730D01*
X209657800Y-34185820D01*
X209657808Y-34185823D01*
X209661504Y-34187646D01*
X209665419Y-34188975D01*
X209950358Y-34285699D01*
X209950361Y-34285700D01*
X209954265Y-34287025D01*
X210180961Y-34332117D01*
X210253450Y-34346536D01*
X210253453Y-34346536D01*
X210257493Y-34347340D01*
X210261604Y-34347609D01*
X210261608Y-34347610D01*
X210486737Y-34362366D01*
X210486746Y-34362366D01*
X210488786Y-34362500D01*
X210643214Y-34362500D01*
X210645254Y-34362366D01*
X210645263Y-34362366D01*
X210870392Y-34347610D01*
X210870396Y-34347609D01*
X210874507Y-34347340D01*
X210878547Y-34346536D01*
X210878550Y-34346536D01*
X210951039Y-34332117D01*
X211177735Y-34287025D01*
X211181639Y-34285700D01*
X211181642Y-34285699D01*
X211466581Y-34188975D01*
X211470496Y-34187646D01*
X211474192Y-34185823D01*
X211474200Y-34185820D01*
X211744077Y-34052730D01*
X211747780Y-34050904D01*
X211751215Y-34048609D01*
X212001414Y-33881432D01*
X212001419Y-33881428D01*
X212004845Y-33879139D01*
X212007939Y-33876425D01*
X212007945Y-33876421D01*
X212234201Y-33677999D01*
X212237290Y-33675290D01*
X212239999Y-33672201D01*
X212438421Y-33445945D01*
X212438425Y-33445939D01*
X212441139Y-33442845D01*
X212612904Y-33185781D01*
X212749646Y-32908496D01*
X212849025Y-32615735D01*
X212909340Y-32312507D01*
X212929561Y-32004000D01*
X212909340Y-31695493D01*
X212849025Y-31392265D01*
X212749646Y-31099504D01*
X212747822Y-31095806D01*
X212747820Y-31095800D01*
X212614730Y-30825923D01*
X212612904Y-30822220D01*
X212610610Y-30818787D01*
X212610609Y-30818785D01*
X212443432Y-30568586D01*
X212443428Y-30568581D01*
X212441139Y-30565155D01*
X212438425Y-30562061D01*
X212438421Y-30562055D01*
X212239999Y-30335799D01*
X212237290Y-30332710D01*
X212234201Y-30330001D01*
X212007945Y-30131579D01*
X212007939Y-30131575D01*
X212004845Y-30128861D01*
X212001419Y-30126572D01*
X212001414Y-30126568D01*
X211751215Y-29959391D01*
X211751213Y-29959390D01*
X211747780Y-29957096D01*
X211698352Y-29932721D01*
X211474200Y-29822180D01*
X211474192Y-29822177D01*
X211470496Y-29820354D01*
X211466581Y-29819025D01*
X211181642Y-29722301D01*
X211181639Y-29722300D01*
X211177735Y-29720975D01*
X210951039Y-29675883D01*
X210878550Y-29661464D01*
X210878547Y-29661464D01*
X210874507Y-29660660D01*
X210870396Y-29660391D01*
X210870392Y-29660390D01*
X210645263Y-29645634D01*
X210645254Y-29645634D01*
X210643214Y-29645500D01*
X210488786Y-29645500D01*
X210486746Y-29645634D01*
X210486737Y-29645634D01*
X210261608Y-29660390D01*
X210261604Y-29660391D01*
X210257493Y-29660660D01*
X210253453Y-29661464D01*
X210253450Y-29661464D01*
X210180961Y-29675883D01*
X209954265Y-29720975D01*
X209950361Y-29722300D01*
X209950358Y-29722301D01*
X209665419Y-29819025D01*
X209661504Y-29820354D01*
X209657808Y-29822177D01*
X209657800Y-29822180D01*
X209433648Y-29932721D01*
X209384220Y-29957096D01*
X209380787Y-29959390D01*
X209380785Y-29959391D01*
X209130586Y-30126568D01*
X209130581Y-30126572D01*
X209127155Y-30128861D01*
X209124061Y-30131575D01*
X209124055Y-30131579D01*
X208897799Y-30330001D01*
X208894710Y-30332710D01*
X208892001Y-30335799D01*
X208693579Y-30562055D01*
X208693575Y-30562061D01*
X208690861Y-30565155D01*
X208688572Y-30568581D01*
X208688568Y-30568586D01*
X208661901Y-30608496D01*
X208519096Y-30822219D01*
X208382354Y-31099504D01*
X208282975Y-31392265D01*
X208222660Y-31695493D01*
X208202439Y-32004000D01*
X166008000Y-32004000D01*
X166008000Y-31053207D01*
X166009746Y-31032303D01*
X166012264Y-31017335D01*
X166013071Y-31012539D01*
X166013224Y-31000000D01*
X166010885Y-30983664D01*
X166009733Y-30960311D01*
X166024853Y-30613993D01*
X166025811Y-30603042D01*
X166075527Y-30225421D01*
X166077436Y-30214597D01*
X166159870Y-29842757D01*
X166162715Y-29832139D01*
X166197765Y-29720975D01*
X166277248Y-29468890D01*
X166281004Y-29458568D01*
X166426762Y-29106675D01*
X166431399Y-29096731D01*
X166607278Y-28758872D01*
X166612768Y-28749363D01*
X166817410Y-28428140D01*
X166823714Y-28419136D01*
X167055583Y-28116957D01*
X167062649Y-28108537D01*
X167319959Y-27827732D01*
X167327732Y-27819959D01*
X167608537Y-27562649D01*
X167616957Y-27555583D01*
X167919136Y-27323714D01*
X167928140Y-27317410D01*
X168249363Y-27112768D01*
X168258872Y-27107278D01*
X168596731Y-26931399D01*
X168606666Y-26926766D01*
X168958575Y-26781001D01*
X168968890Y-26777248D01*
X169332140Y-26662715D01*
X169342757Y-26659870D01*
X169714597Y-26577436D01*
X169725421Y-26575527D01*
X170103042Y-26525811D01*
X170113993Y-26524853D01*
X170381226Y-26513186D01*
X170456583Y-26509896D01*
X170481462Y-26511276D01*
X170493730Y-26513186D01*
X170525252Y-26509064D01*
X170541589Y-26508000D01*
X211950672Y-26508000D01*
X211970057Y-26509500D01*
G37*
G04 #@! TD.AperFunction*
M02*
