M48
; DRILL file {KiCad (6.0.1-0)} date Wednesday, January 18, 2023 at 10:23:19 AM
; FORMAT={-:-/ absolute / metric / decimal}
; #@! TF.CreationDate,2023-01-18T10:23:19-08:00
; #@! TF.GenerationSoftware,Kicad,Pcbnew,(6.0.1-0)
; #@! TF.FileFunction,Plated,1,2,PTH
FMAT,2
METRIC
; #@! TA.AperFunction,Plated,PTH,ViaDrill
T1C0.400
; #@! TA.AperFunction,Plated,PTH,ComponentDrill
T2C0.700
; #@! TA.AperFunction,Plated,PTH,ComponentDrill
T3C0.800
; #@! TA.AperFunction,Plated,PTH,ComponentDrill
T4C0.900
; #@! TA.AperFunction,Plated,PTH,ComponentDrill
T5C1.000
; #@! TA.AperFunction,Plated,PTH,ComponentDrill
T6C4.300
%
G90
G05
T1
X102.896Y-104.2
X102.896Y-106.7
X107.55Y-71.95
X108.775Y-114.7
X110.407Y-108.83
X110.7Y-56.2
X112.5Y-77.0
X113.0Y-52.5
X113.5Y-117.0
X113.5Y-124.5
X121.0Y-103.0
X124.732Y-79.829
X124.952Y-81.277
X129.413Y-109.601
X136.2Y-110.0
X138.973Y-86.233
X140.6Y-118.1
X144.399Y-111.252
X144.688Y-91.694
X145.6Y-111.3
X146.6Y-111.3
X147.7Y-111.3
X154.432Y-110.363
X164.592Y-107.188
X186.0Y-58.0
X187.7Y-110.9
X189.426Y-115.1
X190.038Y-117.262
X194.388Y-123.188
X194.7Y-62.1
X194.8Y-67.0
X195.4Y-123.2
X195.8Y-62.2
X196.124Y-120.5
X196.755Y-114.12
T2
X132.5Y-128.4
X137.58Y-128.4
X142.5Y-128.4
X147.58Y-128.4
X152.4Y-128.4
X157.48Y-128.4
X162.3Y-128.5
X167.38Y-128.5
T3
X101.8Y-103.0
X101.8Y-105.5
X101.8Y-108.0
X101.8Y-110.5
X101.8Y-113.0
X101.8Y-115.5
X101.8Y-118.0
X105.15Y-103.0
X105.15Y-105.5
X105.15Y-108.0
X105.15Y-110.5
X105.15Y-113.0
X105.15Y-115.5
X105.15Y-118.0
X106.8Y-104.25
X106.8Y-106.75
X106.8Y-109.25
X106.8Y-111.75
X106.8Y-114.25
X106.8Y-116.75
X107.0Y-55.0
X107.0Y-57.5
X107.0Y-60.0
X107.0Y-62.5
X107.0Y-65.0
X107.0Y-67.5
X107.0Y-70.0
X109.0Y-56.25
X109.0Y-58.75
X109.0Y-61.25
X109.0Y-63.75
X109.0Y-66.25
X109.0Y-68.75
X161.925Y-57.237
X161.925Y-62.317
X190.9Y-56.25
X190.9Y-58.75
X190.9Y-61.25
X190.9Y-63.75
X190.9Y-66.25
X190.9Y-68.75
X192.9Y-55.0
X192.9Y-57.5
X192.9Y-60.0
X192.9Y-62.5
X192.9Y-65.0
X192.9Y-67.5
X192.9Y-70.0
X193.3Y-104.25
X193.3Y-106.75
X193.3Y-109.25
X193.3Y-111.75
X193.3Y-114.25
X193.3Y-116.75
X194.95Y-103.0
X194.95Y-105.5
X194.95Y-108.0
X194.95Y-110.5
X194.95Y-113.0
X194.95Y-115.5
X194.95Y-118.0
X198.3Y-103.0
X198.3Y-105.5
X198.3Y-108.0
X198.3Y-110.5
X198.3Y-113.0
X198.3Y-115.5
X198.3Y-118.0
T4
X133.7Y-132.4
X136.24Y-132.4
X143.7Y-132.4
X146.24Y-132.4
X153.7Y-132.4
X156.24Y-132.4
X163.7Y-132.4
X166.24Y-132.4
T5
X103.34Y-129.0
X105.88Y-129.0
X108.42Y-129.0
X110.96Y-129.0
X113.5Y-129.0
X116.04Y-129.0
X117.579Y-83.185
X117.579Y-98.425
X118.58Y-129.0
X120.119Y-83.185
X120.119Y-98.425
X121.12Y-129.0
X121.39Y-86.993
X121.39Y-89.533
X121.39Y-92.073
X121.39Y-94.613
X122.659Y-83.185
X122.659Y-98.425
X123.66Y-129.0
X125.199Y-83.185
X125.199Y-98.425
X126.2Y-129.0
X127.739Y-83.185
X127.739Y-98.425
X130.279Y-83.185
X130.279Y-98.425
X132.819Y-83.185
X132.819Y-98.425
X135.359Y-83.185
X135.359Y-98.425
X137.899Y-83.185
X137.899Y-98.425
X140.439Y-83.185
X140.439Y-98.425
X142.5Y-57.5
X142.5Y-60.0
X142.5Y-62.5
X142.979Y-83.185
X142.979Y-98.425
X145.519Y-83.185
X145.519Y-98.425
X148.059Y-83.185
X148.059Y-98.425
X150.599Y-83.185
X150.599Y-98.425
X153.139Y-83.185
X153.139Y-98.425
X155.679Y-83.185
X155.679Y-98.425
X157.0Y-57.5
X157.0Y-62.5
X158.219Y-83.185
X158.219Y-98.425
X160.759Y-83.185
X160.759Y-98.425
X163.299Y-83.185
X163.299Y-98.425
X165.839Y-83.185
X165.839Y-98.425
X173.8Y-129.0
X176.34Y-129.0
X178.88Y-129.0
X181.42Y-129.0
X183.96Y-129.0
X186.5Y-129.0
X189.04Y-129.0
X191.58Y-129.0
X194.12Y-129.0
X196.66Y-129.0
T6
X150.0Y-106.0
T0
M30
