M48
;DRILL file {KiCad (5.0.2)-1} date 2/27/2019 6:36:02 PM
;FORMAT={-:-/ absolute / inch / decimal}
FMAT,2
INCH,TZ
T1C0.0276
T2C0.0315
T3C0.0354
T4C0.0394
T5C0.0433
%
G90
G05
T1
X6.Y-5.0551
X5.6102Y-5.0551
X5.8102Y-5.0551
X6.3898Y-5.0591
X6.5898Y-5.0591
X5.2165Y-5.0551
X5.4165Y-5.0551
X6.2Y-5.0551
T2
X7.6102Y-4.1043
X7.6102Y-4.2028
X7.6102Y-4.3012
X7.6102Y-4.3996
X7.6102Y-4.498
X7.6102Y-4.5965
X7.8071Y-4.0551
X7.8071Y-4.1535
X7.8071Y-4.252
X7.8071Y-4.3504
X7.8071Y-4.4488
X7.8071Y-4.5472
X7.8071Y-4.6457
X7.5157Y-2.2146
X7.5157Y-2.313
X7.5157Y-2.4114
X7.5157Y-2.5098
X7.5157Y-2.6083
X7.5157Y-2.7067
X7.5945Y-2.1654
X7.5945Y-2.2638
X7.5945Y-2.3622
X7.5945Y-2.4606
X7.5945Y-2.5591
X7.5945Y-2.6575
X7.5945Y-2.7559
X4.0079Y-4.0551
X4.0079Y-4.1535
X4.0079Y-4.252
X4.0079Y-4.3504
X4.0079Y-4.4488
X4.0079Y-4.5472
X4.0079Y-4.6457
X4.2047Y-4.1043
X4.2047Y-4.2028
X4.2047Y-4.3012
X4.2047Y-4.3996
X4.2047Y-4.498
X4.2047Y-4.5965
X4.2126Y-2.1654
X4.2126Y-2.2638
X4.2126Y-2.3622
X4.2126Y-2.4606
X4.2126Y-2.5591
X4.2126Y-2.6575
X4.2126Y-2.7559
X4.2913Y-2.2146
X4.2913Y-2.313
X4.2913Y-2.4114
X4.2913Y-2.5098
X4.2913Y-2.6083
X4.2913Y-2.7067
T3
X6.4449Y-5.2126
X6.5449Y-5.2126
X6.0512Y-5.2126
X6.1512Y-5.2126
X5.6575Y-5.2126
X5.7575Y-5.2126
X5.2638Y-5.2126
X5.3638Y-5.2126
T4
X4.0685Y-5.0787
X4.1685Y-5.0787
X4.2685Y-5.0787
X4.3685Y-5.0787
X4.4685Y-5.0787
X4.5685Y-5.0787
X4.6685Y-5.0787
X4.7685Y-5.0787
X4.8685Y-5.0787
X4.9685Y-5.0787
X6.8425Y-5.0787
X6.9425Y-5.0787
X7.0425Y-5.0787
X7.1425Y-5.0787
X7.2425Y-5.0787
X7.3425Y-5.0787
X7.4425Y-5.0787
X7.5425Y-5.0787
X7.6425Y-5.0787
X7.7425Y-5.0787
T5
X4.9555Y-3.2591
X4.9555Y-3.8591
X5.0555Y-3.2591
X5.0555Y-3.8591
X5.1555Y-3.2591
X5.1555Y-3.8591
X5.2555Y-3.2591
X5.2555Y-3.8591
X5.3555Y-3.2591
X5.3555Y-3.8591
X5.4555Y-3.2591
X5.4555Y-3.8591
X5.5555Y-3.2591
X5.5555Y-3.8591
X5.6555Y-3.2591
X5.6555Y-3.8591
X5.7555Y-3.2591
X5.7555Y-3.8591
X5.8555Y-3.2591
X5.8555Y-3.8591
X5.9555Y-3.2591
X5.9555Y-3.8591
X6.0555Y-3.2591
X6.0555Y-3.8591
X6.1555Y-3.2591
X6.1555Y-3.8591
X6.2555Y-3.2591
X6.2555Y-3.8591
X6.3555Y-3.2591
X6.3555Y-3.8591
X6.4555Y-3.2591
X6.4555Y-3.8591
X6.5555Y-3.2591
X6.5555Y-3.8591
X6.6555Y-3.2591
X6.6555Y-3.8591
X6.7555Y-3.2591
X6.7555Y-3.8591
X6.8555Y-3.2591
X6.8555Y-3.8591
T0
M30
