%TF.GenerationSoftware,KiCad,Pcbnew,(5.0.2)-1*%
%TF.CreationDate,2019-02-27T18:32:07-08:00*%
%TF.ProjectId,kicad_port,6b696361-645f-4706-9f72-742e6b696361,rev?*%
%TF.SameCoordinates,Original*%
%TF.FileFunction,Copper,L2,Bot*%
%TF.FilePolarity,Positive*%
%FSLAX46Y46*%
G04 Gerber Fmt 4.6, Leading zero omitted, Abs format (unit mm)*
G04 Created by KiCad (PCBNEW (5.0.2)-1) date 2/27/2019 6:32:07 PM*
%MOMM*%
%LPD*%
G01*
G04 APERTURE LIST*
%ADD10C,0.200000*%
%ADD11O,2.000000X1.200000*%
%ADD12C,1.600000*%
%ADD13R,1.600000X1.600000*%
%ADD14C,1.800000*%
%ADD15R,1.800000X1.800000*%
%ADD16O,1.400000X1.400000*%
%ADD17C,1.400000*%
%ADD18O,1.700000X1.700000*%
%ADD19R,1.700000X1.700000*%
%ADD20C,0.250000*%
G04 APERTURE END LIST*
D10*
X100000000Y-50000000D02*
X100000000Y-136000000D01*
X200000000Y-50000000D02*
X100000000Y-50000000D01*
X200000000Y-136000000D02*
X200000000Y-50000000D01*
X100000000Y-136000000D02*
X200000000Y-136000000D01*
D11*
X101800000Y-103000000D03*
X106800000Y-104250000D03*
X101800000Y-105500000D03*
X106800000Y-106750000D03*
X101800000Y-108000000D03*
X106800000Y-109250000D03*
X101800000Y-110500000D03*
X106800000Y-111750000D03*
X101800000Y-113000000D03*
X106800000Y-114250000D03*
X101800000Y-115500000D03*
X106800000Y-116750000D03*
X101800000Y-118000000D03*
X198300000Y-118000000D03*
X193300000Y-116750000D03*
X198300000Y-115500000D03*
X193300000Y-114250000D03*
X198300000Y-113000000D03*
X193300000Y-111750000D03*
X198300000Y-110500000D03*
X193300000Y-109250000D03*
X198300000Y-108000000D03*
X193300000Y-106750000D03*
X198300000Y-105500000D03*
X193300000Y-104250000D03*
X198300000Y-103000000D03*
X192900000Y-70000000D03*
X190900000Y-68750000D03*
X192900000Y-67500000D03*
X190900000Y-66250000D03*
X192900000Y-65000000D03*
X190900000Y-63750000D03*
X192900000Y-62500000D03*
X190900000Y-61250000D03*
X192900000Y-60000000D03*
X190900000Y-58750000D03*
X192900000Y-57500000D03*
X190900000Y-56250000D03*
X192900000Y-55000000D03*
X107000000Y-55000000D03*
X109000000Y-56250000D03*
X107000000Y-57500000D03*
X109000000Y-58750000D03*
X107000000Y-60000000D03*
X109000000Y-61250000D03*
X107000000Y-62500000D03*
X109000000Y-63750000D03*
X107000000Y-65000000D03*
X109000000Y-66250000D03*
X107000000Y-67500000D03*
X109000000Y-68750000D03*
X107000000Y-70000000D03*
D12*
X125870000Y-98020000D03*
X128410000Y-98020000D03*
X130950000Y-98020000D03*
X133490000Y-98020000D03*
X136030000Y-98020000D03*
X138570000Y-98020000D03*
X141110000Y-98020000D03*
X143650000Y-98020000D03*
X146190000Y-98020000D03*
X148730000Y-98020000D03*
X151270000Y-98020000D03*
X153810000Y-98020000D03*
X156350000Y-98020000D03*
X158890000Y-98020000D03*
X161430000Y-98020000D03*
X163970000Y-98020000D03*
X166510000Y-98020000D03*
X169050000Y-98020000D03*
X171590000Y-98020000D03*
X174130000Y-98020000D03*
X174130000Y-82780000D03*
X171590000Y-82780000D03*
X169050000Y-82780000D03*
X166510000Y-82780000D03*
X163970000Y-82780000D03*
X161430000Y-82780000D03*
X158890000Y-82780000D03*
X156350000Y-82780000D03*
X153810000Y-82780000D03*
D13*
X125870000Y-82780000D03*
D12*
X128410000Y-82780000D03*
X130950000Y-82780000D03*
X133490000Y-82780000D03*
X136030000Y-82780000D03*
X138570000Y-82780000D03*
X141110000Y-82780000D03*
X143650000Y-82780000D03*
X151270000Y-82780000D03*
X148730000Y-82780000D03*
X146190000Y-82780000D03*
D14*
X136240000Y-132400000D03*
D15*
X133700000Y-132400000D03*
D14*
X146240000Y-132400000D03*
D15*
X143700000Y-132400000D03*
D14*
X156240000Y-132400000D03*
D15*
X153700000Y-132400000D03*
D14*
X166240000Y-132400000D03*
D15*
X163700000Y-132400000D03*
D16*
X137580000Y-128400000D03*
D17*
X132500000Y-128400000D03*
D16*
X147580000Y-128400000D03*
D17*
X142500000Y-128400000D03*
D16*
X157480000Y-128400000D03*
D17*
X152400000Y-128400000D03*
D16*
X167380000Y-128500000D03*
D17*
X162300000Y-128500000D03*
D18*
X196660000Y-129000000D03*
X194120000Y-129000000D03*
X191580000Y-129000000D03*
X189040000Y-129000000D03*
X186500000Y-129000000D03*
X183960000Y-129000000D03*
X181420000Y-129000000D03*
X178880000Y-129000000D03*
X176340000Y-129000000D03*
D19*
X173800000Y-129000000D03*
X126200000Y-129000000D03*
D18*
X123660000Y-129000000D03*
X121120000Y-129000000D03*
X118580000Y-129000000D03*
X116040000Y-129000000D03*
X113500000Y-129000000D03*
X110960000Y-129000000D03*
X108420000Y-129000000D03*
X105880000Y-129000000D03*
X103340000Y-129000000D03*
D20*
X132500000Y-128400000D02*
X133700000Y-129600000D01*
X133700000Y-129600000D02*
X133700000Y-132400000D01*
X136240000Y-132400000D02*
X135014600Y-133625400D01*
X135014600Y-133625400D02*
X128603300Y-133625400D01*
X128603300Y-133625400D02*
X125024600Y-130046700D01*
X125024600Y-130046700D02*
X125024600Y-127824600D01*
X125024600Y-127824600D02*
X132120700Y-120728500D01*
X132120700Y-120728500D02*
X132120700Y-97589300D01*
X132120700Y-97589300D02*
X130938200Y-96406800D01*
X130938200Y-96406800D02*
X127483200Y-96406800D01*
X127483200Y-96406800D02*
X125870000Y-98020000D01*
X142500000Y-128400000D02*
X143700000Y-129600000D01*
X143700000Y-129600000D02*
X143700000Y-132400000D01*
X152400000Y-128400000D02*
X153700000Y-129700000D01*
X153700000Y-129700000D02*
X153700000Y-132400000D01*
X162300000Y-128500000D02*
X163700000Y-129900000D01*
X163700000Y-129900000D02*
X163700000Y-132400000D01*
X107000000Y-67500000D02*
X105674700Y-67500000D01*
X105674700Y-67500000D02*
X105674700Y-62607700D01*
X105674700Y-62607700D02*
X105782400Y-62500000D01*
X105782400Y-62500000D02*
X105674700Y-62392300D01*
X105674700Y-62392300D02*
X105674700Y-59603400D01*
X105674700Y-59603400D02*
X106528100Y-58750000D01*
X106528100Y-58750000D02*
X109000000Y-58750000D01*
X189550400Y-66250000D02*
X190900000Y-66250000D01*
X171590000Y-82780000D02*
X188120000Y-66250000D01*
X188120000Y-66250000D02*
X189550400Y-66250000D01*
X192900000Y-62500000D02*
X190385200Y-62500000D01*
X190385200Y-62500000D02*
X189550400Y-63334800D01*
X189550400Y-63334800D02*
X189550400Y-66250000D01*
X107000000Y-62500000D02*
X105782400Y-62500000D01*
X116040000Y-129000000D02*
X116040000Y-127824700D01*
X116040000Y-127824700D02*
X127140000Y-116724700D01*
X127140000Y-116724700D02*
X127140000Y-97692100D01*
X127140000Y-97692100D02*
X127974900Y-96857200D01*
X127974900Y-96857200D02*
X129787200Y-96857200D01*
X129787200Y-96857200D02*
X130950000Y-98020000D01*
X191580000Y-127824700D02*
X195525900Y-123878800D01*
X195525900Y-123878800D02*
X195525900Y-58800600D01*
X195525900Y-58800600D02*
X194225300Y-57500000D01*
X192900000Y-57500000D02*
X194225300Y-57500000D01*
X191580000Y-129000000D02*
X191580000Y-127824700D01*
X166510000Y-82780000D02*
X139980000Y-56250000D01*
X139980000Y-56250000D02*
X109000000Y-56250000D01*
X166510000Y-82780000D02*
X189290000Y-60000000D01*
X189290000Y-60000000D02*
X192900000Y-60000000D01*
X194625300Y-114250000D02*
X195075600Y-113799700D01*
X195075600Y-113799700D02*
X195075600Y-65850300D01*
X195075600Y-65850300D02*
X194225300Y-65000000D01*
X193300000Y-114250000D02*
X194625300Y-114250000D01*
X192900000Y-65000000D02*
X194225300Y-65000000D01*
X105674700Y-55000000D02*
X101800000Y-58874700D01*
X101800000Y-58874700D02*
X101800000Y-103000000D01*
X107000000Y-55000000D02*
X105674700Y-55000000D01*
X109000000Y-63750000D02*
X110325300Y-63750000D01*
X110377200Y-74176300D02*
X105436300Y-79117200D01*
X105436300Y-79117200D02*
X105436300Y-101072400D01*
X105436300Y-101072400D02*
X102258700Y-104250000D01*
X102258700Y-104250000D02*
X101255100Y-104250000D01*
X101255100Y-104250000D02*
X100474700Y-105030400D01*
X100474700Y-105030400D02*
X100474700Y-113000000D01*
X110325300Y-63750000D02*
X110325300Y-74124400D01*
X110325300Y-74124400D02*
X110377200Y-74176300D01*
X141110000Y-98020000D02*
X144808600Y-94321400D01*
X144808600Y-94321400D02*
X144808600Y-82341700D01*
X144808600Y-82341700D02*
X136643200Y-74176300D01*
X136643200Y-74176300D02*
X110377200Y-74176300D01*
X101800000Y-113000000D02*
X100474700Y-113000000D01*
X193300000Y-104250000D02*
X194625300Y-104250000D01*
X186500000Y-129000000D02*
X186500000Y-127824700D01*
X186500000Y-127824700D02*
X194625400Y-119699300D01*
X194625400Y-119699300D02*
X194625400Y-116275200D01*
X194625400Y-116275200D02*
X193882600Y-115532400D01*
X193882600Y-115532400D02*
X192834100Y-115532400D01*
X192834100Y-115532400D02*
X191960600Y-114658900D01*
X191960600Y-114658900D02*
X191960600Y-113830100D01*
X191960600Y-113830100D02*
X192790700Y-113000000D01*
X192790700Y-113000000D02*
X193819700Y-113000000D01*
X193819700Y-113000000D02*
X194625300Y-112194400D01*
X194625300Y-112194400D02*
X194625300Y-104250000D01*
X163970000Y-82780000D02*
X163970000Y-83745300D01*
X163970000Y-83745300D02*
X191974700Y-111750000D01*
X193300000Y-111750000D02*
X191974700Y-111750000D01*
X181420000Y-129000000D02*
X181420000Y-127824700D01*
X181420000Y-127824700D02*
X167780000Y-114184700D01*
X167780000Y-114184700D02*
X167780000Y-97666000D01*
X167780000Y-97666000D02*
X155011200Y-84897200D01*
X155011200Y-84897200D02*
X150847200Y-84897200D01*
X150847200Y-84897200D02*
X148730000Y-82780000D01*
X190317000Y-118407700D02*
X191974700Y-116750000D01*
X183960000Y-129000000D02*
X183960000Y-124764700D01*
X183960000Y-124764700D02*
X190317000Y-118407700D01*
X156350000Y-82780000D02*
X170320000Y-96750000D01*
X170320000Y-96750000D02*
X170320000Y-98410800D01*
X170320000Y-98410800D02*
X190317000Y-118407700D01*
X193300000Y-116750000D02*
X191974700Y-116750000D01*
X178880000Y-129000000D02*
X178880000Y-127824700D01*
X146190000Y-82780000D02*
X158825600Y-95415600D01*
X158825600Y-95415600D02*
X162958700Y-95415600D01*
X162958700Y-95415600D02*
X165240000Y-97696900D01*
X165240000Y-97696900D02*
X165240000Y-114184700D01*
X165240000Y-114184700D02*
X178880000Y-127824700D01*
X114854300Y-107397000D02*
X125873600Y-96377700D01*
X125873600Y-96377700D02*
X126563900Y-96377700D01*
X126563900Y-96377700D02*
X139840000Y-83101600D01*
X139840000Y-83101600D02*
X139840000Y-82444100D01*
X139840000Y-82444100D02*
X140658600Y-81625500D01*
X140658600Y-81625500D02*
X142495500Y-81625500D01*
X142495500Y-81625500D02*
X143650000Y-82780000D01*
X119944700Y-129000000D02*
X119944700Y-129367300D01*
X119944700Y-129367300D02*
X119124600Y-130187400D01*
X119124600Y-130187400D02*
X115542100Y-130187400D01*
X115542100Y-130187400D02*
X114854300Y-129499600D01*
X114854300Y-129499600D02*
X114854300Y-107397000D01*
X114854300Y-107397000D02*
X111272300Y-107397000D01*
X111272300Y-107397000D02*
X108125300Y-104250000D01*
X106800000Y-104250000D02*
X108125300Y-104250000D01*
X121120000Y-129000000D02*
X119944700Y-129000000D01*
X126200000Y-129000000D02*
X126200000Y-127824700D01*
X141110000Y-82780000D02*
X137444600Y-86445400D01*
X137444600Y-86445400D02*
X137444600Y-116580100D01*
X137444600Y-116580100D02*
X126200000Y-127824700D01*
X106800000Y-106750000D02*
X108125300Y-106750000D01*
X108420000Y-129000000D02*
X108420000Y-127824700D01*
X108420000Y-127824700D02*
X108587000Y-127657700D01*
X108587000Y-127657700D02*
X108587000Y-107211700D01*
X108587000Y-107211700D02*
X108125300Y-106750000D01*
X106800000Y-106750000D02*
X105474700Y-106750000D01*
X138570000Y-82780000D02*
X118025300Y-103324700D01*
X118025300Y-103324700D02*
X106016700Y-103324700D01*
X106016700Y-103324700D02*
X105474700Y-103866700D01*
X105474700Y-103866700D02*
X105474700Y-106750000D01*
X106800000Y-109250000D02*
X108125300Y-109250000D01*
X123660000Y-129000000D02*
X122484700Y-129000000D01*
X122484700Y-129000000D02*
X122484700Y-129367300D01*
X122484700Y-129367300D02*
X121213100Y-130638900D01*
X121213100Y-130638900D02*
X108372500Y-130638900D01*
X108372500Y-130638900D02*
X107222600Y-129489000D01*
X107222600Y-129489000D02*
X107222600Y-120874700D01*
X107222600Y-120874700D02*
X108125300Y-119972000D01*
X108125300Y-119972000D02*
X108125300Y-109250000D01*
X106800000Y-109250000D02*
X105474700Y-109250000D01*
X105474700Y-109250000D02*
X105022600Y-108797900D01*
X105022600Y-108797900D02*
X105022600Y-103680900D01*
X105022600Y-103680900D02*
X105829200Y-102874300D01*
X105829200Y-102874300D02*
X115935700Y-102874300D01*
X115935700Y-102874300D02*
X136030000Y-82780000D01*
X101800000Y-110500000D02*
X103125300Y-110500000D01*
X133490000Y-82780000D02*
X132364600Y-81654600D01*
X132364600Y-81654600D02*
X130477800Y-81654600D01*
X130477800Y-81654600D02*
X129680000Y-82452400D01*
X129680000Y-82452400D02*
X129680000Y-83172900D01*
X129680000Y-83172900D02*
X112704200Y-100148700D01*
X112704200Y-100148700D02*
X107249700Y-100148700D01*
X107249700Y-100148700D02*
X103125300Y-104273100D01*
X103125300Y-104273100D02*
X103125300Y-110500000D01*
X130950000Y-82780000D02*
X111900500Y-101829500D01*
X111900500Y-101829500D02*
X106237000Y-101829500D01*
X106237000Y-101829500D02*
X104550700Y-103515800D01*
X104550700Y-103515800D02*
X104550700Y-110826000D01*
X104550700Y-110826000D02*
X105474700Y-111750000D01*
X106800000Y-111750000D02*
X105474700Y-111750000D01*
X128410000Y-98020000D02*
X128410000Y-117994700D01*
X128410000Y-117994700D02*
X118580000Y-127824700D01*
X118580000Y-129000000D02*
X118580000Y-127824700D01*
X137580000Y-128400000D02*
X137580000Y-127374700D01*
X137580000Y-127374700D02*
X152540000Y-112414700D01*
X152540000Y-112414700D02*
X152540000Y-97665900D01*
X152540000Y-97665900D02*
X154275600Y-95930300D01*
X154275600Y-95930300D02*
X161880300Y-95930300D01*
X161880300Y-95930300D02*
X163970000Y-98020000D01*
X147580000Y-128400000D02*
X147580000Y-127374700D01*
X147580000Y-127374700D02*
X155080000Y-119874700D01*
X155080000Y-119874700D02*
X155080000Y-97680200D01*
X155080000Y-97680200D02*
X156341400Y-96418800D01*
X156341400Y-96418800D02*
X159828800Y-96418800D01*
X159828800Y-96418800D02*
X161430000Y-98020000D01*
X157480000Y-128400000D02*
X157480000Y-127374700D01*
X157480000Y-127374700D02*
X158890000Y-125964700D01*
X158890000Y-125964700D02*
X158890000Y-98020000D01*
X167380000Y-128500000D02*
X167380000Y-127474700D01*
X167380000Y-127474700D02*
X160160000Y-120254700D01*
X160160000Y-120254700D02*
X160160000Y-97696300D01*
X160160000Y-97696300D02*
X159332900Y-96869200D01*
X159332900Y-96869200D02*
X157500800Y-96869200D01*
X157500800Y-96869200D02*
X156350000Y-98020000D01*
M02*
