%TF.GenerationSoftware,KiCad,Pcbnew,(5.0.2)-1*%
%TF.CreationDate,2019-02-27T18:32:07-08:00*%
%TF.ProjectId,kicad_port,6b696361-645f-4706-9f72-742e6b696361,rev?*%
%TF.SameCoordinates,Original*%
%TF.FileFunction,Soldermask,Bot*%
%TF.FilePolarity,Negative*%
%FSLAX46Y46*%
G04 Gerber Fmt 4.6, Leading zero omitted, Abs format (unit mm)*
G04 Created by KiCad (PCBNEW (5.0.2)-1) date 2/27/2019 6:32:07 PM*
%MOMM*%
%LPD*%
G01*
G04 APERTURE LIST*
%ADD10C,0.200000*%
%ADD11C,0.150000*%
G04 APERTURE END LIST*
D10*
X100000000Y-50000000D02*
X100000000Y-136000000D01*
X200000000Y-50000000D02*
X100000000Y-50000000D01*
X200000000Y-136000000D02*
X200000000Y-50000000D01*
X100000000Y-136000000D02*
X200000000Y-136000000D01*
D11*
G36*
X136560857Y-131342272D02*
X136761042Y-131425191D01*
X136941213Y-131545578D01*
X137094422Y-131698787D01*
X137214809Y-131878958D01*
X137297728Y-132079143D01*
X137340000Y-132291658D01*
X137340000Y-132508342D01*
X137297728Y-132720857D01*
X137214809Y-132921042D01*
X137094422Y-133101213D01*
X136941213Y-133254422D01*
X136761042Y-133374809D01*
X136560857Y-133457728D01*
X136348342Y-133500000D01*
X136131658Y-133500000D01*
X135919143Y-133457728D01*
X135718958Y-133374809D01*
X135538787Y-133254422D01*
X135385578Y-133101213D01*
X135265191Y-132921042D01*
X135182272Y-132720857D01*
X135140000Y-132508342D01*
X135140000Y-132291658D01*
X135182272Y-132079143D01*
X135265191Y-131878958D01*
X135385578Y-131698787D01*
X135538787Y-131545578D01*
X135718958Y-131425191D01*
X135919143Y-131342272D01*
X136131658Y-131300000D01*
X136348342Y-131300000D01*
X136560857Y-131342272D01*
X136560857Y-131342272D01*
G37*
G36*
X164800000Y-133500000D02*
X162600000Y-133500000D01*
X162600000Y-131300000D01*
X164800000Y-131300000D01*
X164800000Y-133500000D01*
X164800000Y-133500000D01*
G37*
G36*
X166560857Y-131342272D02*
X166761042Y-131425191D01*
X166941213Y-131545578D01*
X167094422Y-131698787D01*
X167214809Y-131878958D01*
X167297728Y-132079143D01*
X167340000Y-132291658D01*
X167340000Y-132508342D01*
X167297728Y-132720857D01*
X167214809Y-132921042D01*
X167094422Y-133101213D01*
X166941213Y-133254422D01*
X166761042Y-133374809D01*
X166560857Y-133457728D01*
X166348342Y-133500000D01*
X166131658Y-133500000D01*
X165919143Y-133457728D01*
X165718958Y-133374809D01*
X165538787Y-133254422D01*
X165385578Y-133101213D01*
X165265191Y-132921042D01*
X165182272Y-132720857D01*
X165140000Y-132508342D01*
X165140000Y-132291658D01*
X165182272Y-132079143D01*
X165265191Y-131878958D01*
X165385578Y-131698787D01*
X165538787Y-131545578D01*
X165718958Y-131425191D01*
X165919143Y-131342272D01*
X166131658Y-131300000D01*
X166348342Y-131300000D01*
X166560857Y-131342272D01*
X166560857Y-131342272D01*
G37*
G36*
X154800000Y-133500000D02*
X152600000Y-133500000D01*
X152600000Y-131300000D01*
X154800000Y-131300000D01*
X154800000Y-133500000D01*
X154800000Y-133500000D01*
G37*
G36*
X156560857Y-131342272D02*
X156761042Y-131425191D01*
X156941213Y-131545578D01*
X157094422Y-131698787D01*
X157214809Y-131878958D01*
X157297728Y-132079143D01*
X157340000Y-132291658D01*
X157340000Y-132508342D01*
X157297728Y-132720857D01*
X157214809Y-132921042D01*
X157094422Y-133101213D01*
X156941213Y-133254422D01*
X156761042Y-133374809D01*
X156560857Y-133457728D01*
X156348342Y-133500000D01*
X156131658Y-133500000D01*
X155919143Y-133457728D01*
X155718958Y-133374809D01*
X155538787Y-133254422D01*
X155385578Y-133101213D01*
X155265191Y-132921042D01*
X155182272Y-132720857D01*
X155140000Y-132508342D01*
X155140000Y-132291658D01*
X155182272Y-132079143D01*
X155265191Y-131878958D01*
X155385578Y-131698787D01*
X155538787Y-131545578D01*
X155718958Y-131425191D01*
X155919143Y-131342272D01*
X156131658Y-131300000D01*
X156348342Y-131300000D01*
X156560857Y-131342272D01*
X156560857Y-131342272D01*
G37*
G36*
X146560857Y-131342272D02*
X146761042Y-131425191D01*
X146941213Y-131545578D01*
X147094422Y-131698787D01*
X147214809Y-131878958D01*
X147297728Y-132079143D01*
X147340000Y-132291658D01*
X147340000Y-132508342D01*
X147297728Y-132720857D01*
X147214809Y-132921042D01*
X147094422Y-133101213D01*
X146941213Y-133254422D01*
X146761042Y-133374809D01*
X146560857Y-133457728D01*
X146348342Y-133500000D01*
X146131658Y-133500000D01*
X145919143Y-133457728D01*
X145718958Y-133374809D01*
X145538787Y-133254422D01*
X145385578Y-133101213D01*
X145265191Y-132921042D01*
X145182272Y-132720857D01*
X145140000Y-132508342D01*
X145140000Y-132291658D01*
X145182272Y-132079143D01*
X145265191Y-131878958D01*
X145385578Y-131698787D01*
X145538787Y-131545578D01*
X145718958Y-131425191D01*
X145919143Y-131342272D01*
X146131658Y-131300000D01*
X146348342Y-131300000D01*
X146560857Y-131342272D01*
X146560857Y-131342272D01*
G37*
G36*
X134800000Y-133500000D02*
X132600000Y-133500000D01*
X132600000Y-131300000D01*
X134800000Y-131300000D01*
X134800000Y-133500000D01*
X134800000Y-133500000D01*
G37*
G36*
X144800000Y-133500000D02*
X142600000Y-133500000D01*
X142600000Y-131300000D01*
X144800000Y-131300000D01*
X144800000Y-133500000D01*
X144800000Y-133500000D01*
G37*
G36*
X176468707Y-127957596D02*
X176545836Y-127965193D01*
X176652559Y-127997567D01*
X176743763Y-128025233D01*
X176926172Y-128122733D01*
X177086054Y-128253946D01*
X177217267Y-128413828D01*
X177314767Y-128596237D01*
X177314767Y-128596238D01*
X177374807Y-128794164D01*
X177395080Y-129000000D01*
X177374807Y-129205836D01*
X177346243Y-129300000D01*
X177314767Y-129403763D01*
X177217267Y-129586172D01*
X177086054Y-129746054D01*
X176926172Y-129877267D01*
X176743763Y-129974767D01*
X176677787Y-129994780D01*
X176545836Y-130034807D01*
X176468707Y-130042403D01*
X176391580Y-130050000D01*
X176288420Y-130050000D01*
X176211293Y-130042403D01*
X176134164Y-130034807D01*
X176002213Y-129994780D01*
X175936237Y-129974767D01*
X175753828Y-129877267D01*
X175593946Y-129746054D01*
X175462733Y-129586172D01*
X175365233Y-129403763D01*
X175333757Y-129300000D01*
X175305193Y-129205836D01*
X175284920Y-129000000D01*
X175305193Y-128794164D01*
X175365233Y-128596238D01*
X175365233Y-128596237D01*
X175462733Y-128413828D01*
X175593946Y-128253946D01*
X175753828Y-128122733D01*
X175936237Y-128025233D01*
X176027441Y-127997567D01*
X176134164Y-127965193D01*
X176211293Y-127957596D01*
X176288420Y-127950000D01*
X176391580Y-127950000D01*
X176468707Y-127957596D01*
X176468707Y-127957596D01*
G37*
G36*
X196788707Y-127957596D02*
X196865836Y-127965193D01*
X196972559Y-127997567D01*
X197063763Y-128025233D01*
X197246172Y-128122733D01*
X197406054Y-128253946D01*
X197537267Y-128413828D01*
X197634767Y-128596237D01*
X197634767Y-128596238D01*
X197694807Y-128794164D01*
X197715080Y-129000000D01*
X197694807Y-129205836D01*
X197666243Y-129300000D01*
X197634767Y-129403763D01*
X197537267Y-129586172D01*
X197406054Y-129746054D01*
X197246172Y-129877267D01*
X197063763Y-129974767D01*
X196997787Y-129994780D01*
X196865836Y-130034807D01*
X196788707Y-130042403D01*
X196711580Y-130050000D01*
X196608420Y-130050000D01*
X196531293Y-130042403D01*
X196454164Y-130034807D01*
X196322213Y-129994780D01*
X196256237Y-129974767D01*
X196073828Y-129877267D01*
X195913946Y-129746054D01*
X195782733Y-129586172D01*
X195685233Y-129403763D01*
X195653757Y-129300000D01*
X195625193Y-129205836D01*
X195604920Y-129000000D01*
X195625193Y-128794164D01*
X195685233Y-128596238D01*
X195685233Y-128596237D01*
X195782733Y-128413828D01*
X195913946Y-128253946D01*
X196073828Y-128122733D01*
X196256237Y-128025233D01*
X196347441Y-127997567D01*
X196454164Y-127965193D01*
X196531293Y-127957596D01*
X196608420Y-127950000D01*
X196711580Y-127950000D01*
X196788707Y-127957596D01*
X196788707Y-127957596D01*
G37*
G36*
X191708707Y-127957596D02*
X191785836Y-127965193D01*
X191892559Y-127997567D01*
X191983763Y-128025233D01*
X192166172Y-128122733D01*
X192326054Y-128253946D01*
X192457267Y-128413828D01*
X192554767Y-128596237D01*
X192554767Y-128596238D01*
X192614807Y-128794164D01*
X192635080Y-129000000D01*
X192614807Y-129205836D01*
X192586243Y-129300000D01*
X192554767Y-129403763D01*
X192457267Y-129586172D01*
X192326054Y-129746054D01*
X192166172Y-129877267D01*
X191983763Y-129974767D01*
X191917787Y-129994780D01*
X191785836Y-130034807D01*
X191708707Y-130042403D01*
X191631580Y-130050000D01*
X191528420Y-130050000D01*
X191451293Y-130042403D01*
X191374164Y-130034807D01*
X191242213Y-129994780D01*
X191176237Y-129974767D01*
X190993828Y-129877267D01*
X190833946Y-129746054D01*
X190702733Y-129586172D01*
X190605233Y-129403763D01*
X190573757Y-129300000D01*
X190545193Y-129205836D01*
X190524920Y-129000000D01*
X190545193Y-128794164D01*
X190605233Y-128596238D01*
X190605233Y-128596237D01*
X190702733Y-128413828D01*
X190833946Y-128253946D01*
X190993828Y-128122733D01*
X191176237Y-128025233D01*
X191267441Y-127997567D01*
X191374164Y-127965193D01*
X191451293Y-127957596D01*
X191528420Y-127950000D01*
X191631580Y-127950000D01*
X191708707Y-127957596D01*
X191708707Y-127957596D01*
G37*
G36*
X186628707Y-127957596D02*
X186705836Y-127965193D01*
X186812559Y-127997567D01*
X186903763Y-128025233D01*
X187086172Y-128122733D01*
X187246054Y-128253946D01*
X187377267Y-128413828D01*
X187474767Y-128596237D01*
X187474767Y-128596238D01*
X187534807Y-128794164D01*
X187555080Y-129000000D01*
X187534807Y-129205836D01*
X187506243Y-129300000D01*
X187474767Y-129403763D01*
X187377267Y-129586172D01*
X187246054Y-129746054D01*
X187086172Y-129877267D01*
X186903763Y-129974767D01*
X186837787Y-129994780D01*
X186705836Y-130034807D01*
X186628707Y-130042403D01*
X186551580Y-130050000D01*
X186448420Y-130050000D01*
X186371293Y-130042403D01*
X186294164Y-130034807D01*
X186162213Y-129994780D01*
X186096237Y-129974767D01*
X185913828Y-129877267D01*
X185753946Y-129746054D01*
X185622733Y-129586172D01*
X185525233Y-129403763D01*
X185493757Y-129300000D01*
X185465193Y-129205836D01*
X185444920Y-129000000D01*
X185465193Y-128794164D01*
X185525233Y-128596238D01*
X185525233Y-128596237D01*
X185622733Y-128413828D01*
X185753946Y-128253946D01*
X185913828Y-128122733D01*
X186096237Y-128025233D01*
X186187441Y-127997567D01*
X186294164Y-127965193D01*
X186371293Y-127957596D01*
X186448420Y-127950000D01*
X186551580Y-127950000D01*
X186628707Y-127957596D01*
X186628707Y-127957596D01*
G37*
G36*
X184088707Y-127957596D02*
X184165836Y-127965193D01*
X184272559Y-127997567D01*
X184363763Y-128025233D01*
X184546172Y-128122733D01*
X184706054Y-128253946D01*
X184837267Y-128413828D01*
X184934767Y-128596237D01*
X184934767Y-128596238D01*
X184994807Y-128794164D01*
X185015080Y-129000000D01*
X184994807Y-129205836D01*
X184966243Y-129300000D01*
X184934767Y-129403763D01*
X184837267Y-129586172D01*
X184706054Y-129746054D01*
X184546172Y-129877267D01*
X184363763Y-129974767D01*
X184297787Y-129994780D01*
X184165836Y-130034807D01*
X184088707Y-130042403D01*
X184011580Y-130050000D01*
X183908420Y-130050000D01*
X183831293Y-130042403D01*
X183754164Y-130034807D01*
X183622213Y-129994780D01*
X183556237Y-129974767D01*
X183373828Y-129877267D01*
X183213946Y-129746054D01*
X183082733Y-129586172D01*
X182985233Y-129403763D01*
X182953757Y-129300000D01*
X182925193Y-129205836D01*
X182904920Y-129000000D01*
X182925193Y-128794164D01*
X182985233Y-128596238D01*
X182985233Y-128596237D01*
X183082733Y-128413828D01*
X183213946Y-128253946D01*
X183373828Y-128122733D01*
X183556237Y-128025233D01*
X183647441Y-127997567D01*
X183754164Y-127965193D01*
X183831293Y-127957596D01*
X183908420Y-127950000D01*
X184011580Y-127950000D01*
X184088707Y-127957596D01*
X184088707Y-127957596D01*
G37*
G36*
X181548707Y-127957596D02*
X181625836Y-127965193D01*
X181732559Y-127997567D01*
X181823763Y-128025233D01*
X182006172Y-128122733D01*
X182166054Y-128253946D01*
X182297267Y-128413828D01*
X182394767Y-128596237D01*
X182394767Y-128596238D01*
X182454807Y-128794164D01*
X182475080Y-129000000D01*
X182454807Y-129205836D01*
X182426243Y-129300000D01*
X182394767Y-129403763D01*
X182297267Y-129586172D01*
X182166054Y-129746054D01*
X182006172Y-129877267D01*
X181823763Y-129974767D01*
X181757787Y-129994780D01*
X181625836Y-130034807D01*
X181548707Y-130042403D01*
X181471580Y-130050000D01*
X181368420Y-130050000D01*
X181291293Y-130042403D01*
X181214164Y-130034807D01*
X181082213Y-129994780D01*
X181016237Y-129974767D01*
X180833828Y-129877267D01*
X180673946Y-129746054D01*
X180542733Y-129586172D01*
X180445233Y-129403763D01*
X180413757Y-129300000D01*
X180385193Y-129205836D01*
X180364920Y-129000000D01*
X180385193Y-128794164D01*
X180445233Y-128596238D01*
X180445233Y-128596237D01*
X180542733Y-128413828D01*
X180673946Y-128253946D01*
X180833828Y-128122733D01*
X181016237Y-128025233D01*
X181107441Y-127997567D01*
X181214164Y-127965193D01*
X181291293Y-127957596D01*
X181368420Y-127950000D01*
X181471580Y-127950000D01*
X181548707Y-127957596D01*
X181548707Y-127957596D01*
G37*
G36*
X179008707Y-127957596D02*
X179085836Y-127965193D01*
X179192559Y-127997567D01*
X179283763Y-128025233D01*
X179466172Y-128122733D01*
X179626054Y-128253946D01*
X179757267Y-128413828D01*
X179854767Y-128596237D01*
X179854767Y-128596238D01*
X179914807Y-128794164D01*
X179935080Y-129000000D01*
X179914807Y-129205836D01*
X179886243Y-129300000D01*
X179854767Y-129403763D01*
X179757267Y-129586172D01*
X179626054Y-129746054D01*
X179466172Y-129877267D01*
X179283763Y-129974767D01*
X179217787Y-129994780D01*
X179085836Y-130034807D01*
X179008707Y-130042403D01*
X178931580Y-130050000D01*
X178828420Y-130050000D01*
X178751293Y-130042403D01*
X178674164Y-130034807D01*
X178542213Y-129994780D01*
X178476237Y-129974767D01*
X178293828Y-129877267D01*
X178133946Y-129746054D01*
X178002733Y-129586172D01*
X177905233Y-129403763D01*
X177873757Y-129300000D01*
X177845193Y-129205836D01*
X177824920Y-129000000D01*
X177845193Y-128794164D01*
X177905233Y-128596238D01*
X177905233Y-128596237D01*
X178002733Y-128413828D01*
X178133946Y-128253946D01*
X178293828Y-128122733D01*
X178476237Y-128025233D01*
X178567441Y-127997567D01*
X178674164Y-127965193D01*
X178751293Y-127957596D01*
X178828420Y-127950000D01*
X178931580Y-127950000D01*
X179008707Y-127957596D01*
X179008707Y-127957596D01*
G37*
G36*
X174850000Y-130050000D02*
X172750000Y-130050000D01*
X172750000Y-127950000D01*
X174850000Y-127950000D01*
X174850000Y-130050000D01*
X174850000Y-130050000D01*
G37*
G36*
X189168707Y-127957596D02*
X189245836Y-127965193D01*
X189352559Y-127997567D01*
X189443763Y-128025233D01*
X189626172Y-128122733D01*
X189786054Y-128253946D01*
X189917267Y-128413828D01*
X190014767Y-128596237D01*
X190014767Y-128596238D01*
X190074807Y-128794164D01*
X190095080Y-129000000D01*
X190074807Y-129205836D01*
X190046243Y-129300000D01*
X190014767Y-129403763D01*
X189917267Y-129586172D01*
X189786054Y-129746054D01*
X189626172Y-129877267D01*
X189443763Y-129974767D01*
X189377787Y-129994780D01*
X189245836Y-130034807D01*
X189168707Y-130042403D01*
X189091580Y-130050000D01*
X188988420Y-130050000D01*
X188911293Y-130042403D01*
X188834164Y-130034807D01*
X188702213Y-129994780D01*
X188636237Y-129974767D01*
X188453828Y-129877267D01*
X188293946Y-129746054D01*
X188162733Y-129586172D01*
X188065233Y-129403763D01*
X188033757Y-129300000D01*
X188005193Y-129205836D01*
X187984920Y-129000000D01*
X188005193Y-128794164D01*
X188065233Y-128596238D01*
X188065233Y-128596237D01*
X188162733Y-128413828D01*
X188293946Y-128253946D01*
X188453828Y-128122733D01*
X188636237Y-128025233D01*
X188727441Y-127997567D01*
X188834164Y-127965193D01*
X188911293Y-127957596D01*
X188988420Y-127950000D01*
X189091580Y-127950000D01*
X189168707Y-127957596D01*
X189168707Y-127957596D01*
G37*
G36*
X103468707Y-127957596D02*
X103545836Y-127965193D01*
X103652559Y-127997567D01*
X103743763Y-128025233D01*
X103926172Y-128122733D01*
X104086054Y-128253946D01*
X104217267Y-128413828D01*
X104314767Y-128596237D01*
X104314767Y-128596238D01*
X104374807Y-128794164D01*
X104395080Y-129000000D01*
X104374807Y-129205836D01*
X104346243Y-129300000D01*
X104314767Y-129403763D01*
X104217267Y-129586172D01*
X104086054Y-129746054D01*
X103926172Y-129877267D01*
X103743763Y-129974767D01*
X103677787Y-129994780D01*
X103545836Y-130034807D01*
X103468707Y-130042403D01*
X103391580Y-130050000D01*
X103288420Y-130050000D01*
X103211293Y-130042403D01*
X103134164Y-130034807D01*
X103002213Y-129994780D01*
X102936237Y-129974767D01*
X102753828Y-129877267D01*
X102593946Y-129746054D01*
X102462733Y-129586172D01*
X102365233Y-129403763D01*
X102333757Y-129300000D01*
X102305193Y-129205836D01*
X102284920Y-129000000D01*
X102305193Y-128794164D01*
X102365233Y-128596238D01*
X102365233Y-128596237D01*
X102462733Y-128413828D01*
X102593946Y-128253946D01*
X102753828Y-128122733D01*
X102936237Y-128025233D01*
X103027441Y-127997567D01*
X103134164Y-127965193D01*
X103211293Y-127957596D01*
X103288420Y-127950000D01*
X103391580Y-127950000D01*
X103468707Y-127957596D01*
X103468707Y-127957596D01*
G37*
G36*
X108548707Y-127957596D02*
X108625836Y-127965193D01*
X108732559Y-127997567D01*
X108823763Y-128025233D01*
X109006172Y-128122733D01*
X109166054Y-128253946D01*
X109297267Y-128413828D01*
X109394767Y-128596237D01*
X109394767Y-128596238D01*
X109454807Y-128794164D01*
X109475080Y-129000000D01*
X109454807Y-129205836D01*
X109426243Y-129300000D01*
X109394767Y-129403763D01*
X109297267Y-129586172D01*
X109166054Y-129746054D01*
X109006172Y-129877267D01*
X108823763Y-129974767D01*
X108757787Y-129994780D01*
X108625836Y-130034807D01*
X108548707Y-130042403D01*
X108471580Y-130050000D01*
X108368420Y-130050000D01*
X108291293Y-130042403D01*
X108214164Y-130034807D01*
X108082213Y-129994780D01*
X108016237Y-129974767D01*
X107833828Y-129877267D01*
X107673946Y-129746054D01*
X107542733Y-129586172D01*
X107445233Y-129403763D01*
X107413757Y-129300000D01*
X107385193Y-129205836D01*
X107364920Y-129000000D01*
X107385193Y-128794164D01*
X107445233Y-128596238D01*
X107445233Y-128596237D01*
X107542733Y-128413828D01*
X107673946Y-128253946D01*
X107833828Y-128122733D01*
X108016237Y-128025233D01*
X108107441Y-127997567D01*
X108214164Y-127965193D01*
X108291293Y-127957596D01*
X108368420Y-127950000D01*
X108471580Y-127950000D01*
X108548707Y-127957596D01*
X108548707Y-127957596D01*
G37*
G36*
X127250000Y-130050000D02*
X125150000Y-130050000D01*
X125150000Y-127950000D01*
X127250000Y-127950000D01*
X127250000Y-130050000D01*
X127250000Y-130050000D01*
G37*
G36*
X194248707Y-127957596D02*
X194325836Y-127965193D01*
X194432559Y-127997567D01*
X194523763Y-128025233D01*
X194706172Y-128122733D01*
X194866054Y-128253946D01*
X194997267Y-128413828D01*
X195094767Y-128596237D01*
X195094767Y-128596238D01*
X195154807Y-128794164D01*
X195175080Y-129000000D01*
X195154807Y-129205836D01*
X195126243Y-129300000D01*
X195094767Y-129403763D01*
X194997267Y-129586172D01*
X194866054Y-129746054D01*
X194706172Y-129877267D01*
X194523763Y-129974767D01*
X194457787Y-129994780D01*
X194325836Y-130034807D01*
X194248707Y-130042403D01*
X194171580Y-130050000D01*
X194068420Y-130050000D01*
X193991293Y-130042403D01*
X193914164Y-130034807D01*
X193782213Y-129994780D01*
X193716237Y-129974767D01*
X193533828Y-129877267D01*
X193373946Y-129746054D01*
X193242733Y-129586172D01*
X193145233Y-129403763D01*
X193113757Y-129300000D01*
X193085193Y-129205836D01*
X193064920Y-129000000D01*
X193085193Y-128794164D01*
X193145233Y-128596238D01*
X193145233Y-128596237D01*
X193242733Y-128413828D01*
X193373946Y-128253946D01*
X193533828Y-128122733D01*
X193716237Y-128025233D01*
X193807441Y-127997567D01*
X193914164Y-127965193D01*
X193991293Y-127957596D01*
X194068420Y-127950000D01*
X194171580Y-127950000D01*
X194248707Y-127957596D01*
X194248707Y-127957596D01*
G37*
G36*
X123788707Y-127957596D02*
X123865836Y-127965193D01*
X123972559Y-127997567D01*
X124063763Y-128025233D01*
X124246172Y-128122733D01*
X124406054Y-128253946D01*
X124537267Y-128413828D01*
X124634767Y-128596237D01*
X124634767Y-128596238D01*
X124694807Y-128794164D01*
X124715080Y-129000000D01*
X124694807Y-129205836D01*
X124666243Y-129300000D01*
X124634767Y-129403763D01*
X124537267Y-129586172D01*
X124406054Y-129746054D01*
X124246172Y-129877267D01*
X124063763Y-129974767D01*
X123997787Y-129994780D01*
X123865836Y-130034807D01*
X123788707Y-130042403D01*
X123711580Y-130050000D01*
X123608420Y-130050000D01*
X123531293Y-130042403D01*
X123454164Y-130034807D01*
X123322213Y-129994780D01*
X123256237Y-129974767D01*
X123073828Y-129877267D01*
X122913946Y-129746054D01*
X122782733Y-129586172D01*
X122685233Y-129403763D01*
X122653757Y-129300000D01*
X122625193Y-129205836D01*
X122604920Y-129000000D01*
X122625193Y-128794164D01*
X122685233Y-128596238D01*
X122685233Y-128596237D01*
X122782733Y-128413828D01*
X122913946Y-128253946D01*
X123073828Y-128122733D01*
X123256237Y-128025233D01*
X123347441Y-127997567D01*
X123454164Y-127965193D01*
X123531293Y-127957596D01*
X123608420Y-127950000D01*
X123711580Y-127950000D01*
X123788707Y-127957596D01*
X123788707Y-127957596D01*
G37*
G36*
X121248707Y-127957596D02*
X121325836Y-127965193D01*
X121432559Y-127997567D01*
X121523763Y-128025233D01*
X121706172Y-128122733D01*
X121866054Y-128253946D01*
X121997267Y-128413828D01*
X122094767Y-128596237D01*
X122094767Y-128596238D01*
X122154807Y-128794164D01*
X122175080Y-129000000D01*
X122154807Y-129205836D01*
X122126243Y-129300000D01*
X122094767Y-129403763D01*
X121997267Y-129586172D01*
X121866054Y-129746054D01*
X121706172Y-129877267D01*
X121523763Y-129974767D01*
X121457787Y-129994780D01*
X121325836Y-130034807D01*
X121248707Y-130042403D01*
X121171580Y-130050000D01*
X121068420Y-130050000D01*
X120991293Y-130042403D01*
X120914164Y-130034807D01*
X120782213Y-129994780D01*
X120716237Y-129974767D01*
X120533828Y-129877267D01*
X120373946Y-129746054D01*
X120242733Y-129586172D01*
X120145233Y-129403763D01*
X120113757Y-129300000D01*
X120085193Y-129205836D01*
X120064920Y-129000000D01*
X120085193Y-128794164D01*
X120145233Y-128596238D01*
X120145233Y-128596237D01*
X120242733Y-128413828D01*
X120373946Y-128253946D01*
X120533828Y-128122733D01*
X120716237Y-128025233D01*
X120807441Y-127997567D01*
X120914164Y-127965193D01*
X120991293Y-127957596D01*
X121068420Y-127950000D01*
X121171580Y-127950000D01*
X121248707Y-127957596D01*
X121248707Y-127957596D01*
G37*
G36*
X118708707Y-127957596D02*
X118785836Y-127965193D01*
X118892559Y-127997567D01*
X118983763Y-128025233D01*
X119166172Y-128122733D01*
X119326054Y-128253946D01*
X119457267Y-128413828D01*
X119554767Y-128596237D01*
X119554767Y-128596238D01*
X119614807Y-128794164D01*
X119635080Y-129000000D01*
X119614807Y-129205836D01*
X119586243Y-129300000D01*
X119554767Y-129403763D01*
X119457267Y-129586172D01*
X119326054Y-129746054D01*
X119166172Y-129877267D01*
X118983763Y-129974767D01*
X118917787Y-129994780D01*
X118785836Y-130034807D01*
X118708707Y-130042403D01*
X118631580Y-130050000D01*
X118528420Y-130050000D01*
X118451293Y-130042403D01*
X118374164Y-130034807D01*
X118242213Y-129994780D01*
X118176237Y-129974767D01*
X117993828Y-129877267D01*
X117833946Y-129746054D01*
X117702733Y-129586172D01*
X117605233Y-129403763D01*
X117573757Y-129300000D01*
X117545193Y-129205836D01*
X117524920Y-129000000D01*
X117545193Y-128794164D01*
X117605233Y-128596238D01*
X117605233Y-128596237D01*
X117702733Y-128413828D01*
X117833946Y-128253946D01*
X117993828Y-128122733D01*
X118176237Y-128025233D01*
X118267441Y-127997567D01*
X118374164Y-127965193D01*
X118451293Y-127957596D01*
X118528420Y-127950000D01*
X118631580Y-127950000D01*
X118708707Y-127957596D01*
X118708707Y-127957596D01*
G37*
G36*
X116168707Y-127957596D02*
X116245836Y-127965193D01*
X116352559Y-127997567D01*
X116443763Y-128025233D01*
X116626172Y-128122733D01*
X116786054Y-128253946D01*
X116917267Y-128413828D01*
X117014767Y-128596237D01*
X117014767Y-128596238D01*
X117074807Y-128794164D01*
X117095080Y-129000000D01*
X117074807Y-129205836D01*
X117046243Y-129300000D01*
X117014767Y-129403763D01*
X116917267Y-129586172D01*
X116786054Y-129746054D01*
X116626172Y-129877267D01*
X116443763Y-129974767D01*
X116377787Y-129994780D01*
X116245836Y-130034807D01*
X116168707Y-130042403D01*
X116091580Y-130050000D01*
X115988420Y-130050000D01*
X115911293Y-130042403D01*
X115834164Y-130034807D01*
X115702213Y-129994780D01*
X115636237Y-129974767D01*
X115453828Y-129877267D01*
X115293946Y-129746054D01*
X115162733Y-129586172D01*
X115065233Y-129403763D01*
X115033757Y-129300000D01*
X115005193Y-129205836D01*
X114984920Y-129000000D01*
X115005193Y-128794164D01*
X115065233Y-128596238D01*
X115065233Y-128596237D01*
X115162733Y-128413828D01*
X115293946Y-128253946D01*
X115453828Y-128122733D01*
X115636237Y-128025233D01*
X115727441Y-127997567D01*
X115834164Y-127965193D01*
X115911293Y-127957596D01*
X115988420Y-127950000D01*
X116091580Y-127950000D01*
X116168707Y-127957596D01*
X116168707Y-127957596D01*
G37*
G36*
X113628707Y-127957596D02*
X113705836Y-127965193D01*
X113812559Y-127997567D01*
X113903763Y-128025233D01*
X114086172Y-128122733D01*
X114246054Y-128253946D01*
X114377267Y-128413828D01*
X114474767Y-128596237D01*
X114474767Y-128596238D01*
X114534807Y-128794164D01*
X114555080Y-129000000D01*
X114534807Y-129205836D01*
X114506243Y-129300000D01*
X114474767Y-129403763D01*
X114377267Y-129586172D01*
X114246054Y-129746054D01*
X114086172Y-129877267D01*
X113903763Y-129974767D01*
X113837787Y-129994780D01*
X113705836Y-130034807D01*
X113628707Y-130042403D01*
X113551580Y-130050000D01*
X113448420Y-130050000D01*
X113371293Y-130042403D01*
X113294164Y-130034807D01*
X113162213Y-129994780D01*
X113096237Y-129974767D01*
X112913828Y-129877267D01*
X112753946Y-129746054D01*
X112622733Y-129586172D01*
X112525233Y-129403763D01*
X112493757Y-129300000D01*
X112465193Y-129205836D01*
X112444920Y-129000000D01*
X112465193Y-128794164D01*
X112525233Y-128596238D01*
X112525233Y-128596237D01*
X112622733Y-128413828D01*
X112753946Y-128253946D01*
X112913828Y-128122733D01*
X113096237Y-128025233D01*
X113187441Y-127997567D01*
X113294164Y-127965193D01*
X113371293Y-127957596D01*
X113448420Y-127950000D01*
X113551580Y-127950000D01*
X113628707Y-127957596D01*
X113628707Y-127957596D01*
G37*
G36*
X111088707Y-127957596D02*
X111165836Y-127965193D01*
X111272559Y-127997567D01*
X111363763Y-128025233D01*
X111546172Y-128122733D01*
X111706054Y-128253946D01*
X111837267Y-128413828D01*
X111934767Y-128596237D01*
X111934767Y-128596238D01*
X111994807Y-128794164D01*
X112015080Y-129000000D01*
X111994807Y-129205836D01*
X111966243Y-129300000D01*
X111934767Y-129403763D01*
X111837267Y-129586172D01*
X111706054Y-129746054D01*
X111546172Y-129877267D01*
X111363763Y-129974767D01*
X111297787Y-129994780D01*
X111165836Y-130034807D01*
X111088707Y-130042403D01*
X111011580Y-130050000D01*
X110908420Y-130050000D01*
X110831293Y-130042403D01*
X110754164Y-130034807D01*
X110622213Y-129994780D01*
X110556237Y-129974767D01*
X110373828Y-129877267D01*
X110213946Y-129746054D01*
X110082733Y-129586172D01*
X109985233Y-129403763D01*
X109953757Y-129300000D01*
X109925193Y-129205836D01*
X109904920Y-129000000D01*
X109925193Y-128794164D01*
X109985233Y-128596238D01*
X109985233Y-128596237D01*
X110082733Y-128413828D01*
X110213946Y-128253946D01*
X110373828Y-128122733D01*
X110556237Y-128025233D01*
X110647441Y-127997567D01*
X110754164Y-127965193D01*
X110831293Y-127957596D01*
X110908420Y-127950000D01*
X111011580Y-127950000D01*
X111088707Y-127957596D01*
X111088707Y-127957596D01*
G37*
G36*
X106008707Y-127957596D02*
X106085836Y-127965193D01*
X106192559Y-127997567D01*
X106283763Y-128025233D01*
X106466172Y-128122733D01*
X106626054Y-128253946D01*
X106757267Y-128413828D01*
X106854767Y-128596237D01*
X106854767Y-128596238D01*
X106914807Y-128794164D01*
X106935080Y-129000000D01*
X106914807Y-129205836D01*
X106886243Y-129300000D01*
X106854767Y-129403763D01*
X106757267Y-129586172D01*
X106626054Y-129746054D01*
X106466172Y-129877267D01*
X106283763Y-129974767D01*
X106217787Y-129994780D01*
X106085836Y-130034807D01*
X106008707Y-130042403D01*
X105931580Y-130050000D01*
X105828420Y-130050000D01*
X105751293Y-130042403D01*
X105674164Y-130034807D01*
X105542213Y-129994780D01*
X105476237Y-129974767D01*
X105293828Y-129877267D01*
X105133946Y-129746054D01*
X105002733Y-129586172D01*
X104905233Y-129403763D01*
X104873757Y-129300000D01*
X104845193Y-129205836D01*
X104824920Y-129000000D01*
X104845193Y-128794164D01*
X104905233Y-128596238D01*
X104905233Y-128596237D01*
X105002733Y-128413828D01*
X105133946Y-128253946D01*
X105293828Y-128122733D01*
X105476237Y-128025233D01*
X105567441Y-127997567D01*
X105674164Y-127965193D01*
X105751293Y-127957596D01*
X105828420Y-127950000D01*
X105931580Y-127950000D01*
X106008707Y-127957596D01*
X106008707Y-127957596D01*
G37*
G36*
X167556432Y-127613022D02*
X167726081Y-127664485D01*
X167882433Y-127748056D01*
X168019475Y-127860525D01*
X168131944Y-127997567D01*
X168215515Y-128153919D01*
X168266978Y-128323568D01*
X168284354Y-128500000D01*
X168266978Y-128676432D01*
X168215515Y-128846081D01*
X168131944Y-129002433D01*
X168019475Y-129139475D01*
X167882433Y-129251944D01*
X167726081Y-129335515D01*
X167556432Y-129386978D01*
X167424211Y-129400000D01*
X167335789Y-129400000D01*
X167203568Y-129386978D01*
X167033919Y-129335515D01*
X166877567Y-129251944D01*
X166740525Y-129139475D01*
X166628056Y-129002433D01*
X166544485Y-128846081D01*
X166493022Y-128676432D01*
X166475646Y-128500000D01*
X166493022Y-128323568D01*
X166544485Y-128153919D01*
X166628056Y-127997567D01*
X166740525Y-127860525D01*
X166877567Y-127748056D01*
X167033919Y-127664485D01*
X167203568Y-127613022D01*
X167335789Y-127600000D01*
X167424211Y-127600000D01*
X167556432Y-127613022D01*
X167556432Y-127613022D01*
G37*
G36*
X162562521Y-127634586D02*
X162726309Y-127702429D01*
X162873720Y-127800926D01*
X162999074Y-127926280D01*
X163097571Y-128073691D01*
X163165414Y-128237479D01*
X163200000Y-128411356D01*
X163200000Y-128588644D01*
X163165414Y-128762521D01*
X163097571Y-128926309D01*
X162999074Y-129073720D01*
X162873720Y-129199074D01*
X162726309Y-129297571D01*
X162562521Y-129365414D01*
X162388644Y-129400000D01*
X162211356Y-129400000D01*
X162037479Y-129365414D01*
X161873691Y-129297571D01*
X161726280Y-129199074D01*
X161600926Y-129073720D01*
X161502429Y-128926309D01*
X161434586Y-128762521D01*
X161400000Y-128588644D01*
X161400000Y-128411356D01*
X161434586Y-128237479D01*
X161502429Y-128073691D01*
X161600926Y-127926280D01*
X161726280Y-127800926D01*
X161873691Y-127702429D01*
X162037479Y-127634586D01*
X162211356Y-127600000D01*
X162388644Y-127600000D01*
X162562521Y-127634586D01*
X162562521Y-127634586D01*
G37*
G36*
X157656432Y-127513022D02*
X157826081Y-127564485D01*
X157982433Y-127648056D01*
X158119475Y-127760525D01*
X158231944Y-127897567D01*
X158315515Y-128053919D01*
X158366978Y-128223568D01*
X158384354Y-128400000D01*
X158366978Y-128576432D01*
X158315515Y-128746081D01*
X158231944Y-128902433D01*
X158119475Y-129039475D01*
X157982433Y-129151944D01*
X157826081Y-129235515D01*
X157656432Y-129286978D01*
X157524211Y-129300000D01*
X157435789Y-129300000D01*
X157303568Y-129286978D01*
X157133919Y-129235515D01*
X156977567Y-129151944D01*
X156840525Y-129039475D01*
X156728056Y-128902433D01*
X156644485Y-128746081D01*
X156593022Y-128576432D01*
X156575646Y-128400000D01*
X156593022Y-128223568D01*
X156644485Y-128053919D01*
X156728056Y-127897567D01*
X156840525Y-127760525D01*
X156977567Y-127648056D01*
X157133919Y-127564485D01*
X157303568Y-127513022D01*
X157435789Y-127500000D01*
X157524211Y-127500000D01*
X157656432Y-127513022D01*
X157656432Y-127513022D01*
G37*
G36*
X152662521Y-127534586D02*
X152826309Y-127602429D01*
X152973720Y-127700926D01*
X153099074Y-127826280D01*
X153197571Y-127973691D01*
X153265414Y-128137479D01*
X153300000Y-128311356D01*
X153300000Y-128488644D01*
X153265414Y-128662521D01*
X153197571Y-128826309D01*
X153099074Y-128973720D01*
X152973720Y-129099074D01*
X152826309Y-129197571D01*
X152662521Y-129265414D01*
X152488644Y-129300000D01*
X152311356Y-129300000D01*
X152137479Y-129265414D01*
X151973691Y-129197571D01*
X151826280Y-129099074D01*
X151700926Y-128973720D01*
X151602429Y-128826309D01*
X151534586Y-128662521D01*
X151500000Y-128488644D01*
X151500000Y-128311356D01*
X151534586Y-128137479D01*
X151602429Y-127973691D01*
X151700926Y-127826280D01*
X151826280Y-127700926D01*
X151973691Y-127602429D01*
X152137479Y-127534586D01*
X152311356Y-127500000D01*
X152488644Y-127500000D01*
X152662521Y-127534586D01*
X152662521Y-127534586D01*
G37*
G36*
X147756432Y-127513022D02*
X147926081Y-127564485D01*
X148082433Y-127648056D01*
X148219475Y-127760525D01*
X148331944Y-127897567D01*
X148415515Y-128053919D01*
X148466978Y-128223568D01*
X148484354Y-128400000D01*
X148466978Y-128576432D01*
X148415515Y-128746081D01*
X148331944Y-128902433D01*
X148219475Y-129039475D01*
X148082433Y-129151944D01*
X147926081Y-129235515D01*
X147756432Y-129286978D01*
X147624211Y-129300000D01*
X147535789Y-129300000D01*
X147403568Y-129286978D01*
X147233919Y-129235515D01*
X147077567Y-129151944D01*
X146940525Y-129039475D01*
X146828056Y-128902433D01*
X146744485Y-128746081D01*
X146693022Y-128576432D01*
X146675646Y-128400000D01*
X146693022Y-128223568D01*
X146744485Y-128053919D01*
X146828056Y-127897567D01*
X146940525Y-127760525D01*
X147077567Y-127648056D01*
X147233919Y-127564485D01*
X147403568Y-127513022D01*
X147535789Y-127500000D01*
X147624211Y-127500000D01*
X147756432Y-127513022D01*
X147756432Y-127513022D01*
G37*
G36*
X142762521Y-127534586D02*
X142926309Y-127602429D01*
X143073720Y-127700926D01*
X143199074Y-127826280D01*
X143297571Y-127973691D01*
X143365414Y-128137479D01*
X143400000Y-128311356D01*
X143400000Y-128488644D01*
X143365414Y-128662521D01*
X143297571Y-128826309D01*
X143199074Y-128973720D01*
X143073720Y-129099074D01*
X142926309Y-129197571D01*
X142762521Y-129265414D01*
X142588644Y-129300000D01*
X142411356Y-129300000D01*
X142237479Y-129265414D01*
X142073691Y-129197571D01*
X141926280Y-129099074D01*
X141800926Y-128973720D01*
X141702429Y-128826309D01*
X141634586Y-128662521D01*
X141600000Y-128488644D01*
X141600000Y-128311356D01*
X141634586Y-128137479D01*
X141702429Y-127973691D01*
X141800926Y-127826280D01*
X141926280Y-127700926D01*
X142073691Y-127602429D01*
X142237479Y-127534586D01*
X142411356Y-127500000D01*
X142588644Y-127500000D01*
X142762521Y-127534586D01*
X142762521Y-127534586D01*
G37*
G36*
X132762521Y-127534586D02*
X132926309Y-127602429D01*
X133073720Y-127700926D01*
X133199074Y-127826280D01*
X133297571Y-127973691D01*
X133365414Y-128137479D01*
X133400000Y-128311356D01*
X133400000Y-128488644D01*
X133365414Y-128662521D01*
X133297571Y-128826309D01*
X133199074Y-128973720D01*
X133073720Y-129099074D01*
X132926309Y-129197571D01*
X132762521Y-129265414D01*
X132588644Y-129300000D01*
X132411356Y-129300000D01*
X132237479Y-129265414D01*
X132073691Y-129197571D01*
X131926280Y-129099074D01*
X131800926Y-128973720D01*
X131702429Y-128826309D01*
X131634586Y-128662521D01*
X131600000Y-128488644D01*
X131600000Y-128311356D01*
X131634586Y-128137479D01*
X131702429Y-127973691D01*
X131800926Y-127826280D01*
X131926280Y-127700926D01*
X132073691Y-127602429D01*
X132237479Y-127534586D01*
X132411356Y-127500000D01*
X132588644Y-127500000D01*
X132762521Y-127534586D01*
X132762521Y-127534586D01*
G37*
G36*
X137756432Y-127513022D02*
X137926081Y-127564485D01*
X138082433Y-127648056D01*
X138219475Y-127760525D01*
X138331944Y-127897567D01*
X138415515Y-128053919D01*
X138466978Y-128223568D01*
X138484354Y-128400000D01*
X138466978Y-128576432D01*
X138415515Y-128746081D01*
X138331944Y-128902433D01*
X138219475Y-129039475D01*
X138082433Y-129151944D01*
X137926081Y-129235515D01*
X137756432Y-129286978D01*
X137624211Y-129300000D01*
X137535789Y-129300000D01*
X137403568Y-129286978D01*
X137233919Y-129235515D01*
X137077567Y-129151944D01*
X136940525Y-129039475D01*
X136828056Y-128902433D01*
X136744485Y-128746081D01*
X136693022Y-128576432D01*
X136675646Y-128400000D01*
X136693022Y-128223568D01*
X136744485Y-128053919D01*
X136828056Y-127897567D01*
X136940525Y-127760525D01*
X137077567Y-127648056D01*
X137233919Y-127564485D01*
X137403568Y-127513022D01*
X137535789Y-127500000D01*
X137624211Y-127500000D01*
X137756432Y-127513022D01*
X137756432Y-127513022D01*
G37*
G36*
X102317649Y-117207717D02*
X102356827Y-117211576D01*
X102432227Y-117234448D01*
X102507629Y-117257321D01*
X102646608Y-117331608D01*
X102768422Y-117431578D01*
X102868392Y-117553392D01*
X102942679Y-117692371D01*
X102988424Y-117843174D01*
X103003870Y-118000000D01*
X102988424Y-118156826D01*
X102942679Y-118307629D01*
X102868392Y-118446608D01*
X102768422Y-118568422D01*
X102646608Y-118668392D01*
X102507629Y-118742679D01*
X102432228Y-118765551D01*
X102356827Y-118788424D01*
X102317649Y-118792283D01*
X102239295Y-118800000D01*
X101360705Y-118800000D01*
X101282351Y-118792283D01*
X101243173Y-118788424D01*
X101167772Y-118765551D01*
X101092371Y-118742679D01*
X100953392Y-118668392D01*
X100831578Y-118568422D01*
X100731608Y-118446608D01*
X100657321Y-118307629D01*
X100611576Y-118156826D01*
X100596130Y-118000000D01*
X100611576Y-117843174D01*
X100657321Y-117692371D01*
X100731608Y-117553392D01*
X100831578Y-117431578D01*
X100953392Y-117331608D01*
X101092371Y-117257321D01*
X101167773Y-117234448D01*
X101243173Y-117211576D01*
X101282351Y-117207717D01*
X101360705Y-117200000D01*
X102239295Y-117200000D01*
X102317649Y-117207717D01*
X102317649Y-117207717D01*
G37*
G36*
X198817649Y-117207717D02*
X198856827Y-117211576D01*
X198932227Y-117234448D01*
X199007629Y-117257321D01*
X199146608Y-117331608D01*
X199268422Y-117431578D01*
X199368392Y-117553392D01*
X199442679Y-117692371D01*
X199488424Y-117843174D01*
X199503870Y-118000000D01*
X199488424Y-118156826D01*
X199442679Y-118307629D01*
X199368392Y-118446608D01*
X199268422Y-118568422D01*
X199146608Y-118668392D01*
X199007629Y-118742679D01*
X198932228Y-118765551D01*
X198856827Y-118788424D01*
X198817649Y-118792283D01*
X198739295Y-118800000D01*
X197860705Y-118800000D01*
X197782351Y-118792283D01*
X197743173Y-118788424D01*
X197667772Y-118765551D01*
X197592371Y-118742679D01*
X197453392Y-118668392D01*
X197331578Y-118568422D01*
X197231608Y-118446608D01*
X197157321Y-118307629D01*
X197111576Y-118156826D01*
X197096130Y-118000000D01*
X197111576Y-117843174D01*
X197157321Y-117692371D01*
X197231608Y-117553392D01*
X197331578Y-117431578D01*
X197453392Y-117331608D01*
X197592371Y-117257321D01*
X197667773Y-117234448D01*
X197743173Y-117211576D01*
X197782351Y-117207717D01*
X197860705Y-117200000D01*
X198739295Y-117200000D01*
X198817649Y-117207717D01*
X198817649Y-117207717D01*
G37*
G36*
X193817649Y-115957717D02*
X193856827Y-115961576D01*
X193932227Y-115984448D01*
X194007629Y-116007321D01*
X194146608Y-116081608D01*
X194268422Y-116181578D01*
X194368392Y-116303392D01*
X194442679Y-116442371D01*
X194488424Y-116593174D01*
X194503870Y-116750000D01*
X194488424Y-116906826D01*
X194442679Y-117057629D01*
X194368392Y-117196608D01*
X194268422Y-117318422D01*
X194146608Y-117418392D01*
X194007629Y-117492679D01*
X193932227Y-117515552D01*
X193856827Y-117538424D01*
X193817649Y-117542283D01*
X193739295Y-117550000D01*
X192860705Y-117550000D01*
X192782351Y-117542283D01*
X192743173Y-117538424D01*
X192667773Y-117515552D01*
X192592371Y-117492679D01*
X192453392Y-117418392D01*
X192331578Y-117318422D01*
X192231608Y-117196608D01*
X192157321Y-117057629D01*
X192111576Y-116906826D01*
X192096130Y-116750000D01*
X192111576Y-116593174D01*
X192157321Y-116442371D01*
X192231608Y-116303392D01*
X192331578Y-116181578D01*
X192453392Y-116081608D01*
X192592371Y-116007321D01*
X192667773Y-115984448D01*
X192743173Y-115961576D01*
X192782351Y-115957717D01*
X192860705Y-115950000D01*
X193739295Y-115950000D01*
X193817649Y-115957717D01*
X193817649Y-115957717D01*
G37*
G36*
X107317649Y-115957717D02*
X107356827Y-115961576D01*
X107432227Y-115984448D01*
X107507629Y-116007321D01*
X107646608Y-116081608D01*
X107768422Y-116181578D01*
X107868392Y-116303392D01*
X107942679Y-116442371D01*
X107988424Y-116593174D01*
X108003870Y-116750000D01*
X107988424Y-116906826D01*
X107942679Y-117057629D01*
X107868392Y-117196608D01*
X107768422Y-117318422D01*
X107646608Y-117418392D01*
X107507629Y-117492679D01*
X107432227Y-117515552D01*
X107356827Y-117538424D01*
X107317649Y-117542283D01*
X107239295Y-117550000D01*
X106360705Y-117550000D01*
X106282351Y-117542283D01*
X106243173Y-117538424D01*
X106167773Y-117515552D01*
X106092371Y-117492679D01*
X105953392Y-117418392D01*
X105831578Y-117318422D01*
X105731608Y-117196608D01*
X105657321Y-117057629D01*
X105611576Y-116906826D01*
X105596130Y-116750000D01*
X105611576Y-116593174D01*
X105657321Y-116442371D01*
X105731608Y-116303392D01*
X105831578Y-116181578D01*
X105953392Y-116081608D01*
X106092371Y-116007321D01*
X106167773Y-115984448D01*
X106243173Y-115961576D01*
X106282351Y-115957717D01*
X106360705Y-115950000D01*
X107239295Y-115950000D01*
X107317649Y-115957717D01*
X107317649Y-115957717D01*
G37*
G36*
X102317649Y-114707717D02*
X102356827Y-114711576D01*
X102432228Y-114734449D01*
X102507629Y-114757321D01*
X102646608Y-114831608D01*
X102768422Y-114931578D01*
X102868392Y-115053392D01*
X102942679Y-115192371D01*
X102988424Y-115343174D01*
X103003870Y-115500000D01*
X102988424Y-115656826D01*
X102942679Y-115807629D01*
X102868392Y-115946608D01*
X102768422Y-116068422D01*
X102646608Y-116168392D01*
X102507629Y-116242679D01*
X102432228Y-116265551D01*
X102356827Y-116288424D01*
X102317649Y-116292283D01*
X102239295Y-116300000D01*
X101360705Y-116300000D01*
X101282351Y-116292283D01*
X101243173Y-116288424D01*
X101167772Y-116265551D01*
X101092371Y-116242679D01*
X100953392Y-116168392D01*
X100831578Y-116068422D01*
X100731608Y-115946608D01*
X100657321Y-115807629D01*
X100611576Y-115656826D01*
X100596130Y-115500000D01*
X100611576Y-115343174D01*
X100657321Y-115192371D01*
X100731608Y-115053392D01*
X100831578Y-114931578D01*
X100953392Y-114831608D01*
X101092371Y-114757321D01*
X101167772Y-114734449D01*
X101243173Y-114711576D01*
X101282351Y-114707717D01*
X101360705Y-114700000D01*
X102239295Y-114700000D01*
X102317649Y-114707717D01*
X102317649Y-114707717D01*
G37*
G36*
X198817649Y-114707717D02*
X198856827Y-114711576D01*
X198932228Y-114734449D01*
X199007629Y-114757321D01*
X199146608Y-114831608D01*
X199268422Y-114931578D01*
X199368392Y-115053392D01*
X199442679Y-115192371D01*
X199488424Y-115343174D01*
X199503870Y-115500000D01*
X199488424Y-115656826D01*
X199442679Y-115807629D01*
X199368392Y-115946608D01*
X199268422Y-116068422D01*
X199146608Y-116168392D01*
X199007629Y-116242679D01*
X198932227Y-116265552D01*
X198856827Y-116288424D01*
X198817649Y-116292283D01*
X198739295Y-116300000D01*
X197860705Y-116300000D01*
X197782351Y-116292283D01*
X197743173Y-116288424D01*
X197667772Y-116265551D01*
X197592371Y-116242679D01*
X197453392Y-116168392D01*
X197331578Y-116068422D01*
X197231608Y-115946608D01*
X197157321Y-115807629D01*
X197111576Y-115656826D01*
X197096130Y-115500000D01*
X197111576Y-115343174D01*
X197157321Y-115192371D01*
X197231608Y-115053392D01*
X197331578Y-114931578D01*
X197453392Y-114831608D01*
X197592371Y-114757321D01*
X197667773Y-114734448D01*
X197743173Y-114711576D01*
X197782351Y-114707717D01*
X197860705Y-114700000D01*
X198739295Y-114700000D01*
X198817649Y-114707717D01*
X198817649Y-114707717D01*
G37*
G36*
X107317649Y-113457717D02*
X107356827Y-113461576D01*
X107432227Y-113484448D01*
X107507629Y-113507321D01*
X107646608Y-113581608D01*
X107768422Y-113681578D01*
X107868392Y-113803392D01*
X107942679Y-113942371D01*
X107988424Y-114093174D01*
X108003870Y-114250000D01*
X107988424Y-114406826D01*
X107942679Y-114557629D01*
X107868392Y-114696608D01*
X107768422Y-114818422D01*
X107646608Y-114918392D01*
X107507629Y-114992679D01*
X107432227Y-115015552D01*
X107356827Y-115038424D01*
X107317649Y-115042283D01*
X107239295Y-115050000D01*
X106360705Y-115050000D01*
X106282351Y-115042283D01*
X106243173Y-115038424D01*
X106167773Y-115015552D01*
X106092371Y-114992679D01*
X105953392Y-114918392D01*
X105831578Y-114818422D01*
X105731608Y-114696608D01*
X105657321Y-114557629D01*
X105611576Y-114406826D01*
X105596130Y-114250000D01*
X105611576Y-114093174D01*
X105657321Y-113942371D01*
X105731608Y-113803392D01*
X105831578Y-113681578D01*
X105953392Y-113581608D01*
X106092371Y-113507321D01*
X106167773Y-113484448D01*
X106243173Y-113461576D01*
X106282351Y-113457717D01*
X106360705Y-113450000D01*
X107239295Y-113450000D01*
X107317649Y-113457717D01*
X107317649Y-113457717D01*
G37*
G36*
X193817649Y-113457717D02*
X193856827Y-113461576D01*
X193932227Y-113484448D01*
X194007629Y-113507321D01*
X194146608Y-113581608D01*
X194268422Y-113681578D01*
X194368392Y-113803392D01*
X194442679Y-113942371D01*
X194488424Y-114093174D01*
X194503870Y-114250000D01*
X194488424Y-114406826D01*
X194442679Y-114557629D01*
X194368392Y-114696608D01*
X194268422Y-114818422D01*
X194146608Y-114918392D01*
X194007629Y-114992679D01*
X193932228Y-115015551D01*
X193856827Y-115038424D01*
X193817649Y-115042283D01*
X193739295Y-115050000D01*
X192860705Y-115050000D01*
X192782351Y-115042283D01*
X192743173Y-115038424D01*
X192667773Y-115015552D01*
X192592371Y-114992679D01*
X192453392Y-114918392D01*
X192331578Y-114818422D01*
X192231608Y-114696608D01*
X192157321Y-114557629D01*
X192111576Y-114406826D01*
X192096130Y-114250000D01*
X192111576Y-114093174D01*
X192157321Y-113942371D01*
X192231608Y-113803392D01*
X192331578Y-113681578D01*
X192453392Y-113581608D01*
X192592371Y-113507321D01*
X192667773Y-113484448D01*
X192743173Y-113461576D01*
X192782351Y-113457717D01*
X192860705Y-113450000D01*
X193739295Y-113450000D01*
X193817649Y-113457717D01*
X193817649Y-113457717D01*
G37*
G36*
X102317649Y-112207717D02*
X102356827Y-112211576D01*
X102432228Y-112234449D01*
X102507629Y-112257321D01*
X102646608Y-112331608D01*
X102768422Y-112431578D01*
X102868392Y-112553392D01*
X102942679Y-112692371D01*
X102988424Y-112843174D01*
X103003870Y-113000000D01*
X102988424Y-113156826D01*
X102942679Y-113307629D01*
X102868392Y-113446608D01*
X102768422Y-113568422D01*
X102646608Y-113668392D01*
X102507629Y-113742679D01*
X102432228Y-113765551D01*
X102356827Y-113788424D01*
X102317649Y-113792283D01*
X102239295Y-113800000D01*
X101360705Y-113800000D01*
X101282351Y-113792283D01*
X101243173Y-113788424D01*
X101167772Y-113765551D01*
X101092371Y-113742679D01*
X100953392Y-113668392D01*
X100831578Y-113568422D01*
X100731608Y-113446608D01*
X100657321Y-113307629D01*
X100611576Y-113156826D01*
X100596130Y-113000000D01*
X100611576Y-112843174D01*
X100657321Y-112692371D01*
X100731608Y-112553392D01*
X100831578Y-112431578D01*
X100953392Y-112331608D01*
X101092371Y-112257321D01*
X101167772Y-112234449D01*
X101243173Y-112211576D01*
X101282351Y-112207717D01*
X101360705Y-112200000D01*
X102239295Y-112200000D01*
X102317649Y-112207717D01*
X102317649Y-112207717D01*
G37*
G36*
X198817649Y-112207717D02*
X198856827Y-112211576D01*
X198932228Y-112234449D01*
X199007629Y-112257321D01*
X199146608Y-112331608D01*
X199268422Y-112431578D01*
X199368392Y-112553392D01*
X199442679Y-112692371D01*
X199488424Y-112843174D01*
X199503870Y-113000000D01*
X199488424Y-113156826D01*
X199442679Y-113307629D01*
X199368392Y-113446608D01*
X199268422Y-113568422D01*
X199146608Y-113668392D01*
X199007629Y-113742679D01*
X198932228Y-113765551D01*
X198856827Y-113788424D01*
X198817649Y-113792283D01*
X198739295Y-113800000D01*
X197860705Y-113800000D01*
X197782351Y-113792283D01*
X197743173Y-113788424D01*
X197667772Y-113765551D01*
X197592371Y-113742679D01*
X197453392Y-113668392D01*
X197331578Y-113568422D01*
X197231608Y-113446608D01*
X197157321Y-113307629D01*
X197111576Y-113156826D01*
X197096130Y-113000000D01*
X197111576Y-112843174D01*
X197157321Y-112692371D01*
X197231608Y-112553392D01*
X197331578Y-112431578D01*
X197453392Y-112331608D01*
X197592371Y-112257321D01*
X197667772Y-112234449D01*
X197743173Y-112211576D01*
X197782351Y-112207717D01*
X197860705Y-112200000D01*
X198739295Y-112200000D01*
X198817649Y-112207717D01*
X198817649Y-112207717D01*
G37*
G36*
X193817649Y-110957717D02*
X193856827Y-110961576D01*
X193932227Y-110984448D01*
X194007629Y-111007321D01*
X194146608Y-111081608D01*
X194268422Y-111181578D01*
X194368392Y-111303392D01*
X194442679Y-111442371D01*
X194488424Y-111593174D01*
X194503870Y-111750000D01*
X194488424Y-111906826D01*
X194442679Y-112057629D01*
X194368392Y-112196608D01*
X194268422Y-112318422D01*
X194146608Y-112418392D01*
X194007629Y-112492679D01*
X193932228Y-112515551D01*
X193856827Y-112538424D01*
X193817649Y-112542283D01*
X193739295Y-112550000D01*
X192860705Y-112550000D01*
X192782351Y-112542283D01*
X192743173Y-112538424D01*
X192667773Y-112515552D01*
X192592371Y-112492679D01*
X192453392Y-112418392D01*
X192331578Y-112318422D01*
X192231608Y-112196608D01*
X192157321Y-112057629D01*
X192111576Y-111906826D01*
X192096130Y-111750000D01*
X192111576Y-111593174D01*
X192157321Y-111442371D01*
X192231608Y-111303392D01*
X192331578Y-111181578D01*
X192453392Y-111081608D01*
X192592371Y-111007321D01*
X192667773Y-110984448D01*
X192743173Y-110961576D01*
X192782351Y-110957717D01*
X192860705Y-110950000D01*
X193739295Y-110950000D01*
X193817649Y-110957717D01*
X193817649Y-110957717D01*
G37*
G36*
X107317649Y-110957717D02*
X107356827Y-110961576D01*
X107432227Y-110984448D01*
X107507629Y-111007321D01*
X107646608Y-111081608D01*
X107768422Y-111181578D01*
X107868392Y-111303392D01*
X107942679Y-111442371D01*
X107988424Y-111593174D01*
X108003870Y-111750000D01*
X107988424Y-111906826D01*
X107942679Y-112057629D01*
X107868392Y-112196608D01*
X107768422Y-112318422D01*
X107646608Y-112418392D01*
X107507629Y-112492679D01*
X107432227Y-112515552D01*
X107356827Y-112538424D01*
X107317649Y-112542283D01*
X107239295Y-112550000D01*
X106360705Y-112550000D01*
X106282351Y-112542283D01*
X106243173Y-112538424D01*
X106167773Y-112515552D01*
X106092371Y-112492679D01*
X105953392Y-112418392D01*
X105831578Y-112318422D01*
X105731608Y-112196608D01*
X105657321Y-112057629D01*
X105611576Y-111906826D01*
X105596130Y-111750000D01*
X105611576Y-111593174D01*
X105657321Y-111442371D01*
X105731608Y-111303392D01*
X105831578Y-111181578D01*
X105953392Y-111081608D01*
X106092371Y-111007321D01*
X106167773Y-110984448D01*
X106243173Y-110961576D01*
X106282351Y-110957717D01*
X106360705Y-110950000D01*
X107239295Y-110950000D01*
X107317649Y-110957717D01*
X107317649Y-110957717D01*
G37*
G36*
X102317649Y-109707717D02*
X102356827Y-109711576D01*
X102432228Y-109734449D01*
X102507629Y-109757321D01*
X102646608Y-109831608D01*
X102768422Y-109931578D01*
X102868392Y-110053392D01*
X102942679Y-110192371D01*
X102988424Y-110343174D01*
X103003870Y-110500000D01*
X102988424Y-110656826D01*
X102942679Y-110807629D01*
X102868392Y-110946608D01*
X102768422Y-111068422D01*
X102646608Y-111168392D01*
X102507629Y-111242679D01*
X102432227Y-111265552D01*
X102356827Y-111288424D01*
X102317649Y-111292283D01*
X102239295Y-111300000D01*
X101360705Y-111300000D01*
X101282351Y-111292283D01*
X101243173Y-111288424D01*
X101167773Y-111265552D01*
X101092371Y-111242679D01*
X100953392Y-111168392D01*
X100831578Y-111068422D01*
X100731608Y-110946608D01*
X100657321Y-110807629D01*
X100611576Y-110656826D01*
X100596130Y-110500000D01*
X100611576Y-110343174D01*
X100657321Y-110192371D01*
X100731608Y-110053392D01*
X100831578Y-109931578D01*
X100953392Y-109831608D01*
X101092371Y-109757321D01*
X101167772Y-109734449D01*
X101243173Y-109711576D01*
X101282351Y-109707717D01*
X101360705Y-109700000D01*
X102239295Y-109700000D01*
X102317649Y-109707717D01*
X102317649Y-109707717D01*
G37*
G36*
X198817649Y-109707717D02*
X198856827Y-109711576D01*
X198932228Y-109734449D01*
X199007629Y-109757321D01*
X199146608Y-109831608D01*
X199268422Y-109931578D01*
X199368392Y-110053392D01*
X199442679Y-110192371D01*
X199488424Y-110343174D01*
X199503870Y-110500000D01*
X199488424Y-110656826D01*
X199442679Y-110807629D01*
X199368392Y-110946608D01*
X199268422Y-111068422D01*
X199146608Y-111168392D01*
X199007629Y-111242679D01*
X198932228Y-111265551D01*
X198856827Y-111288424D01*
X198817649Y-111292283D01*
X198739295Y-111300000D01*
X197860705Y-111300000D01*
X197782351Y-111292283D01*
X197743173Y-111288424D01*
X197667773Y-111265552D01*
X197592371Y-111242679D01*
X197453392Y-111168392D01*
X197331578Y-111068422D01*
X197231608Y-110946608D01*
X197157321Y-110807629D01*
X197111576Y-110656826D01*
X197096130Y-110500000D01*
X197111576Y-110343174D01*
X197157321Y-110192371D01*
X197231608Y-110053392D01*
X197331578Y-109931578D01*
X197453392Y-109831608D01*
X197592371Y-109757321D01*
X197667772Y-109734449D01*
X197743173Y-109711576D01*
X197782351Y-109707717D01*
X197860705Y-109700000D01*
X198739295Y-109700000D01*
X198817649Y-109707717D01*
X198817649Y-109707717D01*
G37*
G36*
X193817649Y-108457717D02*
X193856827Y-108461576D01*
X193932227Y-108484448D01*
X194007629Y-108507321D01*
X194146608Y-108581608D01*
X194268422Y-108681578D01*
X194368392Y-108803392D01*
X194442679Y-108942371D01*
X194488424Y-109093174D01*
X194503870Y-109250000D01*
X194488424Y-109406826D01*
X194442679Y-109557629D01*
X194368392Y-109696608D01*
X194268422Y-109818422D01*
X194146608Y-109918392D01*
X194007629Y-109992679D01*
X193932227Y-110015552D01*
X193856827Y-110038424D01*
X193817649Y-110042283D01*
X193739295Y-110050000D01*
X192860705Y-110050000D01*
X192782351Y-110042283D01*
X192743173Y-110038424D01*
X192667772Y-110015551D01*
X192592371Y-109992679D01*
X192453392Y-109918392D01*
X192331578Y-109818422D01*
X192231608Y-109696608D01*
X192157321Y-109557629D01*
X192111576Y-109406826D01*
X192096130Y-109250000D01*
X192111576Y-109093174D01*
X192157321Y-108942371D01*
X192231608Y-108803392D01*
X192331578Y-108681578D01*
X192453392Y-108581608D01*
X192592371Y-108507321D01*
X192667773Y-108484448D01*
X192743173Y-108461576D01*
X192782351Y-108457717D01*
X192860705Y-108450000D01*
X193739295Y-108450000D01*
X193817649Y-108457717D01*
X193817649Y-108457717D01*
G37*
G36*
X107317649Y-108457717D02*
X107356827Y-108461576D01*
X107432227Y-108484448D01*
X107507629Y-108507321D01*
X107646608Y-108581608D01*
X107768422Y-108681578D01*
X107868392Y-108803392D01*
X107942679Y-108942371D01*
X107988424Y-109093174D01*
X108003870Y-109250000D01*
X107988424Y-109406826D01*
X107942679Y-109557629D01*
X107868392Y-109696608D01*
X107768422Y-109818422D01*
X107646608Y-109918392D01*
X107507629Y-109992679D01*
X107432228Y-110015551D01*
X107356827Y-110038424D01*
X107317649Y-110042283D01*
X107239295Y-110050000D01*
X106360705Y-110050000D01*
X106282351Y-110042283D01*
X106243173Y-110038424D01*
X106167772Y-110015551D01*
X106092371Y-109992679D01*
X105953392Y-109918392D01*
X105831578Y-109818422D01*
X105731608Y-109696608D01*
X105657321Y-109557629D01*
X105611576Y-109406826D01*
X105596130Y-109250000D01*
X105611576Y-109093174D01*
X105657321Y-108942371D01*
X105731608Y-108803392D01*
X105831578Y-108681578D01*
X105953392Y-108581608D01*
X106092371Y-108507321D01*
X106167773Y-108484448D01*
X106243173Y-108461576D01*
X106282351Y-108457717D01*
X106360705Y-108450000D01*
X107239295Y-108450000D01*
X107317649Y-108457717D01*
X107317649Y-108457717D01*
G37*
G36*
X198817649Y-107207717D02*
X198856827Y-107211576D01*
X198932228Y-107234449D01*
X199007629Y-107257321D01*
X199146608Y-107331608D01*
X199268422Y-107431578D01*
X199368392Y-107553392D01*
X199442679Y-107692371D01*
X199442679Y-107692372D01*
X199483022Y-107825364D01*
X199488424Y-107843174D01*
X199503870Y-108000000D01*
X199488424Y-108156826D01*
X199442679Y-108307629D01*
X199368392Y-108446608D01*
X199268422Y-108568422D01*
X199146608Y-108668392D01*
X199007629Y-108742679D01*
X198932227Y-108765552D01*
X198856827Y-108788424D01*
X198817649Y-108792283D01*
X198739295Y-108800000D01*
X197860705Y-108800000D01*
X197782351Y-108792283D01*
X197743173Y-108788424D01*
X197667772Y-108765551D01*
X197592371Y-108742679D01*
X197453392Y-108668392D01*
X197331578Y-108568422D01*
X197231608Y-108446608D01*
X197157321Y-108307629D01*
X197111576Y-108156826D01*
X197096130Y-108000000D01*
X197111576Y-107843174D01*
X197116979Y-107825364D01*
X197157321Y-107692372D01*
X197157321Y-107692371D01*
X197231608Y-107553392D01*
X197331578Y-107431578D01*
X197453392Y-107331608D01*
X197592371Y-107257321D01*
X197667773Y-107234448D01*
X197743173Y-107211576D01*
X197782351Y-107207717D01*
X197860705Y-107200000D01*
X198739295Y-107200000D01*
X198817649Y-107207717D01*
X198817649Y-107207717D01*
G37*
G36*
X102317649Y-107207717D02*
X102356827Y-107211576D01*
X102432228Y-107234449D01*
X102507629Y-107257321D01*
X102646608Y-107331608D01*
X102768422Y-107431578D01*
X102868392Y-107553392D01*
X102942679Y-107692371D01*
X102942679Y-107692372D01*
X102983022Y-107825364D01*
X102988424Y-107843174D01*
X103003870Y-108000000D01*
X102988424Y-108156826D01*
X102942679Y-108307629D01*
X102868392Y-108446608D01*
X102768422Y-108568422D01*
X102646608Y-108668392D01*
X102507629Y-108742679D01*
X102432228Y-108765551D01*
X102356827Y-108788424D01*
X102317649Y-108792283D01*
X102239295Y-108800000D01*
X101360705Y-108800000D01*
X101282351Y-108792283D01*
X101243173Y-108788424D01*
X101167772Y-108765551D01*
X101092371Y-108742679D01*
X100953392Y-108668392D01*
X100831578Y-108568422D01*
X100731608Y-108446608D01*
X100657321Y-108307629D01*
X100611576Y-108156826D01*
X100596130Y-108000000D01*
X100611576Y-107843174D01*
X100616979Y-107825364D01*
X100657321Y-107692372D01*
X100657321Y-107692371D01*
X100731608Y-107553392D01*
X100831578Y-107431578D01*
X100953392Y-107331608D01*
X101092371Y-107257321D01*
X101167772Y-107234449D01*
X101243173Y-107211576D01*
X101282351Y-107207717D01*
X101360705Y-107200000D01*
X102239295Y-107200000D01*
X102317649Y-107207717D01*
X102317649Y-107207717D01*
G37*
G36*
X150323918Y-103668392D02*
X150685470Y-103740309D01*
X151113143Y-103917457D01*
X151498038Y-104174636D01*
X151825364Y-104501962D01*
X152082543Y-104886857D01*
X152259691Y-105314530D01*
X152296583Y-105500000D01*
X152350000Y-105768544D01*
X152350000Y-106231456D01*
X152327423Y-106344959D01*
X152259691Y-106685470D01*
X152082543Y-107113143D01*
X151825364Y-107498038D01*
X151498038Y-107825364D01*
X151113143Y-108082543D01*
X150685470Y-108259691D01*
X150344959Y-108327423D01*
X150231456Y-108350000D01*
X149768544Y-108350000D01*
X149655041Y-108327423D01*
X149314530Y-108259691D01*
X148886857Y-108082543D01*
X148501962Y-107825364D01*
X148174636Y-107498038D01*
X147917457Y-107113143D01*
X147740309Y-106685470D01*
X147672577Y-106344959D01*
X147650000Y-106231456D01*
X147650000Y-105768544D01*
X147703417Y-105500000D01*
X147740309Y-105314530D01*
X147917457Y-104886857D01*
X148174636Y-104501962D01*
X148501962Y-104174636D01*
X148886857Y-103917457D01*
X149314530Y-103740309D01*
X149676082Y-103668392D01*
X149768544Y-103650000D01*
X150231456Y-103650000D01*
X150323918Y-103668392D01*
X150323918Y-103668392D01*
G37*
G36*
X193817649Y-105957717D02*
X193856827Y-105961576D01*
X193932227Y-105984448D01*
X194007629Y-106007321D01*
X194146608Y-106081608D01*
X194268422Y-106181578D01*
X194368392Y-106303392D01*
X194442679Y-106442371D01*
X194488424Y-106593174D01*
X194503870Y-106750000D01*
X194488424Y-106906826D01*
X194442679Y-107057629D01*
X194368392Y-107196608D01*
X194268422Y-107318422D01*
X194146608Y-107418392D01*
X194007629Y-107492679D01*
X193932227Y-107515552D01*
X193856827Y-107538424D01*
X193817649Y-107542283D01*
X193739295Y-107550000D01*
X192860705Y-107550000D01*
X192782351Y-107542283D01*
X192743173Y-107538424D01*
X192667772Y-107515551D01*
X192592371Y-107492679D01*
X192453392Y-107418392D01*
X192331578Y-107318422D01*
X192231608Y-107196608D01*
X192157321Y-107057629D01*
X192111576Y-106906826D01*
X192096130Y-106750000D01*
X192111576Y-106593174D01*
X192157321Y-106442371D01*
X192231608Y-106303392D01*
X192331578Y-106181578D01*
X192453392Y-106081608D01*
X192592371Y-106007321D01*
X192667773Y-105984448D01*
X192743173Y-105961576D01*
X192782351Y-105957717D01*
X192860705Y-105950000D01*
X193739295Y-105950000D01*
X193817649Y-105957717D01*
X193817649Y-105957717D01*
G37*
G36*
X107317649Y-105957717D02*
X107356827Y-105961576D01*
X107432227Y-105984448D01*
X107507629Y-106007321D01*
X107646608Y-106081608D01*
X107768422Y-106181578D01*
X107868392Y-106303392D01*
X107942679Y-106442371D01*
X107988424Y-106593174D01*
X108003870Y-106750000D01*
X107988424Y-106906826D01*
X107942679Y-107057629D01*
X107868392Y-107196608D01*
X107768422Y-107318422D01*
X107646608Y-107418392D01*
X107507629Y-107492679D01*
X107432228Y-107515551D01*
X107356827Y-107538424D01*
X107317649Y-107542283D01*
X107239295Y-107550000D01*
X106360705Y-107550000D01*
X106282351Y-107542283D01*
X106243173Y-107538424D01*
X106167772Y-107515551D01*
X106092371Y-107492679D01*
X105953392Y-107418392D01*
X105831578Y-107318422D01*
X105731608Y-107196608D01*
X105657321Y-107057629D01*
X105611576Y-106906826D01*
X105596130Y-106750000D01*
X105611576Y-106593174D01*
X105657321Y-106442371D01*
X105731608Y-106303392D01*
X105831578Y-106181578D01*
X105953392Y-106081608D01*
X106092371Y-106007321D01*
X106167773Y-105984448D01*
X106243173Y-105961576D01*
X106282351Y-105957717D01*
X106360705Y-105950000D01*
X107239295Y-105950000D01*
X107317649Y-105957717D01*
X107317649Y-105957717D01*
G37*
G36*
X198817649Y-104707717D02*
X198856827Y-104711576D01*
X198932227Y-104734448D01*
X199007629Y-104757321D01*
X199146608Y-104831608D01*
X199268422Y-104931578D01*
X199368392Y-105053392D01*
X199442679Y-105192371D01*
X199488424Y-105343174D01*
X199503870Y-105500000D01*
X199488424Y-105656826D01*
X199442679Y-105807629D01*
X199368392Y-105946608D01*
X199268422Y-106068422D01*
X199146608Y-106168392D01*
X199007629Y-106242679D01*
X198932227Y-106265552D01*
X198856827Y-106288424D01*
X198817649Y-106292283D01*
X198739295Y-106300000D01*
X197860705Y-106300000D01*
X197782351Y-106292283D01*
X197743173Y-106288424D01*
X197667772Y-106265551D01*
X197592371Y-106242679D01*
X197453392Y-106168392D01*
X197331578Y-106068422D01*
X197231608Y-105946608D01*
X197157321Y-105807629D01*
X197111576Y-105656826D01*
X197096130Y-105500000D01*
X197111576Y-105343174D01*
X197157321Y-105192371D01*
X197231608Y-105053392D01*
X197331578Y-104931578D01*
X197453392Y-104831608D01*
X197592371Y-104757321D01*
X197667773Y-104734448D01*
X197743173Y-104711576D01*
X197782351Y-104707717D01*
X197860705Y-104700000D01*
X198739295Y-104700000D01*
X198817649Y-104707717D01*
X198817649Y-104707717D01*
G37*
G36*
X102317649Y-104707717D02*
X102356827Y-104711576D01*
X102432227Y-104734448D01*
X102507629Y-104757321D01*
X102646608Y-104831608D01*
X102768422Y-104931578D01*
X102868392Y-105053392D01*
X102942679Y-105192371D01*
X102988424Y-105343174D01*
X103003870Y-105500000D01*
X102988424Y-105656826D01*
X102942679Y-105807629D01*
X102868392Y-105946608D01*
X102768422Y-106068422D01*
X102646608Y-106168392D01*
X102507629Y-106242679D01*
X102432228Y-106265551D01*
X102356827Y-106288424D01*
X102317649Y-106292283D01*
X102239295Y-106300000D01*
X101360705Y-106300000D01*
X101282351Y-106292283D01*
X101243173Y-106288424D01*
X101167772Y-106265551D01*
X101092371Y-106242679D01*
X100953392Y-106168392D01*
X100831578Y-106068422D01*
X100731608Y-105946608D01*
X100657321Y-105807629D01*
X100611576Y-105656826D01*
X100596130Y-105500000D01*
X100611576Y-105343174D01*
X100657321Y-105192371D01*
X100731608Y-105053392D01*
X100831578Y-104931578D01*
X100953392Y-104831608D01*
X101092371Y-104757321D01*
X101167773Y-104734448D01*
X101243173Y-104711576D01*
X101282351Y-104707717D01*
X101360705Y-104700000D01*
X102239295Y-104700000D01*
X102317649Y-104707717D01*
X102317649Y-104707717D01*
G37*
G36*
X107317649Y-103457717D02*
X107356827Y-103461576D01*
X107432228Y-103484449D01*
X107507629Y-103507321D01*
X107646608Y-103581608D01*
X107768422Y-103681578D01*
X107868392Y-103803392D01*
X107942679Y-103942371D01*
X107942679Y-103942372D01*
X107988424Y-104093173D01*
X108003870Y-104250000D01*
X107988424Y-104406826D01*
X107942679Y-104557629D01*
X107868392Y-104696608D01*
X107768422Y-104818422D01*
X107646608Y-104918392D01*
X107507629Y-104992679D01*
X107432228Y-105015551D01*
X107356827Y-105038424D01*
X107317649Y-105042283D01*
X107239295Y-105050000D01*
X106360705Y-105050000D01*
X106282351Y-105042283D01*
X106243173Y-105038424D01*
X106167772Y-105015551D01*
X106092371Y-104992679D01*
X105953392Y-104918392D01*
X105831578Y-104818422D01*
X105731608Y-104696608D01*
X105657321Y-104557629D01*
X105611576Y-104406826D01*
X105596130Y-104250000D01*
X105611576Y-104093173D01*
X105657321Y-103942372D01*
X105657321Y-103942371D01*
X105731608Y-103803392D01*
X105831578Y-103681578D01*
X105953392Y-103581608D01*
X106092371Y-103507321D01*
X106167772Y-103484449D01*
X106243173Y-103461576D01*
X106282351Y-103457717D01*
X106360705Y-103450000D01*
X107239295Y-103450000D01*
X107317649Y-103457717D01*
X107317649Y-103457717D01*
G37*
G36*
X193817649Y-103457717D02*
X193856827Y-103461576D01*
X193932228Y-103484449D01*
X194007629Y-103507321D01*
X194146608Y-103581608D01*
X194268422Y-103681578D01*
X194368392Y-103803392D01*
X194442679Y-103942371D01*
X194442679Y-103942372D01*
X194488424Y-104093173D01*
X194503870Y-104250000D01*
X194488424Y-104406826D01*
X194442679Y-104557629D01*
X194368392Y-104696608D01*
X194268422Y-104818422D01*
X194146608Y-104918392D01*
X194007629Y-104992679D01*
X193932228Y-105015551D01*
X193856827Y-105038424D01*
X193817649Y-105042283D01*
X193739295Y-105050000D01*
X192860705Y-105050000D01*
X192782351Y-105042283D01*
X192743173Y-105038424D01*
X192667772Y-105015551D01*
X192592371Y-104992679D01*
X192453392Y-104918392D01*
X192331578Y-104818422D01*
X192231608Y-104696608D01*
X192157321Y-104557629D01*
X192111576Y-104406826D01*
X192096130Y-104250000D01*
X192111576Y-104093173D01*
X192157321Y-103942372D01*
X192157321Y-103942371D01*
X192231608Y-103803392D01*
X192331578Y-103681578D01*
X192453392Y-103581608D01*
X192592371Y-103507321D01*
X192667772Y-103484449D01*
X192743173Y-103461576D01*
X192782351Y-103457717D01*
X192860705Y-103450000D01*
X193739295Y-103450000D01*
X193817649Y-103457717D01*
X193817649Y-103457717D01*
G37*
G36*
X102317649Y-102207717D02*
X102356827Y-102211576D01*
X102432227Y-102234448D01*
X102507629Y-102257321D01*
X102646608Y-102331608D01*
X102768422Y-102431578D01*
X102868392Y-102553392D01*
X102942679Y-102692371D01*
X102988424Y-102843174D01*
X103003870Y-103000000D01*
X102988424Y-103156826D01*
X102942679Y-103307629D01*
X102868392Y-103446608D01*
X102768422Y-103568422D01*
X102646608Y-103668392D01*
X102507629Y-103742679D01*
X102432227Y-103765552D01*
X102356827Y-103788424D01*
X102317649Y-103792283D01*
X102239295Y-103800000D01*
X101360705Y-103800000D01*
X101282351Y-103792283D01*
X101243173Y-103788424D01*
X101167773Y-103765552D01*
X101092371Y-103742679D01*
X100953392Y-103668392D01*
X100831578Y-103568422D01*
X100731608Y-103446608D01*
X100657321Y-103307629D01*
X100611576Y-103156826D01*
X100596130Y-103000000D01*
X100611576Y-102843174D01*
X100657321Y-102692371D01*
X100731608Y-102553392D01*
X100831578Y-102431578D01*
X100953392Y-102331608D01*
X101092371Y-102257321D01*
X101167773Y-102234448D01*
X101243173Y-102211576D01*
X101282351Y-102207717D01*
X101360705Y-102200000D01*
X102239295Y-102200000D01*
X102317649Y-102207717D01*
X102317649Y-102207717D01*
G37*
G36*
X198817649Y-102207717D02*
X198856827Y-102211576D01*
X198932227Y-102234448D01*
X199007629Y-102257321D01*
X199146608Y-102331608D01*
X199268422Y-102431578D01*
X199368392Y-102553392D01*
X199442679Y-102692371D01*
X199488424Y-102843174D01*
X199503870Y-103000000D01*
X199488424Y-103156826D01*
X199442679Y-103307629D01*
X199368392Y-103446608D01*
X199268422Y-103568422D01*
X199146608Y-103668392D01*
X199007629Y-103742679D01*
X198932227Y-103765552D01*
X198856827Y-103788424D01*
X198817649Y-103792283D01*
X198739295Y-103800000D01*
X197860705Y-103800000D01*
X197782351Y-103792283D01*
X197743173Y-103788424D01*
X197667773Y-103765552D01*
X197592371Y-103742679D01*
X197453392Y-103668392D01*
X197331578Y-103568422D01*
X197231608Y-103446608D01*
X197157321Y-103307629D01*
X197111576Y-103156826D01*
X197096130Y-103000000D01*
X197111576Y-102843174D01*
X197157321Y-102692371D01*
X197231608Y-102553392D01*
X197331578Y-102431578D01*
X197453392Y-102331608D01*
X197592371Y-102257321D01*
X197667773Y-102234448D01*
X197743173Y-102211576D01*
X197782351Y-102207717D01*
X197860705Y-102200000D01*
X198739295Y-102200000D01*
X198817649Y-102207717D01*
X198817649Y-102207717D01*
G37*
G36*
X151445770Y-97035372D02*
X151561689Y-97058429D01*
X151743678Y-97133811D01*
X151907463Y-97243249D01*
X152046751Y-97382537D01*
X152156189Y-97546322D01*
X152231571Y-97728311D01*
X152270000Y-97921509D01*
X152270000Y-98118491D01*
X152231571Y-98311689D01*
X152156189Y-98493678D01*
X152046751Y-98657463D01*
X151907463Y-98796751D01*
X151743678Y-98906189D01*
X151561689Y-98981571D01*
X151445770Y-99004628D01*
X151368493Y-99020000D01*
X151171507Y-99020000D01*
X151094230Y-99004628D01*
X150978311Y-98981571D01*
X150796322Y-98906189D01*
X150632537Y-98796751D01*
X150493249Y-98657463D01*
X150383811Y-98493678D01*
X150308429Y-98311689D01*
X150270000Y-98118491D01*
X150270000Y-97921509D01*
X150308429Y-97728311D01*
X150383811Y-97546322D01*
X150493249Y-97382537D01*
X150632537Y-97243249D01*
X150796322Y-97133811D01*
X150978311Y-97058429D01*
X151094230Y-97035372D01*
X151171507Y-97020000D01*
X151368493Y-97020000D01*
X151445770Y-97035372D01*
X151445770Y-97035372D01*
G37*
G36*
X146365770Y-97035372D02*
X146481689Y-97058429D01*
X146663678Y-97133811D01*
X146827463Y-97243249D01*
X146966751Y-97382537D01*
X147076189Y-97546322D01*
X147151571Y-97728311D01*
X147190000Y-97921509D01*
X147190000Y-98118491D01*
X147151571Y-98311689D01*
X147076189Y-98493678D01*
X146966751Y-98657463D01*
X146827463Y-98796751D01*
X146663678Y-98906189D01*
X146481689Y-98981571D01*
X146365770Y-99004628D01*
X146288493Y-99020000D01*
X146091507Y-99020000D01*
X146014230Y-99004628D01*
X145898311Y-98981571D01*
X145716322Y-98906189D01*
X145552537Y-98796751D01*
X145413249Y-98657463D01*
X145303811Y-98493678D01*
X145228429Y-98311689D01*
X145190000Y-98118491D01*
X145190000Y-97921509D01*
X145228429Y-97728311D01*
X145303811Y-97546322D01*
X145413249Y-97382537D01*
X145552537Y-97243249D01*
X145716322Y-97133811D01*
X145898311Y-97058429D01*
X146014230Y-97035372D01*
X146091507Y-97020000D01*
X146288493Y-97020000D01*
X146365770Y-97035372D01*
X146365770Y-97035372D01*
G37*
G36*
X143825770Y-97035372D02*
X143941689Y-97058429D01*
X144123678Y-97133811D01*
X144287463Y-97243249D01*
X144426751Y-97382537D01*
X144536189Y-97546322D01*
X144611571Y-97728311D01*
X144650000Y-97921509D01*
X144650000Y-98118491D01*
X144611571Y-98311689D01*
X144536189Y-98493678D01*
X144426751Y-98657463D01*
X144287463Y-98796751D01*
X144123678Y-98906189D01*
X143941689Y-98981571D01*
X143825770Y-99004628D01*
X143748493Y-99020000D01*
X143551507Y-99020000D01*
X143474230Y-99004628D01*
X143358311Y-98981571D01*
X143176322Y-98906189D01*
X143012537Y-98796751D01*
X142873249Y-98657463D01*
X142763811Y-98493678D01*
X142688429Y-98311689D01*
X142650000Y-98118491D01*
X142650000Y-97921509D01*
X142688429Y-97728311D01*
X142763811Y-97546322D01*
X142873249Y-97382537D01*
X143012537Y-97243249D01*
X143176322Y-97133811D01*
X143358311Y-97058429D01*
X143474230Y-97035372D01*
X143551507Y-97020000D01*
X143748493Y-97020000D01*
X143825770Y-97035372D01*
X143825770Y-97035372D01*
G37*
G36*
X141285770Y-97035372D02*
X141401689Y-97058429D01*
X141583678Y-97133811D01*
X141747463Y-97243249D01*
X141886751Y-97382537D01*
X141996189Y-97546322D01*
X142071571Y-97728311D01*
X142110000Y-97921509D01*
X142110000Y-98118491D01*
X142071571Y-98311689D01*
X141996189Y-98493678D01*
X141886751Y-98657463D01*
X141747463Y-98796751D01*
X141583678Y-98906189D01*
X141401689Y-98981571D01*
X141285770Y-99004628D01*
X141208493Y-99020000D01*
X141011507Y-99020000D01*
X140934230Y-99004628D01*
X140818311Y-98981571D01*
X140636322Y-98906189D01*
X140472537Y-98796751D01*
X140333249Y-98657463D01*
X140223811Y-98493678D01*
X140148429Y-98311689D01*
X140110000Y-98118491D01*
X140110000Y-97921509D01*
X140148429Y-97728311D01*
X140223811Y-97546322D01*
X140333249Y-97382537D01*
X140472537Y-97243249D01*
X140636322Y-97133811D01*
X140818311Y-97058429D01*
X140934230Y-97035372D01*
X141011507Y-97020000D01*
X141208493Y-97020000D01*
X141285770Y-97035372D01*
X141285770Y-97035372D01*
G37*
G36*
X138745770Y-97035372D02*
X138861689Y-97058429D01*
X139043678Y-97133811D01*
X139207463Y-97243249D01*
X139346751Y-97382537D01*
X139456189Y-97546322D01*
X139531571Y-97728311D01*
X139570000Y-97921509D01*
X139570000Y-98118491D01*
X139531571Y-98311689D01*
X139456189Y-98493678D01*
X139346751Y-98657463D01*
X139207463Y-98796751D01*
X139043678Y-98906189D01*
X138861689Y-98981571D01*
X138745770Y-99004628D01*
X138668493Y-99020000D01*
X138471507Y-99020000D01*
X138394230Y-99004628D01*
X138278311Y-98981571D01*
X138096322Y-98906189D01*
X137932537Y-98796751D01*
X137793249Y-98657463D01*
X137683811Y-98493678D01*
X137608429Y-98311689D01*
X137570000Y-98118491D01*
X137570000Y-97921509D01*
X137608429Y-97728311D01*
X137683811Y-97546322D01*
X137793249Y-97382537D01*
X137932537Y-97243249D01*
X138096322Y-97133811D01*
X138278311Y-97058429D01*
X138394230Y-97035372D01*
X138471507Y-97020000D01*
X138668493Y-97020000D01*
X138745770Y-97035372D01*
X138745770Y-97035372D01*
G37*
G36*
X136205770Y-97035372D02*
X136321689Y-97058429D01*
X136503678Y-97133811D01*
X136667463Y-97243249D01*
X136806751Y-97382537D01*
X136916189Y-97546322D01*
X136991571Y-97728311D01*
X137030000Y-97921509D01*
X137030000Y-98118491D01*
X136991571Y-98311689D01*
X136916189Y-98493678D01*
X136806751Y-98657463D01*
X136667463Y-98796751D01*
X136503678Y-98906189D01*
X136321689Y-98981571D01*
X136205770Y-99004628D01*
X136128493Y-99020000D01*
X135931507Y-99020000D01*
X135854230Y-99004628D01*
X135738311Y-98981571D01*
X135556322Y-98906189D01*
X135392537Y-98796751D01*
X135253249Y-98657463D01*
X135143811Y-98493678D01*
X135068429Y-98311689D01*
X135030000Y-98118491D01*
X135030000Y-97921509D01*
X135068429Y-97728311D01*
X135143811Y-97546322D01*
X135253249Y-97382537D01*
X135392537Y-97243249D01*
X135556322Y-97133811D01*
X135738311Y-97058429D01*
X135854230Y-97035372D01*
X135931507Y-97020000D01*
X136128493Y-97020000D01*
X136205770Y-97035372D01*
X136205770Y-97035372D01*
G37*
G36*
X133665770Y-97035372D02*
X133781689Y-97058429D01*
X133963678Y-97133811D01*
X134127463Y-97243249D01*
X134266751Y-97382537D01*
X134376189Y-97546322D01*
X134451571Y-97728311D01*
X134490000Y-97921509D01*
X134490000Y-98118491D01*
X134451571Y-98311689D01*
X134376189Y-98493678D01*
X134266751Y-98657463D01*
X134127463Y-98796751D01*
X133963678Y-98906189D01*
X133781689Y-98981571D01*
X133665770Y-99004628D01*
X133588493Y-99020000D01*
X133391507Y-99020000D01*
X133314230Y-99004628D01*
X133198311Y-98981571D01*
X133016322Y-98906189D01*
X132852537Y-98796751D01*
X132713249Y-98657463D01*
X132603811Y-98493678D01*
X132528429Y-98311689D01*
X132490000Y-98118491D01*
X132490000Y-97921509D01*
X132528429Y-97728311D01*
X132603811Y-97546322D01*
X132713249Y-97382537D01*
X132852537Y-97243249D01*
X133016322Y-97133811D01*
X133198311Y-97058429D01*
X133314230Y-97035372D01*
X133391507Y-97020000D01*
X133588493Y-97020000D01*
X133665770Y-97035372D01*
X133665770Y-97035372D01*
G37*
G36*
X131125770Y-97035372D02*
X131241689Y-97058429D01*
X131423678Y-97133811D01*
X131587463Y-97243249D01*
X131726751Y-97382537D01*
X131836189Y-97546322D01*
X131911571Y-97728311D01*
X131950000Y-97921509D01*
X131950000Y-98118491D01*
X131911571Y-98311689D01*
X131836189Y-98493678D01*
X131726751Y-98657463D01*
X131587463Y-98796751D01*
X131423678Y-98906189D01*
X131241689Y-98981571D01*
X131125770Y-99004628D01*
X131048493Y-99020000D01*
X130851507Y-99020000D01*
X130774230Y-99004628D01*
X130658311Y-98981571D01*
X130476322Y-98906189D01*
X130312537Y-98796751D01*
X130173249Y-98657463D01*
X130063811Y-98493678D01*
X129988429Y-98311689D01*
X129950000Y-98118491D01*
X129950000Y-97921509D01*
X129988429Y-97728311D01*
X130063811Y-97546322D01*
X130173249Y-97382537D01*
X130312537Y-97243249D01*
X130476322Y-97133811D01*
X130658311Y-97058429D01*
X130774230Y-97035372D01*
X130851507Y-97020000D01*
X131048493Y-97020000D01*
X131125770Y-97035372D01*
X131125770Y-97035372D01*
G37*
G36*
X126045770Y-97035372D02*
X126161689Y-97058429D01*
X126343678Y-97133811D01*
X126507463Y-97243249D01*
X126646751Y-97382537D01*
X126756189Y-97546322D01*
X126831571Y-97728311D01*
X126870000Y-97921509D01*
X126870000Y-98118491D01*
X126831571Y-98311689D01*
X126756189Y-98493678D01*
X126646751Y-98657463D01*
X126507463Y-98796751D01*
X126343678Y-98906189D01*
X126161689Y-98981571D01*
X126045770Y-99004628D01*
X125968493Y-99020000D01*
X125771507Y-99020000D01*
X125694230Y-99004628D01*
X125578311Y-98981571D01*
X125396322Y-98906189D01*
X125232537Y-98796751D01*
X125093249Y-98657463D01*
X124983811Y-98493678D01*
X124908429Y-98311689D01*
X124870000Y-98118491D01*
X124870000Y-97921509D01*
X124908429Y-97728311D01*
X124983811Y-97546322D01*
X125093249Y-97382537D01*
X125232537Y-97243249D01*
X125396322Y-97133811D01*
X125578311Y-97058429D01*
X125694230Y-97035372D01*
X125771507Y-97020000D01*
X125968493Y-97020000D01*
X126045770Y-97035372D01*
X126045770Y-97035372D01*
G37*
G36*
X128585770Y-97035372D02*
X128701689Y-97058429D01*
X128883678Y-97133811D01*
X129047463Y-97243249D01*
X129186751Y-97382537D01*
X129296189Y-97546322D01*
X129371571Y-97728311D01*
X129410000Y-97921509D01*
X129410000Y-98118491D01*
X129371571Y-98311689D01*
X129296189Y-98493678D01*
X129186751Y-98657463D01*
X129047463Y-98796751D01*
X128883678Y-98906189D01*
X128701689Y-98981571D01*
X128585770Y-99004628D01*
X128508493Y-99020000D01*
X128311507Y-99020000D01*
X128234230Y-99004628D01*
X128118311Y-98981571D01*
X127936322Y-98906189D01*
X127772537Y-98796751D01*
X127633249Y-98657463D01*
X127523811Y-98493678D01*
X127448429Y-98311689D01*
X127410000Y-98118491D01*
X127410000Y-97921509D01*
X127448429Y-97728311D01*
X127523811Y-97546322D01*
X127633249Y-97382537D01*
X127772537Y-97243249D01*
X127936322Y-97133811D01*
X128118311Y-97058429D01*
X128234230Y-97035372D01*
X128311507Y-97020000D01*
X128508493Y-97020000D01*
X128585770Y-97035372D01*
X128585770Y-97035372D01*
G37*
G36*
X156525770Y-97035372D02*
X156641689Y-97058429D01*
X156823678Y-97133811D01*
X156987463Y-97243249D01*
X157126751Y-97382537D01*
X157236189Y-97546322D01*
X157311571Y-97728311D01*
X157350000Y-97921509D01*
X157350000Y-98118491D01*
X157311571Y-98311689D01*
X157236189Y-98493678D01*
X157126751Y-98657463D01*
X156987463Y-98796751D01*
X156823678Y-98906189D01*
X156641689Y-98981571D01*
X156525770Y-99004628D01*
X156448493Y-99020000D01*
X156251507Y-99020000D01*
X156174230Y-99004628D01*
X156058311Y-98981571D01*
X155876322Y-98906189D01*
X155712537Y-98796751D01*
X155573249Y-98657463D01*
X155463811Y-98493678D01*
X155388429Y-98311689D01*
X155350000Y-98118491D01*
X155350000Y-97921509D01*
X155388429Y-97728311D01*
X155463811Y-97546322D01*
X155573249Y-97382537D01*
X155712537Y-97243249D01*
X155876322Y-97133811D01*
X156058311Y-97058429D01*
X156174230Y-97035372D01*
X156251507Y-97020000D01*
X156448493Y-97020000D01*
X156525770Y-97035372D01*
X156525770Y-97035372D01*
G37*
G36*
X159065770Y-97035372D02*
X159181689Y-97058429D01*
X159363678Y-97133811D01*
X159527463Y-97243249D01*
X159666751Y-97382537D01*
X159776189Y-97546322D01*
X159851571Y-97728311D01*
X159890000Y-97921509D01*
X159890000Y-98118491D01*
X159851571Y-98311689D01*
X159776189Y-98493678D01*
X159666751Y-98657463D01*
X159527463Y-98796751D01*
X159363678Y-98906189D01*
X159181689Y-98981571D01*
X159065770Y-99004628D01*
X158988493Y-99020000D01*
X158791507Y-99020000D01*
X158714230Y-99004628D01*
X158598311Y-98981571D01*
X158416322Y-98906189D01*
X158252537Y-98796751D01*
X158113249Y-98657463D01*
X158003811Y-98493678D01*
X157928429Y-98311689D01*
X157890000Y-98118491D01*
X157890000Y-97921509D01*
X157928429Y-97728311D01*
X158003811Y-97546322D01*
X158113249Y-97382537D01*
X158252537Y-97243249D01*
X158416322Y-97133811D01*
X158598311Y-97058429D01*
X158714230Y-97035372D01*
X158791507Y-97020000D01*
X158988493Y-97020000D01*
X159065770Y-97035372D01*
X159065770Y-97035372D01*
G37*
G36*
X161605770Y-97035372D02*
X161721689Y-97058429D01*
X161903678Y-97133811D01*
X162067463Y-97243249D01*
X162206751Y-97382537D01*
X162316189Y-97546322D01*
X162391571Y-97728311D01*
X162430000Y-97921509D01*
X162430000Y-98118491D01*
X162391571Y-98311689D01*
X162316189Y-98493678D01*
X162206751Y-98657463D01*
X162067463Y-98796751D01*
X161903678Y-98906189D01*
X161721689Y-98981571D01*
X161605770Y-99004628D01*
X161528493Y-99020000D01*
X161331507Y-99020000D01*
X161254230Y-99004628D01*
X161138311Y-98981571D01*
X160956322Y-98906189D01*
X160792537Y-98796751D01*
X160653249Y-98657463D01*
X160543811Y-98493678D01*
X160468429Y-98311689D01*
X160430000Y-98118491D01*
X160430000Y-97921509D01*
X160468429Y-97728311D01*
X160543811Y-97546322D01*
X160653249Y-97382537D01*
X160792537Y-97243249D01*
X160956322Y-97133811D01*
X161138311Y-97058429D01*
X161254230Y-97035372D01*
X161331507Y-97020000D01*
X161528493Y-97020000D01*
X161605770Y-97035372D01*
X161605770Y-97035372D01*
G37*
G36*
X164145770Y-97035372D02*
X164261689Y-97058429D01*
X164443678Y-97133811D01*
X164607463Y-97243249D01*
X164746751Y-97382537D01*
X164856189Y-97546322D01*
X164931571Y-97728311D01*
X164970000Y-97921509D01*
X164970000Y-98118491D01*
X164931571Y-98311689D01*
X164856189Y-98493678D01*
X164746751Y-98657463D01*
X164607463Y-98796751D01*
X164443678Y-98906189D01*
X164261689Y-98981571D01*
X164145770Y-99004628D01*
X164068493Y-99020000D01*
X163871507Y-99020000D01*
X163794230Y-99004628D01*
X163678311Y-98981571D01*
X163496322Y-98906189D01*
X163332537Y-98796751D01*
X163193249Y-98657463D01*
X163083811Y-98493678D01*
X163008429Y-98311689D01*
X162970000Y-98118491D01*
X162970000Y-97921509D01*
X163008429Y-97728311D01*
X163083811Y-97546322D01*
X163193249Y-97382537D01*
X163332537Y-97243249D01*
X163496322Y-97133811D01*
X163678311Y-97058429D01*
X163794230Y-97035372D01*
X163871507Y-97020000D01*
X164068493Y-97020000D01*
X164145770Y-97035372D01*
X164145770Y-97035372D01*
G37*
G36*
X166685770Y-97035372D02*
X166801689Y-97058429D01*
X166983678Y-97133811D01*
X167147463Y-97243249D01*
X167286751Y-97382537D01*
X167396189Y-97546322D01*
X167471571Y-97728311D01*
X167510000Y-97921509D01*
X167510000Y-98118491D01*
X167471571Y-98311689D01*
X167396189Y-98493678D01*
X167286751Y-98657463D01*
X167147463Y-98796751D01*
X166983678Y-98906189D01*
X166801689Y-98981571D01*
X166685770Y-99004628D01*
X166608493Y-99020000D01*
X166411507Y-99020000D01*
X166334230Y-99004628D01*
X166218311Y-98981571D01*
X166036322Y-98906189D01*
X165872537Y-98796751D01*
X165733249Y-98657463D01*
X165623811Y-98493678D01*
X165548429Y-98311689D01*
X165510000Y-98118491D01*
X165510000Y-97921509D01*
X165548429Y-97728311D01*
X165623811Y-97546322D01*
X165733249Y-97382537D01*
X165872537Y-97243249D01*
X166036322Y-97133811D01*
X166218311Y-97058429D01*
X166334230Y-97035372D01*
X166411507Y-97020000D01*
X166608493Y-97020000D01*
X166685770Y-97035372D01*
X166685770Y-97035372D01*
G37*
G36*
X169225770Y-97035372D02*
X169341689Y-97058429D01*
X169523678Y-97133811D01*
X169687463Y-97243249D01*
X169826751Y-97382537D01*
X169936189Y-97546322D01*
X170011571Y-97728311D01*
X170050000Y-97921509D01*
X170050000Y-98118491D01*
X170011571Y-98311689D01*
X169936189Y-98493678D01*
X169826751Y-98657463D01*
X169687463Y-98796751D01*
X169523678Y-98906189D01*
X169341689Y-98981571D01*
X169225770Y-99004628D01*
X169148493Y-99020000D01*
X168951507Y-99020000D01*
X168874230Y-99004628D01*
X168758311Y-98981571D01*
X168576322Y-98906189D01*
X168412537Y-98796751D01*
X168273249Y-98657463D01*
X168163811Y-98493678D01*
X168088429Y-98311689D01*
X168050000Y-98118491D01*
X168050000Y-97921509D01*
X168088429Y-97728311D01*
X168163811Y-97546322D01*
X168273249Y-97382537D01*
X168412537Y-97243249D01*
X168576322Y-97133811D01*
X168758311Y-97058429D01*
X168874230Y-97035372D01*
X168951507Y-97020000D01*
X169148493Y-97020000D01*
X169225770Y-97035372D01*
X169225770Y-97035372D01*
G37*
G36*
X171765770Y-97035372D02*
X171881689Y-97058429D01*
X172063678Y-97133811D01*
X172227463Y-97243249D01*
X172366751Y-97382537D01*
X172476189Y-97546322D01*
X172551571Y-97728311D01*
X172590000Y-97921509D01*
X172590000Y-98118491D01*
X172551571Y-98311689D01*
X172476189Y-98493678D01*
X172366751Y-98657463D01*
X172227463Y-98796751D01*
X172063678Y-98906189D01*
X171881689Y-98981571D01*
X171765770Y-99004628D01*
X171688493Y-99020000D01*
X171491507Y-99020000D01*
X171414230Y-99004628D01*
X171298311Y-98981571D01*
X171116322Y-98906189D01*
X170952537Y-98796751D01*
X170813249Y-98657463D01*
X170703811Y-98493678D01*
X170628429Y-98311689D01*
X170590000Y-98118491D01*
X170590000Y-97921509D01*
X170628429Y-97728311D01*
X170703811Y-97546322D01*
X170813249Y-97382537D01*
X170952537Y-97243249D01*
X171116322Y-97133811D01*
X171298311Y-97058429D01*
X171414230Y-97035372D01*
X171491507Y-97020000D01*
X171688493Y-97020000D01*
X171765770Y-97035372D01*
X171765770Y-97035372D01*
G37*
G36*
X148905770Y-97035372D02*
X149021689Y-97058429D01*
X149203678Y-97133811D01*
X149367463Y-97243249D01*
X149506751Y-97382537D01*
X149616189Y-97546322D01*
X149691571Y-97728311D01*
X149730000Y-97921509D01*
X149730000Y-98118491D01*
X149691571Y-98311689D01*
X149616189Y-98493678D01*
X149506751Y-98657463D01*
X149367463Y-98796751D01*
X149203678Y-98906189D01*
X149021689Y-98981571D01*
X148905770Y-99004628D01*
X148828493Y-99020000D01*
X148631507Y-99020000D01*
X148554230Y-99004628D01*
X148438311Y-98981571D01*
X148256322Y-98906189D01*
X148092537Y-98796751D01*
X147953249Y-98657463D01*
X147843811Y-98493678D01*
X147768429Y-98311689D01*
X147730000Y-98118491D01*
X147730000Y-97921509D01*
X147768429Y-97728311D01*
X147843811Y-97546322D01*
X147953249Y-97382537D01*
X148092537Y-97243249D01*
X148256322Y-97133811D01*
X148438311Y-97058429D01*
X148554230Y-97035372D01*
X148631507Y-97020000D01*
X148828493Y-97020000D01*
X148905770Y-97035372D01*
X148905770Y-97035372D01*
G37*
G36*
X174305770Y-97035372D02*
X174421689Y-97058429D01*
X174603678Y-97133811D01*
X174767463Y-97243249D01*
X174906751Y-97382537D01*
X175016189Y-97546322D01*
X175091571Y-97728311D01*
X175130000Y-97921509D01*
X175130000Y-98118491D01*
X175091571Y-98311689D01*
X175016189Y-98493678D01*
X174906751Y-98657463D01*
X174767463Y-98796751D01*
X174603678Y-98906189D01*
X174421689Y-98981571D01*
X174305770Y-99004628D01*
X174228493Y-99020000D01*
X174031507Y-99020000D01*
X173954230Y-99004628D01*
X173838311Y-98981571D01*
X173656322Y-98906189D01*
X173492537Y-98796751D01*
X173353249Y-98657463D01*
X173243811Y-98493678D01*
X173168429Y-98311689D01*
X173130000Y-98118491D01*
X173130000Y-97921509D01*
X173168429Y-97728311D01*
X173243811Y-97546322D01*
X173353249Y-97382537D01*
X173492537Y-97243249D01*
X173656322Y-97133811D01*
X173838311Y-97058429D01*
X173954230Y-97035372D01*
X174031507Y-97020000D01*
X174228493Y-97020000D01*
X174305770Y-97035372D01*
X174305770Y-97035372D01*
G37*
G36*
X153985770Y-97035372D02*
X154101689Y-97058429D01*
X154283678Y-97133811D01*
X154447463Y-97243249D01*
X154586751Y-97382537D01*
X154696189Y-97546322D01*
X154771571Y-97728311D01*
X154810000Y-97921509D01*
X154810000Y-98118491D01*
X154771571Y-98311689D01*
X154696189Y-98493678D01*
X154586751Y-98657463D01*
X154447463Y-98796751D01*
X154283678Y-98906189D01*
X154101689Y-98981571D01*
X153985770Y-99004628D01*
X153908493Y-99020000D01*
X153711507Y-99020000D01*
X153634230Y-99004628D01*
X153518311Y-98981571D01*
X153336322Y-98906189D01*
X153172537Y-98796751D01*
X153033249Y-98657463D01*
X152923811Y-98493678D01*
X152848429Y-98311689D01*
X152810000Y-98118491D01*
X152810000Y-97921509D01*
X152848429Y-97728311D01*
X152923811Y-97546322D01*
X153033249Y-97382537D01*
X153172537Y-97243249D01*
X153336322Y-97133811D01*
X153518311Y-97058429D01*
X153634230Y-97035372D01*
X153711507Y-97020000D01*
X153908493Y-97020000D01*
X153985770Y-97035372D01*
X153985770Y-97035372D01*
G37*
G36*
X111161081Y-96289379D02*
X111209747Y-96294172D01*
X111459509Y-96369937D01*
X111689692Y-96492972D01*
X111891450Y-96658550D01*
X112057028Y-96860308D01*
X112180063Y-97090491D01*
X112255828Y-97340253D01*
X112255828Y-97340255D01*
X112281411Y-97600000D01*
X112268773Y-97728311D01*
X112255828Y-97859747D01*
X112180063Y-98109509D01*
X112057028Y-98339692D01*
X111891450Y-98541450D01*
X111689692Y-98707028D01*
X111459509Y-98830063D01*
X111209747Y-98905828D01*
X111161081Y-98910621D01*
X111015091Y-98925000D01*
X108384909Y-98925000D01*
X108238918Y-98910621D01*
X108190253Y-98905828D01*
X107940491Y-98830063D01*
X107710308Y-98707028D01*
X107508550Y-98541450D01*
X107342972Y-98339692D01*
X107219937Y-98109509D01*
X107144172Y-97859747D01*
X107131227Y-97728311D01*
X107118589Y-97600000D01*
X107144172Y-97340255D01*
X107144172Y-97340253D01*
X107219937Y-97090491D01*
X107342972Y-96860308D01*
X107508550Y-96658550D01*
X107710308Y-96492972D01*
X107940491Y-96369937D01*
X108190253Y-96294172D01*
X108238919Y-96289379D01*
X108384909Y-96275000D01*
X111015091Y-96275000D01*
X111161081Y-96289379D01*
X111161081Y-96289379D01*
G37*
G36*
X191761081Y-96289379D02*
X191809747Y-96294172D01*
X192059509Y-96369937D01*
X192289692Y-96492972D01*
X192491450Y-96658550D01*
X192657028Y-96860308D01*
X192780063Y-97090491D01*
X192855828Y-97340253D01*
X192855828Y-97340255D01*
X192881411Y-97600000D01*
X192868773Y-97728311D01*
X192855828Y-97859747D01*
X192780063Y-98109509D01*
X192657028Y-98339692D01*
X192491450Y-98541450D01*
X192289692Y-98707028D01*
X192059509Y-98830063D01*
X191809747Y-98905828D01*
X191761081Y-98910621D01*
X191615091Y-98925000D01*
X188984909Y-98925000D01*
X188838918Y-98910621D01*
X188790253Y-98905828D01*
X188540491Y-98830063D01*
X188310308Y-98707028D01*
X188108550Y-98541450D01*
X187942972Y-98339692D01*
X187819937Y-98109509D01*
X187744172Y-97859747D01*
X187731227Y-97728311D01*
X187718589Y-97600000D01*
X187744172Y-97340255D01*
X187744172Y-97340253D01*
X187819937Y-97090491D01*
X187942972Y-96860308D01*
X188108550Y-96658550D01*
X188310308Y-96492972D01*
X188540491Y-96369937D01*
X188790253Y-96294172D01*
X188838919Y-96289379D01*
X188984909Y-96275000D01*
X191615091Y-96275000D01*
X191761081Y-96289379D01*
X191761081Y-96289379D01*
G37*
G36*
X148905770Y-81795372D02*
X149021689Y-81818429D01*
X149203678Y-81893811D01*
X149367463Y-82003249D01*
X149506751Y-82142537D01*
X149616189Y-82306322D01*
X149691571Y-82488311D01*
X149730000Y-82681509D01*
X149730000Y-82878491D01*
X149691571Y-83071689D01*
X149616189Y-83253678D01*
X149506751Y-83417463D01*
X149367463Y-83556751D01*
X149203678Y-83666189D01*
X149021689Y-83741571D01*
X148905770Y-83764628D01*
X148828493Y-83780000D01*
X148631507Y-83780000D01*
X148554230Y-83764628D01*
X148438311Y-83741571D01*
X148256322Y-83666189D01*
X148092537Y-83556751D01*
X147953249Y-83417463D01*
X147843811Y-83253678D01*
X147768429Y-83071689D01*
X147730000Y-82878491D01*
X147730000Y-82681509D01*
X147768429Y-82488311D01*
X147843811Y-82306322D01*
X147953249Y-82142537D01*
X148092537Y-82003249D01*
X148256322Y-81893811D01*
X148438311Y-81818429D01*
X148554230Y-81795372D01*
X148631507Y-81780000D01*
X148828493Y-81780000D01*
X148905770Y-81795372D01*
X148905770Y-81795372D01*
G37*
G36*
X126870000Y-83780000D02*
X124870000Y-83780000D01*
X124870000Y-81780000D01*
X126870000Y-81780000D01*
X126870000Y-83780000D01*
X126870000Y-83780000D01*
G37*
G36*
X174305770Y-81795372D02*
X174421689Y-81818429D01*
X174603678Y-81893811D01*
X174767463Y-82003249D01*
X174906751Y-82142537D01*
X175016189Y-82306322D01*
X175091571Y-82488311D01*
X175130000Y-82681509D01*
X175130000Y-82878491D01*
X175091571Y-83071689D01*
X175016189Y-83253678D01*
X174906751Y-83417463D01*
X174767463Y-83556751D01*
X174603678Y-83666189D01*
X174421689Y-83741571D01*
X174305770Y-83764628D01*
X174228493Y-83780000D01*
X174031507Y-83780000D01*
X173954230Y-83764628D01*
X173838311Y-83741571D01*
X173656322Y-83666189D01*
X173492537Y-83556751D01*
X173353249Y-83417463D01*
X173243811Y-83253678D01*
X173168429Y-83071689D01*
X173130000Y-82878491D01*
X173130000Y-82681509D01*
X173168429Y-82488311D01*
X173243811Y-82306322D01*
X173353249Y-82142537D01*
X173492537Y-82003249D01*
X173656322Y-81893811D01*
X173838311Y-81818429D01*
X173954230Y-81795372D01*
X174031507Y-81780000D01*
X174228493Y-81780000D01*
X174305770Y-81795372D01*
X174305770Y-81795372D01*
G37*
G36*
X169225770Y-81795372D02*
X169341689Y-81818429D01*
X169523678Y-81893811D01*
X169687463Y-82003249D01*
X169826751Y-82142537D01*
X169936189Y-82306322D01*
X170011571Y-82488311D01*
X170050000Y-82681509D01*
X170050000Y-82878491D01*
X170011571Y-83071689D01*
X169936189Y-83253678D01*
X169826751Y-83417463D01*
X169687463Y-83556751D01*
X169523678Y-83666189D01*
X169341689Y-83741571D01*
X169225770Y-83764628D01*
X169148493Y-83780000D01*
X168951507Y-83780000D01*
X168874230Y-83764628D01*
X168758311Y-83741571D01*
X168576322Y-83666189D01*
X168412537Y-83556751D01*
X168273249Y-83417463D01*
X168163811Y-83253678D01*
X168088429Y-83071689D01*
X168050000Y-82878491D01*
X168050000Y-82681509D01*
X168088429Y-82488311D01*
X168163811Y-82306322D01*
X168273249Y-82142537D01*
X168412537Y-82003249D01*
X168576322Y-81893811D01*
X168758311Y-81818429D01*
X168874230Y-81795372D01*
X168951507Y-81780000D01*
X169148493Y-81780000D01*
X169225770Y-81795372D01*
X169225770Y-81795372D01*
G37*
G36*
X166685770Y-81795372D02*
X166801689Y-81818429D01*
X166983678Y-81893811D01*
X167147463Y-82003249D01*
X167286751Y-82142537D01*
X167396189Y-82306322D01*
X167471571Y-82488311D01*
X167510000Y-82681509D01*
X167510000Y-82878491D01*
X167471571Y-83071689D01*
X167396189Y-83253678D01*
X167286751Y-83417463D01*
X167147463Y-83556751D01*
X166983678Y-83666189D01*
X166801689Y-83741571D01*
X166685770Y-83764628D01*
X166608493Y-83780000D01*
X166411507Y-83780000D01*
X166334230Y-83764628D01*
X166218311Y-83741571D01*
X166036322Y-83666189D01*
X165872537Y-83556751D01*
X165733249Y-83417463D01*
X165623811Y-83253678D01*
X165548429Y-83071689D01*
X165510000Y-82878491D01*
X165510000Y-82681509D01*
X165548429Y-82488311D01*
X165623811Y-82306322D01*
X165733249Y-82142537D01*
X165872537Y-82003249D01*
X166036322Y-81893811D01*
X166218311Y-81818429D01*
X166334230Y-81795372D01*
X166411507Y-81780000D01*
X166608493Y-81780000D01*
X166685770Y-81795372D01*
X166685770Y-81795372D01*
G37*
G36*
X164145770Y-81795372D02*
X164261689Y-81818429D01*
X164443678Y-81893811D01*
X164607463Y-82003249D01*
X164746751Y-82142537D01*
X164856189Y-82306322D01*
X164931571Y-82488311D01*
X164970000Y-82681509D01*
X164970000Y-82878491D01*
X164931571Y-83071689D01*
X164856189Y-83253678D01*
X164746751Y-83417463D01*
X164607463Y-83556751D01*
X164443678Y-83666189D01*
X164261689Y-83741571D01*
X164145770Y-83764628D01*
X164068493Y-83780000D01*
X163871507Y-83780000D01*
X163794230Y-83764628D01*
X163678311Y-83741571D01*
X163496322Y-83666189D01*
X163332537Y-83556751D01*
X163193249Y-83417463D01*
X163083811Y-83253678D01*
X163008429Y-83071689D01*
X162970000Y-82878491D01*
X162970000Y-82681509D01*
X163008429Y-82488311D01*
X163083811Y-82306322D01*
X163193249Y-82142537D01*
X163332537Y-82003249D01*
X163496322Y-81893811D01*
X163678311Y-81818429D01*
X163794230Y-81795372D01*
X163871507Y-81780000D01*
X164068493Y-81780000D01*
X164145770Y-81795372D01*
X164145770Y-81795372D01*
G37*
G36*
X161605770Y-81795372D02*
X161721689Y-81818429D01*
X161903678Y-81893811D01*
X162067463Y-82003249D01*
X162206751Y-82142537D01*
X162316189Y-82306322D01*
X162391571Y-82488311D01*
X162430000Y-82681509D01*
X162430000Y-82878491D01*
X162391571Y-83071689D01*
X162316189Y-83253678D01*
X162206751Y-83417463D01*
X162067463Y-83556751D01*
X161903678Y-83666189D01*
X161721689Y-83741571D01*
X161605770Y-83764628D01*
X161528493Y-83780000D01*
X161331507Y-83780000D01*
X161254230Y-83764628D01*
X161138311Y-83741571D01*
X160956322Y-83666189D01*
X160792537Y-83556751D01*
X160653249Y-83417463D01*
X160543811Y-83253678D01*
X160468429Y-83071689D01*
X160430000Y-82878491D01*
X160430000Y-82681509D01*
X160468429Y-82488311D01*
X160543811Y-82306322D01*
X160653249Y-82142537D01*
X160792537Y-82003249D01*
X160956322Y-81893811D01*
X161138311Y-81818429D01*
X161254230Y-81795372D01*
X161331507Y-81780000D01*
X161528493Y-81780000D01*
X161605770Y-81795372D01*
X161605770Y-81795372D01*
G37*
G36*
X159065770Y-81795372D02*
X159181689Y-81818429D01*
X159363678Y-81893811D01*
X159527463Y-82003249D01*
X159666751Y-82142537D01*
X159776189Y-82306322D01*
X159851571Y-82488311D01*
X159890000Y-82681509D01*
X159890000Y-82878491D01*
X159851571Y-83071689D01*
X159776189Y-83253678D01*
X159666751Y-83417463D01*
X159527463Y-83556751D01*
X159363678Y-83666189D01*
X159181689Y-83741571D01*
X159065770Y-83764628D01*
X158988493Y-83780000D01*
X158791507Y-83780000D01*
X158714230Y-83764628D01*
X158598311Y-83741571D01*
X158416322Y-83666189D01*
X158252537Y-83556751D01*
X158113249Y-83417463D01*
X158003811Y-83253678D01*
X157928429Y-83071689D01*
X157890000Y-82878491D01*
X157890000Y-82681509D01*
X157928429Y-82488311D01*
X158003811Y-82306322D01*
X158113249Y-82142537D01*
X158252537Y-82003249D01*
X158416322Y-81893811D01*
X158598311Y-81818429D01*
X158714230Y-81795372D01*
X158791507Y-81780000D01*
X158988493Y-81780000D01*
X159065770Y-81795372D01*
X159065770Y-81795372D01*
G37*
G36*
X156525770Y-81795372D02*
X156641689Y-81818429D01*
X156823678Y-81893811D01*
X156987463Y-82003249D01*
X157126751Y-82142537D01*
X157236189Y-82306322D01*
X157311571Y-82488311D01*
X157350000Y-82681509D01*
X157350000Y-82878491D01*
X157311571Y-83071689D01*
X157236189Y-83253678D01*
X157126751Y-83417463D01*
X156987463Y-83556751D01*
X156823678Y-83666189D01*
X156641689Y-83741571D01*
X156525770Y-83764628D01*
X156448493Y-83780000D01*
X156251507Y-83780000D01*
X156174230Y-83764628D01*
X156058311Y-83741571D01*
X155876322Y-83666189D01*
X155712537Y-83556751D01*
X155573249Y-83417463D01*
X155463811Y-83253678D01*
X155388429Y-83071689D01*
X155350000Y-82878491D01*
X155350000Y-82681509D01*
X155388429Y-82488311D01*
X155463811Y-82306322D01*
X155573249Y-82142537D01*
X155712537Y-82003249D01*
X155876322Y-81893811D01*
X156058311Y-81818429D01*
X156174230Y-81795372D01*
X156251507Y-81780000D01*
X156448493Y-81780000D01*
X156525770Y-81795372D01*
X156525770Y-81795372D01*
G37*
G36*
X153985770Y-81795372D02*
X154101689Y-81818429D01*
X154283678Y-81893811D01*
X154447463Y-82003249D01*
X154586751Y-82142537D01*
X154696189Y-82306322D01*
X154771571Y-82488311D01*
X154810000Y-82681509D01*
X154810000Y-82878491D01*
X154771571Y-83071689D01*
X154696189Y-83253678D01*
X154586751Y-83417463D01*
X154447463Y-83556751D01*
X154283678Y-83666189D01*
X154101689Y-83741571D01*
X153985770Y-83764628D01*
X153908493Y-83780000D01*
X153711507Y-83780000D01*
X153634230Y-83764628D01*
X153518311Y-83741571D01*
X153336322Y-83666189D01*
X153172537Y-83556751D01*
X153033249Y-83417463D01*
X152923811Y-83253678D01*
X152848429Y-83071689D01*
X152810000Y-82878491D01*
X152810000Y-82681509D01*
X152848429Y-82488311D01*
X152923811Y-82306322D01*
X153033249Y-82142537D01*
X153172537Y-82003249D01*
X153336322Y-81893811D01*
X153518311Y-81818429D01*
X153634230Y-81795372D01*
X153711507Y-81780000D01*
X153908493Y-81780000D01*
X153985770Y-81795372D01*
X153985770Y-81795372D01*
G37*
G36*
X151445770Y-81795372D02*
X151561689Y-81818429D01*
X151743678Y-81893811D01*
X151907463Y-82003249D01*
X152046751Y-82142537D01*
X152156189Y-82306322D01*
X152231571Y-82488311D01*
X152270000Y-82681509D01*
X152270000Y-82878491D01*
X152231571Y-83071689D01*
X152156189Y-83253678D01*
X152046751Y-83417463D01*
X151907463Y-83556751D01*
X151743678Y-83666189D01*
X151561689Y-83741571D01*
X151445770Y-83764628D01*
X151368493Y-83780000D01*
X151171507Y-83780000D01*
X151094230Y-83764628D01*
X150978311Y-83741571D01*
X150796322Y-83666189D01*
X150632537Y-83556751D01*
X150493249Y-83417463D01*
X150383811Y-83253678D01*
X150308429Y-83071689D01*
X150270000Y-82878491D01*
X150270000Y-82681509D01*
X150308429Y-82488311D01*
X150383811Y-82306322D01*
X150493249Y-82142537D01*
X150632537Y-82003249D01*
X150796322Y-81893811D01*
X150978311Y-81818429D01*
X151094230Y-81795372D01*
X151171507Y-81780000D01*
X151368493Y-81780000D01*
X151445770Y-81795372D01*
X151445770Y-81795372D01*
G37*
G36*
X146365770Y-81795372D02*
X146481689Y-81818429D01*
X146663678Y-81893811D01*
X146827463Y-82003249D01*
X146966751Y-82142537D01*
X147076189Y-82306322D01*
X147151571Y-82488311D01*
X147190000Y-82681509D01*
X147190000Y-82878491D01*
X147151571Y-83071689D01*
X147076189Y-83253678D01*
X146966751Y-83417463D01*
X146827463Y-83556751D01*
X146663678Y-83666189D01*
X146481689Y-83741571D01*
X146365770Y-83764628D01*
X146288493Y-83780000D01*
X146091507Y-83780000D01*
X146014230Y-83764628D01*
X145898311Y-83741571D01*
X145716322Y-83666189D01*
X145552537Y-83556751D01*
X145413249Y-83417463D01*
X145303811Y-83253678D01*
X145228429Y-83071689D01*
X145190000Y-82878491D01*
X145190000Y-82681509D01*
X145228429Y-82488311D01*
X145303811Y-82306322D01*
X145413249Y-82142537D01*
X145552537Y-82003249D01*
X145716322Y-81893811D01*
X145898311Y-81818429D01*
X146014230Y-81795372D01*
X146091507Y-81780000D01*
X146288493Y-81780000D01*
X146365770Y-81795372D01*
X146365770Y-81795372D01*
G37*
G36*
X143825770Y-81795372D02*
X143941689Y-81818429D01*
X144123678Y-81893811D01*
X144287463Y-82003249D01*
X144426751Y-82142537D01*
X144536189Y-82306322D01*
X144611571Y-82488311D01*
X144650000Y-82681509D01*
X144650000Y-82878491D01*
X144611571Y-83071689D01*
X144536189Y-83253678D01*
X144426751Y-83417463D01*
X144287463Y-83556751D01*
X144123678Y-83666189D01*
X143941689Y-83741571D01*
X143825770Y-83764628D01*
X143748493Y-83780000D01*
X143551507Y-83780000D01*
X143474230Y-83764628D01*
X143358311Y-83741571D01*
X143176322Y-83666189D01*
X143012537Y-83556751D01*
X142873249Y-83417463D01*
X142763811Y-83253678D01*
X142688429Y-83071689D01*
X142650000Y-82878491D01*
X142650000Y-82681509D01*
X142688429Y-82488311D01*
X142763811Y-82306322D01*
X142873249Y-82142537D01*
X143012537Y-82003249D01*
X143176322Y-81893811D01*
X143358311Y-81818429D01*
X143474230Y-81795372D01*
X143551507Y-81780000D01*
X143748493Y-81780000D01*
X143825770Y-81795372D01*
X143825770Y-81795372D01*
G37*
G36*
X141285770Y-81795372D02*
X141401689Y-81818429D01*
X141583678Y-81893811D01*
X141747463Y-82003249D01*
X141886751Y-82142537D01*
X141996189Y-82306322D01*
X142071571Y-82488311D01*
X142110000Y-82681509D01*
X142110000Y-82878491D01*
X142071571Y-83071689D01*
X141996189Y-83253678D01*
X141886751Y-83417463D01*
X141747463Y-83556751D01*
X141583678Y-83666189D01*
X141401689Y-83741571D01*
X141285770Y-83764628D01*
X141208493Y-83780000D01*
X141011507Y-83780000D01*
X140934230Y-83764628D01*
X140818311Y-83741571D01*
X140636322Y-83666189D01*
X140472537Y-83556751D01*
X140333249Y-83417463D01*
X140223811Y-83253678D01*
X140148429Y-83071689D01*
X140110000Y-82878491D01*
X140110000Y-82681509D01*
X140148429Y-82488311D01*
X140223811Y-82306322D01*
X140333249Y-82142537D01*
X140472537Y-82003249D01*
X140636322Y-81893811D01*
X140818311Y-81818429D01*
X140934230Y-81795372D01*
X141011507Y-81780000D01*
X141208493Y-81780000D01*
X141285770Y-81795372D01*
X141285770Y-81795372D01*
G37*
G36*
X138745770Y-81795372D02*
X138861689Y-81818429D01*
X139043678Y-81893811D01*
X139207463Y-82003249D01*
X139346751Y-82142537D01*
X139456189Y-82306322D01*
X139531571Y-82488311D01*
X139570000Y-82681509D01*
X139570000Y-82878491D01*
X139531571Y-83071689D01*
X139456189Y-83253678D01*
X139346751Y-83417463D01*
X139207463Y-83556751D01*
X139043678Y-83666189D01*
X138861689Y-83741571D01*
X138745770Y-83764628D01*
X138668493Y-83780000D01*
X138471507Y-83780000D01*
X138394230Y-83764628D01*
X138278311Y-83741571D01*
X138096322Y-83666189D01*
X137932537Y-83556751D01*
X137793249Y-83417463D01*
X137683811Y-83253678D01*
X137608429Y-83071689D01*
X137570000Y-82878491D01*
X137570000Y-82681509D01*
X137608429Y-82488311D01*
X137683811Y-82306322D01*
X137793249Y-82142537D01*
X137932537Y-82003249D01*
X138096322Y-81893811D01*
X138278311Y-81818429D01*
X138394230Y-81795372D01*
X138471507Y-81780000D01*
X138668493Y-81780000D01*
X138745770Y-81795372D01*
X138745770Y-81795372D01*
G37*
G36*
X136205770Y-81795372D02*
X136321689Y-81818429D01*
X136503678Y-81893811D01*
X136667463Y-82003249D01*
X136806751Y-82142537D01*
X136916189Y-82306322D01*
X136991571Y-82488311D01*
X137030000Y-82681509D01*
X137030000Y-82878491D01*
X136991571Y-83071689D01*
X136916189Y-83253678D01*
X136806751Y-83417463D01*
X136667463Y-83556751D01*
X136503678Y-83666189D01*
X136321689Y-83741571D01*
X136205770Y-83764628D01*
X136128493Y-83780000D01*
X135931507Y-83780000D01*
X135854230Y-83764628D01*
X135738311Y-83741571D01*
X135556322Y-83666189D01*
X135392537Y-83556751D01*
X135253249Y-83417463D01*
X135143811Y-83253678D01*
X135068429Y-83071689D01*
X135030000Y-82878491D01*
X135030000Y-82681509D01*
X135068429Y-82488311D01*
X135143811Y-82306322D01*
X135253249Y-82142537D01*
X135392537Y-82003249D01*
X135556322Y-81893811D01*
X135738311Y-81818429D01*
X135854230Y-81795372D01*
X135931507Y-81780000D01*
X136128493Y-81780000D01*
X136205770Y-81795372D01*
X136205770Y-81795372D01*
G37*
G36*
X133665770Y-81795372D02*
X133781689Y-81818429D01*
X133963678Y-81893811D01*
X134127463Y-82003249D01*
X134266751Y-82142537D01*
X134376189Y-82306322D01*
X134451571Y-82488311D01*
X134490000Y-82681509D01*
X134490000Y-82878491D01*
X134451571Y-83071689D01*
X134376189Y-83253678D01*
X134266751Y-83417463D01*
X134127463Y-83556751D01*
X133963678Y-83666189D01*
X133781689Y-83741571D01*
X133665770Y-83764628D01*
X133588493Y-83780000D01*
X133391507Y-83780000D01*
X133314230Y-83764628D01*
X133198311Y-83741571D01*
X133016322Y-83666189D01*
X132852537Y-83556751D01*
X132713249Y-83417463D01*
X132603811Y-83253678D01*
X132528429Y-83071689D01*
X132490000Y-82878491D01*
X132490000Y-82681509D01*
X132528429Y-82488311D01*
X132603811Y-82306322D01*
X132713249Y-82142537D01*
X132852537Y-82003249D01*
X133016322Y-81893811D01*
X133198311Y-81818429D01*
X133314230Y-81795372D01*
X133391507Y-81780000D01*
X133588493Y-81780000D01*
X133665770Y-81795372D01*
X133665770Y-81795372D01*
G37*
G36*
X131125770Y-81795372D02*
X131241689Y-81818429D01*
X131423678Y-81893811D01*
X131587463Y-82003249D01*
X131726751Y-82142537D01*
X131836189Y-82306322D01*
X131911571Y-82488311D01*
X131950000Y-82681509D01*
X131950000Y-82878491D01*
X131911571Y-83071689D01*
X131836189Y-83253678D01*
X131726751Y-83417463D01*
X131587463Y-83556751D01*
X131423678Y-83666189D01*
X131241689Y-83741571D01*
X131125770Y-83764628D01*
X131048493Y-83780000D01*
X130851507Y-83780000D01*
X130774230Y-83764628D01*
X130658311Y-83741571D01*
X130476322Y-83666189D01*
X130312537Y-83556751D01*
X130173249Y-83417463D01*
X130063811Y-83253678D01*
X129988429Y-83071689D01*
X129950000Y-82878491D01*
X129950000Y-82681509D01*
X129988429Y-82488311D01*
X130063811Y-82306322D01*
X130173249Y-82142537D01*
X130312537Y-82003249D01*
X130476322Y-81893811D01*
X130658311Y-81818429D01*
X130774230Y-81795372D01*
X130851507Y-81780000D01*
X131048493Y-81780000D01*
X131125770Y-81795372D01*
X131125770Y-81795372D01*
G37*
G36*
X171765770Y-81795372D02*
X171881689Y-81818429D01*
X172063678Y-81893811D01*
X172227463Y-82003249D01*
X172366751Y-82142537D01*
X172476189Y-82306322D01*
X172551571Y-82488311D01*
X172590000Y-82681509D01*
X172590000Y-82878491D01*
X172551571Y-83071689D01*
X172476189Y-83253678D01*
X172366751Y-83417463D01*
X172227463Y-83556751D01*
X172063678Y-83666189D01*
X171881689Y-83741571D01*
X171765770Y-83764628D01*
X171688493Y-83780000D01*
X171491507Y-83780000D01*
X171414230Y-83764628D01*
X171298311Y-83741571D01*
X171116322Y-83666189D01*
X170952537Y-83556751D01*
X170813249Y-83417463D01*
X170703811Y-83253678D01*
X170628429Y-83071689D01*
X170590000Y-82878491D01*
X170590000Y-82681509D01*
X170628429Y-82488311D01*
X170703811Y-82306322D01*
X170813249Y-82142537D01*
X170952537Y-82003249D01*
X171116322Y-81893811D01*
X171298311Y-81818429D01*
X171414230Y-81795372D01*
X171491507Y-81780000D01*
X171688493Y-81780000D01*
X171765770Y-81795372D01*
X171765770Y-81795372D01*
G37*
G36*
X128585770Y-81795372D02*
X128701689Y-81818429D01*
X128883678Y-81893811D01*
X129047463Y-82003249D01*
X129186751Y-82142537D01*
X129296189Y-82306322D01*
X129371571Y-82488311D01*
X129410000Y-82681509D01*
X129410000Y-82878491D01*
X129371571Y-83071689D01*
X129296189Y-83253678D01*
X129186751Y-83417463D01*
X129047463Y-83556751D01*
X128883678Y-83666189D01*
X128701689Y-83741571D01*
X128585770Y-83764628D01*
X128508493Y-83780000D01*
X128311507Y-83780000D01*
X128234230Y-83764628D01*
X128118311Y-83741571D01*
X127936322Y-83666189D01*
X127772537Y-83556751D01*
X127633249Y-83417463D01*
X127523811Y-83253678D01*
X127448429Y-83071689D01*
X127410000Y-82878491D01*
X127410000Y-82681509D01*
X127448429Y-82488311D01*
X127523811Y-82306322D01*
X127633249Y-82142537D01*
X127772537Y-82003249D01*
X127936322Y-81893811D01*
X128118311Y-81818429D01*
X128234230Y-81795372D01*
X128311507Y-81780000D01*
X128508493Y-81780000D01*
X128585770Y-81795372D01*
X128585770Y-81795372D01*
G37*
G36*
X151006327Y-71182581D02*
X151634187Y-71442649D01*
X152199250Y-71820212D01*
X152679788Y-72300750D01*
X153057351Y-72865813D01*
X153317419Y-73493673D01*
X153450000Y-74160203D01*
X153450000Y-74839797D01*
X153317419Y-75506327D01*
X153057351Y-76134187D01*
X152679788Y-76699250D01*
X152199250Y-77179788D01*
X151634187Y-77557351D01*
X151006327Y-77817419D01*
X150339797Y-77950000D01*
X149660203Y-77950000D01*
X148993673Y-77817419D01*
X148365813Y-77557351D01*
X147800750Y-77179788D01*
X147320212Y-76699250D01*
X146942649Y-76134187D01*
X146682581Y-75506327D01*
X146550000Y-74839797D01*
X146550000Y-74160203D01*
X146682581Y-73493673D01*
X146942649Y-72865813D01*
X147320212Y-72300750D01*
X147800750Y-71820212D01*
X148365813Y-71442649D01*
X148993673Y-71182581D01*
X149660203Y-71050000D01*
X150339797Y-71050000D01*
X151006327Y-71182581D01*
X151006327Y-71182581D01*
G37*
G36*
X107517649Y-54207717D02*
X107556827Y-54211576D01*
X107632227Y-54234448D01*
X107707629Y-54257321D01*
X107846608Y-54331608D01*
X107968422Y-54431578D01*
X108068392Y-54553392D01*
X108142679Y-54692371D01*
X108188424Y-54843174D01*
X108203870Y-55000000D01*
X108188424Y-55156826D01*
X108142679Y-55307628D01*
X108127623Y-55335796D01*
X108118246Y-55358435D01*
X108113466Y-55382469D01*
X108113466Y-55406973D01*
X108118247Y-55431006D01*
X108127624Y-55453645D01*
X108141238Y-55474020D01*
X108158565Y-55491347D01*
X108178940Y-55504961D01*
X108201579Y-55514338D01*
X108225613Y-55519118D01*
X108250117Y-55519118D01*
X108274150Y-55514337D01*
X108287576Y-55508776D01*
X108292371Y-55507321D01*
X108292372Y-55507321D01*
X108443173Y-55461576D01*
X108482351Y-55457717D01*
X108560705Y-55450000D01*
X109439295Y-55450000D01*
X109517649Y-55457717D01*
X109556827Y-55461576D01*
X109632227Y-55484448D01*
X109707629Y-55507321D01*
X109846608Y-55581608D01*
X109968422Y-55681578D01*
X110068392Y-55803392D01*
X110142679Y-55942371D01*
X110188424Y-56093174D01*
X110203870Y-56250000D01*
X110188424Y-56406826D01*
X110142679Y-56557629D01*
X110068392Y-56696608D01*
X109968422Y-56818422D01*
X109846608Y-56918392D01*
X109707629Y-56992679D01*
X109654972Y-57008652D01*
X109556827Y-57038424D01*
X109517649Y-57042283D01*
X109439295Y-57050000D01*
X108560705Y-57050000D01*
X108482351Y-57042283D01*
X108443173Y-57038424D01*
X108345028Y-57008652D01*
X108287581Y-56991226D01*
X108274153Y-56985663D01*
X108250119Y-56980882D01*
X108225615Y-56980882D01*
X108201582Y-56985662D01*
X108178942Y-56995038D01*
X108158567Y-57008652D01*
X108141240Y-57025978D01*
X108127625Y-57046353D01*
X108118247Y-57068991D01*
X108113466Y-57093025D01*
X108113466Y-57117529D01*
X108118246Y-57141562D01*
X108127623Y-57164204D01*
X108142679Y-57192372D01*
X108188424Y-57343174D01*
X108203870Y-57500000D01*
X108188424Y-57656826D01*
X108142679Y-57807628D01*
X108127623Y-57835796D01*
X108118246Y-57858435D01*
X108113466Y-57882469D01*
X108113466Y-57906973D01*
X108118247Y-57931006D01*
X108127624Y-57953645D01*
X108141238Y-57974020D01*
X108158565Y-57991347D01*
X108178940Y-58004961D01*
X108201579Y-58014338D01*
X108225613Y-58019118D01*
X108250117Y-58019118D01*
X108274150Y-58014337D01*
X108287576Y-58008776D01*
X108292371Y-58007321D01*
X108292372Y-58007321D01*
X108443173Y-57961576D01*
X108482351Y-57957717D01*
X108560705Y-57950000D01*
X109439295Y-57950000D01*
X109517649Y-57957717D01*
X109556827Y-57961576D01*
X109632228Y-57984449D01*
X109707629Y-58007321D01*
X109846608Y-58081608D01*
X109968422Y-58181578D01*
X110068392Y-58303392D01*
X110142679Y-58442371D01*
X110188424Y-58593174D01*
X110203870Y-58750000D01*
X110188424Y-58906826D01*
X110142679Y-59057629D01*
X110068392Y-59196608D01*
X109968422Y-59318422D01*
X109846608Y-59418392D01*
X109707629Y-59492679D01*
X109654972Y-59508652D01*
X109556827Y-59538424D01*
X109517649Y-59542283D01*
X109439295Y-59550000D01*
X108560705Y-59550000D01*
X108482351Y-59542283D01*
X108443173Y-59538424D01*
X108345028Y-59508652D01*
X108287581Y-59491226D01*
X108274153Y-59485663D01*
X108250119Y-59480882D01*
X108225615Y-59480882D01*
X108201582Y-59485662D01*
X108178942Y-59495038D01*
X108158567Y-59508652D01*
X108141240Y-59525978D01*
X108127625Y-59546353D01*
X108118247Y-59568991D01*
X108113466Y-59593025D01*
X108113466Y-59617529D01*
X108118246Y-59641562D01*
X108127623Y-59664204D01*
X108142679Y-59692372D01*
X108188424Y-59843174D01*
X108203870Y-60000000D01*
X108188424Y-60156826D01*
X108142679Y-60307628D01*
X108127623Y-60335796D01*
X108118246Y-60358435D01*
X108113466Y-60382469D01*
X108113466Y-60406973D01*
X108118247Y-60431006D01*
X108127624Y-60453645D01*
X108141238Y-60474020D01*
X108158565Y-60491347D01*
X108178940Y-60504961D01*
X108201579Y-60514338D01*
X108225613Y-60519118D01*
X108250117Y-60519118D01*
X108274150Y-60514337D01*
X108287576Y-60508776D01*
X108292371Y-60507321D01*
X108292372Y-60507321D01*
X108443173Y-60461576D01*
X108482351Y-60457717D01*
X108560705Y-60450000D01*
X109439295Y-60450000D01*
X109517649Y-60457717D01*
X109556827Y-60461576D01*
X109632228Y-60484449D01*
X109707629Y-60507321D01*
X109846608Y-60581608D01*
X109968422Y-60681578D01*
X110068392Y-60803392D01*
X110142679Y-60942371D01*
X110188424Y-61093174D01*
X110203870Y-61250000D01*
X110188424Y-61406826D01*
X110142679Y-61557629D01*
X110068392Y-61696608D01*
X109968422Y-61818422D01*
X109846608Y-61918392D01*
X109707629Y-61992679D01*
X109654972Y-62008652D01*
X109556827Y-62038424D01*
X109517649Y-62042283D01*
X109439295Y-62050000D01*
X108560705Y-62050000D01*
X108482351Y-62042283D01*
X108443173Y-62038424D01*
X108345028Y-62008652D01*
X108287581Y-61991226D01*
X108274153Y-61985663D01*
X108250119Y-61980882D01*
X108225615Y-61980882D01*
X108201582Y-61985662D01*
X108178942Y-61995038D01*
X108158567Y-62008652D01*
X108141240Y-62025978D01*
X108127625Y-62046353D01*
X108118247Y-62068991D01*
X108113466Y-62093025D01*
X108113466Y-62117529D01*
X108118246Y-62141562D01*
X108127623Y-62164204D01*
X108142679Y-62192372D01*
X108188424Y-62343174D01*
X108203870Y-62500000D01*
X108188424Y-62656826D01*
X108142679Y-62807628D01*
X108127623Y-62835796D01*
X108118246Y-62858435D01*
X108113466Y-62882469D01*
X108113466Y-62906973D01*
X108118247Y-62931006D01*
X108127624Y-62953645D01*
X108141238Y-62974020D01*
X108158565Y-62991347D01*
X108178940Y-63004961D01*
X108201579Y-63014338D01*
X108225613Y-63019118D01*
X108250117Y-63019118D01*
X108274150Y-63014337D01*
X108287576Y-63008776D01*
X108292371Y-63007321D01*
X108292372Y-63007321D01*
X108443173Y-62961576D01*
X108482351Y-62957717D01*
X108560705Y-62950000D01*
X109439295Y-62950000D01*
X109517649Y-62957717D01*
X109556827Y-62961576D01*
X109632227Y-62984448D01*
X109707629Y-63007321D01*
X109846608Y-63081608D01*
X109968422Y-63181578D01*
X110068392Y-63303392D01*
X110142679Y-63442371D01*
X110188424Y-63593174D01*
X110203870Y-63750000D01*
X110188424Y-63906826D01*
X110142679Y-64057629D01*
X110068392Y-64196608D01*
X109968422Y-64318422D01*
X109846608Y-64418392D01*
X109707629Y-64492679D01*
X109654972Y-64508652D01*
X109556827Y-64538424D01*
X109517649Y-64542283D01*
X109439295Y-64550000D01*
X108560705Y-64550000D01*
X108482351Y-64542283D01*
X108443173Y-64538424D01*
X108345028Y-64508652D01*
X108287581Y-64491226D01*
X108274153Y-64485663D01*
X108250119Y-64480882D01*
X108225615Y-64480882D01*
X108201582Y-64485662D01*
X108178942Y-64495038D01*
X108158567Y-64508652D01*
X108141240Y-64525978D01*
X108127625Y-64546353D01*
X108118247Y-64568991D01*
X108113466Y-64593025D01*
X108113466Y-64617529D01*
X108118246Y-64641562D01*
X108127623Y-64664204D01*
X108142679Y-64692372D01*
X108188424Y-64843174D01*
X108203870Y-65000000D01*
X108188424Y-65156826D01*
X108142679Y-65307628D01*
X108127623Y-65335796D01*
X108118246Y-65358435D01*
X108113466Y-65382469D01*
X108113466Y-65406973D01*
X108118247Y-65431006D01*
X108127624Y-65453645D01*
X108141238Y-65474020D01*
X108158565Y-65491347D01*
X108178940Y-65504961D01*
X108201579Y-65514338D01*
X108225613Y-65519118D01*
X108250117Y-65519118D01*
X108274150Y-65514337D01*
X108287576Y-65508776D01*
X108292371Y-65507321D01*
X108292372Y-65507321D01*
X108443173Y-65461576D01*
X108482351Y-65457717D01*
X108560705Y-65450000D01*
X109439295Y-65450000D01*
X109517649Y-65457717D01*
X109556827Y-65461576D01*
X109632227Y-65484448D01*
X109707629Y-65507321D01*
X109846608Y-65581608D01*
X109968422Y-65681578D01*
X110068392Y-65803392D01*
X110142679Y-65942371D01*
X110188424Y-66093174D01*
X110203870Y-66250000D01*
X110188424Y-66406826D01*
X110142679Y-66557629D01*
X110068392Y-66696608D01*
X109968422Y-66818422D01*
X109846608Y-66918392D01*
X109707629Y-66992679D01*
X109654972Y-67008652D01*
X109556827Y-67038424D01*
X109517649Y-67042283D01*
X109439295Y-67050000D01*
X108560705Y-67050000D01*
X108482351Y-67042283D01*
X108443173Y-67038424D01*
X108345028Y-67008652D01*
X108287581Y-66991226D01*
X108274153Y-66985663D01*
X108250119Y-66980882D01*
X108225615Y-66980882D01*
X108201582Y-66985662D01*
X108178942Y-66995038D01*
X108158567Y-67008652D01*
X108141240Y-67025978D01*
X108127625Y-67046353D01*
X108118247Y-67068991D01*
X108113466Y-67093025D01*
X108113466Y-67117529D01*
X108118246Y-67141562D01*
X108127623Y-67164204D01*
X108142679Y-67192372D01*
X108188424Y-67343174D01*
X108203870Y-67500000D01*
X108188424Y-67656826D01*
X108142679Y-67807628D01*
X108127623Y-67835796D01*
X108118246Y-67858435D01*
X108113466Y-67882469D01*
X108113466Y-67906973D01*
X108118247Y-67931006D01*
X108127624Y-67953645D01*
X108141238Y-67974020D01*
X108158565Y-67991347D01*
X108178940Y-68004961D01*
X108201579Y-68014338D01*
X108225613Y-68019118D01*
X108250117Y-68019118D01*
X108274150Y-68014337D01*
X108287576Y-68008776D01*
X108292371Y-68007321D01*
X108292372Y-68007321D01*
X108443173Y-67961576D01*
X108482351Y-67957717D01*
X108560705Y-67950000D01*
X109439295Y-67950000D01*
X109517649Y-67957717D01*
X109556827Y-67961576D01*
X109632228Y-67984449D01*
X109707629Y-68007321D01*
X109846608Y-68081608D01*
X109968422Y-68181578D01*
X110068392Y-68303392D01*
X110142679Y-68442371D01*
X110188424Y-68593174D01*
X110203870Y-68750000D01*
X110188424Y-68906826D01*
X110142679Y-69057629D01*
X110068392Y-69196608D01*
X109968422Y-69318422D01*
X109846608Y-69418392D01*
X109707629Y-69492679D01*
X109654972Y-69508652D01*
X109556827Y-69538424D01*
X109517649Y-69542283D01*
X109439295Y-69550000D01*
X108560705Y-69550000D01*
X108482351Y-69542283D01*
X108443173Y-69538424D01*
X108345028Y-69508652D01*
X108287581Y-69491226D01*
X108274153Y-69485663D01*
X108250119Y-69480882D01*
X108225615Y-69480882D01*
X108201582Y-69485662D01*
X108178942Y-69495038D01*
X108158567Y-69508652D01*
X108141240Y-69525978D01*
X108127625Y-69546353D01*
X108118247Y-69568991D01*
X108113466Y-69593025D01*
X108113466Y-69617529D01*
X108118246Y-69641562D01*
X108127623Y-69664204D01*
X108142679Y-69692372D01*
X108188424Y-69843174D01*
X108203870Y-70000000D01*
X108188424Y-70156826D01*
X108142679Y-70307629D01*
X108068392Y-70446608D01*
X107968422Y-70568422D01*
X107846608Y-70668392D01*
X107707629Y-70742679D01*
X107632228Y-70765551D01*
X107556827Y-70788424D01*
X107517649Y-70792283D01*
X107439295Y-70800000D01*
X106560705Y-70800000D01*
X106482351Y-70792283D01*
X106443173Y-70788424D01*
X106367772Y-70765551D01*
X106292371Y-70742679D01*
X106153392Y-70668392D01*
X106031578Y-70568422D01*
X105931608Y-70446608D01*
X105857321Y-70307629D01*
X105811576Y-70156826D01*
X105796130Y-70000000D01*
X105811576Y-69843174D01*
X105857321Y-69692371D01*
X105931608Y-69553392D01*
X106031578Y-69431578D01*
X106153392Y-69331608D01*
X106292371Y-69257321D01*
X106367772Y-69234449D01*
X106443173Y-69211576D01*
X106482351Y-69207717D01*
X106560705Y-69200000D01*
X107439295Y-69200000D01*
X107517649Y-69207717D01*
X107556827Y-69211576D01*
X107597849Y-69224020D01*
X107712419Y-69258774D01*
X107725847Y-69264337D01*
X107749881Y-69269118D01*
X107774385Y-69269118D01*
X107798418Y-69264338D01*
X107821058Y-69254962D01*
X107841433Y-69241348D01*
X107858760Y-69224022D01*
X107872375Y-69203647D01*
X107881753Y-69181009D01*
X107886534Y-69156975D01*
X107886534Y-69132471D01*
X107881754Y-69108438D01*
X107872377Y-69085796D01*
X107857321Y-69057628D01*
X107811576Y-68906826D01*
X107796130Y-68750000D01*
X107811576Y-68593174D01*
X107857321Y-68442372D01*
X107872377Y-68414204D01*
X107881754Y-68391565D01*
X107886534Y-68367531D01*
X107886534Y-68343027D01*
X107881753Y-68318994D01*
X107872376Y-68296355D01*
X107858762Y-68275980D01*
X107841435Y-68258653D01*
X107821060Y-68245039D01*
X107798421Y-68235662D01*
X107774387Y-68230882D01*
X107749883Y-68230882D01*
X107725850Y-68235663D01*
X107712424Y-68241224D01*
X107707629Y-68242679D01*
X107707628Y-68242679D01*
X107556827Y-68288424D01*
X107517649Y-68292283D01*
X107439295Y-68300000D01*
X106560705Y-68300000D01*
X106482351Y-68292283D01*
X106443173Y-68288424D01*
X106345028Y-68258652D01*
X106292371Y-68242679D01*
X106153392Y-68168392D01*
X106031578Y-68068422D01*
X105931608Y-67946608D01*
X105857321Y-67807629D01*
X105811576Y-67656826D01*
X105796130Y-67500000D01*
X105811576Y-67343174D01*
X105857321Y-67192371D01*
X105931608Y-67053392D01*
X106031578Y-66931578D01*
X106153392Y-66831608D01*
X106292371Y-66757321D01*
X106367773Y-66734448D01*
X106443173Y-66711576D01*
X106482351Y-66707717D01*
X106560705Y-66700000D01*
X107439295Y-66700000D01*
X107517649Y-66707717D01*
X107556827Y-66711576D01*
X107597849Y-66724020D01*
X107712419Y-66758774D01*
X107725847Y-66764337D01*
X107749881Y-66769118D01*
X107774385Y-66769118D01*
X107798418Y-66764338D01*
X107821058Y-66754962D01*
X107841433Y-66741348D01*
X107858760Y-66724022D01*
X107872375Y-66703647D01*
X107881753Y-66681009D01*
X107886534Y-66656975D01*
X107886534Y-66632471D01*
X107881754Y-66608438D01*
X107872377Y-66585796D01*
X107857321Y-66557628D01*
X107811576Y-66406826D01*
X107796130Y-66250000D01*
X107811576Y-66093174D01*
X107857321Y-65942372D01*
X107872377Y-65914204D01*
X107881754Y-65891565D01*
X107886534Y-65867531D01*
X107886534Y-65843027D01*
X107881753Y-65818994D01*
X107872376Y-65796355D01*
X107858762Y-65775980D01*
X107841435Y-65758653D01*
X107821060Y-65745039D01*
X107798421Y-65735662D01*
X107774387Y-65730882D01*
X107749883Y-65730882D01*
X107725850Y-65735663D01*
X107712424Y-65741224D01*
X107707629Y-65742679D01*
X107707628Y-65742679D01*
X107556827Y-65788424D01*
X107517649Y-65792283D01*
X107439295Y-65800000D01*
X106560705Y-65800000D01*
X106482351Y-65792283D01*
X106443173Y-65788424D01*
X106345028Y-65758652D01*
X106292371Y-65742679D01*
X106153392Y-65668392D01*
X106031578Y-65568422D01*
X105931608Y-65446608D01*
X105857321Y-65307629D01*
X105811576Y-65156826D01*
X105796130Y-65000000D01*
X105811576Y-64843174D01*
X105857321Y-64692371D01*
X105931608Y-64553392D01*
X106031578Y-64431578D01*
X106153392Y-64331608D01*
X106292371Y-64257321D01*
X106367773Y-64234448D01*
X106443173Y-64211576D01*
X106482351Y-64207717D01*
X106560705Y-64200000D01*
X107439295Y-64200000D01*
X107517649Y-64207717D01*
X107556827Y-64211576D01*
X107597849Y-64224020D01*
X107712419Y-64258774D01*
X107725847Y-64264337D01*
X107749881Y-64269118D01*
X107774385Y-64269118D01*
X107798418Y-64264338D01*
X107821058Y-64254962D01*
X107841433Y-64241348D01*
X107858760Y-64224022D01*
X107872375Y-64203647D01*
X107881753Y-64181009D01*
X107886534Y-64156975D01*
X107886534Y-64132471D01*
X107881754Y-64108438D01*
X107872377Y-64085796D01*
X107857321Y-64057628D01*
X107811576Y-63906826D01*
X107796130Y-63750000D01*
X107811576Y-63593174D01*
X107857321Y-63442372D01*
X107872377Y-63414204D01*
X107881754Y-63391565D01*
X107886534Y-63367531D01*
X107886534Y-63343027D01*
X107881753Y-63318994D01*
X107872376Y-63296355D01*
X107858762Y-63275980D01*
X107841435Y-63258653D01*
X107821060Y-63245039D01*
X107798421Y-63235662D01*
X107774387Y-63230882D01*
X107749883Y-63230882D01*
X107725850Y-63235663D01*
X107712424Y-63241224D01*
X107707629Y-63242679D01*
X107707628Y-63242679D01*
X107556827Y-63288424D01*
X107517649Y-63292283D01*
X107439295Y-63300000D01*
X106560705Y-63300000D01*
X106482351Y-63292283D01*
X106443173Y-63288424D01*
X106345028Y-63258652D01*
X106292371Y-63242679D01*
X106153392Y-63168392D01*
X106031578Y-63068422D01*
X105931608Y-62946608D01*
X105857321Y-62807629D01*
X105811576Y-62656826D01*
X105796130Y-62500000D01*
X105811576Y-62343174D01*
X105857321Y-62192371D01*
X105931608Y-62053392D01*
X106031578Y-61931578D01*
X106153392Y-61831608D01*
X106292371Y-61757321D01*
X106367773Y-61734448D01*
X106443173Y-61711576D01*
X106482351Y-61707717D01*
X106560705Y-61700000D01*
X107439295Y-61700000D01*
X107517649Y-61707717D01*
X107556827Y-61711576D01*
X107597849Y-61724020D01*
X107712419Y-61758774D01*
X107725847Y-61764337D01*
X107749881Y-61769118D01*
X107774385Y-61769118D01*
X107798418Y-61764338D01*
X107821058Y-61754962D01*
X107841433Y-61741348D01*
X107858760Y-61724022D01*
X107872375Y-61703647D01*
X107881753Y-61681009D01*
X107886534Y-61656975D01*
X107886534Y-61632471D01*
X107881754Y-61608438D01*
X107872377Y-61585796D01*
X107857321Y-61557628D01*
X107811576Y-61406826D01*
X107796130Y-61250000D01*
X107811576Y-61093174D01*
X107857321Y-60942372D01*
X107872377Y-60914204D01*
X107881754Y-60891565D01*
X107886534Y-60867531D01*
X107886534Y-60843027D01*
X107881753Y-60818994D01*
X107872376Y-60796355D01*
X107858762Y-60775980D01*
X107841435Y-60758653D01*
X107821060Y-60745039D01*
X107798421Y-60735662D01*
X107774387Y-60730882D01*
X107749883Y-60730882D01*
X107725850Y-60735663D01*
X107712424Y-60741224D01*
X107707629Y-60742679D01*
X107707628Y-60742679D01*
X107556827Y-60788424D01*
X107517649Y-60792283D01*
X107439295Y-60800000D01*
X106560705Y-60800000D01*
X106482351Y-60792283D01*
X106443173Y-60788424D01*
X106345028Y-60758652D01*
X106292371Y-60742679D01*
X106153392Y-60668392D01*
X106031578Y-60568422D01*
X105931608Y-60446608D01*
X105857321Y-60307629D01*
X105811576Y-60156826D01*
X105796130Y-60000000D01*
X105811576Y-59843174D01*
X105857321Y-59692371D01*
X105931608Y-59553392D01*
X106031578Y-59431578D01*
X106153392Y-59331608D01*
X106292371Y-59257321D01*
X106367772Y-59234449D01*
X106443173Y-59211576D01*
X106482351Y-59207717D01*
X106560705Y-59200000D01*
X107439295Y-59200000D01*
X107517649Y-59207717D01*
X107556827Y-59211576D01*
X107597849Y-59224020D01*
X107712419Y-59258774D01*
X107725847Y-59264337D01*
X107749881Y-59269118D01*
X107774385Y-59269118D01*
X107798418Y-59264338D01*
X107821058Y-59254962D01*
X107841433Y-59241348D01*
X107858760Y-59224022D01*
X107872375Y-59203647D01*
X107881753Y-59181009D01*
X107886534Y-59156975D01*
X107886534Y-59132471D01*
X107881754Y-59108438D01*
X107872377Y-59085796D01*
X107857321Y-59057628D01*
X107811576Y-58906826D01*
X107796130Y-58750000D01*
X107811576Y-58593174D01*
X107857321Y-58442372D01*
X107872377Y-58414204D01*
X107881754Y-58391565D01*
X107886534Y-58367531D01*
X107886534Y-58343027D01*
X107881753Y-58318994D01*
X107872376Y-58296355D01*
X107858762Y-58275980D01*
X107841435Y-58258653D01*
X107821060Y-58245039D01*
X107798421Y-58235662D01*
X107774387Y-58230882D01*
X107749883Y-58230882D01*
X107725850Y-58235663D01*
X107712424Y-58241224D01*
X107707629Y-58242679D01*
X107707628Y-58242679D01*
X107556827Y-58288424D01*
X107517649Y-58292283D01*
X107439295Y-58300000D01*
X106560705Y-58300000D01*
X106482351Y-58292283D01*
X106443173Y-58288424D01*
X106345028Y-58258652D01*
X106292371Y-58242679D01*
X106153392Y-58168392D01*
X106031578Y-58068422D01*
X105931608Y-57946608D01*
X105857321Y-57807629D01*
X105811576Y-57656826D01*
X105796130Y-57500000D01*
X105811576Y-57343174D01*
X105857321Y-57192371D01*
X105931608Y-57053392D01*
X106031578Y-56931578D01*
X106153392Y-56831608D01*
X106292371Y-56757321D01*
X106367772Y-56734449D01*
X106443173Y-56711576D01*
X106482351Y-56707717D01*
X106560705Y-56700000D01*
X107439295Y-56700000D01*
X107517649Y-56707717D01*
X107556827Y-56711576D01*
X107597849Y-56724020D01*
X107712419Y-56758774D01*
X107725847Y-56764337D01*
X107749881Y-56769118D01*
X107774385Y-56769118D01*
X107798418Y-56764338D01*
X107821058Y-56754962D01*
X107841433Y-56741348D01*
X107858760Y-56724022D01*
X107872375Y-56703647D01*
X107881753Y-56681009D01*
X107886534Y-56656975D01*
X107886534Y-56632471D01*
X107881754Y-56608438D01*
X107872377Y-56585796D01*
X107857321Y-56557628D01*
X107811576Y-56406826D01*
X107796130Y-56250000D01*
X107811576Y-56093174D01*
X107857321Y-55942372D01*
X107872377Y-55914204D01*
X107881754Y-55891565D01*
X107886534Y-55867531D01*
X107886534Y-55843027D01*
X107881753Y-55818994D01*
X107872376Y-55796355D01*
X107858762Y-55775980D01*
X107841435Y-55758653D01*
X107821060Y-55745039D01*
X107798421Y-55735662D01*
X107774387Y-55730882D01*
X107749883Y-55730882D01*
X107725850Y-55735663D01*
X107712424Y-55741224D01*
X107707629Y-55742679D01*
X107707628Y-55742679D01*
X107556827Y-55788424D01*
X107517649Y-55792283D01*
X107439295Y-55800000D01*
X106560705Y-55800000D01*
X106482351Y-55792283D01*
X106443173Y-55788424D01*
X106345028Y-55758652D01*
X106292371Y-55742679D01*
X106153392Y-55668392D01*
X106031578Y-55568422D01*
X105931608Y-55446608D01*
X105857321Y-55307629D01*
X105811576Y-55156826D01*
X105796130Y-55000000D01*
X105811576Y-54843174D01*
X105857321Y-54692371D01*
X105931608Y-54553392D01*
X106031578Y-54431578D01*
X106153392Y-54331608D01*
X106292371Y-54257321D01*
X106367773Y-54234448D01*
X106443173Y-54211576D01*
X106482351Y-54207717D01*
X106560705Y-54200000D01*
X107439295Y-54200000D01*
X107517649Y-54207717D01*
X107517649Y-54207717D01*
G37*
G36*
X193417649Y-54207717D02*
X193456827Y-54211576D01*
X193532227Y-54234448D01*
X193607629Y-54257321D01*
X193746608Y-54331608D01*
X193868422Y-54431578D01*
X193968392Y-54553392D01*
X194042679Y-54692371D01*
X194088424Y-54843174D01*
X194103870Y-55000000D01*
X194088424Y-55156826D01*
X194042679Y-55307629D01*
X193968392Y-55446608D01*
X193868422Y-55568422D01*
X193746608Y-55668392D01*
X193607629Y-55742679D01*
X193554972Y-55758652D01*
X193456827Y-55788424D01*
X193417649Y-55792283D01*
X193339295Y-55800000D01*
X192460705Y-55800000D01*
X192382351Y-55792283D01*
X192343173Y-55788424D01*
X192245028Y-55758652D01*
X192187581Y-55741226D01*
X192174153Y-55735663D01*
X192150119Y-55730882D01*
X192125615Y-55730882D01*
X192101582Y-55735662D01*
X192078942Y-55745038D01*
X192058567Y-55758652D01*
X192041240Y-55775978D01*
X192027625Y-55796353D01*
X192018247Y-55818991D01*
X192013466Y-55843025D01*
X192013466Y-55867529D01*
X192018246Y-55891562D01*
X192027623Y-55914204D01*
X192042679Y-55942372D01*
X192088424Y-56093174D01*
X192103870Y-56250000D01*
X192088424Y-56406826D01*
X192042679Y-56557628D01*
X192027623Y-56585796D01*
X192018246Y-56608435D01*
X192013466Y-56632469D01*
X192013466Y-56656973D01*
X192018247Y-56681006D01*
X192027624Y-56703645D01*
X192041238Y-56724020D01*
X192058565Y-56741347D01*
X192078940Y-56754961D01*
X192101579Y-56764338D01*
X192125613Y-56769118D01*
X192150117Y-56769118D01*
X192174150Y-56764337D01*
X192187576Y-56758776D01*
X192192371Y-56757321D01*
X192192372Y-56757321D01*
X192343173Y-56711576D01*
X192382351Y-56707717D01*
X192460705Y-56700000D01*
X193339295Y-56700000D01*
X193417649Y-56707717D01*
X193456827Y-56711576D01*
X193532228Y-56734449D01*
X193607629Y-56757321D01*
X193746608Y-56831608D01*
X193868422Y-56931578D01*
X193968392Y-57053392D01*
X194042679Y-57192371D01*
X194088424Y-57343174D01*
X194103870Y-57500000D01*
X194088424Y-57656826D01*
X194042679Y-57807629D01*
X193968392Y-57946608D01*
X193868422Y-58068422D01*
X193746608Y-58168392D01*
X193607629Y-58242679D01*
X193554972Y-58258652D01*
X193456827Y-58288424D01*
X193417649Y-58292283D01*
X193339295Y-58300000D01*
X192460705Y-58300000D01*
X192382351Y-58292283D01*
X192343173Y-58288424D01*
X192245028Y-58258652D01*
X192187581Y-58241226D01*
X192174153Y-58235663D01*
X192150119Y-58230882D01*
X192125615Y-58230882D01*
X192101582Y-58235662D01*
X192078942Y-58245038D01*
X192058567Y-58258652D01*
X192041240Y-58275978D01*
X192027625Y-58296353D01*
X192018247Y-58318991D01*
X192013466Y-58343025D01*
X192013466Y-58367529D01*
X192018246Y-58391562D01*
X192027623Y-58414204D01*
X192042679Y-58442372D01*
X192088424Y-58593174D01*
X192103870Y-58750000D01*
X192088424Y-58906826D01*
X192042679Y-59057628D01*
X192027623Y-59085796D01*
X192018246Y-59108435D01*
X192013466Y-59132469D01*
X192013466Y-59156973D01*
X192018247Y-59181006D01*
X192027624Y-59203645D01*
X192041238Y-59224020D01*
X192058565Y-59241347D01*
X192078940Y-59254961D01*
X192101579Y-59264338D01*
X192125613Y-59269118D01*
X192150117Y-59269118D01*
X192174150Y-59264337D01*
X192187576Y-59258776D01*
X192192371Y-59257321D01*
X192192372Y-59257321D01*
X192343173Y-59211576D01*
X192382351Y-59207717D01*
X192460705Y-59200000D01*
X193339295Y-59200000D01*
X193417649Y-59207717D01*
X193456827Y-59211576D01*
X193532228Y-59234449D01*
X193607629Y-59257321D01*
X193746608Y-59331608D01*
X193868422Y-59431578D01*
X193968392Y-59553392D01*
X194042679Y-59692371D01*
X194088424Y-59843174D01*
X194103870Y-60000000D01*
X194088424Y-60156826D01*
X194042679Y-60307629D01*
X193968392Y-60446608D01*
X193868422Y-60568422D01*
X193746608Y-60668392D01*
X193607629Y-60742679D01*
X193554972Y-60758652D01*
X193456827Y-60788424D01*
X193417649Y-60792283D01*
X193339295Y-60800000D01*
X192460705Y-60800000D01*
X192382351Y-60792283D01*
X192343173Y-60788424D01*
X192245028Y-60758652D01*
X192187581Y-60741226D01*
X192174153Y-60735663D01*
X192150119Y-60730882D01*
X192125615Y-60730882D01*
X192101582Y-60735662D01*
X192078942Y-60745038D01*
X192058567Y-60758652D01*
X192041240Y-60775978D01*
X192027625Y-60796353D01*
X192018247Y-60818991D01*
X192013466Y-60843025D01*
X192013466Y-60867529D01*
X192018246Y-60891562D01*
X192027623Y-60914204D01*
X192042679Y-60942372D01*
X192088424Y-61093174D01*
X192103870Y-61250000D01*
X192088424Y-61406826D01*
X192042679Y-61557628D01*
X192027623Y-61585796D01*
X192018246Y-61608435D01*
X192013466Y-61632469D01*
X192013466Y-61656973D01*
X192018247Y-61681006D01*
X192027624Y-61703645D01*
X192041238Y-61724020D01*
X192058565Y-61741347D01*
X192078940Y-61754961D01*
X192101579Y-61764338D01*
X192125613Y-61769118D01*
X192150117Y-61769118D01*
X192174150Y-61764337D01*
X192187576Y-61758776D01*
X192192371Y-61757321D01*
X192192372Y-61757321D01*
X192343173Y-61711576D01*
X192382351Y-61707717D01*
X192460705Y-61700000D01*
X193339295Y-61700000D01*
X193417649Y-61707717D01*
X193456827Y-61711576D01*
X193532227Y-61734448D01*
X193607629Y-61757321D01*
X193746608Y-61831608D01*
X193868422Y-61931578D01*
X193968392Y-62053392D01*
X194042679Y-62192371D01*
X194088424Y-62343174D01*
X194103870Y-62500000D01*
X194088424Y-62656826D01*
X194042679Y-62807629D01*
X193968392Y-62946608D01*
X193868422Y-63068422D01*
X193746608Y-63168392D01*
X193607629Y-63242679D01*
X193554972Y-63258652D01*
X193456827Y-63288424D01*
X193417649Y-63292283D01*
X193339295Y-63300000D01*
X192460705Y-63300000D01*
X192382351Y-63292283D01*
X192343173Y-63288424D01*
X192245028Y-63258652D01*
X192187581Y-63241226D01*
X192174153Y-63235663D01*
X192150119Y-63230882D01*
X192125615Y-63230882D01*
X192101582Y-63235662D01*
X192078942Y-63245038D01*
X192058567Y-63258652D01*
X192041240Y-63275978D01*
X192027625Y-63296353D01*
X192018247Y-63318991D01*
X192013466Y-63343025D01*
X192013466Y-63367529D01*
X192018246Y-63391562D01*
X192027623Y-63414204D01*
X192042679Y-63442372D01*
X192088424Y-63593174D01*
X192103870Y-63750000D01*
X192088424Y-63906826D01*
X192042679Y-64057628D01*
X192027623Y-64085796D01*
X192018246Y-64108435D01*
X192013466Y-64132469D01*
X192013466Y-64156973D01*
X192018247Y-64181006D01*
X192027624Y-64203645D01*
X192041238Y-64224020D01*
X192058565Y-64241347D01*
X192078940Y-64254961D01*
X192101579Y-64264338D01*
X192125613Y-64269118D01*
X192150117Y-64269118D01*
X192174150Y-64264337D01*
X192187576Y-64258776D01*
X192192371Y-64257321D01*
X192192372Y-64257321D01*
X192343173Y-64211576D01*
X192382351Y-64207717D01*
X192460705Y-64200000D01*
X193339295Y-64200000D01*
X193417649Y-64207717D01*
X193456827Y-64211576D01*
X193532227Y-64234448D01*
X193607629Y-64257321D01*
X193746608Y-64331608D01*
X193868422Y-64431578D01*
X193968392Y-64553392D01*
X194042679Y-64692371D01*
X194088424Y-64843174D01*
X194103870Y-65000000D01*
X194088424Y-65156826D01*
X194042679Y-65307629D01*
X193968392Y-65446608D01*
X193868422Y-65568422D01*
X193746608Y-65668392D01*
X193607629Y-65742679D01*
X193554972Y-65758652D01*
X193456827Y-65788424D01*
X193417649Y-65792283D01*
X193339295Y-65800000D01*
X192460705Y-65800000D01*
X192382351Y-65792283D01*
X192343173Y-65788424D01*
X192245028Y-65758652D01*
X192187581Y-65741226D01*
X192174153Y-65735663D01*
X192150119Y-65730882D01*
X192125615Y-65730882D01*
X192101582Y-65735662D01*
X192078942Y-65745038D01*
X192058567Y-65758652D01*
X192041240Y-65775978D01*
X192027625Y-65796353D01*
X192018247Y-65818991D01*
X192013466Y-65843025D01*
X192013466Y-65867529D01*
X192018246Y-65891562D01*
X192027623Y-65914204D01*
X192042679Y-65942372D01*
X192088424Y-66093174D01*
X192103870Y-66250000D01*
X192088424Y-66406826D01*
X192042679Y-66557628D01*
X192027623Y-66585796D01*
X192018246Y-66608435D01*
X192013466Y-66632469D01*
X192013466Y-66656973D01*
X192018247Y-66681006D01*
X192027624Y-66703645D01*
X192041238Y-66724020D01*
X192058565Y-66741347D01*
X192078940Y-66754961D01*
X192101579Y-66764338D01*
X192125613Y-66769118D01*
X192150117Y-66769118D01*
X192174150Y-66764337D01*
X192187576Y-66758776D01*
X192192371Y-66757321D01*
X192192372Y-66757321D01*
X192343173Y-66711576D01*
X192382351Y-66707717D01*
X192460705Y-66700000D01*
X193339295Y-66700000D01*
X193417649Y-66707717D01*
X193456827Y-66711576D01*
X193532227Y-66734448D01*
X193607629Y-66757321D01*
X193746608Y-66831608D01*
X193868422Y-66931578D01*
X193968392Y-67053392D01*
X194042679Y-67192371D01*
X194088424Y-67343174D01*
X194103870Y-67500000D01*
X194088424Y-67656826D01*
X194042679Y-67807629D01*
X193968392Y-67946608D01*
X193868422Y-68068422D01*
X193746608Y-68168392D01*
X193607629Y-68242679D01*
X193554972Y-68258652D01*
X193456827Y-68288424D01*
X193417649Y-68292283D01*
X193339295Y-68300000D01*
X192460705Y-68300000D01*
X192382351Y-68292283D01*
X192343173Y-68288424D01*
X192245028Y-68258652D01*
X192187581Y-68241226D01*
X192174153Y-68235663D01*
X192150119Y-68230882D01*
X192125615Y-68230882D01*
X192101582Y-68235662D01*
X192078942Y-68245038D01*
X192058567Y-68258652D01*
X192041240Y-68275978D01*
X192027625Y-68296353D01*
X192018247Y-68318991D01*
X192013466Y-68343025D01*
X192013466Y-68367529D01*
X192018246Y-68391562D01*
X192027623Y-68414204D01*
X192042679Y-68442372D01*
X192088424Y-68593174D01*
X192103870Y-68750000D01*
X192088424Y-68906826D01*
X192042679Y-69057628D01*
X192027623Y-69085796D01*
X192018246Y-69108435D01*
X192013466Y-69132469D01*
X192013466Y-69156973D01*
X192018247Y-69181006D01*
X192027624Y-69203645D01*
X192041238Y-69224020D01*
X192058565Y-69241347D01*
X192078940Y-69254961D01*
X192101579Y-69264338D01*
X192125613Y-69269118D01*
X192150117Y-69269118D01*
X192174150Y-69264337D01*
X192187576Y-69258776D01*
X192192371Y-69257321D01*
X192192372Y-69257321D01*
X192343173Y-69211576D01*
X192382351Y-69207717D01*
X192460705Y-69200000D01*
X193339295Y-69200000D01*
X193417649Y-69207717D01*
X193456827Y-69211576D01*
X193532228Y-69234449D01*
X193607629Y-69257321D01*
X193746608Y-69331608D01*
X193868422Y-69431578D01*
X193968392Y-69553392D01*
X194042679Y-69692371D01*
X194088424Y-69843174D01*
X194103870Y-70000000D01*
X194088424Y-70156826D01*
X194042679Y-70307629D01*
X193968392Y-70446608D01*
X193868422Y-70568422D01*
X193746608Y-70668392D01*
X193607629Y-70742679D01*
X193532228Y-70765551D01*
X193456827Y-70788424D01*
X193417649Y-70792283D01*
X193339295Y-70800000D01*
X192460705Y-70800000D01*
X192382351Y-70792283D01*
X192343173Y-70788424D01*
X192267772Y-70765551D01*
X192192371Y-70742679D01*
X192053392Y-70668392D01*
X191931578Y-70568422D01*
X191831608Y-70446608D01*
X191757321Y-70307629D01*
X191711576Y-70156826D01*
X191696130Y-70000000D01*
X191711576Y-69843174D01*
X191757321Y-69692372D01*
X191772377Y-69664204D01*
X191781754Y-69641565D01*
X191786534Y-69617531D01*
X191786534Y-69593027D01*
X191781753Y-69568994D01*
X191772376Y-69546355D01*
X191758762Y-69525980D01*
X191741435Y-69508653D01*
X191721060Y-69495039D01*
X191698421Y-69485662D01*
X191674387Y-69480882D01*
X191649883Y-69480882D01*
X191625850Y-69485663D01*
X191612424Y-69491224D01*
X191607629Y-69492679D01*
X191607628Y-69492679D01*
X191456827Y-69538424D01*
X191417649Y-69542283D01*
X191339295Y-69550000D01*
X190460705Y-69550000D01*
X190382351Y-69542283D01*
X190343173Y-69538424D01*
X190245028Y-69508652D01*
X190192371Y-69492679D01*
X190053392Y-69418392D01*
X189931578Y-69318422D01*
X189831608Y-69196608D01*
X189757321Y-69057629D01*
X189711576Y-68906826D01*
X189696130Y-68750000D01*
X189711576Y-68593174D01*
X189757321Y-68442371D01*
X189831608Y-68303392D01*
X189931578Y-68181578D01*
X190053392Y-68081608D01*
X190192371Y-68007321D01*
X190267772Y-67984449D01*
X190343173Y-67961576D01*
X190382351Y-67957717D01*
X190460705Y-67950000D01*
X191339295Y-67950000D01*
X191417649Y-67957717D01*
X191456827Y-67961576D01*
X191497849Y-67974020D01*
X191612419Y-68008774D01*
X191625847Y-68014337D01*
X191649881Y-68019118D01*
X191674385Y-68019118D01*
X191698418Y-68014338D01*
X191721058Y-68004962D01*
X191741433Y-67991348D01*
X191758760Y-67974022D01*
X191772375Y-67953647D01*
X191781753Y-67931009D01*
X191786534Y-67906975D01*
X191786534Y-67882471D01*
X191781754Y-67858438D01*
X191772377Y-67835796D01*
X191757321Y-67807628D01*
X191711576Y-67656826D01*
X191696130Y-67500000D01*
X191711576Y-67343174D01*
X191757321Y-67192372D01*
X191772377Y-67164204D01*
X191781754Y-67141565D01*
X191786534Y-67117531D01*
X191786534Y-67093027D01*
X191781753Y-67068994D01*
X191772376Y-67046355D01*
X191758762Y-67025980D01*
X191741435Y-67008653D01*
X191721060Y-66995039D01*
X191698421Y-66985662D01*
X191674387Y-66980882D01*
X191649883Y-66980882D01*
X191625850Y-66985663D01*
X191612424Y-66991224D01*
X191607629Y-66992679D01*
X191607628Y-66992679D01*
X191456827Y-67038424D01*
X191417649Y-67042283D01*
X191339295Y-67050000D01*
X190460705Y-67050000D01*
X190382351Y-67042283D01*
X190343173Y-67038424D01*
X190245028Y-67008652D01*
X190192371Y-66992679D01*
X190053392Y-66918392D01*
X189931578Y-66818422D01*
X189831608Y-66696608D01*
X189757321Y-66557629D01*
X189711576Y-66406826D01*
X189696130Y-66250000D01*
X189711576Y-66093174D01*
X189757321Y-65942371D01*
X189831608Y-65803392D01*
X189931578Y-65681578D01*
X190053392Y-65581608D01*
X190192371Y-65507321D01*
X190267773Y-65484448D01*
X190343173Y-65461576D01*
X190382351Y-65457717D01*
X190460705Y-65450000D01*
X191339295Y-65450000D01*
X191417649Y-65457717D01*
X191456827Y-65461576D01*
X191497849Y-65474020D01*
X191612419Y-65508774D01*
X191625847Y-65514337D01*
X191649881Y-65519118D01*
X191674385Y-65519118D01*
X191698418Y-65514338D01*
X191721058Y-65504962D01*
X191741433Y-65491348D01*
X191758760Y-65474022D01*
X191772375Y-65453647D01*
X191781753Y-65431009D01*
X191786534Y-65406975D01*
X191786534Y-65382471D01*
X191781754Y-65358438D01*
X191772377Y-65335796D01*
X191757321Y-65307628D01*
X191711576Y-65156826D01*
X191696130Y-65000000D01*
X191711576Y-64843174D01*
X191757321Y-64692372D01*
X191772377Y-64664204D01*
X191781754Y-64641565D01*
X191786534Y-64617531D01*
X191786534Y-64593027D01*
X191781753Y-64568994D01*
X191772376Y-64546355D01*
X191758762Y-64525980D01*
X191741435Y-64508653D01*
X191721060Y-64495039D01*
X191698421Y-64485662D01*
X191674387Y-64480882D01*
X191649883Y-64480882D01*
X191625850Y-64485663D01*
X191612424Y-64491224D01*
X191607629Y-64492679D01*
X191607628Y-64492679D01*
X191456827Y-64538424D01*
X191417649Y-64542283D01*
X191339295Y-64550000D01*
X190460705Y-64550000D01*
X190382351Y-64542283D01*
X190343173Y-64538424D01*
X190245028Y-64508652D01*
X190192371Y-64492679D01*
X190053392Y-64418392D01*
X189931578Y-64318422D01*
X189831608Y-64196608D01*
X189757321Y-64057629D01*
X189711576Y-63906826D01*
X189696130Y-63750000D01*
X189711576Y-63593174D01*
X189757321Y-63442371D01*
X189831608Y-63303392D01*
X189931578Y-63181578D01*
X190053392Y-63081608D01*
X190192371Y-63007321D01*
X190267773Y-62984448D01*
X190343173Y-62961576D01*
X190382351Y-62957717D01*
X190460705Y-62950000D01*
X191339295Y-62950000D01*
X191417649Y-62957717D01*
X191456827Y-62961576D01*
X191497849Y-62974020D01*
X191612419Y-63008774D01*
X191625847Y-63014337D01*
X191649881Y-63019118D01*
X191674385Y-63019118D01*
X191698418Y-63014338D01*
X191721058Y-63004962D01*
X191741433Y-62991348D01*
X191758760Y-62974022D01*
X191772375Y-62953647D01*
X191781753Y-62931009D01*
X191786534Y-62906975D01*
X191786534Y-62882471D01*
X191781754Y-62858438D01*
X191772377Y-62835796D01*
X191757321Y-62807628D01*
X191711576Y-62656826D01*
X191696130Y-62500000D01*
X191711576Y-62343174D01*
X191757321Y-62192372D01*
X191772377Y-62164204D01*
X191781754Y-62141565D01*
X191786534Y-62117531D01*
X191786534Y-62093027D01*
X191781753Y-62068994D01*
X191772376Y-62046355D01*
X191758762Y-62025980D01*
X191741435Y-62008653D01*
X191721060Y-61995039D01*
X191698421Y-61985662D01*
X191674387Y-61980882D01*
X191649883Y-61980882D01*
X191625850Y-61985663D01*
X191612424Y-61991224D01*
X191607629Y-61992679D01*
X191607628Y-61992679D01*
X191456827Y-62038424D01*
X191417649Y-62042283D01*
X191339295Y-62050000D01*
X190460705Y-62050000D01*
X190382351Y-62042283D01*
X190343173Y-62038424D01*
X190245028Y-62008652D01*
X190192371Y-61992679D01*
X190053392Y-61918392D01*
X189931578Y-61818422D01*
X189831608Y-61696608D01*
X189757321Y-61557629D01*
X189711576Y-61406826D01*
X189696130Y-61250000D01*
X189711576Y-61093174D01*
X189757321Y-60942371D01*
X189831608Y-60803392D01*
X189931578Y-60681578D01*
X190053392Y-60581608D01*
X190192371Y-60507321D01*
X190267772Y-60484449D01*
X190343173Y-60461576D01*
X190382351Y-60457717D01*
X190460705Y-60450000D01*
X191339295Y-60450000D01*
X191417649Y-60457717D01*
X191456827Y-60461576D01*
X191497849Y-60474020D01*
X191612419Y-60508774D01*
X191625847Y-60514337D01*
X191649881Y-60519118D01*
X191674385Y-60519118D01*
X191698418Y-60514338D01*
X191721058Y-60504962D01*
X191741433Y-60491348D01*
X191758760Y-60474022D01*
X191772375Y-60453647D01*
X191781753Y-60431009D01*
X191786534Y-60406975D01*
X191786534Y-60382471D01*
X191781754Y-60358438D01*
X191772377Y-60335796D01*
X191757321Y-60307628D01*
X191711576Y-60156826D01*
X191696130Y-60000000D01*
X191711576Y-59843174D01*
X191757321Y-59692372D01*
X191772377Y-59664204D01*
X191781754Y-59641565D01*
X191786534Y-59617531D01*
X191786534Y-59593027D01*
X191781753Y-59568994D01*
X191772376Y-59546355D01*
X191758762Y-59525980D01*
X191741435Y-59508653D01*
X191721060Y-59495039D01*
X191698421Y-59485662D01*
X191674387Y-59480882D01*
X191649883Y-59480882D01*
X191625850Y-59485663D01*
X191612424Y-59491224D01*
X191607629Y-59492679D01*
X191607628Y-59492679D01*
X191456827Y-59538424D01*
X191417649Y-59542283D01*
X191339295Y-59550000D01*
X190460705Y-59550000D01*
X190382351Y-59542283D01*
X190343173Y-59538424D01*
X190245028Y-59508652D01*
X190192371Y-59492679D01*
X190053392Y-59418392D01*
X189931578Y-59318422D01*
X189831608Y-59196608D01*
X189757321Y-59057629D01*
X189711576Y-58906826D01*
X189696130Y-58750000D01*
X189711576Y-58593174D01*
X189757321Y-58442371D01*
X189831608Y-58303392D01*
X189931578Y-58181578D01*
X190053392Y-58081608D01*
X190192371Y-58007321D01*
X190267773Y-57984448D01*
X190343173Y-57961576D01*
X190382351Y-57957717D01*
X190460705Y-57950000D01*
X191339295Y-57950000D01*
X191417649Y-57957717D01*
X191456827Y-57961576D01*
X191497849Y-57974020D01*
X191612419Y-58008774D01*
X191625847Y-58014337D01*
X191649881Y-58019118D01*
X191674385Y-58019118D01*
X191698418Y-58014338D01*
X191721058Y-58004962D01*
X191741433Y-57991348D01*
X191758760Y-57974022D01*
X191772375Y-57953647D01*
X191781753Y-57931009D01*
X191786534Y-57906975D01*
X191786534Y-57882471D01*
X191781754Y-57858438D01*
X191772377Y-57835796D01*
X191757321Y-57807628D01*
X191711576Y-57656826D01*
X191696130Y-57500000D01*
X191711576Y-57343174D01*
X191757321Y-57192372D01*
X191772377Y-57164204D01*
X191781754Y-57141565D01*
X191786534Y-57117531D01*
X191786534Y-57093027D01*
X191781753Y-57068994D01*
X191772376Y-57046355D01*
X191758762Y-57025980D01*
X191741435Y-57008653D01*
X191721060Y-56995039D01*
X191698421Y-56985662D01*
X191674387Y-56980882D01*
X191649883Y-56980882D01*
X191625850Y-56985663D01*
X191612424Y-56991224D01*
X191607629Y-56992679D01*
X191607628Y-56992679D01*
X191456827Y-57038424D01*
X191417649Y-57042283D01*
X191339295Y-57050000D01*
X190460705Y-57050000D01*
X190382351Y-57042283D01*
X190343173Y-57038424D01*
X190245028Y-57008652D01*
X190192371Y-56992679D01*
X190053392Y-56918392D01*
X189931578Y-56818422D01*
X189831608Y-56696608D01*
X189757321Y-56557629D01*
X189711576Y-56406826D01*
X189696130Y-56250000D01*
X189711576Y-56093174D01*
X189757321Y-55942371D01*
X189831608Y-55803392D01*
X189931578Y-55681578D01*
X190053392Y-55581608D01*
X190192371Y-55507321D01*
X190267772Y-55484449D01*
X190343173Y-55461576D01*
X190382351Y-55457717D01*
X190460705Y-55450000D01*
X191339295Y-55450000D01*
X191417649Y-55457717D01*
X191456827Y-55461576D01*
X191497849Y-55474020D01*
X191612419Y-55508774D01*
X191625847Y-55514337D01*
X191649881Y-55519118D01*
X191674385Y-55519118D01*
X191698418Y-55514338D01*
X191721058Y-55504962D01*
X191741433Y-55491348D01*
X191758760Y-55474022D01*
X191772375Y-55453647D01*
X191781753Y-55431009D01*
X191786534Y-55406975D01*
X191786534Y-55382471D01*
X191781754Y-55358438D01*
X191772377Y-55335796D01*
X191757321Y-55307628D01*
X191711576Y-55156826D01*
X191696130Y-55000000D01*
X191711576Y-54843174D01*
X191757321Y-54692371D01*
X191831608Y-54553392D01*
X191931578Y-54431578D01*
X192053392Y-54331608D01*
X192192371Y-54257321D01*
X192267773Y-54234448D01*
X192343173Y-54211576D01*
X192382351Y-54207717D01*
X192460705Y-54200000D01*
X193339295Y-54200000D01*
X193417649Y-54207717D01*
X193417649Y-54207717D01*
G37*
M02*
